<svg width="500" height="500" viewBox="0 0 500 500" fill="none" xmlns="http://www.w3.org/2000/svg">
<path d="M250 477.02C373.382 477.02 473.403 418.269 473.403 345.796C473.403 273.323 373.382 214.572 250 214.572C126.618 214.572 26.5967 273.323 26.5967 345.796C26.5967 418.269 126.618 477.02 250 477.02Z" fill="#F5F5F5"/>
<path d="M93.9653 345.907C106.892 353.37 106.892 365.471 93.9653 372.935C81.0383 380.399 60.0793 380.399 47.1523 372.935C34.2253 365.472 34.2253 353.371 47.1523 345.907C60.0793 338.444 81.0383 338.444 93.9653 345.907Z" fill="#E0E0E0"/>
<path d="M122.336 363.06L239.6 430.762C241.991 432.143 245.869 432.143 248.26 430.762L446.764 316.156C449.155 314.775 449.155 312.537 446.764 311.156L329.5 243.454C327.108 242.073 323.231 242.073 320.84 243.454L122.336 358.06C119.945 359.441 119.945 361.679 122.336 363.06Z" fill="#E0E0E0"/>
<path d="M418.277 291.877L410.107 287.156C410.107 287.156 405.245 266.953 407.182 248.773C409.906 223.214 423.661 212.078 433.128 215.801C439.425 218.277 441.378 225.443 430.793 240.665C424.548 249.647 416.875 268.355 418.277 291.877Z" fill="#27DEBF"/>
<g opacity="0.3">
<path d="M418.277 291.877L410.107 287.156C410.107 287.156 405.245 266.953 407.182 248.773C409.906 223.214 423.661 212.078 433.128 215.801C439.425 218.277 441.378 225.443 430.793 240.665C424.548 249.647 416.875 268.355 418.277 291.877Z" fill="black"/>
</g>
<path d="M414.892 281.951C414.918 281.95 414.944 281.946 414.97 281.941C415.277 281.882 415.48 281.586 415.421 281.279C410.943 257.705 419.178 231.214 429.376 220.19C429.588 219.961 429.574 219.601 429.344 219.389C429.114 219.179 428.756 219.19 428.543 219.42C418.159 230.644 409.763 257.567 414.307 281.489C414.361 281.772 414.615 281.965 414.892 281.951Z" fill="white"/>
<path d="M439.677 304.236C440.967 304.893 444.4 301.955 445.356 301.241C446.994 300.018 448.286 298.338 449.106 296.471C450.061 294.298 450.214 292.012 449.763 289.684C449.529 288.477 449.129 287.308 448.73 286.145C448.338 285.003 447.947 283.86 447.555 282.718C447.169 281.591 446.777 280.425 446.868 279.237C447.052 276.844 449.079 275.071 450.926 273.537C452.968 271.841 455.072 269.632 454.916 266.769C454.795 264.561 453.548 262.567 452.091 260.902C450.634 259.237 448.933 257.788 447.603 256.02C446.646 254.747 445.873 253.235 445.938 251.644C445.978 250.655 446.339 249.708 446.767 248.816C447.684 246.901 448.932 245.126 449.528 243.088C450.124 241.05 449.899 238.564 448.264 237.21C446.922 236.098 445.007 236.03 443.276 236.233C441.675 236.42 440.142 237.224 438.775 238.077C434.357 240.834 432.034 246.348 427.309 248.536C425.487 249.38 423.457 249.647 421.543 250.257C419.629 250.867 417.702 251.958 416.895 253.796C415.303 257.421 418.808 261.614 417.753 265.431C416.819 268.808 413.655 270.243 411.994 273.328C411.267 274.678 411.161 276.2 411.365 277.72C411.712 280.291 412.185 282.167 413.569 284.976C414.713 287.297 417.933 291.685 417.933 291.685C417.933 291.685 439.48 304.135 439.677 304.236Z" fill="#27DEBF"/>
<g opacity="0.15">
<path d="M439.677 304.236C440.967 304.893 444.4 301.955 445.356 301.241C446.994 300.018 448.286 298.338 449.106 296.471C450.061 294.298 450.214 292.012 449.763 289.684C449.529 288.477 449.129 287.308 448.73 286.145C448.338 285.003 447.947 283.86 447.555 282.718C447.169 281.591 446.777 280.425 446.868 279.237C447.052 276.844 449.079 275.071 450.926 273.537C452.968 271.841 455.072 269.632 454.916 266.769C454.795 264.561 453.548 262.567 452.091 260.902C450.634 259.237 448.933 257.788 447.603 256.02C446.646 254.747 445.873 253.235 445.938 251.644C445.978 250.655 446.339 249.708 446.767 248.816C447.684 246.901 448.932 245.126 449.528 243.088C450.124 241.05 449.899 238.564 448.264 237.21C446.922 236.098 445.007 236.03 443.276 236.233C441.675 236.42 440.142 237.224 438.775 238.077C434.357 240.834 432.034 246.348 427.309 248.536C425.487 249.38 423.457 249.647 421.543 250.257C419.629 250.867 417.702 251.958 416.895 253.796C415.303 257.421 418.808 261.614 417.753 265.431C416.819 268.808 413.655 270.243 411.994 273.328C411.267 274.678 411.161 276.2 411.365 277.72C411.712 280.291 412.185 282.167 413.569 284.976C414.713 287.297 417.933 291.685 417.933 291.685C417.933 291.685 439.48 304.135 439.677 304.236Z" fill="black"/>
</g>
<path d="M427.172 297.718C427.18 297.718 427.188 297.717 427.188 297.717C427.508 297.688 427.737 297.411 427.709 297.1C425.641 274.677 434.977 249.337 442.312 241.741C442.529 241.516 442.523 241.157 442.298 240.939C442.072 240.722 441.714 240.729 441.496 240.953C434.013 248.701 424.482 274.465 426.579 297.203C426.608 297.509 426.871 297.733 427.172 297.718Z" fill="white"/>
<path d="M429.4 270.071C429.455 270.068 429.511 270.057 429.566 270.037C436.673 267.441 445.65 266.594 445.74 266.586C446.052 266.557 446.281 266.281 446.253 265.969C446.224 265.658 445.975 265.423 445.636 265.456C445.544 265.465 436.424 266.325 429.177 268.972C428.883 269.079 428.731 269.404 428.839 269.698C428.927 269.939 429.158 270.083 429.4 270.071Z" fill="white"/>
<path d="M126.345 350.617C126.345 353.576 128.56 357.253 131.292 358.83L238.982 421.017C241.714 422.594 246.143 422.594 248.875 421.017L438.504 311.534C441.236 309.957 443.45 306.279 443.451 303.32C443.451 300.361 441.237 296.683 438.505 295.106L330.815 232.919C328.083 231.342 323.654 231.342 320.923 232.919L131.29 342.403C128.559 343.98 126.344 347.658 126.345 350.617Z" fill="#37474F"/>
<path d="M131.289 348.115L238.98 410.302C241.712 411.879 246.141 411.879 248.873 410.302L438.503 300.819C441.235 299.242 441.235 296.685 438.503 295.108L330.813 232.921C328.081 231.344 323.652 231.344 320.921 232.921L131.289 342.403C128.558 343.98 128.558 346.538 131.289 348.115Z" fill="#455A64"/>
<path d="M243.93 411.494V422.197C242.137 422.197 240.343 421.809 238.984 421.02L131.29 358.83C128.56 357.254 126.344 353.575 126.344 350.617C126.344 347.841 128.297 344.437 130.788 342.724C128.572 344.312 128.743 346.642 131.291 348.116L238.985 410.306C240.343 411.094 242.136 411.494 243.93 411.494Z" fill="#263238"/>
<path d="M121.705 342.58C119.143 341.1 119.282 338.602 119.282 335.448L119.281 186.701C119.281 183.547 121.496 179.711 124.227 178.134L313.856 68.651C316.588 67.074 320.88 66.995 323.443 68.474C326.006 69.954 325.867 72.452 325.867 75.606V224.353C325.867 227.507 323.652 231.343 320.921 232.92L131.29 342.403C128.559 343.98 124.267 344.06 121.705 342.58Z" fill="#37474F"/>
<path d="M325.869 75.603C325.869 72.455 323.652 71.178 320.921 72.748L131.288 182.235C129.923 183.024 128.681 184.381 127.794 185.933L120.735 181.827H120.726C121.622 180.275 122.863 178.918 124.229 178.129L313.853 68.65C316.584 67.072 320.876 66.992 323.439 68.473C326.002 69.954 325.869 72.455 325.869 75.603Z" fill="#455A64"/>
<path d="M130.706 342.702C127.976 343.981 124.092 343.959 121.705 342.576C119.146 341.102 119.284 338.603 119.284 335.45V186.697C119.284 185.121 119.832 183.373 120.735 181.831L127.794 185.919V185.93C126.903 187.484 126.343 189.22 126.343 190.796V339.549C126.343 342.473 128.251 343.787 130.706 342.702Z" fill="#263238"/>
<path d="M133.95 187.939L316.778 82.411C318.417 81.465 319.746 82.232 319.746 84.125V213.972C319.746 215.865 318.417 218.166 316.778 219.112L133.95 324.638C132.311 325.584 130.982 324.817 130.982 322.925V193.079C130.982 191.187 132.311 188.885 133.95 187.939Z" fill="#FAFAFA"/>
<path d="M144.979 342.695L320.997 241.073C322.363 240.284 324.577 240.284 325.943 241.073L328.874 242.683C330.24 243.472 330.24 244.75 328.874 245.538L152.829 347.145C151.463 347.934 149.248 347.933 147.882 347.145L144.978 345.551C143.613 344.763 143.613 343.484 144.979 342.695Z" fill="#263238"/>
<path d="M158.784 350.905L334.8 249.281C336.166 248.492 338.189 248.382 339.319 249.035L385.134 275.487C386.264 276.139 386.073 277.307 384.707 278.096L208.896 379.582C207.53 380.37 205.504 380.484 204.371 379.836L158.362 353.508C157.23 352.858 157.418 351.693 158.784 350.905Z" fill="#263238"/>
<path d="M311.304 291.965L316.815 288.784C317.049 288.649 317.07 288.441 316.863 288.321L311.59 285.277C311.382 285.157 311.023 285.169 310.789 285.305L305.278 288.487C305.044 288.622 305.023 288.829 305.231 288.949L310.503 291.993C310.712 292.112 311.07 292.099 311.304 291.965ZM303.258 280.955L297.747 284.137C297.513 284.272 297.492 284.479 297.7 284.599L302.972 287.643C303.18 287.763 303.539 287.75 303.772 287.616L309.283 284.434C309.517 284.299 309.539 284.092 309.331 283.972L304.058 280.928C303.85 280.808 303.492 280.82 303.258 280.955ZM285.453 291.235L276.126 296.62C275.892 296.755 275.871 296.962 276.079 297.082L281.352 300.126C281.56 300.246 281.919 300.234 282.153 300.099L291.479 294.715C291.713 294.58 291.734 294.373 291.526 294.253L286.254 291.209C286.045 291.087 285.687 291.1 285.453 291.235ZM295.203 285.605L289.692 288.787C289.459 288.922 289.437 289.129 289.645 289.249L294.918 292.293C295.126 292.413 295.484 292.401 295.718 292.266L301.229 289.084C301.463 288.949 301.485 288.742 301.277 288.622L296.004 285.578C295.796 285.458 295.437 285.47 295.203 285.605ZM273.583 298.088L268.072 301.27C267.838 301.405 267.817 301.612 268.024 301.732L273.297 304.776C273.505 304.896 273.863 304.884 274.097 304.749L279.608 301.567C279.842 301.432 279.863 301.225 279.655 301.105L274.383 298.061C274.175 297.941 273.817 297.953 273.583 298.088ZM265.528 302.738L260.017 305.92C259.783 306.055 259.762 306.262 259.97 306.382L265.243 309.426C265.451 309.546 265.809 309.534 266.044 309.399L271.555 306.217C271.789 306.082 271.81 305.875 271.602 305.755L266.33 302.711C266.121 302.591 265.762 302.603 265.528 302.738ZM286.194 315.159L291.705 311.977C291.938 311.842 291.96 311.635 291.752 311.515L286.48 308.471C286.272 308.351 285.913 308.363 285.68 308.498L280.169 311.68C279.935 311.815 279.913 312.022 280.121 312.142L285.394 315.186C285.601 315.307 285.96 315.294 286.194 315.159ZM278.139 319.81L283.65 316.629C283.884 316.493 283.905 316.287 283.697 316.166L278.425 313.122C278.217 313.002 277.859 313.014 277.624 313.149L272.113 316.331C271.879 316.466 271.858 316.673 272.065 316.793L277.338 319.837C277.547 319.957 277.905 319.945 278.139 319.81ZM270.085 324.46L275.596 321.278C275.83 321.143 275.851 320.936 275.643 320.816L270.371 317.772C270.163 317.652 269.804 317.664 269.57 317.799L264.059 320.981C263.825 321.116 263.804 321.323 264.012 321.443L269.284 324.487C269.492 324.608 269.85 324.595 270.085 324.46ZM262.03 329.11L267.541 325.928C267.775 325.793 267.796 325.586 267.588 325.466L262.316 322.422C262.108 322.302 261.75 322.314 261.516 322.449L256.005 325.631C255.771 325.766 255.75 325.973 255.958 326.093L261.23 329.137C261.437 329.258 261.796 329.246 262.03 329.11ZM303.25 296.615L308.761 293.433C308.995 293.298 309.016 293.091 308.808 292.971L303.535 289.927C303.327 289.807 302.969 289.82 302.735 289.954L297.224 293.136C296.99 293.271 296.968 293.478 297.176 293.598L302.448 296.642C302.657 296.763 303.016 296.75 303.25 296.615ZM294.249 310.509L306.543 303.411C306.777 303.275 306.798 303.069 306.59 302.949L293.786 295.556C293.578 295.436 293.22 295.448 292.985 295.583L286.626 299.254C286.392 299.389 286.371 299.596 286.578 299.717L293.357 303.631C293.565 303.751 293.543 303.958 293.309 304.093L288.222 307.03C287.988 307.165 287.966 307.372 288.175 307.492L293.448 310.536C293.656 310.656 294.015 310.644 294.249 310.509ZM257.474 307.388L251.963 310.57C251.729 310.705 251.708 310.912 251.916 311.032L257.188 314.076C257.396 314.196 257.754 314.184 257.989 314.049L263.5 310.868C263.734 310.733 263.755 310.526 263.547 310.406L258.275 307.362C258.066 307.241 257.708 307.254 257.474 307.388ZM249.419 312.039L243.908 315.22C243.674 315.355 243.653 315.562 243.861 315.682L249.133 318.726C249.341 318.846 249.7 318.834 249.934 318.699L255.445 315.517C255.679 315.382 255.7 315.175 255.492 315.055L250.219 312.011C250.011 311.892 249.653 311.904 249.419 312.039ZM204.847 361.691C205.055 361.811 205.413 361.798 205.648 361.663L211.159 358.481C211.393 358.346 211.414 358.139 211.206 358.019L205.934 354.975C205.726 354.855 205.367 354.867 205.133 355.002L199.622 358.184C199.388 358.319 199.367 358.526 199.574 358.646L204.847 361.691ZM184.981 349.242L179.47 352.424C179.236 352.559 179.215 352.766 179.423 352.886L184.695 355.929C184.903 356.05 185.261 356.037 185.496 355.902L191.007 352.72C191.241 352.585 191.262 352.378 191.054 352.258L185.782 349.214C185.574 349.095 185.216 349.107 184.981 349.242ZM195.195 358.566C195.403 358.686 195.762 358.674 195.995 358.539L201.507 355.357C201.741 355.222 201.762 355.015 201.554 354.895L196.282 351.851C196.074 351.731 195.716 351.743 195.482 351.878L189.971 355.06C189.737 355.195 189.715 355.402 189.924 355.522L195.195 358.566ZM217.419 363.564L222.93 360.382C223.164 360.247 223.186 360.04 222.978 359.92L217.705 356.876C217.497 356.756 217.139 356.768 216.904 356.904L211.393 360.086C211.159 360.221 211.138 360.428 211.346 360.548L216.618 363.592C216.826 363.711 217.185 363.7 217.419 363.564ZM208.564 368.242C208.772 368.362 209.13 368.35 209.364 368.215L214.875 365.033C215.109 364.898 215.13 364.691 214.923 364.571L209.65 361.527C209.442 361.407 209.084 361.419 208.85 361.554L203.339 364.736C203.105 364.871 203.084 365.078 203.292 365.198L208.564 368.242ZM193.036 344.592L187.525 347.774C187.291 347.909 187.27 348.116 187.478 348.236L192.75 351.28C192.958 351.4 193.316 351.388 193.55 351.253L199.061 348.071C199.295 347.936 199.316 347.729 199.108 347.609L193.836 344.565C193.629 344.444 193.27 344.457 193.036 344.592ZM233.309 321.34L227.798 324.522C227.564 324.657 227.543 324.864 227.751 324.984L233.023 328.028C233.231 328.148 233.589 328.136 233.824 328.001L239.335 324.819C239.569 324.684 239.59 324.477 239.382 324.357L234.109 321.313C233.902 321.192 233.543 321.205 233.309 321.34ZM201.091 339.942L195.58 343.124C195.346 343.259 195.325 343.466 195.533 343.586L200.805 346.63C201.013 346.75 201.371 346.738 201.606 346.603L207.117 343.421C207.351 343.286 207.372 343.079 207.164 342.959L201.892 339.915C201.683 339.794 201.325 339.806 201.091 339.942ZM241.364 316.689L235.853 319.871C235.619 320.006 235.598 320.213 235.806 320.333L241.078 323.377C241.286 323.497 241.644 323.485 241.879 323.35L247.39 320.169C247.624 320.033 247.645 319.827 247.438 319.707L242.165 316.663C241.957 316.542 241.598 316.554 241.364 316.689ZM225.255 325.99L219.744 329.172C219.51 329.307 219.488 329.514 219.696 329.634L224.969 332.678C225.177 332.798 225.535 332.786 225.77 332.651L231.281 329.469C231.515 329.334 231.537 329.127 231.329 329.007L226.056 325.963C225.848 325.843 225.489 325.855 225.255 325.99ZM217.2 330.641L211.689 333.823C211.455 333.958 211.433 334.165 211.641 334.285L216.914 337.329C217.122 337.449 217.48 337.437 217.715 337.302L223.226 334.121C223.46 333.986 223.481 333.779 223.273 333.658L218.001 330.614C217.793 330.493 217.434 330.506 217.2 330.641ZM209.146 335.291L203.635 338.473C203.401 338.608 203.38 338.815 203.587 338.935L208.86 341.979C209.068 342.099 209.426 342.087 209.66 341.952L215.171 338.77C215.405 338.635 215.426 338.428 215.218 338.308L209.946 335.264C209.738 335.144 209.38 335.156 209.146 335.291ZM245.92 338.411L251.431 335.229C251.665 335.094 251.687 334.887 251.479 334.767L246.206 331.723C245.998 331.603 245.64 331.615 245.406 331.751L239.895 334.932C239.661 335.068 239.64 335.274 239.848 335.395L245.12 338.439C245.328 338.559 245.686 338.546 245.92 338.411ZM321.063 270.675L315.552 273.857C315.318 273.992 315.297 274.199 315.504 274.319L320.777 277.363C320.985 277.483 321.343 277.471 321.578 277.336L327.089 274.154C327.323 274.019 327.344 273.812 327.136 273.692L321.864 270.648C321.656 270.528 321.297 270.54 321.063 270.675ZM311.313 276.305L305.802 279.487C305.568 279.622 305.547 279.829 305.755 279.949L311.027 282.993C311.235 283.113 311.594 283.101 311.828 282.966L317.339 279.784C317.573 279.649 317.594 279.442 317.387 279.322L312.114 276.278C311.905 276.157 311.547 276.17 311.313 276.305ZM329.117 266.025L323.606 269.206C323.372 269.341 323.351 269.548 323.558 269.669L328.831 272.713C329.039 272.833 329.397 272.821 329.631 272.686L335.142 269.504C335.376 269.369 335.398 269.162 335.19 269.042L329.918 265.998C329.71 265.878 329.352 265.89 329.117 266.025ZM284.597 307.384L290.108 304.202C290.342 304.066 290.363 303.86 290.155 303.739L284.883 300.695C284.675 300.575 284.316 300.587 284.082 300.722L278.571 303.904C278.337 304.039 278.316 304.246 278.523 304.366L283.796 307.41C284.004 307.531 284.363 307.519 284.597 307.384ZM337.973 261.347C337.765 261.227 337.406 261.239 337.172 261.374L331.662 264.556C331.428 264.691 331.406 264.898 331.614 265.018L336.887 268.062C337.095 268.182 337.453 268.17 337.687 268.035L343.198 264.853C343.432 264.718 343.454 264.511 343.246 264.391L337.973 261.347ZM253.975 333.761L259.486 330.579C259.72 330.444 259.741 330.237 259.533 330.117L254.261 327.073C254.053 326.953 253.695 326.965 253.461 327.1L247.95 330.282C247.716 330.417 247.695 330.624 247.903 330.744L253.175 333.788C253.383 333.908 253.741 333.896 253.975 333.761ZM352.751 276.732L358.262 273.551C358.496 273.416 358.517 273.209 358.309 273.088L353.036 270.044C352.828 269.924 352.47 269.936 352.235 270.071L346.724 273.253C346.49 273.388 346.469 273.595 346.677 273.715L351.949 276.759C352.158 276.88 352.517 276.868 352.751 276.732ZM337.164 277.035L342.675 273.853C342.909 273.718 342.93 273.512 342.722 273.391L337.449 270.347C337.242 270.227 336.883 270.239 336.649 270.374L331.138 273.556C330.904 273.692 330.882 273.898 331.09 274.018L336.363 277.062C336.571 277.182 336.93 277.17 337.164 277.035ZM345.505 265.696C345.297 265.576 344.939 265.588 344.705 265.723L339.194 268.905C338.961 269.04 338.939 269.247 339.147 269.367L344.42 272.411C344.628 272.531 344.986 272.519 345.22 272.384L350.731 269.202C350.965 269.067 350.987 268.86 350.779 268.74L345.505 265.696ZM347.201 264.717L360.005 272.11C360.213 272.23 360.571 272.218 360.805 272.083L366.316 268.901C366.55 268.766 366.571 268.559 366.364 268.439L353.559 261.046C353.351 260.926 352.992 260.938 352.758 261.073L347.247 264.255C347.014 264.39 346.992 264.597 347.201 264.717ZM328.595 275.024L323.084 278.205C322.85 278.34 322.828 278.547 323.036 278.667L328.309 281.711C328.517 281.831 328.875 281.819 329.11 281.684L334.621 278.502C334.855 278.366 334.876 278.16 334.668 278.04L329.396 274.996C329.188 274.877 328.829 274.889 328.595 275.024ZM267.973 310.024L262.462 313.206C262.228 313.341 262.207 313.548 262.415 313.668L267.687 316.712C267.895 316.832 268.253 316.82 268.487 316.685L273.998 313.503C274.232 313.368 274.253 313.161 274.045 313.041L268.773 309.997C268.565 309.876 268.207 309.889 267.973 310.024ZM343.896 281.41C344.103 281.53 344.462 281.518 344.697 281.383L350.208 278.201C350.442 278.065 350.463 277.859 350.255 277.739L344.982 274.695C344.775 274.575 344.416 274.587 344.182 274.722L338.671 277.904C338.437 278.039 338.415 278.246 338.624 278.366L343.896 281.41ZM276.028 305.374L270.517 308.556C270.283 308.691 270.262 308.898 270.47 309.018L275.742 312.062C275.95 312.182 276.308 312.17 276.542 312.035L282.053 308.853C282.287 308.718 282.308 308.511 282.1 308.391L276.828 305.347C276.62 305.226 276.262 305.239 276.028 305.374ZM212.901 357.04C213.109 357.16 213.468 357.148 213.702 357.013L219.213 353.831C219.446 353.696 219.468 353.489 219.26 353.369L213.987 350.325C213.779 350.205 213.421 350.217 213.187 350.352L207.676 353.534C207.442 353.669 207.421 353.876 207.628 353.996L212.901 357.04ZM203.536 347.227L198.025 350.409C197.791 350.544 197.77 350.751 197.978 350.871L203.25 353.915C203.458 354.035 203.816 354.023 204.05 353.888L209.561 350.707C209.795 350.572 209.816 350.365 209.608 350.245L204.336 347.201C204.128 347.079 203.77 347.092 203.536 347.227ZM221.756 352.362L227.267 349.18C227.501 349.045 227.523 348.838 227.315 348.718L222.042 345.674C221.834 345.554 221.476 345.566 221.241 345.701L215.73 348.883C215.496 349.018 215.475 349.225 215.683 349.345L220.956 352.389C221.164 352.509 221.523 352.498 221.756 352.362ZM229.811 347.712L235.322 344.53C235.556 344.394 235.578 344.188 235.37 344.068L230.097 341.024C229.89 340.904 229.531 340.916 229.296 341.051L223.785 344.233C223.551 344.368 223.529 344.575 223.738 344.695L229.011 347.739C229.218 347.859 229.577 347.847 229.811 347.712ZM237.866 343.061L243.377 339.88C243.611 339.744 243.632 339.538 243.425 339.417L238.152 336.373C237.944 336.253 237.586 336.265 237.351 336.401L231.84 339.582C231.606 339.717 231.585 339.924 231.793 340.044L237.065 343.088C237.273 343.209 237.632 343.197 237.866 343.061ZM211.59 342.577L206.079 345.758C205.845 345.893 205.824 346.1 206.031 346.22L211.304 349.264C211.512 349.384 211.87 349.372 212.105 349.237L217.616 346.055C217.85 345.92 217.871 345.713 217.663 345.593L212.39 342.549C212.183 342.43 211.824 342.441 211.59 342.577ZM219.645 337.926L214.134 341.108C213.9 341.243 213.878 341.45 214.086 341.57L219.359 344.614C219.567 344.734 219.925 344.722 220.159 344.587L225.67 341.405C225.904 341.27 225.925 341.063 225.717 340.943L220.445 337.899C220.238 337.779 219.879 337.791 219.645 337.926ZM251.864 319.325L246.353 322.506C246.119 322.642 246.098 322.848 246.306 322.968L251.578 326.012C251.786 326.132 252.144 326.12 252.379 325.985L257.89 322.804C258.124 322.669 258.145 322.462 257.938 322.341L252.665 319.297C252.456 319.178 252.098 319.19 251.864 319.325ZM243.809 323.975L238.298 327.157C238.064 327.292 238.043 327.499 238.251 327.619L243.523 330.663C243.731 330.783 244.09 330.771 244.324 330.636L249.835 327.455C250.069 327.319 250.091 327.113 249.883 326.992L244.61 323.948C244.401 323.828 244.043 323.84 243.809 323.975ZM259.918 314.674L254.407 317.856C254.173 317.991 254.152 318.198 254.36 318.318L259.632 321.362C259.84 321.482 260.198 321.47 260.433 321.335L265.944 318.153C266.178 318.018 266.199 317.811 265.991 317.691L260.719 314.647C260.511 314.527 260.152 314.54 259.918 314.674ZM227.7 333.276L222.189 336.458C221.955 336.593 221.933 336.8 222.141 336.92L227.414 339.964C227.622 340.084 227.98 340.072 228.215 339.937L233.726 336.755C233.96 336.619 233.981 336.413 233.773 336.293L228.5 333.249C228.292 333.129 227.934 333.141 227.7 333.276ZM235.754 328.626L230.243 331.808C230.009 331.943 229.988 332.15 230.196 332.27L235.469 335.314C235.676 335.434 236.035 335.422 236.269 335.287L241.78 332.105C242.014 331.97 242.036 331.763 241.828 331.643L236.555 328.599C236.347 328.478 235.988 328.491 235.754 328.626ZM225.473 358.914L230.984 355.732C231.218 355.597 231.239 355.39 231.032 355.27L225.759 352.226C225.551 352.106 225.193 352.118 224.958 352.253L219.447 355.435C219.213 355.57 219.191 355.777 219.4 355.897L224.672 358.941C224.881 359.061 225.239 359.049 225.473 358.914ZM183 356.909L177.727 353.865C177.519 353.745 177.161 353.757 176.926 353.892L171.415 357.074C171.181 357.209 171.16 357.416 171.368 357.536L176.64 360.58C176.849 360.7 177.207 360.688 177.441 360.552L182.952 357.371C183.187 357.236 183.207 357.029 183 356.909ZM193.499 359.544L188.227 356.5C188.019 356.38 187.661 356.392 187.427 356.527L178.948 361.422C178.714 361.557 178.693 361.764 178.901 361.884L184.173 364.928C184.381 365.048 184.739 365.036 184.973 364.901L193.452 360.006C193.686 359.871 193.707 359.664 193.499 359.544ZM175.13 350.897L169.858 347.853C169.65 347.733 169.292 347.745 169.058 347.88L162.275 351.796C162.041 351.931 162.02 352.138 162.228 352.258L167.5 355.302C167.708 355.422 168.067 355.41 168.301 355.275L175.084 351.359C175.317 351.224 175.338 351.017 175.13 350.897ZM180.331 347.895C180.538 348.015 180.897 348.003 181.131 347.868L186.642 344.686C186.876 344.551 186.898 344.344 186.69 344.224L181.417 341.18C181.209 341.06 180.851 341.072 180.616 341.207L175.105 344.389C174.871 344.525 174.849 344.731 175.057 344.851L180.331 347.895ZM203.151 362.669L197.879 359.625C197.671 359.505 197.313 359.518 197.078 359.653L186.48 365.771C186.246 365.907 186.225 366.113 186.433 366.233L191.705 369.277C191.913 369.397 192.271 369.385 192.506 369.25L203.104 363.131C203.338 362.996 203.359 362.79 203.151 362.669ZM206.868 369.221L201.595 366.177C201.388 366.057 201.029 366.069 200.795 366.204L194.012 370.12C193.778 370.255 193.757 370.463 193.965 370.582L199.237 373.626C199.445 373.746 199.803 373.734 200.038 373.599L206.821 369.683C207.054 369.548 207.075 369.341 206.868 369.221ZM240.218 313.319C240.426 313.439 240.784 313.427 241.018 313.292L246.529 310.11C246.763 309.975 246.785 309.768 246.577 309.648L241.305 306.604C241.097 306.484 240.738 306.496 240.504 306.631L234.993 309.813C234.759 309.948 234.737 310.155 234.945 310.275L240.218 313.319ZM224.108 322.62C224.316 322.74 224.675 322.728 224.909 322.593L230.42 319.411C230.654 319.276 230.675 319.069 230.467 318.949L225.195 315.905C224.987 315.785 224.629 315.797 224.395 315.932L218.884 319.113C218.65 319.248 218.629 319.455 218.836 319.575L224.108 322.62ZM188.385 343.244C188.593 343.364 188.952 343.352 189.186 343.217L194.697 340.035C194.931 339.9 194.953 339.693 194.745 339.573L189.473 336.529C189.265 336.409 188.907 336.421 188.672 336.557L183.161 339.739C182.927 339.874 182.906 340.081 183.114 340.201L188.385 343.244ZM232.163 317.969C232.371 318.089 232.729 318.077 232.963 317.942L238.474 314.76C238.708 314.625 238.729 314.418 238.521 314.298L233.249 311.254C233.041 311.134 232.683 311.146 232.448 311.282L226.937 314.464C226.703 314.599 226.682 314.806 226.889 314.926L232.163 317.969ZM216.053 327.27C216.261 327.39 216.62 327.378 216.854 327.242L222.365 324.061C222.599 323.926 222.621 323.719 222.412 323.598L217.14 320.554C216.932 320.434 216.573 320.446 216.339 320.581L210.828 323.763C210.594 323.898 210.573 324.105 210.781 324.225L216.053 327.27ZM210.823 369.547C210.615 369.427 210.257 369.439 210.022 369.574L201.543 374.469C201.309 374.604 201.288 374.811 201.496 374.931L206.769 377.975C206.977 378.095 207.335 378.083 207.569 377.948L216.048 373.053C216.282 372.918 216.303 372.711 216.095 372.591L210.823 369.547ZM204.494 333.944C204.702 334.064 205.06 334.052 205.295 333.917L210.806 330.735C211.04 330.6 211.061 330.393 210.853 330.273L205.581 327.229C205.373 327.109 205.014 327.122 204.78 327.257L199.269 330.439C199.035 330.574 199.014 330.781 199.222 330.901L204.494 333.944ZM196.439 338.594C196.647 338.714 197.005 338.702 197.239 338.567L202.75 335.385C202.984 335.25 203.005 335.043 202.798 334.923L197.525 331.879C197.317 331.759 196.959 331.771 196.724 331.906L191.213 335.088C190.979 335.223 190.958 335.43 191.166 335.55L196.439 338.594ZM360.046 283.392C359.838 283.272 359.48 283.284 359.245 283.419L345.68 291.251C345.446 291.386 345.424 291.593 345.632 291.714L350.905 294.758C351.112 294.878 351.471 294.866 351.706 294.731L365.271 286.899C365.505 286.764 365.526 286.557 365.318 286.437L360.046 283.392ZM342.241 293.672C342.033 293.552 341.675 293.564 341.44 293.699L335.929 296.88C335.695 297.015 335.674 297.222 335.882 297.342L341.154 300.386C341.362 300.506 341.72 300.494 341.955 300.358L347.466 297.176C347.7 297.041 347.721 296.834 347.513 296.714L342.241 293.672ZM233.528 354.263L239.039 351.081C239.273 350.946 239.294 350.739 239.086 350.619L233.814 347.575C233.606 347.455 233.248 347.467 233.013 347.602L227.502 350.784C227.268 350.919 227.247 351.126 227.455 351.246L232.727 354.29C232.935 354.411 233.294 354.398 233.528 354.263ZM326.132 302.973C325.924 302.853 325.565 302.865 325.331 303L319.82 306.182C319.586 306.318 319.565 306.524 319.773 306.644L325.045 309.688C325.253 309.808 325.611 309.796 325.845 309.661L331.356 306.479C331.59 306.344 331.611 306.137 331.404 306.017L326.132 302.973ZM368.101 278.742C367.893 278.622 367.534 278.634 367.3 278.769L361.789 281.951C361.555 282.086 361.534 282.293 361.742 282.413L367.014 285.457C367.222 285.577 367.581 285.565 367.815 285.43L373.326 282.248C373.56 282.113 373.581 281.906 373.374 281.786L368.101 278.742ZM381.428 277.136L368.623 269.743C368.415 269.623 368.057 269.635 367.823 269.77L362.312 272.952C362.078 273.087 362.057 273.294 362.265 273.414L375.069 280.807C375.277 280.927 375.635 280.915 375.869 280.78L381.38 277.598C381.615 277.463 381.636 277.255 381.428 277.136ZM296.033 320.35C295.825 320.23 295.466 320.242 295.233 320.377L288.45 324.293C288.216 324.428 288.195 324.635 288.403 324.755L293.675 327.799C293.883 327.919 294.241 327.907 294.476 327.772L301.259 323.856C301.493 323.721 301.515 323.514 301.306 323.394L296.033 320.35ZM316.382 308.602C316.174 308.482 315.816 308.494 315.581 308.629L307.102 313.524C306.868 313.659 306.847 313.866 307.055 313.986L312.328 317.03C312.536 317.15 312.894 317.138 313.129 317.003L321.608 312.108C321.842 311.973 321.863 311.766 321.655 311.646L316.382 308.602ZM277.38 331.12C277.172 331 276.814 331.012 276.579 331.147L231.219 357.336C230.985 357.471 230.963 357.678 231.171 357.798L236.444 360.842C236.652 360.962 237.01 360.95 237.245 360.815L282.605 334.626C282.839 334.491 282.86 334.284 282.652 334.164L277.38 331.12ZM229.476 358.777C229.268 358.657 228.909 358.669 228.676 358.804L221.893 362.72C221.659 362.855 221.638 363.062 221.846 363.182L227.118 366.226C227.326 366.346 227.685 366.334 227.919 366.198L234.703 362.282C234.936 362.147 234.958 361.94 234.75 361.82L229.476 358.777ZM286.706 325.735C286.498 325.615 286.14 325.627 285.905 325.762L279.122 329.678C278.888 329.814 278.866 330.02 279.074 330.14L284.347 333.184C284.554 333.305 284.913 333.292 285.148 333.157L291.931 329.24C292.165 329.105 292.186 328.899 291.978 328.778L286.706 325.735ZM220.149 364.161C219.941 364.041 219.583 364.053 219.349 364.188L212.566 368.104C212.332 368.239 212.311 368.446 212.519 368.566L217.791 371.61C217.999 371.73 218.357 371.718 218.592 371.583L225.375 367.667C225.609 367.532 225.631 367.325 225.423 367.205L220.149 364.161ZM305.359 314.966C305.151 314.846 304.793 314.858 304.558 314.993L297.775 318.909C297.542 319.044 297.52 319.251 297.728 319.371L303.001 322.415C303.209 322.535 303.567 322.523 303.801 322.388L310.584 318.472C310.818 318.337 310.839 318.13 310.631 318.01L305.359 314.966ZM334.187 298.322C333.979 298.202 333.621 298.214 333.386 298.349L327.875 301.531C327.641 301.666 327.62 301.873 327.828 301.993L333.1 305.037C333.308 305.157 333.666 305.144 333.901 305.01L339.412 301.828C339.646 301.693 339.667 301.486 339.459 301.366L334.187 298.322ZM352.228 285.732L357.739 282.55C357.973 282.415 357.995 282.208 357.787 282.088L352.514 279.044C352.306 278.924 351.948 278.936 351.713 279.071L346.202 282.253C345.968 282.388 345.947 282.595 346.155 282.715L351.428 285.759C351.636 285.879 351.994 285.867 352.228 285.732ZM319.359 287.314L324.87 284.132C325.104 283.997 325.125 283.79 324.918 283.67L319.645 280.626C319.437 280.506 319.079 280.518 318.845 280.653L313.334 283.835C313.1 283.97 313.079 284.177 313.287 284.297L318.559 287.341C318.767 287.461 319.125 287.449 319.359 287.314ZM297.965 317.06L314.075 307.759C314.309 307.624 314.33 307.417 314.122 307.297L308.85 304.253C308.642 304.133 308.284 304.145 308.05 304.28L291.941 313.581C291.707 313.716 291.686 313.923 291.894 314.043L297.166 317.087C297.373 317.208 297.731 317.196 297.965 317.06ZM343.373 290.409C343.581 290.529 343.939 290.517 344.173 290.382L349.684 287.2C349.918 287.065 349.94 286.858 349.731 286.738L344.459 283.694C344.251 283.574 343.893 283.586 343.659 283.721L338.147 286.903C337.913 287.038 337.892 287.245 338.1 287.365L343.373 290.409ZM336.642 286.034L342.153 282.852C342.387 282.717 342.408 282.51 342.2 282.39L336.928 279.346C336.72 279.226 336.361 279.238 336.127 279.373L330.616 282.555C330.382 282.69 330.36 282.897 330.568 283.017L335.841 286.061C336.049 286.181 336.408 286.169 336.642 286.034ZM289.91 321.711L295.421 318.529C295.655 318.394 295.676 318.187 295.468 318.067L290.196 315.023C289.988 314.903 289.63 314.915 289.395 315.05L283.884 318.232C283.65 318.367 283.629 318.574 283.837 318.694L289.109 321.738C289.318 321.858 289.676 321.846 289.91 321.711ZM325.568 300.689C325.776 300.809 326.134 300.797 326.369 300.662L331.88 297.48C332.114 297.345 332.135 297.138 331.927 297.018L326.654 293.974C326.446 293.854 326.088 293.866 325.854 294.001L320.343 297.183C320.109 297.318 320.088 297.525 320.296 297.645L325.568 300.689ZM249.637 344.963L255.148 341.781C255.382 341.646 255.403 341.439 255.195 341.319L249.923 338.275C249.715 338.155 249.357 338.167 249.123 338.302L243.612 341.484C243.378 341.619 243.357 341.826 243.564 341.946L248.837 344.99C249.045 345.11 249.403 345.098 249.637 344.963ZM257.692 340.312L263.203 337.13C263.437 336.995 263.458 336.788 263.25 336.668L257.977 333.624C257.769 333.504 257.411 333.516 257.177 333.652L251.666 336.834C251.432 336.969 251.411 337.176 251.618 337.296L256.891 340.34C257.1 340.46 257.458 340.448 257.692 340.312ZM241.583 349.613L247.094 346.431C247.328 346.296 247.35 346.089 247.141 345.969L241.869 342.925C241.661 342.805 241.303 342.817 241.068 342.952L235.557 346.134C235.323 346.269 235.302 346.476 235.509 346.596L240.782 349.64C240.99 349.76 241.348 349.748 241.583 349.613ZM273.801 331.012L279.312 327.83C279.546 327.695 279.568 327.488 279.359 327.368L274.087 324.324C273.879 324.204 273.521 324.216 273.286 324.351L267.775 327.533C267.541 327.668 267.52 327.875 267.728 327.995L273 331.039C273.209 331.159 273.567 331.147 273.801 331.012ZM265.746 335.661L271.257 332.479C271.491 332.344 271.513 332.137 271.305 332.017L266.032 328.973C265.824 328.853 265.466 328.865 265.231 329L259.72 332.181C259.486 332.316 259.465 332.523 259.673 332.643L264.946 335.687C265.154 335.809 265.513 335.797 265.746 335.661ZM281.856 326.361L287.367 323.179C287.601 323.044 287.622 322.837 287.414 322.717L282.141 319.673C281.933 319.553 281.575 319.565 281.34 319.7L275.829 322.882C275.595 323.017 275.574 323.224 275.782 323.344L281.054 326.388C281.263 326.509 281.621 326.496 281.856 326.361ZM325.81 261.668C326.018 261.788 326.377 261.776 326.611 261.641L332.122 258.459C332.356 258.324 332.377 258.117 332.169 257.997L330.766 257.186C330.558 257.066 330.199 257.078 329.965 257.214L324.454 260.396C324.221 260.531 324.199 260.738 324.407 260.858L325.81 261.668ZM285.776 287.016C285.983 287.136 286.342 287.124 286.576 286.989L292.087 283.807C292.321 283.672 292.342 283.465 292.134 283.345L286.862 280.301C286.654 280.18 286.295 280.193 286.061 280.328L280.55 283.51C280.316 283.645 280.294 283.852 280.502 283.972L285.776 287.016ZM301.885 277.715C302.093 277.835 302.451 277.823 302.685 277.688L308.196 274.506C308.43 274.371 308.451 274.164 308.244 274.043L302.971 270.999C302.763 270.879 302.405 270.891 302.171 271.026L296.66 274.208C296.427 274.343 296.405 274.55 296.613 274.67L301.885 277.715ZM275.94 292.694C276.148 292.814 276.506 292.802 276.741 292.667L282.252 289.485C282.486 289.35 282.507 289.143 282.299 289.023L277.027 285.979C276.819 285.859 276.461 285.871 276.226 286.007L270.715 289.188C270.481 289.323 270.46 289.53 270.668 289.65L275.94 292.694ZM293.831 282.365C294.039 282.485 294.397 282.473 294.632 282.338L300.143 279.156C300.376 279.021 300.398 278.814 300.19 278.694L294.917 275.65C294.71 275.53 294.351 275.542 294.117 275.677L288.606 278.859C288.372 278.994 288.35 279.201 288.558 279.321L293.831 282.365ZM259.831 301.995C260.039 302.115 260.397 302.102 260.632 301.967L266.143 298.785C266.377 298.65 266.398 298.443 266.191 298.322L260.918 295.278C260.71 295.158 260.352 295.17 260.117 295.305L254.606 298.487C254.372 298.623 254.351 298.829 254.559 298.949L259.831 301.995ZM267.886 297.345C268.094 297.465 268.452 297.453 268.687 297.318L274.198 294.136C274.432 294.001 274.453 293.794 274.245 293.674L268.973 290.63C268.765 290.51 268.407 290.522 268.172 290.657L262.661 293.839C262.427 293.974 262.406 294.181 262.614 294.301L267.886 297.345ZM309.701 270.969C309.909 271.089 310.268 271.077 310.502 270.942L316.013 267.76C316.247 267.625 316.268 267.419 316.06 267.298L314.656 266.488C314.448 266.368 314.09 266.38 313.856 266.515L308.345 269.697C308.111 269.832 308.089 270.039 308.297 270.159L309.701 270.969ZM333.865 257.018C334.073 257.138 334.431 257.126 334.666 256.991L340.177 253.809C340.411 253.674 340.432 253.467 340.224 253.347L338.82 252.536C338.612 252.416 338.254 252.429 338.019 252.564L332.508 255.746C332.274 255.881 332.252 256.088 332.461 256.209L333.865 257.018ZM344.941 263.412C345.149 263.532 345.507 263.52 345.742 263.385L351.253 260.203C351.487 260.068 351.508 259.861 351.301 259.741L346.028 256.697C345.82 256.577 345.462 256.589 345.227 256.724L339.716 259.906C339.482 260.041 339.461 260.248 339.669 260.368L344.941 263.412ZM360.283 281.081L365.794 277.899C366.028 277.764 366.05 277.557 365.842 277.437L360.569 274.393C360.361 274.273 360.003 274.285 359.768 274.42L354.257 277.602C354.023 277.737 354.002 277.944 354.21 278.064L359.482 281.108C359.69 281.229 360.049 281.216 360.283 281.081ZM317.756 266.318C317.964 266.438 318.322 266.426 318.557 266.291L324.068 263.109C324.302 262.974 324.323 262.767 324.115 262.647L322.711 261.837C322.503 261.717 322.145 261.729 321.91 261.864L316.399 265.046C316.165 265.181 316.144 265.388 316.352 265.508L317.756 266.318ZM251.776 306.645C251.984 306.765 252.343 306.753 252.577 306.618L258.088 303.436C258.322 303.301 258.344 303.094 258.135 302.974L252.862 299.93C252.654 299.81 252.296 299.822 252.062 299.957L246.551 303.139C246.317 303.274 246.296 303.481 246.504 303.601L251.776 306.645Z" fill="#455A64"/>
<path d="M275.612 348.186L276.742 348.838L306.756 366.164L360.132 335.346L361.243 334.713L330.099 316.736L275.612 348.186Z" fill="#37474F"/>
<path d="M276.742 348.838L306.756 366.164L360.132 335.346L330.099 318.02L276.742 348.838Z" fill="#263238"/>
<path d="M107.064 213.205L94.8348 206.145C94.2908 205.831 93.8948 205.752 93.6808 205.877C93.4248 206.027 92.4058 206.615 92.1908 206.738C91.9308 206.886 91.9358 207.328 92.2638 208.009L95.2388 214.168L93.0188 216.206C92.0018 217.14 92.1458 218.456 93.3418 219.146L105.57 226.206L107.063 225.343V213.205H107.064Z" fill="#27DEBF"/>
<path opacity="0.5" d="M107.064 213.205L94.8348 206.145C94.2908 205.831 93.8948 205.752 93.6808 205.877C93.4248 206.027 92.4058 206.615 92.1908 206.738C91.9308 206.886 91.9358 207.328 92.2638 208.009L95.2388 214.168L93.0188 216.206C92.0018 217.14 92.1458 218.456 93.3418 219.146L105.57 226.206L107.063 225.343V213.205H107.064Z" fill="white"/>
<path d="M93.3428 207.008C92.1468 206.318 91.6648 206.766 92.2648 208.009L95.2398 214.168L93.0198 216.206C92.0028 217.14 92.1468 218.456 93.3428 219.146L105.571 226.206V214.067L93.3428 207.008Z" fill="#27DEBF"/>
<path d="M107.008 252.11C106.214 252.11 105.571 251.467 105.571 250.673V210.053C105.571 209.259 106.215 208.616 107.008 208.616C107.802 208.616 108.445 209.26 108.445 210.053V250.673C108.445 251.467 107.802 252.11 107.008 252.11Z" fill="#455A64"/>
<path d="M54.3849 360.274V357.736H55.0109C55.7409 356.259 57.1059 354.864 59.1209 353.701C65.4399 350.053 75.6829 350.053 82.0009 353.701C84.0159 354.864 85.3819 356.259 86.1109 357.736H86.7299V360.193C86.7809 362.621 85.2099 365.058 82.0009 366.91C75.6829 370.558 65.4389 370.558 59.1209 366.91C55.9479 365.078 54.3709 362.675 54.3849 360.274Z" fill="#263238"/>
<path d="M82.0013 351.131C75.6833 347.483 65.4393 347.483 59.1213 351.131C52.8033 354.779 52.8033 360.693 59.1213 364.341C65.4393 367.989 75.6833 367.989 82.0013 364.341C88.3193 360.693 88.3193 354.779 82.0013 351.131Z" fill="#455A64"/>
<path d="M74.7285 269.775L74.7255 356.628C74.7255 357.243 74.3185 357.858 73.5055 358.328C71.8795 359.267 69.2425 359.267 67.6165 358.328C66.8035 357.858 66.3975 357.243 66.3975 356.628L66.4005 269.775H74.7285Z" fill="#37474F"/>
<path d="M66.3975 280.279V288.449L74.7275 293.246L74.7285 285.098L66.3975 280.279Z" fill="#263238"/>
<path d="M96.6016 262.005L112.002 270.905C111.922 271.025 111.812 271.145 111.702 271.215L84.7616 286.765C84.5316 286.895 84.3516 286.795 84.3516 286.525V267.115C84.3516 263.735 85.1316 259.975 86.6016 256.235L96.6016 262.005Z" fill="#27DEBF"/>
<path opacity="0.4" d="M96.6016 262.005L112.002 270.905C111.922 271.025 111.812 271.145 111.702 271.215L84.7616 286.765C84.5316 286.895 84.3516 286.795 84.3516 286.525V267.115C84.3516 263.735 85.1316 259.975 86.6016 256.235L96.6016 262.005Z" fill="black"/>
<path d="M112.118 249.253V270.973L86.6055 256.239C86.6305 256.169 86.6595 256.096 86.6875 256.026C89.4235 249.192 94.0355 243.396 99.0345 240.52C101.084 239.333 103.027 238.733 104.805 238.733C109.315 238.734 112.118 242.765 112.118 249.253Z" fill="#27DEBF"/>
<path opacity="0.3" d="M112.118 249.253V270.973L86.6055 256.239C86.6305 256.169 86.6595 256.096 86.6875 256.026C89.4235 249.192 94.0355 243.396 99.0345 240.52C101.084 239.333 103.027 238.733 104.805 238.733C109.315 238.734 112.118 242.765 112.118 249.253Z" fill="black"/>
<path d="M139.829 295.22L139.828 293.28H139.644V293.557C139.53 293.031 139.364 292.507 139.138 291.987C138.119 289.61 135.973 287.331 132.698 285.439L114.466 274.914C113.707 274.476 112.479 274.476 111.717 274.914L83.8421 291.007C83.5481 290.744 83.2261 290.485 82.9561 290.03V291.984C82.9561 292.271 83.1461 292.559 83.5251 292.778L101.757 303.303C106.636 306.122 113.015 307.505 119.195 307.423C124.543 307.353 129.742 306.185 133.704 303.893C137.803 301.537 139.823 298.411 139.823 295.22H139.829Z" fill="#27DEBF"/>
<path opacity="0.4" d="M139.829 295.22L139.828 293.28H139.644V293.557C139.53 293.031 139.364 292.507 139.138 291.987C138.119 289.61 135.973 287.331 132.698 285.439L114.466 274.914C113.707 274.476 112.479 274.476 111.717 274.914L83.8421 291.007C83.5481 290.744 83.2261 290.485 82.9561 290.03V291.984C82.9561 292.271 83.1461 292.559 83.5251 292.778L101.757 303.303C106.636 306.122 113.015 307.505 119.195 307.423C124.543 307.353 129.742 306.185 133.704 303.893C137.803 301.537 139.823 298.411 139.823 295.22H139.829Z" fill="black"/>
<path d="M139.139 291.987C138.12 289.61 135.974 287.331 132.699 285.439L114.467 274.914C113.708 274.476 112.48 274.476 111.718 274.914L83.8428 291.007L101.758 301.351C106.637 304.17 113.016 305.554 119.196 305.471C124.544 305.398 129.743 304.23 133.705 301.941C137.384 299.824 139.393 297.091 139.764 294.244C139.672 293.489 139.463 292.733 139.139 291.987Z" fill="#27DEBF"/>
<path opacity="0.2" d="M139.139 291.987C138.12 289.61 135.974 287.331 132.699 285.439L114.467 274.914C113.708 274.476 112.48 274.476 111.718 274.914L83.8428 291.007L101.758 301.351C106.637 304.17 113.016 305.554 119.196 305.471C124.544 305.398 129.743 304.23 133.705 301.941C137.384 299.824 139.393 297.091 139.764 294.244C139.672 293.489 139.463 292.733 139.139 291.987Z" fill="black"/>
<path d="M139.763 294.244C139.671 293.489 139.461 292.733 139.138 291.987C138.119 289.61 135.973 287.331 132.698 285.439L114.466 274.914C113.707 274.476 112.479 274.476 111.717 274.914L83.8423 291.007L83.5253 290.826C82.7663 290.388 82.7663 289.677 83.5253 289.239L111.717 272.962C112.479 272.524 113.707 272.524 114.466 272.962L132.698 283.487C135.974 285.379 138.119 287.658 139.138 290.035C139.481 290.825 139.697 291.628 139.782 292.431C139.849 293.038 139.842 293.644 139.763 294.244Z" fill="#27DEBF"/>
<path opacity="0.3" d="M139.763 294.244C139.671 293.489 139.461 292.733 139.138 291.987C138.119 289.61 135.973 287.331 132.698 285.439L114.466 274.914C113.707 274.476 112.479 274.476 111.717 274.914L83.8423 291.007L83.5253 290.826C82.7663 290.388 82.7663 289.677 83.5253 289.239L111.717 272.962C112.479 272.524 113.707 272.524 114.466 272.962L132.698 283.487C135.974 285.379 138.119 287.658 139.138 290.035C139.481 290.825 139.697 291.628 139.782 292.431C139.849 293.038 139.842 293.644 139.763 294.244Z" fill="black"/>
<path d="M84.1387 288.961L112.331 272.684L111.706 271.211L84.7637 286.767L84.1387 288.961Z" fill="#27DEBF"/>
<path opacity="0.1" d="M84.1387 288.961L112.331 272.684L111.706 271.211L84.7637 286.767L84.1387 288.961Z" fill="black"/>
<path d="M109.633 247.958C109.633 247.53 109.333 247.01 108.962 246.796L74.6372 226.979C74.2662 226.765 73.6662 226.765 73.2952 226.979L72.5392 227.416C72.1682 227.63 71.8682 228.15 71.8682 228.578V254.888C71.8682 255.314 72.1702 255.837 72.5392 256.05L106.864 275.867C107.233 276.08 107.837 276.08 108.206 275.867L108.962 275.43C109.331 275.217 109.633 274.694 109.633 274.268V247.958Z" fill="#F5F5F5"/>
<path d="M109.437 247.298L107.533 248.396L72.0664 227.917C72.1874 227.707 72.3554 227.523 72.5394 227.416L73.2984 226.981C73.6664 226.765 74.2694 226.765 74.6384 226.981L108.963 246.797C109.148 246.904 109.316 247.088 109.437 247.298Z" fill="#E0E0E0"/>
<path d="M107.377 276.012C107.417 276.022 107.457 276.022 107.507 276.022H107.467C107.427 276.022 107.407 276.022 107.377 276.012Z" fill="#27DEBF"/>
<path d="M107.537 248.392L107.187 248.602C107.397 248.682 107.537 248.892 107.537 249.172V275.482C107.537 275.702 107.457 275.852 107.327 275.922C107.237 275.962 107.127 275.972 107.007 275.932C106.957 275.912 106.907 275.892 106.867 275.872L72.5372 256.052C72.1672 255.832 71.8672 255.312 71.8672 254.892V228.582C71.8672 228.362 71.9472 228.122 72.0672 227.912L107.537 248.392Z" fill="#EBEBEB"/>
<path opacity="0.2" d="M107.533 248.396L91.6371 254.335C90.5041 254.757 89.2311 254.338 88.5711 253.326L86.0181 249.415L71.9381 227.844L85.5091 249.562L71.8691 254.9C71.8721 255.116 71.9511 255.357 72.0781 255.57L85.5471 249.623L88.5131 254.37C89.1951 255.459 90.5731 255.884 91.7471 255.363L93.8591 254.431L107.325 275.922C107.452 275.855 107.531 275.703 107.531 275.481V275.043L93.9241 254.402L107.533 248.396Z" fill="black"/>
<path d="M101.508 252.615C101.508 252.187 101.208 251.667 100.837 251.453L66.5122 231.636C66.1412 231.422 65.5412 231.422 65.1702 231.636L64.4142 232.073C64.0432 232.287 63.7432 232.807 63.7432 233.235V259.546C63.7432 259.972 64.0452 260.495 64.4142 260.708L98.7392 280.525C99.1082 280.738 99.7122 280.738 100.081 280.525L100.837 280.088C101.206 279.875 101.508 279.352 101.508 278.926V252.615Z" fill="#F5F5F5"/>
<path d="M101.313 251.954L99.4084 253.052L63.9414 232.573C64.0624 232.363 64.2304 232.179 64.4144 232.071L65.1734 231.636C65.5414 231.42 66.1444 231.42 66.5134 231.636L100.838 251.452C101.024 251.56 101.192 251.744 101.313 251.954Z" fill="#E0E0E0"/>
<path d="M99.252 280.669C99.292 280.679 99.332 280.679 99.382 280.679H99.342C99.302 280.679 99.282 280.679 99.252 280.669Z" fill="#27DEBF"/>
<path d="M99.4122 253.049L99.0622 253.259C99.2722 253.339 99.4122 253.549 99.4122 253.829V280.139C99.4122 280.359 99.3322 280.509 99.2022 280.579C99.1122 280.619 99.0022 280.629 98.8822 280.589C98.8322 280.569 98.7822 280.549 98.7422 280.529L64.4122 260.709C64.0422 260.489 63.7422 259.969 63.7422 259.549V233.239C63.7422 233.019 63.8222 232.779 63.9422 232.569L99.4122 253.049Z" fill="#EBEBEB"/>
<path opacity="0.2" d="M99.4081 253.052L83.5121 258.991C82.3791 259.413 81.1061 258.994 80.4461 257.982L77.8931 254.071L63.8141 232.5L77.3851 254.218L63.7451 259.556C63.7481 259.772 63.8281 260.013 63.9541 260.226L77.4231 254.279L80.3891 259.026C81.0711 260.115 82.4491 260.54 83.6231 260.019L85.7351 259.087L99.2011 280.578C99.3281 280.511 99.4071 280.359 99.4071 280.137V279.699L85.8001 259.058L99.4081 253.052Z" fill="black"/>
<path d="M93.3841 257.271C93.3841 256.843 93.0841 256.323 92.7131 256.109L58.3881 236.292C58.0171 236.078 57.4171 236.078 57.0461 236.292L56.2901 236.729C55.9191 236.943 55.6191 237.463 55.6191 237.891V264.202C55.6191 264.628 55.9211 265.151 56.2901 265.364L90.6151 285.181C90.9841 285.394 91.5881 285.394 91.9571 285.181L92.7131 284.744C93.0821 284.531 93.3841 284.008 93.3841 283.582V257.271Z" fill="#F5F5F5"/>
<path d="M93.1884 256.61L91.2834 257.708L55.8164 237.229C55.9374 237.02 56.1054 236.835 56.2894 236.728L57.0484 236.293C57.4164 236.077 58.0194 236.077 58.3884 236.293L92.7134 256.109C92.8994 256.217 93.0674 256.401 93.1884 256.61Z" fill="#E0E0E0"/>
<path d="M91.1279 285.325C91.1679 285.335 91.2079 285.335 91.2579 285.335H91.2179C91.1779 285.335 91.1579 285.335 91.1279 285.325Z" fill="#27DEBF"/>
<path d="M91.2882 257.705L90.9382 257.915C91.1482 257.995 91.2882 258.205 91.2882 258.485V284.795C91.2882 285.015 91.2082 285.165 91.0782 285.235C90.9882 285.275 90.8782 285.285 90.7582 285.245C90.7082 285.225 90.6582 285.205 90.6182 285.185L56.2882 265.365C55.9182 265.145 55.6182 264.625 55.6182 264.205V237.895C55.6182 237.675 55.6982 237.435 55.8182 237.225L91.2882 257.705Z" fill="#EBEBEB"/>
<path opacity="0.2" d="M91.2841 257.708L75.3881 263.647C74.2551 264.069 72.9821 263.65 72.3221 262.638L69.7691 258.727L55.6891 237.156L69.2601 258.874L55.6191 264.212C55.6221 264.428 55.7021 264.669 55.8281 264.882L69.2971 258.935L72.2631 263.682C72.9451 264.771 74.3231 265.196 75.4971 264.675L77.6091 263.743L91.0751 285.234C91.2021 285.167 91.2811 285.015 91.2811 284.793V284.355L77.6741 263.714L91.2841 257.708Z" fill="black"/>
<path d="M108.551 238.035C105.821 236.605 102.201 236.855 98.2413 239.145C93.7913 241.705 89.7813 246.335 86.9713 251.655C86.3113 252.885 85.7313 254.155 85.2113 255.435C83.6613 259.295 82.7613 263.335 82.7613 267.115V289.295C82.2613 289.295 81.7713 289.175 81.3913 288.965L41.8973 266.153C41.1473 265.713 40.5273 264.643 40.5273 263.773V242.713C40.5273 232.193 47.4573 219.673 55.9973 214.733C60.0473 212.393 63.7273 212.203 66.4873 213.753L66.4973 213.733L108.551 238.035Z" fill="#27DEBF"/>
<path opacity="0.2" d="M108.551 238.035C105.821 236.605 102.201 236.855 98.2413 239.145C93.7913 241.705 89.7813 246.335 86.9713 251.655C86.3113 252.885 85.7313 254.155 85.2113 255.435C83.6613 259.295 82.7613 263.335 82.7613 267.115V289.295C82.2613 289.295 81.7713 289.175 81.3913 288.965L41.8973 266.153C41.1473 265.713 40.5273 264.643 40.5273 263.773V242.713C40.5273 232.193 47.4573 219.673 55.9973 214.733C60.0473 212.393 63.7273 212.203 66.4873 213.753L66.4973 213.733L108.551 238.035Z" fill="black"/>
<path opacity="0.1" d="M41.8963 266.153L81.3903 288.965C81.7703 289.175 82.2603 289.295 82.7603 289.295V267.115C82.7603 265.095 83.0243 263.002 83.5003 260.901L41.2573 236.512C40.7853 238.608 40.5273 240.697 40.5273 242.713V263.773C40.5263 264.643 41.1463 265.713 41.8963 266.153Z" fill="black"/>
<path d="M85.2112 255.435C83.6612 259.295 82.7612 263.335 82.7612 267.115V289.295C82.5912 289.295 82.4212 289.275 82.2612 289.245C82.2512 287.965 82.2412 280.845 82.2412 267.115C82.2412 250.795 94.7912 240.425 98.2412 239.145C93.7912 241.705 89.7812 246.335 86.9712 251.655C86.3112 252.885 85.7312 254.155 85.2112 255.435Z" fill="#27DEBF"/>
<path opacity="0.4" d="M85.2112 255.435C83.6612 259.295 82.7612 263.335 82.7612 267.115V289.295C82.5912 289.295 82.4212 289.275 82.2612 289.245C82.2512 287.965 82.2412 280.845 82.2412 267.115C82.2412 250.795 94.7912 240.425 98.2412 239.145C93.7912 241.705 89.7812 246.335 86.9712 251.655C86.3112 252.885 85.7312 254.155 85.2112 255.435Z" fill="black"/>
<path d="M84.7636 286.767C84.5356 286.899 84.3516 286.792 84.3516 286.529V267.116C84.3516 263.732 85.1327 259.977 86.6057 256.238C86.6307 256.168 86.6596 256.095 86.6876 256.025C87.2396 254.644 87.8687 253.308 88.5667 252.029C91.3027 246.969 95.0446 242.815 99.0346 240.52C101.085 239.333 103.028 238.733 104.806 238.733C105.93 238.733 106.949 238.984 107.844 239.46C110.542 240.898 112.119 244.383 112.119 249.252V270.496C112.119 270.759 111.934 271.079 111.707 271.21L112.332 272.683C112.38 272.654 112.427 272.626 112.472 272.594C112.678 272.451 112.872 272.261 113.04 272.045C113.043 272.045 113.043 272.042 113.043 272.039C113.443 271.534 113.706 270.877 113.706 270.303V249.252C113.706 243.618 111.716 239.698 108.554 238.038C105.818 236.603 102.206 236.854 98.2406 239.146C93.7936 241.704 89.7847 246.332 86.9667 251.655C86.3157 252.883 85.7286 254.15 85.2146 255.435C83.6656 259.295 82.7646 263.332 82.7646 267.116V289.29C82.8436 289.29 82.9236 289.287 83.0026 289.28C83.4186 289.251 83.8216 289.144 84.1386 288.959L84.7636 286.767Z" fill="#27DEBF"/>
<path opacity="0.1" d="M84.7636 286.767C84.5356 286.899 84.3516 286.792 84.3516 286.529V267.116C84.3516 263.732 85.1327 259.977 86.6057 256.238C86.6307 256.168 86.6596 256.095 86.6876 256.025C87.2396 254.644 87.8687 253.308 88.5667 252.029C91.3027 246.969 95.0446 242.815 99.0346 240.52C101.085 239.333 103.028 238.733 104.806 238.733C105.93 238.733 106.949 238.984 107.844 239.46C110.542 240.898 112.119 244.383 112.119 249.252V270.496C112.119 270.759 111.934 271.079 111.707 271.21L112.332 272.683C112.38 272.654 112.427 272.626 112.472 272.594C112.678 272.451 112.872 272.261 113.04 272.045C113.043 272.045 113.043 272.042 113.043 272.039C113.443 271.534 113.706 270.877 113.706 270.303V249.252C113.706 243.618 111.716 239.698 108.554 238.038C105.818 236.603 102.206 236.854 98.2406 239.146C93.7936 241.704 89.7847 246.332 86.9667 251.655C86.3157 252.883 85.7286 254.15 85.2146 255.435C83.6656 259.295 82.7646 263.332 82.7646 267.116V289.29C82.8436 289.29 82.9236 289.287 83.0026 289.28C83.4186 289.251 83.8216 289.144 84.1386 288.959L84.7636 286.767Z" fill="black"/>
<path d="M178.939 229.877C178.939 228.22 180.102 226.205 181.537 225.377L309.711 151.381C311.146 150.553 313.472 150.552 314.907 151.381L317.835 153.072C319.27 153.9 320.433 155.915 320.433 157.572V259.45C320.433 261.1 319.264 263.125 317.835 263.95L189.661 337.945C188.232 338.77 185.894 338.77 184.465 337.945L181.537 336.255C180.108 335.43 178.939 333.405 178.939 331.755V229.877Z" fill="#27DEBF"/>
<g opacity="0.7">
<path d="M178.939 229.877C178.939 228.22 180.102 226.205 181.537 225.377L309.711 151.381C311.146 150.553 313.472 150.552 314.907 151.381L317.835 153.072C319.27 153.9 320.433 155.915 320.433 157.572V259.45C320.433 261.1 319.264 263.125 317.835 263.95L189.661 337.945C188.232 338.77 185.894 338.77 184.465 337.945L181.537 336.255C180.108 335.43 178.939 333.405 178.939 331.755V229.877Z" fill="white"/>
</g>
<path d="M179.697 227.318L187.071 231.571L319.67 155.012C319.203 154.201 318.552 153.488 317.839 153.07L314.901 151.386C313.475 150.55 311.14 150.55 309.714 151.386L181.54 225.376C180.815 225.794 180.164 226.506 179.697 227.318Z" fill="#27DEBF"/>
<path opacity="0.8" d="M179.697 227.318L187.071 231.571L319.67 155.012C319.203 154.201 318.552 153.488 317.839 153.07L314.901 151.386C313.475 150.55 311.14 150.55 309.714 151.386L181.54 225.376C180.815 225.794 180.164 226.506 179.697 227.318Z" fill="white"/>
<path opacity="0.1" d="M178.936 229.874V331.751C178.936 333.41 180.104 335.426 181.542 336.249L184.467 337.945C184.688 338.068 184.922 338.179 185.18 338.265C185.512 338.376 185.868 338.462 186.249 338.511C186.925 338.597 187.638 338.572 188.302 338.437C188.474 338.4 188.651 338.361 188.811 338.311C188.922 338.274 189.037 338.239 189.127 338.2C188.648 338.372 188.216 338.326 187.872 338.153C187.38 337.895 187.073 337.305 187.073 336.445V234.569C187.073 233.5 187.614 232.688 188.425 232.357L187.073 231.571L179.699 227.318C179.231 228.129 178.936 229.051 178.936 229.874Z" fill="#27DEBF"/>
<path opacity="0.05" d="M178.936 229.874V331.751C178.936 333.41 180.104 335.426 181.542 336.249L184.467 337.945C184.688 338.068 184.922 338.179 185.18 338.265C185.512 338.376 185.868 338.462 186.249 338.511C186.925 338.597 187.638 338.572 188.302 338.437C188.474 338.4 188.651 338.361 188.811 338.311C188.922 338.274 189.037 338.239 189.127 338.2C188.648 338.372 188.216 338.326 187.872 338.153C187.38 337.895 187.073 337.305 187.073 336.445V234.569C187.073 233.5 187.614 232.688 188.425 232.357L187.073 231.571L179.699 227.318C179.231 228.129 178.936 229.051 178.936 229.874Z" fill="black"/>
<path opacity="0.2" d="M187.071 231.57L248.623 254.566C253.011 256.201 257.939 254.578 260.496 250.658L270.38 235.515L319.67 155.012L272.35 236.084L320.432 259.495C320.42 260.331 320.112 261.265 319.621 262.088L272.203 236.32L260.717 254.702C258.075 258.918 252.74 260.565 248.193 258.549L240.015 254.939L187.871 338.155C187.379 337.897 187.072 337.307 187.072 336.447V334.751L239.76 254.827L187.071 231.57Z" fill="#27DEBF"/>
<path opacity="0.05" d="M187.071 231.57L248.623 254.566C253.011 256.201 257.939 254.578 260.496 250.658L270.38 235.515L319.67 155.012L272.35 236.084L320.432 259.495C320.42 260.331 320.112 261.265 319.621 262.088L272.203 236.32L260.717 254.702C258.075 258.918 252.74 260.565 248.193 258.549L240.015 254.939L187.871 338.155C187.379 337.897 187.072 337.307 187.072 336.447V334.751L239.76 254.827L187.071 231.57Z" fill="black"/>
<path d="M211.436 248.657C211.436 247 212.599 244.985 214.034 244.157L342.208 170.161C343.643 169.333 345.969 169.333 347.404 170.161L350.332 171.852C351.767 172.68 352.93 174.695 352.93 176.352V278.231C352.93 279.881 351.761 281.906 350.332 282.731L222.158 356.726C220.729 357.551 218.391 357.551 216.962 356.726L214.034 355.036C212.605 354.211 211.436 352.186 211.436 350.536V248.657Z" fill="#27DEBF"/>
<g opacity="0.5">
<path d="M211.436 248.657C211.436 247 212.599 244.985 214.034 244.157L342.208 170.161C343.643 169.333 345.969 169.333 347.404 170.161L350.332 171.852C351.767 172.68 352.93 174.695 352.93 176.352V278.231C352.93 279.881 351.761 281.906 350.332 282.731L222.158 356.726C220.729 357.551 218.391 357.551 216.962 356.726L214.034 355.036C212.605 354.211 211.436 352.186 211.436 350.536V248.657Z" fill="white"/>
</g>
<path d="M212.193 246.098L219.567 250.351L352.166 173.792C351.699 172.981 351.048 172.268 350.335 171.85L347.397 170.166C345.971 169.33 343.636 169.33 342.21 170.166L214.036 244.156C213.312 244.574 212.66 245.287 212.193 246.098Z" fill="#27DEBF"/>
<path opacity="0.6" d="M212.193 246.098L219.567 250.351L352.166 173.792C351.699 172.981 351.048 172.268 350.335 171.85L347.397 170.166C345.971 169.33 343.636 169.33 342.21 170.166L214.036 244.156C213.312 244.574 212.66 245.287 212.193 246.098Z" fill="white"/>
<path opacity="0.1" d="M211.432 248.655V350.532C211.432 352.191 212.6 354.207 214.038 355.03L216.963 356.726C217.184 356.849 217.418 356.96 217.676 357.046C218.008 357.157 218.364 357.243 218.745 357.292C219.421 357.378 220.134 357.353 220.798 357.218C220.97 357.181 221.142 357.132 221.302 357.083C221.413 357.046 221.511 357.009 221.609 356.96C221.13 357.132 220.712 357.107 220.368 356.935C219.876 356.677 219.569 356.087 219.569 355.227V253.35C219.569 252.281 220.11 251.47 220.921 251.138L219.569 250.352L212.195 246.099C211.727 246.91 211.432 247.831 211.432 248.655Z" fill="black"/>
<path opacity="0.4" d="M219.568 250.351L281.12 273.347C285.508 274.982 290.436 273.359 292.993 269.439L302.877 254.296L352.167 173.793L304.847 254.865L352.929 278.276C352.917 279.112 352.609 280.046 352.118 280.869L304.699 255.1L293.213 273.482C290.571 277.698 285.236 279.345 280.689 277.329L272.511 273.719L220.367 356.935C219.875 356.677 219.568 356.087 219.568 355.227V353.531L272.256 273.607L219.568 250.351Z" fill="#27DEBF"/>
<path opacity="0.05" d="M219.568 250.351L281.12 273.347C285.508 274.982 290.436 273.359 292.993 269.439L302.877 254.296L352.167 173.793L304.847 254.865L352.929 278.276C352.917 279.112 352.609 280.046 352.118 280.869L304.699 255.1L293.213 273.482C290.571 277.698 285.236 279.345 280.689 277.329L272.511 273.719L220.367 356.935C219.875 356.677 219.568 356.087 219.568 355.227V353.531L272.256 273.607L219.568 250.351Z" fill="black"/>
<path d="M244.202 268.255L377.583 191.247L382.92 194.328C384.3 195.125 385.429 197.08 385.429 198.674V297.067C385.429 298.66 384.3 300.616 382.92 301.413L254.557 375.523C253.177 376.32 250.919 376.32 249.539 375.523L246.711 373.89C245.331 373.093 244.202 371.138 244.202 369.544V268.255Z" fill="#27DEBF"/>
<path opacity="0.2" d="M244.202 268.255L377.583 191.247L382.92 194.328C384.3 195.125 385.429 197.08 385.429 198.674V297.067C385.429 298.66 384.3 300.616 382.92 301.413L254.557 375.523C253.177 376.32 250.919 376.32 249.539 375.523L246.711 373.89C245.331 373.093 244.202 371.138 244.202 369.544V268.255Z" fill="black"/>
<path d="M376.847 182.598L377.393 182.301L375.32 181.097V181.099C375.142 180.995 374.958 180.906 374.77 180.836L316.069 159.084C314.515 158.508 312.497 159.15 311.561 160.517L245.896 256.411C244.96 257.778 244.201 260.229 244.201 261.886C244.201 264.626 244.201 268.255 244.201 268.255L246.236 269.437L377.582 191.248V184.878C377.583 184.102 377.3 183.298 376.847 182.598Z" fill="#27DEBF"/>
<path opacity="0.1" d="M314.279 160.982C314.019 161.182 313.789 161.432 313.599 161.702L247.929 257.592C247.449 258.302 247.009 259.302 246.709 260.332L244.669 259.152C244.819 258.652 244.999 258.162 245.199 257.702C245.209 257.682 245.209 257.672 245.219 257.662C245.309 257.462 245.399 257.272 245.499 257.082C245.519 257.052 245.529 257.022 245.549 256.992C245.659 256.782 245.779 256.582 245.899 256.412L311.559 160.522C311.659 160.372 311.769 160.252 311.889 160.122C311.999 160.012 312.119 159.902 312.239 159.802L314.279 160.982Z" fill="black"/>
<path opacity="0.35" d="M377.369 182.292C377.189 182.182 376.999 182.092 376.809 182.022L318.099 160.262C316.859 159.802 315.319 160.122 314.279 160.982L312.239 159.802C313.289 158.952 314.819 158.622 316.069 159.082L374.769 180.832C374.959 180.902 375.139 180.992 375.319 181.102L377.369 182.292Z" fill="white"/>
<path d="M245.546 256.988C245.659 256.78 245.776 256.586 245.896 256.411C245.776 256.586 245.659 256.781 245.546 256.988Z" fill="#27DEBF"/>
<path d="M311.891 160.121C312.002 160.008 312.119 159.902 312.243 159.801C312.119 159.902 311.999 160.006 311.891 160.121Z" fill="#27DEBF"/>
<path d="M244.666 259.154C244.816 258.652 244.998 258.157 245.199 257.699C244.997 258.158 244.817 258.651 244.666 259.154Z" fill="#27DEBF"/>
<path d="M245.217 257.658C245.307 257.457 245.402 257.267 245.499 257.084C245.401 257.267 245.306 257.457 245.217 257.658Z" fill="#27DEBF"/>
<path opacity="0.2" d="M245.199 257.699C245.205 257.686 245.21 257.671 245.216 257.658C245.211 257.671 245.205 257.686 245.199 257.699Z" fill="black"/>
<path opacity="0.2" d="M311.561 160.517C311.658 160.376 311.773 160.247 311.891 160.122C311.77 160.244 311.658 160.375 311.561 160.517Z" fill="black"/>
<path d="M313.596 161.699L247.932 257.593C246.996 258.96 246.237 261.411 246.237 263.068C246.237 265.809 246.237 269.436 246.237 269.436L379.62 192.423L379.619 186.06C379.619 184.403 378.36 182.593 376.806 182.018L318.105 160.266C316.55 159.69 314.532 160.332 313.596 161.699Z" fill="#27DEBF"/>
<path opacity="0.05" d="M379.618 186.06C379.618 185.298 379.344 184.509 378.905 183.818L246.709 260.331C246.709 260.331 246.702 260.343 246.696 260.352C246.413 261.302 246.236 262.275 246.236 263.067C246.236 265.808 246.236 269.435 246.236 269.435L379.619 192.422L379.618 186.06Z" fill="black"/>
<path d="M373.921 159.031C373.921 158.346 373.682 157.863 373.295 157.634C372.903 157.402 369.616 155.51 369.224 155.284C368.832 155.058 368.291 155.091 367.694 155.436L258.289 218.598C257.093 219.288 256.124 220.967 256.124 222.348L256.125 353.371C256.125 354.061 256.367 354.546 256.758 354.772C257.15 354.999 260.429 356.891 260.821 357.118C261.213 357.344 261.754 357.312 262.352 356.966L371.757 293.804C372.953 293.114 373.922 291.435 373.922 290.054L373.921 159.031Z" fill="#F0F0F0"/>
<path d="M262.353 356.966L371.758 293.804C372.954 293.114 373.923 291.435 373.923 290.054L373.922 159.031C373.922 157.65 372.953 157.091 371.757 157.781L262.352 220.943C261.156 221.633 260.187 223.312 260.187 224.693L260.188 355.716C260.188 357.097 261.158 357.657 262.353 356.966Z" fill="#FAFAFA"/>
<path d="M332.466 232.964C332.35 234.515 332.077 235.967 331.648 237.325C331.217 238.683 330.692 239.902 330.072 240.984C329.452 242.066 328.763 242.998 328.008 243.776C327.252 244.556 326.49 245.14 325.723 245.533C324.353 246.234 323.302 246.486 322.572 246.292C321.841 246.098 321.297 245.758 320.94 245.273C320.704 245.786 320.456 246.307 320.193 246.831C319.93 247.358 319.601 247.879 319.205 248.396C318.809 248.913 318.319 249.418 317.736 249.913C317.153 250.408 316.435 250.873 315.585 251.307C314.571 251.826 313.664 252.005 312.865 251.844C312.067 251.684 311.393 251.215 310.848 250.435C310.301 249.655 309.901 248.596 309.646 247.255C309.39 245.916 309.3 244.324 309.374 242.482C309.448 240.641 309.664 238.892 310.026 237.236C310.388 235.581 310.863 234.071 311.455 232.712C312.046 231.35 312.758 230.162 313.591 229.148C314.423 228.134 315.347 227.367 316.362 226.847C317.485 226.273 318.31 226.096 318.839 226.315C319.366 226.537 319.795 226.936 320.121 227.513L320.143 226.972C320.161 226.532 320.285 226.097 320.516 225.664C320.749 225.231 321.016 224.937 321.317 224.783L323.455 223.69C323.755 223.536 324.011 223.562 324.218 223.771C324.423 223.979 324.518 224.304 324.5 224.743L323.989 237.534C323.95 238.495 324.134 239.129 324.538 239.431C324.942 239.734 325.418 239.746 325.966 239.466C326.514 239.185 326.998 238.673 327.417 237.929C327.835 237.186 328.098 236.158 328.204 234.849C328.302 233.74 328.374 232.595 328.421 231.413C328.468 230.232 328.471 229.143 328.431 228.143C328.354 226.026 328.089 224.259 327.636 222.844C327.182 221.428 326.517 220.405 325.644 219.774C324.769 219.142 323.65 218.901 322.29 219.047C320.927 219.195 319.301 219.751 317.41 220.719C315.82 221.533 314.381 222.593 313.095 223.898C311.808 225.203 310.689 226.678 309.736 228.321C308.785 229.966 308.001 231.748 307.388 233.669C306.774 235.593 306.347 237.556 306.106 239.562C306.03 240.111 305.969 240.818 305.921 241.686C305.873 242.554 305.83 243.458 305.792 244.398C305.754 245.34 305.725 246.248 305.704 247.121C305.682 247.995 305.688 248.697 305.721 249.229C305.808 251.067 306.094 252.647 306.578 253.967C307.062 255.289 307.733 256.31 308.59 257.026C309.448 257.745 310.493 258.112 311.728 258.128C312.963 258.144 314.375 257.745 315.965 256.931C317.089 256.357 318.065 255.778 318.894 255.198C319.722 254.617 320.45 254.027 321.079 253.433C321.707 252.836 322.245 252.257 322.699 251.692C323.15 251.127 323.562 250.574 323.933 250.031C324.247 249.558 324.495 249.206 324.68 248.973C324.864 248.742 325.106 248.549 325.408 248.394L328.45 246.837C328.751 246.684 329.012 246.697 329.234 246.878C329.454 247.058 329.541 247.417 329.492 247.951C329.479 248.271 329.372 248.621 329.169 248.999C328.56 250.134 327.874 251.328 327.112 252.581C326.35 253.832 325.449 255.058 324.408 256.258C323.366 257.458 322.139 258.635 320.723 259.791C319.307 260.946 317.64 262.016 315.722 262.997C313.337 264.217 311.261 264.777 309.493 264.683C307.725 264.587 306.251 263.988 305.075 262.884C303.896 261.78 302.997 260.259 302.377 258.321C301.756 256.385 301.413 254.195 301.35 251.758C301.345 251.212 301.355 250.472 301.378 249.537C301.401 248.605 301.434 247.627 301.475 246.605C301.516 245.584 301.561 244.61 301.612 243.682C301.661 242.753 301.711 242.021 301.759 241.488C301.995 238.937 302.509 236.331 303.3 233.67C304.091 231.011 305.152 228.478 306.483 226.07C307.813 223.664 309.412 221.463 311.278 219.47C313.141 217.478 315.267 215.871 317.652 214.651C320.448 213.221 322.798 212.508 324.704 212.514C326.61 212.519 328.152 213.063 329.331 214.146C330.508 215.231 331.361 216.777 331.885 218.782C332.409 220.789 332.7 223.07 332.759 225.629C332.772 226.643 332.751 227.839 332.696 229.221C332.639 230.61 332.563 231.855 332.466 232.964ZM313.689 240.275C313.61 242.237 313.81 243.625 314.288 244.44C314.765 245.255 315.482 245.417 316.443 244.926C317.456 244.408 318.239 243.488 318.789 242.168C319.337 240.847 319.653 239.187 319.733 237.184C319.812 235.223 319.618 233.821 319.155 232.979C318.692 232.138 317.952 231.978 316.939 232.495C315.978 232.986 315.218 233.914 314.654 235.281C314.088 236.649 313.767 238.314 313.689 240.275Z" fill="#27DEBF"/>
<path d="M260.183 355.715C260.183 356.325 260.373 356.775 260.693 357.035C259.963 356.625 257.123 354.975 256.763 354.775C256.363 354.545 256.123 354.065 256.123 353.375V222.345C256.123 221.655 256.363 220.895 256.763 220.215L260.823 222.555C260.423 223.235 260.183 224.005 260.183 224.695V355.715Z" fill="#E0E0E0"/>
<path d="M382.046 298.379C382.006 298.449 381.967 298.509 381.907 298.579L326.324 280.954C321.959 279.015 316.848 280.594 314.312 284.652L254.891 372.968L252.694 374.237L252.674 374.247C252.008 374.617 251.411 374.667 250.974 374.437L312.085 283.402C314.621 279.345 319.741 277.766 324.106 279.695L382.046 298.379Z" fill="#27DEBF"/>
<path opacity="0.4" d="M308.839 293.32L308.979 293.2L254.889 372.971L252.689 374.241L252.669 374.251C252.009 374.621 251.409 374.661 250.969 374.441L306.699 292.04L308.839 293.32Z" fill="white"/>
<path opacity="0.4" d="M382.049 298.382C382.009 298.452 381.969 298.512 381.909 298.582L326.319 280.951C321.959 279.011 316.849 280.591 314.309 284.651L312.109 283.371C314.649 279.331 319.749 277.771 324.109 279.691L382.049 298.382Z" fill="white"/>
<path d="M385.383 198.046H385.373C385.253 197.326 384.873 197.126 384.383 197.466C384.193 197.596 383.973 197.816 383.743 198.126L383.463 198.516L328.613 281.905L320.423 293.315C319.503 294.615 317.483 295.365 315.913 295.005L308.843 293.325L254.873 273.456C254.483 273.366 254.113 273.356 253.773 273.416C253.633 273.446 253.493 273.486 253.363 273.546L255.397 272.37L307.14 291.333L313.953 293.764C315.513 294.134 317.533 293.384 318.463 292.074L326.653 280.674L381.773 196.895C381.953 196.645 382.173 196.465 382.393 196.325L377.623 193.575L379.623 192.425L382.923 194.325C384.123 195.026 385.133 196.596 385.383 198.046Z" fill="#27DEBF"/>
<path opacity="0.4" d="M328.609 281.9L320.419 293.31C319.499 294.61 317.479 295.36 315.909 295L308.839 293.32L308.979 293.2L309.319 292.66L313.949 293.76C315.509 294.13 317.529 293.38 318.459 292.07L326.569 280.79L328.609 281.9Z" fill="white"/>
<path opacity="0.1" d="M382.919 194.322L379.619 192.422L377.619 193.572L382.389 196.322C382.393 196.325 382.397 196.328 382.401 196.331L382.393 196.326C382.153 196.477 381.942 196.662 381.773 196.896L326.65 280.67L326.57 280.78V280.79L328.61 281.9L383.46 198.511L383.74 198.121C383.97 197.811 384.19 197.591 384.38 197.461C384.87 197.121 385.25 197.321 385.37 198.041H385.38C385.129 196.592 384.119 195.022 382.919 194.322Z" fill="black"/>
<path d="M255.969 275.052L244.201 268.255L244.202 369.545C244.202 371.139 245.331 373.094 246.711 373.891L249.539 375.524C250.919 376.321 253.178 376.321 254.557 375.524L255.969 374.709V275.052Z" fill="#27DEBF"/>
<path opacity="0.15" d="M255.969 275.052L244.201 268.255L244.202 369.545C244.202 371.139 245.331 373.094 246.711 373.891L249.539 375.524C250.919 376.321 253.178 376.321 254.557 375.524L255.969 374.709V275.052Z" fill="black"/>
<path d="M385.433 198.676V297.066C385.433 297.896 385.133 298.806 384.653 299.606C384.253 300.266 383.753 300.856 383.183 301.256L383.083 301.306C383.023 301.346 382.983 301.386 382.923 301.416L254.563 375.516L254.543 375.526C253.873 375.906 253.273 375.956 252.833 375.726C252.443 375.526 252.173 375.116 252.083 374.526C252.063 374.386 252.053 374.236 252.053 374.076V275.676C252.053 274.086 253.303 273.086 254.873 273.456L308.843 293.325L315.913 295.005C317.483 295.365 319.503 294.615 320.423 293.315L328.613 281.905L383.463 198.516L383.743 198.126C384.673 196.836 385.433 197.076 385.433 198.676Z" fill="#27DEBF"/>
<path d="M382.922 301.417C382.98 301.388 383.028 301.349 383.087 301.311L383.183 301.253C383.753 300.857 384.255 300.268 384.651 299.611C385.126 298.823 385.42 297.923 385.43 297.113L328.618 281.907L366.663 310.805L382.922 301.417Z" fill="#27DEBF"/>
<path opacity="0.2" d="M382.922 301.417C382.98 301.388 383.028 301.349 383.087 301.311L383.183 301.253C383.753 300.857 384.255 300.268 384.651 299.611C385.126 298.823 385.42 297.923 385.43 297.113L328.618 281.907L366.663 310.805L382.922 301.417Z" fill="black"/>
<path d="M252.051 374.072C252.051 374.903 252.35 375.472 252.833 375.724C253.277 375.956 253.876 375.907 254.543 375.531L254.562 375.521L298.755 350.008L308.847 293.323L252.052 372.438L252.051 374.072Z" fill="#27DEBF"/>
<path opacity="0.15" d="M314.289 284.64L252.829 375.721C252.349 375.471 252.049 374.901 252.049 374.071L252.053 372.436L312.089 283.4C312.089 283.39 312.099 283.38 312.109 283.37L314.289 284.64Z" fill="black"/>
<path d="M384.65 299.611C384.254 300.268 383.752 300.857 383.182 301.253L383.086 301.311L254.562 375.521L254.543 375.531C253.877 375.908 253.278 375.956 252.833 375.724L314.299 284.626C316.846 280.559 321.994 278.98 326.384 280.918L384.65 299.611Z" fill="#27DEBF"/>
<path opacity="0.15" d="M244.669 259.152L246.709 260.332C246.419 261.292 246.239 262.272 246.239 263.072C246.239 265.812 246.239 269.432 246.239 269.432L244.199 268.252C244.199 268.252 244.199 264.622 244.199 261.882C244.199 261.092 244.379 260.112 244.669 259.152Z" fill="black"/>
<path d="M255.397 272.37L253.363 273.546L251.303 272.356L246.233 269.436L248.203 268.266L255.397 272.37Z" fill="#27DEBF"/>
<path opacity="0.1" d="M255.487 272.408L248.202 268.266L246.232 269.436L251.302 272.356L253.362 273.546L253.383 273.534C253.506 273.48 253.637 273.44 253.768 273.412C254.108 273.352 254.478 273.362 254.868 273.452L258.969 274.965L306.081 292.309L306.818 291.216L255.487 272.408Z" fill="black"/>
<path d="M145.026 102.074L137.408 106.472C137.446 106.132 137.472 105.794 137.472 105.464V103.257C137.472 99.329 134.715 97.737 131.313 99.701C129.935 100.496 128.668 101.757 127.642 103.231C127.085 98.292 123.21 96.453 118.504 99.17C113.415 102.108 109.29 109.253 109.29 115.129V118.431C109.29 119.953 109.572 121.235 110.07 122.256L103.742 125.909C101.855 126.999 100.326 129.648 100.326 131.826C100.326 134.005 101.855 134.888 103.742 133.798L145.026 109.963C146.913 108.874 148.442 106.224 148.442 104.046C148.443 101.868 146.913 100.985 145.026 102.074Z" fill="#F0F0F0"/>
<path d="M108.142 76.958L98.7633 82.373C98.8093 81.954 98.8423 81.538 98.8423 81.132V78.415C98.8423 73.58 95.4483 71.62 91.2603 74.038C89.5643 75.017 88.0043 76.568 86.7413 78.383C86.0553 72.303 81.2853 70.038 75.4923 73.383C69.2273 77 64.1493 85.796 64.1493 93.03V97.095C64.1493 98.969 64.4963 100.547 65.1093 101.804L57.3193 106.301C54.9963 107.642 53.1133 110.903 53.1133 113.585C53.1133 116.267 54.9963 117.354 57.3193 116.013L108.142 86.671C110.465 85.33 112.348 82.068 112.348 79.386C112.348 76.704 110.465 75.617 108.142 76.958Z" fill="#F0F0F0"/>
<path d="M404.958 164.723L440.335 142.067L455.918 147.07L404.958 164.723Z" fill="#27DEBF"/>
<path d="M404.958 164.723L435.534 139.224L428.739 131.378L404.958 164.723Z" fill="#27DEBF"/>
<path d="M435.534 139.224V145.142L404.958 164.723L435.534 139.224Z" fill="#27DEBF"/>
<path opacity="0.25" d="M435.534 139.224V145.142L404.958 164.723L435.534 139.224Z" fill="black"/>
<path d="M440.629 138.73C440.428 138.73 440.227 138.649 440.078 138.489C439.797 138.185 439.815 137.71 440.12 137.429C441.172 136.456 442.143 135.396 443.008 134.278C443.262 133.95 443.733 133.89 444.061 134.143C444.388 134.396 444.449 134.867 444.196 135.195C443.28 136.379 442.252 137.502 441.138 138.531C440.995 138.664 440.812 138.73 440.629 138.73ZM446.257 131.262C446.145 131.262 446.03 131.237 445.922 131.182C445.552 130.996 445.402 130.546 445.587 130.176C446.454 128.446 447.121 126.608 447.57 124.713C447.665 124.31 448.069 124.062 448.472 124.156C448.875 124.252 449.124 124.655 449.029 125.059C448.554 127.067 447.847 129.015 446.928 130.848C446.797 131.111 446.533 131.262 446.257 131.262ZM448.99 120.69C448.978 120.69 448.967 120.69 448.956 120.689C448.542 120.67 448.222 120.32 448.24 119.906C448.258 119.504 448.267 119.101 448.267 118.696C448.267 117.169 448.135 115.619 447.876 114.089C447.807 113.68 448.082 113.293 448.49 113.224C448.889 113.152 449.285 113.429 449.354 113.838C449.627 115.451 449.766 117.086 449.766 118.696C449.766 119.123 449.756 119.549 449.737 119.973C449.72 120.377 449.388 120.69 448.99 120.69ZM447.376 109.877C447.065 109.877 446.774 109.683 446.667 109.373C446.039 107.559 445.224 105.766 444.244 104.045C444.04 103.685 444.166 103.227 444.525 103.022C444.885 102.817 445.342 102.943 445.548 103.303C446.572 105.104 447.426 106.981 448.084 108.882C448.22 109.274 448.012 109.701 447.62 109.836C447.54 109.864 447.457 109.877 447.376 109.877ZM442.124 100.269C441.899 100.269 441.677 100.169 441.529 99.977C440.355 98.457 439.029 96.99 437.586 95.616C437.286 95.331 437.274 94.856 437.561 94.556C437.845 94.256 438.32 94.243 438.621 94.53C440.118 95.956 441.497 97.48 442.717 99.06C442.97 99.388 442.909 99.859 442.581 100.112C442.445 100.218 442.283 100.269 442.124 100.269ZM434.29 92.593C434.133 92.593 433.975 92.544 433.839 92.442C432.309 91.286 430.653 90.191 428.915 89.188C428.556 88.981 428.434 88.522 428.641 88.163C428.847 87.805 429.305 87.681 429.665 87.889C431.455 88.924 433.164 90.052 434.743 91.245C435.073 91.495 435.139 91.965 434.89 92.296C434.742 92.49 434.517 92.593 434.29 92.593ZM355.697 89.693C355.437 89.693 355.185 89.559 355.047 89.318C354.84 88.959 354.963 88.501 355.321 88.294C357.058 87.291 358.865 86.346 360.691 85.484C361.069 85.304 361.513 85.469 361.69 85.842C361.867 86.217 361.706 86.663 361.332 86.84C359.542 87.684 357.772 88.61 356.071 89.592C355.953 89.661 355.824 89.693 355.697 89.693ZM424.871 86.953C424.762 86.953 424.65 86.929 424.546 86.878C422.77 86.019 420.937 85.226 419.099 84.522C418.712 84.374 418.519 83.94 418.667 83.553C418.815 83.166 419.248 82.972 419.636 83.121C421.513 83.841 423.385 84.65 425.199 85.527C425.572 85.707 425.728 86.156 425.548 86.529C425.418 86.797 425.15 86.953 424.871 86.953ZM365.602 84.936C365.302 84.936 365.019 84.755 364.904 84.459C364.753 84.073 364.943 83.638 365.329 83.487C367.2 82.755 369.127 82.09 371.057 81.508C371.451 81.389 371.871 81.614 371.991 82.01C372.111 82.407 371.887 82.825 371.489 82.945C369.599 83.514 367.711 84.166 365.877 84.883C365.786 84.919 365.693 84.936 365.602 84.936ZM414.64 82.947C414.568 82.947 414.494 82.937 414.421 82.914C412.541 82.34 410.608 81.837 408.677 81.418C408.273 81.33 408.016 80.931 408.103 80.526C408.191 80.121 408.592 79.864 408.996 79.952C410.968 80.379 412.94 80.893 414.859 81.479C415.255 81.6 415.478 82.019 415.358 82.416C415.258 82.739 414.961 82.947 414.64 82.947ZM376.102 81.694C375.761 81.694 375.452 81.459 375.373 81.113C375.279 80.709 375.531 80.307 375.936 80.214C377.892 79.763 379.894 79.385 381.887 79.089C382.288 79.025 382.678 79.311 382.74 79.72C382.801 80.13 382.517 80.512 382.108 80.572C380.154 80.862 378.19 81.233 376.272 81.675C376.215 81.688 376.158 81.694 376.102 81.694ZM403.919 80.544C403.883 80.544 403.847 80.541 403.81 80.536C401.862 80.251 399.875 80.042 397.905 79.915C397.492 79.888 397.178 79.531 397.206 79.118C397.232 78.704 397.589 78.391 398.003 78.418C400.013 78.548 402.04 78.762 404.027 79.052C404.437 79.112 404.72 79.493 404.661 79.903C404.605 80.275 404.285 80.544 403.919 80.544ZM386.962 80.01C386.575 80.01 386.247 79.713 386.216 79.321C386.182 78.908 386.489 78.546 386.902 78.512C388.91 78.348 390.947 78.263 392.956 78.259H392.957C393.37 78.259 393.706 78.594 393.707 79.007C393.708 79.421 393.373 79.757 392.958 79.759C390.989 79.763 388.993 79.846 387.024 80.007C387.004 80.009 386.983 80.01 386.962 80.01Z" fill="#E0E0E0"/>
</svg>
