<svg width="645" height="537" viewBox="0 0 645 537" fill="none" xmlns="http://www.w3.org/2000/svg">
<g clip-path="url(#clip0_23_280)">
<path d="M521.99 341.691C522.567 341.753 523.146 341.607 523.649 341.274C524.152 340.941 524.555 340.437 524.803 339.829C525.051 339.221 525.132 338.539 525.035 337.876C524.938 337.213 524.669 336.6 524.262 336.121C524.204 335.789 524.163 335.55 524.105 335.218C524.133 335.148 524.161 335.078 524.19 335.008C524.836 333.442 525.866 332.133 527.151 331.245C528.435 330.357 529.917 329.93 531.41 330.017C532.903 330.104 534.34 330.702 535.542 331.735C536.743 332.768 537.655 334.19 538.162 335.824C540.192 342.342 542.845 348.905 543.291 355.705C543.486 358.711 543.232 361.734 542.538 364.638C548.452 351.325 551.832 336.691 552.45 321.727C552.601 317.972 552.572 314.209 552.362 310.458C552.188 307.383 551.897 304.323 551.491 301.278C549.269 284.759 543.706 269.087 535.258 255.55C531.027 252.564 527.685 248.142 525.683 242.881C524.958 240.989 524.472 238.986 524.24 236.932C524.727 237.033 525.223 237.107 525.711 237.171C525.863 237.188 526.024 237.206 526.176 237.224L526.233 237.23C526.77 237.287 527.31 237.163 527.788 236.872C528.266 236.581 528.661 236.136 528.926 235.59C529.191 235.044 529.314 234.421 529.281 233.795C529.249 233.17 529.061 232.569 528.741 232.064C528.541 231.751 528.342 231.437 528.142 231.123C527.84 230.64 527.529 230.165 527.226 229.681C527.191 229.635 527.158 229.586 527.128 229.536C526.779 228.984 526.431 228.442 526.083 227.89C526.806 226.711 527.754 225.742 528.852 225.058C532.654 222.74 537.691 224.76 540.209 228.794C542.735 232.829 543.022 238.313 541.896 243.122C540.814 247.207 539.142 251.049 536.951 254.483C537.14 254.792 537.337 255.093 537.525 255.402C540.975 261.082 543.938 267.14 546.37 273.491C545.997 266.504 547.057 259.513 549.463 253.094C551.88 247.121 556.159 242.212 559.957 237.141C564.52 231.05 573.245 234.287 573.682 242.345C573.687 242.423 573.691 242.501 573.695 242.579C573.148 242.9 572.611 243.242 572.085 243.607C571.424 244.069 570.899 244.754 570.578 245.569C570.258 246.385 570.157 247.294 570.288 248.177C570.42 249.061 570.779 249.877 571.317 250.52C571.855 251.163 572.547 251.602 573.304 251.78L573.382 251.798C573.102 254.018 572.678 256.211 572.113 258.357C570.484 264.344 567.808 269.877 564.252 274.606C560.696 279.336 556.338 283.162 551.45 285.843C551.129 286.013 550.816 286.183 550.496 286.343C552.834 295.356 554.154 304.685 554.421 314.093C554.564 319.643 554.32 325.198 553.691 330.702L553.723 330.507C554.997 324.418 558.041 319.026 562.342 315.242C568.725 309.707 577.498 308.016 584.319 303.659C585.045 303.172 585.876 302.935 586.714 302.978C587.552 303.021 588.362 303.341 589.048 303.901C589.734 304.461 590.268 305.238 590.587 306.139C590.906 307.04 590.996 308.028 590.848 308.987C590.836 309.055 590.824 309.123 590.812 309.191C589.805 309.605 588.82 310.092 587.865 310.649C587.318 310.969 586.782 311.312 586.256 311.676C585.595 312.139 585.069 312.823 584.749 313.638C584.428 314.454 584.327 315.363 584.459 316.247C584.591 317.13 584.949 317.947 585.487 318.59C586.025 319.232 586.718 319.671 587.474 319.849L587.552 319.867C587.608 319.88 587.656 319.892 587.711 319.904C585.834 324.499 583.29 328.683 580.191 332.275C576.366 336.619 571.817 340.01 566.824 342.24C561.831 344.469 556.498 345.49 551.153 345.241L551.145 345.24C549.401 352.484 547.014 359.497 544.022 366.168L521.62 364.956C521.551 364.663 521.491 364.36 521.43 364.067C523.498 364.331 525.585 364.299 527.646 363.973C526.079 361.514 524.513 359.037 522.946 356.578C522.91 356.531 522.877 356.483 522.847 356.432C522.052 355.174 521.249 353.925 520.455 352.666L520.455 352.665C520.559 348.946 521.074 345.257 521.989 341.691L521.99 341.691Z" fill="#04364A"/>
<path d="M70.6152 116.66C70.043 116.763 69.4573 116.66 68.9374 116.364C68.4175 116.067 67.9886 115.593 67.7087 115.004C67.4289 114.415 67.3116 113.74 67.3729 113.071C67.4341 112.402 67.6709 111.771 68.0511 111.264C68.0913 110.928 68.1201 110.687 68.1603 110.351C68.1283 110.283 68.0961 110.215 68.0639 110.148C67.3357 108.631 66.238 107.399 64.9087 106.605C63.5794 105.81 62.0777 105.49 60.5924 105.685C59.107 105.879 57.7041 106.579 56.56 107.696C55.4158 108.813 54.5814 110.299 54.1616 111.965C52.4828 118.617 50.1836 125.358 50.1006 132.177C50.065 135.191 50.4798 138.189 51.3265 141.039C44.7162 128.175 40.5641 113.811 39.1518 98.9204C38.8007 95.1833 38.6298 91.4263 38.6398 87.667C38.6504 84.5848 38.7775 81.5099 39.0213 78.4422C40.36 61.7949 45.0789 45.754 52.7906 31.6367C56.8552 28.3519 59.9554 23.6986 61.6733 18.304C62.297 16.364 62.6757 14.3294 62.7976 12.2634C62.3171 12.3992 61.826 12.5082 61.342 12.6069C61.191 12.6353 61.0321 12.6649 60.8811 12.6933L60.8242 12.7036C60.2911 12.7992 59.7455 12.7138 59.2532 12.4576C58.761 12.2014 58.3429 11.7854 58.0494 11.2596C57.756 10.7339 57.5996 10.1208 57.5991 9.49413C57.5986 8.8675 57.754 8.25408 58.0466 7.72769C58.229 7.40021 58.4114 7.07286 58.5939 6.74566C58.8702 6.2411 59.1552 5.74485 59.4313 5.24037C59.4641 5.19162 59.4944 5.14071 59.5222 5.08793C59.8403 4.51234 60.1591 3.9461 60.4772 3.37052C59.6929 2.24552 58.6956 1.34618 57.5629 0.742587C53.6444 -1.29828 48.7247 1.07972 46.4261 5.28687C44.1196 9.49494 44.1247 14.9891 45.5044 19.7082C46.8013 23.7083 48.6748 27.4228 51.0447 30.6926C50.8727 31.0149 50.6918 31.3289 50.5199 31.6512C47.3788 37.5677 44.7443 43.8275 42.6544 50.3409C42.6554 43.3397 41.2256 36.4382 38.4826 30.2042C35.7522 24.4163 31.2202 19.8237 27.1596 15.0349C22.2821 9.28284 13.746 13.1407 13.7376 21.2147C13.7375 21.2929 13.7376 21.371 13.7379 21.4491C14.3007 21.7296 14.8543 22.0328 15.3987 22.3589C16.083 22.7734 16.6437 23.4185 17.0071 24.2095C17.3705 25.0005 17.5197 25.9006 17.4352 26.7919C17.3507 27.6831 17.0364 28.5239 16.5336 29.2041C16.0307 29.8843 15.3627 30.3722 14.617 30.6038L14.5407 30.6275C14.9375 32.8237 15.4774 34.9817 16.1558 37.0829C18.1001 42.9421 21.0655 48.2716 24.8659 52.7372C28.6664 57.2028 33.2201 60.7082 38.2414 63.0336C38.5705 63.1799 38.8915 63.3271 39.2197 63.4641C37.3652 72.6281 36.5444 82.0334 36.7779 91.4432C36.9309 96.9929 37.47 102.519 38.3899 107.968L38.3476 107.776C36.7521 101.789 33.427 96.626 28.9338 93.1576C22.2683 88.0918 13.4224 87.034 6.38192 83.1747C5.6314 82.7402 4.78954 82.5639 3.95564 82.6669C3.12175 82.7699 2.33059 83.1478 1.67549 83.7559C1.02039 84.3641 0.528662 85.1772 0.258313 86.0994C-0.0120356 87.0215 -0.0497367 88.0142 0.149661 88.9605C0.164903 89.0277 0.180304 89.0948 0.195853 89.162C1.22346 89.5032 2.23177 89.9185 3.21492 90.4054C3.77773 90.686 4.33133 90.9893 4.87573 91.3152C5.56011 91.7298 6.12072 92.3748 6.48412 93.1659C6.84752 93.9569 6.99674 94.857 6.91225 95.7482C6.82776 96.6395 6.5135 97.4802 6.01063 98.1604C5.50776 98.8407 4.83974 99.3286 4.0941 99.5602L4.01769 99.5839C3.96264 99.6002 3.91554 99.6156 3.86058 99.632C5.97856 104.083 8.74028 108.077 12.0248 111.44C16.0736 115.501 20.7937 118.559 25.8959 120.426C30.9981 122.293 36.3748 122.929 41.6963 122.296L41.7043 122.295C43.8301 129.4 46.5858 136.229 49.9269 142.672L72.2216 139.855C72.2747 139.557 72.3187 139.251 72.3637 138.954C70.3142 139.365 68.229 139.484 66.1547 139.306C67.5881 136.739 69.0196 134.154 70.453 131.587C70.4858 131.538 70.5161 131.488 70.5439 131.435C71.2699 130.122 72.0049 128.817 72.7309 127.505L72.7312 127.503C72.4296 123.798 71.7186 120.154 70.6159 116.661L70.6152 116.66Z" fill="#04364A"/>
<path d="M412.693 239.131C412.696 261.705 408.872 284.059 401.437 304.916C394.002 325.772 383.103 344.723 369.362 360.685C355.621 376.647 339.308 389.308 321.354 397.945C303.4 406.582 284.157 411.025 264.724 411.02C183.005 411.02 116.756 334.062 116.756 239.131C116.742 220.666 119.29 202.318 124.303 184.795C134.143 150.572 152.996 120.809 178.195 99.7138C203.394 78.6187 233.664 67.2594 264.724 67.2423C291.512 67.2314 317.799 75.6712 340.78 91.6606C363.761 107.65 382.573 130.589 395.208 158.028C398.34 164.798 401.073 171.808 403.387 179.008C403.707 180.011 404.02 181.013 404.324 182.026V182.035C405.681 186.485 406.875 191.018 407.908 195.634C411.095 209.836 412.703 224.454 412.693 239.131Z" fill="#176B87"/>
<path d="M248.535 123.16C241.886 118.983 234.503 116.624 226.949 116.265C219.396 115.907 211.872 117.556 204.951 121.088C198.857 124.169 192.44 129.696 190.407 139.676C198.629 134.039 209.272 142.945 211.388 157.232L210.894 157.39C209.777 167.286 212.271 178.06 217.101 184.196C217.735 177.823 221.343 173.485 224.891 170.775C228.439 168.065 232.365 166.097 235.073 161.439C238.284 155.917 239.099 147.847 240.375 140.486C241.651 133.124 244.07 125.211 248.535 123.16Z" fill="white"/>
<path d="M202.512 207.37C200.235 211.342 197.193 213.835 194.464 216.938C191.743 220.052 189.154 224.253 188.611 229.649C188.266 233.105 188.8 236.62 188.726 240.115C188.652 243.61 187.65 247.544 185.603 248.413C182.372 249.769 179.906 242.798 176.585 242.311C173.946 241.929 171.57 246.752 172.335 250.934C173.099 255.117 176.692 256.969 178.755 254.238C180.621 257.877 179.306 264.475 176.503 265.593C176.207 267.884 175.911 270.167 175.623 272.458C168.537 266.7 161.377 260.846 155.351 252.414C148.65 243.116 144.493 231.703 143.415 219.641C142.634 209.948 143.793 198.861 139.963 191.403C136.896 185.435 131.635 184.117 126.9 184.49C126.037 184.556 125.166 184.671 124.303 184.795C127.095 175.052 130.642 165.624 134.899 156.624C135.862 156.144 136.757 155.497 137.554 154.705C141.96 150.36 143.917 141.565 147.493 135.482C147.723 135.091 147.961 134.709 148.208 134.336C151.866 128.788 156.765 125.933 161.5 123.278C171.981 117.367 182.767 111.379 193.831 112.201L190.683 112.554C187.008 124.51 183.331 136.466 179.651 148.422C179.092 150.255 178.528 152.092 177.958 153.932C175.87 160.731 173.716 167.969 174.036 175.58C174.226 180.087 175.574 184.9 178.138 186.447C180.531 187.88 183.145 186.123 185.455 184.384C186.433 183.659 187.403 182.933 188.381 182.198C191.891 179.572 195.78 176.879 199.487 178.636C202.882 180.24 205.389 185.597 205.866 191.375C206.303 196.991 205.124 202.617 202.512 207.37Z" fill="white"/>
<path d="M223.389 288.995C213.137 281.663 202.885 274.33 192.633 266.998L192.807 266.477C186.433 269.297 183.787 282.459 184.84 293.223C185.894 303.986 189.466 313.608 191.27 324.096C193.703 338.448 192.785 353.296 188.611 367.096C202.091 349.525 214.021 330.428 224.222 310.092C225.647 307.529 226.732 304.732 227.443 301.795C228.094 298.67 227.994 294.913 226.69 292.407C225.851 290.969 224.716 289.796 223.389 288.995Z" fill="white"/>
<path d="M182.929 155.595C181.84 158.438 181.421 162.229 182.409 165.171C183.418 168.176 185.551 169.534 187.514 170.664L193.179 173.926C195.063 175.011 197.095 176.107 199.016 175.214C201.333 174.137 202.939 169.918 202.524 166C202.081 161.831 199.819 158.964 197.727 156.522C194.8 153.105 191.872 149.687 188.944 146.27L187.295 148.618C185.51 150.64 184.034 152.999 182.929 155.595Z" fill="white"/>
<path d="M382.326 200.16C384.875 200.857 387.423 201.554 389.971 202.251C389.527 212.25 385.261 221.503 379.54 224.855C377.156 226.249 374.5 226.765 372.527 229.372C370.744 231.74 369.839 235.426 369.009 238.95C367.554 245.099 366.099 251.249 364.644 257.399C363.082 264.026 361.076 271.389 357.015 273.776C353.53 275.829 349.543 273.318 346.863 269.106C344.183 264.895 342.547 259.232 340.961 253.713C341.06 259.729 338.651 265.631 335.24 267.722C331.82 269.813 327.66 267.922 325.375 263.253C323.731 259.901 323.049 255.479 321.437 252.08C319.826 248.68 316.448 246.732 314.688 249.922C313.529 252.042 313.677 255.289 313.102 257.982C312.206 262.164 309.493 264.79 306.805 265.019C304.125 265.249 301.511 263.453 299.267 261.018C294.639 255.976 291.227 247.974 289.904 239.083C289.32 235.12 289.156 230.804 290.167 227.089C291.178 223.375 293.619 220.51 296.044 221.216C297.639 217.301 294.491 212.106 291.655 212.565C288.81 213.023 286.583 216.566 284.248 219.287C281.922 222.009 278.666 223.986 276.323 221.283C276.34 223.795 274.581 225.456 273.06 225.246C271.547 225.046 270.199 223.632 268.81 222.63C263.442 218.743 256.627 221.321 252.813 228.674C255.197 216.89 258.691 203.369 266.015 200.599C269.007 199.463 272.271 200.399 275.099 198.431C280.105 194.946 281.116 181.777 276.792 176.344C277.343 181.481 277.236 187.478 274.901 190.992C272.567 194.507 267.667 192.215 267.963 187.02C267.289 190.601 263.935 191.145 262.39 188.395C260.836 185.645 260.968 181.147 262.069 177.862C263.171 174.577 265.045 172.218 266.862 169.955C270.766 165.095 274.729 160.177 279.25 157.121C283.779 154.065 289.008 153.034 293.545 156.07C295.938 157.675 298.042 160.349 300.483 161.762C302.925 163.185 306.024 163.003 307.643 159.68C309.46 155.975 308.605 150.474 309.279 145.843C310.488 137.659 317.533 133.83 321.437 139.235C318.519 138.366 315.502 142.377 315.14 147.237C314.771 152.098 316.883 157.006 319.711 158.477C324.462 160.921 329.115 154.772 332.708 149.08C336.456 143.121 340.21 137.166 343.97 131.213C344.57 130.2 345.244 129.248 345.984 128.368C347.161 127.034 348.731 126.271 350.375 126.232C352.019 126.193 353.614 126.881 354.837 128.158C358.635 131.758 360.419 139.139 363.534 144.22C368.056 151.601 374.821 153.397 381.118 154.829C385.812 155.889 390.508 156.955 395.208 158.028C398.34 164.798 401.073 171.807 403.387 179.008C395.43 182.933 388.089 190.276 382.326 200.16Z" fill="white"/>
<path d="M397.501 315.058C393.979 323.366 389.883 331.327 385.253 338.865C382.293 337.394 379.112 340.02 376.342 342.484C373.448 345.062 369.971 347.574 367.003 345.225C363.97 342.818 362.992 336.086 363.954 330.748C364.915 325.419 367.316 321.179 369.642 317.15C372.108 312.871 374.747 308.431 378.175 306.769C381.611 305.108 386.025 307.457 387.028 313.129L389.462 313.034C388.097 310.857 388.812 306.349 390.645 305.557C392.758 304.63 394.591 308.001 395.841 310.981C396.4 312.327 396.967 313.683 397.501 315.058Z" fill="white"/>
<path d="M304.309 274.722C299.079 275.104 294.937 267.625 292.184 260.267C289.431 252.909 286.919 244.494 282.2 240.749C279.503 238.609 276.429 238.316 273.504 237.278C270.579 236.242 267.518 234.096 266.12 229.726L262.802 228.169C258.42 231.031 253.981 233.945 250.206 238.603C245.971 243.828 243.334 250.526 242.7 257.664C242.066 265.379 244.406 273.98 248.779 276.878C252.235 279.168 256.258 277.725 259.758 279.821C264.13 282.44 266.726 290.048 267.709 297.56C268.692 305.072 268.443 312.879 269.146 320.476C269.849 328.074 271.787 335.979 275.797 339.872C280.815 344.744 288.179 340.696 290.431 331.827C291.535 327.477 291.497 322.568 292.323 318.052C293.778 310.1 297.703 304.2 300.816 297.676C303.929 291.153 306.38 282.293 304.309 274.722Z" fill="white"/>
<path d="M252.628 196.578C253.116 197.1 253.571 197.661 253.99 198.258C254.424 199.127 254.645 200.117 254.63 201.121C254.616 202.125 254.365 203.105 253.906 203.956C254.536 203.915 255.152 203.722 255.715 203.39C256.277 203.057 256.774 202.593 257.175 202.027C258.129 200.764 258.969 199.39 259.68 197.926C260.214 196.916 260.781 195.55 260.419 194.35C260.172 193.53 259.588 193.181 259.178 192.565C258.529 191.589 258.368 190.038 258.032 188.698C257.306 185.803 255.568 183.675 253.681 183.37L253.943 183.429C253.154 183.742 252.604 185.197 252.778 186.505C252.937 187.697 253.596 188.686 253.531 189.902C253.436 191.649 251.933 192.469 251.84 194.217C251.825 195.094 252.108 195.942 252.628 196.578Z" fill="white"/>
<path d="M243.667 166.88C243.675 166.877 243.683 166.877 243.69 166.874C243.851 166.704 244 166.519 244.137 166.322L243.667 166.88Z" fill="white"/>
<path d="M245.236 175.083C246.392 174.219 247.038 171.83 246.655 169.831C246.276 167.843 244.931 166.507 243.69 166.874C243.331 167.298 242.884 167.609 242.392 167.777C241.901 167.945 241.381 167.965 240.881 167.835C240.114 167.606 239.272 167.015 238.607 167.687C238.226 168.188 237.96 168.792 237.832 169.443C237.586 170.321 237.34 171.199 237.094 172.077C236.977 172.391 236.946 172.74 237.006 173.075C237.054 173.209 237.13 173.327 237.227 173.417C237.325 173.507 237.441 173.567 237.564 173.59C239.041 174.096 240.519 174.602 241.996 175.108C243.072 175.476 244.234 175.831 245.236 175.083Z" fill="white"/>
<path d="M356.739 288.338C356.057 287.039 355.374 285.741 354.691 284.442C354.02 282.938 353.104 281.601 351.992 280.505C351.748 280.267 351.465 280.089 351.16 279.98C350.855 279.871 350.535 279.834 350.218 279.87C349.901 279.907 349.593 280.018 349.313 280.195C349.033 280.372 348.786 280.612 348.587 280.901L348.67 281.643C350.227 283.911 351.873 286.431 352.268 289.797C352.423 291.124 352.369 292.498 352.506 293.83C352.642 295.163 353.03 296.545 353.771 297.12C354.846 297.954 356.108 296.724 356.873 295.223C357.557 293.99 357.864 292.526 357.745 291.066C357.574 290.086 357.232 289.157 356.739 288.338Z" fill="white"/>
<path d="M387.125 238.746C387.323 237.242 387.52 235.737 387.718 234.233C388.038 232.581 388.078 230.872 387.835 229.202C387.78 228.837 387.663 228.489 387.49 228.178C387.317 227.867 387.093 227.598 386.83 227.389C386.566 227.18 386.27 227.035 385.958 226.961C385.645 226.886 385.323 226.886 385.011 226.958L384.663 227.588C384.596 230.487 384.459 233.647 382.895 236.517C382.279 237.649 381.476 238.659 380.841 239.781C380.207 240.903 379.738 242.251 379.986 243.244C380.346 244.687 381.993 244.69 383.411 244.114C384.618 243.682 385.664 242.791 386.382 241.585C386.795 240.708 387.048 239.741 387.125 238.746Z" fill="white"/>
<path d="M367.45 290.028C367.784 288.913 367.302 287.634 367.2 286.402C367.151 284.811 367.514 283.239 368.242 281.89C368.966 280.618 369.514 279.222 369.867 277.753C370.016 277.084 369.989 276.378 369.789 275.727C369.563 275.137 369.016 274.868 368.702 275.335L369.373 275.838C368.466 275.65 367.534 275.702 366.647 275.991C366.14 276.217 365.688 276.58 365.329 277.051C364.969 277.522 364.712 278.087 364.58 278.698C364.469 279.65 364.288 280.589 364.038 281.506C363.637 282.463 362.861 282.781 362.374 283.621C362.041 284.366 361.874 285.195 361.885 286.033C361.897 286.872 362.089 287.694 362.442 288.426C363.055 289.622 364.028 290.511 365.173 290.921C365.994 291.263 367.074 291.281 367.45 290.028Z" fill="white"/>
<path d="M386.523 296.712C386.82 297.609 387.217 298.456 387.705 299.232C388.618 300.301 389.859 299.644 390.967 299.384C391.972 299.2 393.001 299.335 393.946 299.775C394.891 300.215 395.715 300.944 396.332 301.884C395.902 299.395 394.965 297.063 393.598 295.082C392.231 293.101 390.475 291.53 388.478 290.501C385.866 289.265 383.116 289.145 380.4 289.034L379.931 289.174C381.127 293.216 384.88 293.125 386.523 296.712Z" fill="white"/>
<path d="M305.74 304.98L305.747 304.997C305.793 304.896 305.838 304.794 305.884 304.692L305.74 304.98Z" fill="white"/>
<path d="M302.847 311.486C302.216 312.817 301.673 314.202 301.223 315.628C300.628 317.939 300.234 320.314 300.047 322.716C299.9 324.082 299.855 325.827 300.591 326.493C300.803 326.656 301.058 326.724 301.31 326.684C301.561 326.645 301.792 326.5 301.958 326.277C302.368 325.774 302.703 325.196 302.95 324.566C304.398 321.669 305.522 318.569 306.295 315.342C307 311.942 306.994 307.94 305.747 304.997C304.78 307.16 303.814 309.323 302.847 311.486Z" fill="white"/>
<path d="M274.933 138.149C275.392 138.671 275.973 139.026 276.604 139.169C277.235 139.312 277.888 139.237 278.483 138.954C279.715 138.329 280.845 137.462 281.823 136.391C282.634 135.694 283.321 134.823 283.848 133.825C284.139 133.228 284.325 132.571 284.396 131.891C284.467 131.21 284.422 130.52 284.263 129.86C283.805 128.306 282.644 127.785 281.62 127.432C279.981 126.867 278.342 126.303 276.702 125.738L277.888 124.496C276.668 123.736 275.318 125.147 274.555 126.895C274.066 128.037 273.725 129.256 273.544 130.513C273.135 133.256 273.535 136.523 274.933 138.149Z" fill="white"/>
<path d="M303.877 126.862C304.339 127.454 304.977 127.819 305.663 127.884C306.349 127.948 307.03 127.708 307.568 127.211C308.031 126.806 308.416 126.293 308.697 125.705C308.979 125.116 309.15 124.465 309.201 123.795C309.317 122.297 308.679 120.632 307.768 120.502L307.977 119.1C306.222 118.732 304.064 118.658 303.124 121.133C302.807 122.081 302.709 123.109 302.841 124.114C302.974 125.12 303.331 126.067 303.877 126.862Z" fill="white"/>
<path d="M300.01 52.2764C289.726 50.9287 279.402 54.3822 271.309 61.8771C263.217 69.372 258.019 80.2943 256.859 92.2413C254.443 117.12 265.726 171.144 286.296 193.507C295.982 150.66 329.923 125.246 334.414 102.404C339.212 77.9962 321.426 55.0827 300.01 52.2764Z" fill="#04364A"/>
<path d="M292.897 107.583C299.926 107.583 305.624 100.964 305.624 92.7993C305.624 84.6342 299.926 78.015 292.897 78.015C285.869 78.015 280.171 84.6342 280.171 92.7993C280.171 100.964 285.869 107.583 292.897 107.583Z" fill="white"/>
<path d="M279.516 214.824C284.12 214.824 287.852 210.489 287.852 205.141C287.852 199.793 284.12 195.457 279.516 195.457C274.912 195.457 271.18 199.793 271.18 205.141C271.18 210.489 274.912 214.824 279.516 214.824Z" fill="#04364A"/>
<path opacity="0.2" d="M303.428 82.2071C304.86 83.2071 306.109 84.525 307.103 86.0857C308.097 87.6464 308.817 89.4192 309.221 91.303C309.626 93.1868 309.706 95.1447 309.459 97.0648C309.212 98.9849 308.642 100.83 307.781 102.494C306.92 104.158 305.786 105.609 304.442 106.764C303.099 107.918 301.573 108.754 299.951 109.224C296.676 110.173 293.211 109.571 290.318 107.551C293.268 108.314 296.355 107.832 299.026 106.191C301.698 104.551 303.78 101.86 304.9 98.5993C306.02 95.3387 306.104 91.7217 305.138 88.3955C304.172 85.0693 302.218 82.2512 299.626 80.4455C300.967 80.7907 302.251 81.3855 303.428 82.2071Z" fill="#231F20"/>
<path opacity="0.2" d="M334.463 102.452C329.972 125.294 296.032 150.708 286.346 193.555C284.412 191.432 282.615 189.145 280.971 186.713C291.855 146.439 323.683 121.966 328.022 99.8966C331.905 80.1439 320.996 61.3717 305.343 53.4417C324.291 58.9749 338.861 80.0843 334.463 102.452Z" fill="#231F20"/>
<path d="M180.748 109.962C173.024 108.95 165.271 111.544 159.194 117.172C153.117 122.8 149.214 131.003 148.342 139.974C146.528 158.657 155.001 199.227 170.449 216.022C177.723 183.845 203.211 164.76 206.583 147.606C210.187 129.277 196.83 112.07 180.748 109.962Z" fill="#04364A"/>
<path d="M175.406 151.496C180.684 151.496 184.963 146.525 184.963 140.393C184.963 134.262 180.684 129.291 175.406 129.291C170.128 129.291 165.849 134.262 165.849 140.393C165.849 146.525 170.128 151.496 175.406 151.496Z" fill="white"/>
<path d="M165.357 232.03C168.814 232.03 171.617 228.774 171.617 224.758C171.617 220.742 168.814 217.486 165.357 217.486C161.9 217.486 159.097 220.742 159.097 224.758C159.097 228.774 161.9 232.03 165.357 232.03Z" fill="#04364A"/>
<path opacity="0.2" d="M183.314 132.439C184.39 133.19 185.327 134.18 186.074 135.352C186.821 136.524 187.361 137.855 187.665 139.27C187.968 140.684 188.029 142.155 187.843 143.597C187.658 145.039 187.23 146.424 186.583 147.674C185.937 148.923 185.085 150.013 184.076 150.88C183.067 151.747 181.921 152.375 180.703 152.728C179.485 153.081 178.22 153.151 176.978 152.936C175.737 152.72 174.545 152.223 173.469 151.472C175.684 152.044 178.002 151.682 180.009 150.45C182.015 149.219 183.579 147.198 184.419 144.749C185.26 142.3 185.324 139.584 184.598 137.086C183.872 134.589 182.405 132.472 180.459 131.116C181.466 131.375 182.43 131.822 183.314 132.439Z" fill="#231F20"/>
<path opacity="0.2" d="M206.621 147.642C203.248 164.796 177.76 183.881 170.486 216.057C169.034 214.463 167.684 212.746 166.449 210.92C174.623 180.675 198.525 162.297 201.783 145.723C204.7 130.89 196.507 116.792 184.752 110.837C198.982 114.993 209.923 130.845 206.621 147.642Z" fill="#231F20"/>
<path d="M418.735 103.292C415.979 102.022 413.036 101.394 410.072 101.445C407.107 101.496 404.181 102.225 401.459 103.59C398.738 104.955 396.274 106.929 394.209 109.4C392.144 111.871 390.519 114.79 389.425 117.99C384.825 131.451 384.063 163.597 392.623 179.708C403.629 157.499 425.895 149.299 431.387 137.34C437.256 124.562 430.322 108.636 418.735 103.292Z" fill="#04364A"/>
<path d="M409.469 133.21C413.535 133.21 416.831 129.381 416.831 124.657C416.831 119.934 413.535 116.105 409.469 116.105C405.403 116.105 402.107 119.934 402.107 124.657C402.107 129.381 405.403 133.21 409.469 133.21Z" fill="white"/>
<path d="M387.318 190.607C389.981 190.607 392.14 188.099 392.14 185.006C392.14 181.912 389.981 179.404 387.318 179.404C384.654 179.404 382.496 181.912 382.496 185.006C382.496 188.099 384.654 190.607 387.318 190.607Z" fill="#04364A"/>
<path opacity="0.2" d="M416.731 120.602C418.079 122.24 418.813 124.433 418.771 126.699C418.728 128.965 417.913 131.119 416.505 132.688C415.096 134.256 413.209 135.111 411.258 135.064C409.307 135.017 407.452 134.072 406.101 132.437C407.648 133.383 409.434 133.658 411.14 133.214C412.845 132.769 414.359 131.634 415.41 130.012C416.461 128.389 416.981 126.385 416.876 124.358C416.772 122.331 416.05 120.413 414.839 118.948C415.542 119.377 416.181 119.936 416.731 120.602Z" fill="#231F20"/>
<path opacity="0.2" d="M431.409 137.376C425.917 149.334 403.65 157.535 392.644 179.743C391.842 178.217 391.138 176.624 390.538 174.976C401.877 154.415 422.841 146.367 428.147 134.813C432.896 124.473 429.26 112.07 421.559 104.883C431.413 111.313 436.787 125.666 431.409 137.376Z" fill="#231F20"/>
<path d="M564.792 536.721L349.259 537C349.012 536.999 348.776 536.885 348.602 536.682C348.428 536.48 348.331 536.205 348.331 535.919C348.331 535.633 348.428 535.358 348.602 535.155C348.776 534.953 349.012 534.839 349.259 534.838L564.792 534.559C565.039 534.559 565.276 534.673 565.45 534.875C565.625 535.078 565.723 535.353 565.723 535.64C565.723 535.927 565.625 536.201 565.45 536.404C565.276 536.607 565.039 536.721 564.792 536.721Z" fill="#D6E6F2"/>
<path d="M574.253 368.707C564.161 368.707 553.099 368.264 541.068 367.378C478.84 362.788 398.235 346.828 314.102 322.44C229.97 298.052 152.36 268.148 95.5707 238.239C67.9069 223.668 46.6751 209.876 32.4658 197.245C17.4217 183.873 10.8413 172.218 12.9064 162.603C16.9302 143.872 52.5591 139.774 81.7396 139.635L81.7495 142.359C41.677 142.55 18.0362 149.974 15.1818 163.263C11.5458 180.188 41.1996 206.611 96.539 235.758C153.203 265.601 230.67 295.448 314.67 319.798C398.669 344.147 479.125 360.079 541.217 364.66C601.854 369.134 638.719 361.992 642.355 345.067C645.373 331.015 625.473 310.314 586.32 286.776L587.398 284.357C615.847 301.46 648.87 325.99 644.63 345.727C642.565 355.341 632.042 362.039 613.353 365.632C602.7 367.681 589.615 368.707 574.253 368.707Z" fill="#04364A"/>
<path d="M273.569 516.644C273.569 517.147 273.869 517.552 274.243 517.552H687.158C687.531 517.552 687.831 517.147 687.831 516.644C687.831 516.14 687.531 515.736 687.158 515.736H274.243C273.869 515.736 273.569 516.14 273.569 516.644Z" fill="#176B87"/>
<path d="M503.368 478.508V503.326L519.782 503.932L519.097 478.508H503.368Z" fill="#FFB6B6"/>
<path d="M499.537 492.128C499.312 492.128 499.087 492.16 498.873 492.231C495.847 493.213 478.349 511.017 473.059 516.447C472.406 517.121 472.057 518.077 472.107 519.078C472.152 520.073 472.592 520.978 473.302 521.562C477.313 524.855 485.538 530.066 495.509 527.961C500.095 526.992 504.726 526.382 508.816 525.85C517.565 524.701 524.472 523.789 524.472 520.266C524.472 514.278 523.029 498.508 521.215 497.847C521.052 497.789 520.86 497.937 520.641 498.283C517.869 502.705 508.337 500.356 507.931 500.254L507.824 500.228L507.762 500.125C507.712 500.042 503.047 492.141 499.537 492.141V492.128Z" fill="#176B87"/>
<path d="M471.321 478.508V503.326L488.517 503.932L487.799 478.508H471.321Z" fill="#FFB6B6"/>
<path d="M464.695 296.355L455.752 304.091L454.125 391.352L469.299 486.659L489.077 487.588L489.619 396.611L515.092 313.685L509.94 294.187L464.695 296.355Z" fill="#176B87"/>
<path d="M506.392 310.531L515.093 313.018L521.345 486.68L498.78 484.504L483.827 361.788L506.392 310.531Z" fill="#176B87"/>
<path d="M459.844 529.356C452.146 529.356 445.898 525.424 442.56 522.771C441.551 521.969 440.925 520.698 440.846 519.283C440.767 517.855 441.246 516.486 442.165 515.528C450.455 506.909 464.789 492.306 467.682 491.347C471.432 490.102 476.468 498.395 477.116 499.497C478.165 499.744 486.753 501.641 489.172 497.717C489.635 496.967 490.069 496.934 490.351 497.039C492.939 497.997 493.988 517.269 493.988 520.411C493.988 524.551 487.216 525.457 477.838 526.709C473.755 527.256 469.131 527.869 464.558 528.847C462.934 529.193 461.361 529.349 459.838 529.349L459.844 529.356Z" fill="#176B87"/>
<path d="M396.301 182.819C393.479 175.547 394.54 167.924 398.673 165.805C402.807 163.685 408.445 167.866 411.268 175.145C412.429 178.036 412.962 181.212 412.812 184.407L424.423 215.417L411.323 221.549L401.268 190.332C399.101 188.323 397.395 185.749 396.301 182.826C396.301 182.826 396.301 182.819 396.301 182.819Z" fill="#FFB6B6"/>
<path d="M477.918 195.744C485.121 203.486 484.674 216.689 476.962 223.768L439.196 258.431C435.075 262.212 428.957 260.879 426.357 255.623C416.434 237.319 414.563 236.314 408.791 217.559L425.056 211.079L434.226 224.16L454.252 197.251C460.301 189.117 471.105 188.434 477.912 195.744L477.918 195.744Z" fill="#04364A"/>
<path d="M483.097 182.505L489.298 196.797L465.849 209.745L466.133 186.83L483.097 182.505Z" fill="#FFB6B6"/>
<path d="M466.24 193.401C477.68 193.401 486.953 182.628 486.953 169.339C486.953 156.05 477.68 145.278 466.24 145.278C454.801 145.278 445.527 156.05 445.527 169.339C445.527 182.628 454.801 193.401 466.24 193.401Z" fill="#FFB6B6"/>
<path d="M466.198 204.278L487.877 189.769C503.775 202.402 517.016 205.354 517.437 227.346L514.506 279.804L514.677 302.395C514.751 311.883 507.98 319.611 499.61 319.611H468.656C460.462 319.611 454.363 311.052 456.087 301.976L461.93 271.238L455.688 211.335L466.198 204.265V204.278Z" fill="#04364A"/>
<path d="M345.55 174.17C345.55 172.898 346.444 171.875 347.542 171.875H370.017C371.121 171.875 372.01 172.905 372.01 174.17V174.482L427.436 178.218C427.594 177.494 428.16 176.953 428.845 176.953H434.737V171.992C434.737 170.884 435.518 169.991 436.474 169.991H437.674V165.61C437.674 164.913 438.167 164.345 438.772 164.345H442.129C442.734 164.345 443.227 164.913 443.227 165.61V169.991H444.33C444.251 169.815 444.206 169.626 444.206 169.424C444.206 168.491 445.157 167.729 446.328 167.729C447.5 167.729 448.451 168.485 448.451 169.424C448.451 169.665 448.383 169.9 448.269 170.108C448.943 170.382 449.435 171.119 449.435 171.992V197.716C449.435 198.824 448.654 199.718 447.698 199.718H436.474C435.512 199.718 434.737 198.818 434.737 197.716V194.261H428.845C428.087 194.261 427.47 193.59 427.402 192.736L371.919 204.503C371.664 205.435 370.912 206.113 370.017 206.113H347.542C346.439 206.113 345.55 205.083 345.55 203.818C345.284 193.322 345.873 183.355 345.55 174.17Z" fill="#176B87"/>
<path d="M432.978 189.977C430.19 182.683 431.345 175.099 435.558 173.036C439.772 170.98 445.444 175.221 448.232 182.522C449.381 185.418 449.888 188.593 449.702 191.781L461.16 222.87L447.815 228.812L437.935 197.536C435.755 195.506 434.054 192.913 432.978 189.977Z" fill="#FFB6B6"/>
<path d="M514.051 204.093C521.119 211.981 520.536 225.263 512.817 232.284L474.997 266.658C470.868 270.412 464.815 268.985 462.285 263.664C452.625 245.112 451.846 247.633 446.309 228.679L461.202 217.828L470.414 232.108L490.552 205.298C496.639 197.196 507.364 196.651 514.045 204.099H514.051C514.051 204.099 514.051 204.093 514.051 204.093Z" fill="#04364A"/>
<path d="M488.232 181.156L484.325 184.321C484.325 184.321 483.177 170.521 481.59 169.91C480.003 169.298 477.865 172.477 477.865 172.477L476.302 177.656L471.133 175.217C471.133 175.217 465.15 171.569 463.035 170.752C460.92 169.935 461.238 163 461.238 163C461.238 163 435.854 166.931 439.664 150.377C439.664 150.377 440.977 138.198 443.786 140.617C446.596 143.036 446.635 137.04 446.635 137.04L453.004 135.489C453.004 135.489 461.744 122.171 478.986 133.501C496.227 144.831 488.226 181.143 488.226 181.143V181.156H488.232Z" fill="#176B87"/>
</g>
<defs>
<clipPath id="clip0_23_280">
<rect width="645" height="537" fill="white"/>
</clipPath>
</defs>
</svg>
