<svg width="168" height="92" viewBox="0 0 168 92" fill="none" xmlns="http://www.w3.org/2000/svg">
<rect x="0.5" y="0.5" width="167" height="91" rx="6.5" fill="white"/>
<rect x="0.5" y="0.5" width="167" height="91" rx="6.5" stroke="white"/>
<path d="M109 31C109.001 34.2832 108.354 37.5344 107.098 40.5678C105.842 43.6013 104.001 46.3575 101.679 48.6791C99.3575 51.0007 96.6013 52.8422 93.5679 54.0983C90.5344 55.3544 87.2832 56.0006 84 56C70.1931 56 59 44.8069 59 31C58.9976 28.3143 59.4281 25.6458 60.275 23.0972C61.9377 18.1197 65.1229 13.7909 69.3804 10.7227C73.6379 7.65462 78.7522 6.0025 84 6C88.5259 5.99843 92.9673 7.22593 96.8501 9.55147C100.733 11.877 103.911 15.2133 106.046 19.2041C106.575 20.1888 107.037 21.2083 107.428 22.2556C107.482 22.4014 107.535 22.5472 107.586 22.6944V22.6958C107.815 23.343 108.017 24.0023 108.192 24.6736C108.73 26.7392 109.002 28.8653 109 31Z" fill="#04364A"/>
<path d="M81.2648 14.1328C80.1413 13.5252 78.8939 13.1823 77.6177 13.1301C76.3415 13.0778 75.0703 13.3178 73.9009 13.8315C72.8713 14.2796 71.7872 15.0834 71.4437 16.5349C72.8329 15.7151 74.6311 17.0104 74.9885 19.0884L74.9051 19.1114C74.7163 20.5506 75.1378 22.1176 75.9538 23.0101C76.0609 22.0831 76.6704 21.4522 77.2699 21.0581C77.8695 20.664 78.5327 20.3777 78.9903 19.7002C79.5328 18.8971 79.6705 17.7234 79.886 16.6527C80.1015 15.582 80.5104 14.4311 81.2648 14.1328Z" fill="white"/>
<path d="M73.4889 26.3805C73.1042 26.9583 72.5903 27.3208 72.1292 27.7722C71.6695 28.225 71.2319 28.8361 71.1403 29.6208C71.082 30.1236 71.1722 30.6347 71.1597 31.143C71.1472 31.6514 70.9778 32.2236 70.632 32.35C70.0861 32.5472 69.6694 31.5333 69.1083 31.4625C68.6625 31.4069 68.2611 32.1083 68.3903 32.7166C68.5195 33.325 69.1264 33.5944 69.475 33.1972C69.7903 33.7264 69.5681 34.6861 69.0945 34.8486C69.0445 35.1819 68.9945 35.5139 68.9458 35.8472C67.7486 35.0097 66.5389 34.1583 65.5209 32.9319C64.3886 31.5795 63.6863 29.9196 63.5042 28.1653C63.3723 26.7555 63.5681 25.143 62.9209 24.0583C62.4028 23.1903 61.5139 22.9986 60.7139 23.0528C60.5681 23.0625 60.4209 23.0791 60.275 23.0972C60.7468 21.6802 61.346 20.3089 62.0653 19C62.2281 18.9301 62.3793 18.836 62.5139 18.7208C63.2584 18.0889 63.5889 16.8097 64.1931 15.925C64.232 15.868 64.2722 15.8125 64.3139 15.7583C64.932 14.9514 65.7597 14.5361 66.5597 14.15C68.3306 13.2903 70.1528 12.4194 72.0222 12.5389L71.4903 12.5903C70.8695 14.3291 70.2482 16.068 69.6264 17.8069C69.532 18.0736 69.4366 18.3407 69.3403 18.6083C68.9875 19.5972 68.6236 20.65 68.6778 21.7569C68.7097 22.4125 68.9375 23.1125 69.3709 23.3375C69.775 23.5458 70.2167 23.2903 70.6069 23.0375C70.7722 22.9319 70.9361 22.8264 71.1014 22.7194C71.6945 22.3375 72.3514 21.9458 72.9778 22.2014C73.5514 22.4347 73.975 23.2139 74.0556 24.0541C74.1294 24.871 73.9301 25.6892 73.4889 26.3805Z" fill="white"/>
<path d="M77.0161 38.2522C75.284 37.1857 73.5519 36.1192 71.8199 35.0528L71.8493 34.9771C70.7723 35.3872 70.3252 37.3015 70.5032 38.867C70.6812 40.4325 71.2847 41.8319 71.5895 43.3573C72.0006 45.4447 71.8455 47.6041 71.1402 49.6114C73.4178 47.0558 75.4334 44.2783 77.1569 41.3206C77.3976 40.9478 77.5811 40.541 77.7011 40.1138C77.8111 39.6593 77.7942 39.1128 77.5739 38.7483C77.4321 38.5392 77.2404 38.3686 77.0161 38.2522Z" fill="white"/>
<path d="M70.1802 18.8503C69.9962 19.2639 69.9255 19.8153 70.0924 20.2432C70.2628 20.6802 70.6232 20.8776 70.955 21.0421L71.912 21.5165C72.2304 21.6743 72.5736 21.8337 72.8982 21.7038C73.2897 21.5472 73.5611 20.9335 73.4909 20.3637C73.4161 19.7574 73.034 19.3403 72.6805 18.9852C72.1859 18.4882 71.6912 17.9912 71.1966 17.4941L70.9178 17.8356C70.6163 18.1297 70.3669 18.4728 70.1802 18.8503Z" fill="white"/>
<path d="M103.869 25.3321C104.3 25.4335 104.731 25.5349 105.161 25.6363C105.086 27.0904 104.365 28.4363 103.399 28.9238C102.996 29.1266 102.547 29.2015 102.214 29.5807C101.913 29.9252 101.76 30.4613 101.619 30.9738C101.374 31.8682 101.128 32.7627 100.882 33.6571C100.618 34.621 100.279 35.6918 99.5931 36.0391C99.0042 36.3376 98.3306 35.9724 97.8778 35.3599C97.425 34.7474 97.1487 33.9238 96.8806 33.121C96.8973 33.996 96.4903 34.8543 95.9139 35.1585C95.3362 35.4626 94.6334 35.1876 94.2473 34.5085C93.9695 34.021 93.8542 33.3779 93.582 32.8835C93.3098 32.3891 92.7389 32.1057 92.4417 32.5696C92.2459 32.8779 92.2709 33.3502 92.1736 33.7418C92.0223 34.3501 91.5639 34.7321 91.1098 34.7654C90.657 34.7988 90.2153 34.5377 89.8362 34.1835C89.0542 33.4501 88.4778 32.2863 88.2542 30.9932C88.1556 30.4168 88.1278 29.7891 88.2987 29.2488C88.4695 28.7085 88.882 28.2918 89.2917 28.3946C89.5612 27.8252 89.0292 27.0696 88.55 27.1363C88.0695 27.2029 87.6931 27.7182 87.2987 28.114C86.9056 28.5099 86.3556 28.7974 85.9598 28.4043C85.9626 28.7696 85.6653 29.0113 85.4084 28.9807C85.1528 28.9515 84.9251 28.746 84.6903 28.6002C83.7834 28.0349 82.632 28.4099 81.9875 29.4793C82.3903 27.7654 82.9806 25.7988 84.2181 25.396C84.7237 25.2307 85.2751 25.3668 85.7528 25.0807C86.5987 24.5738 86.7695 22.6585 86.0389 21.8682C86.132 22.6154 86.114 23.4876 85.7195 23.9988C85.3251 24.5099 84.4973 24.1765 84.5473 23.421C84.4334 23.9418 83.8667 24.021 83.6056 23.621C83.3431 23.221 83.3653 22.5668 83.5514 22.089C83.7375 21.6113 84.0542 21.2682 84.3611 20.939C85.0209 20.2321 85.6903 19.5168 86.4542 19.0724C87.2195 18.6279 88.1028 18.4779 88.8695 18.9196C89.2737 19.1529 89.6292 19.5418 90.0417 19.7474C90.4542 19.9543 90.9778 19.9279 91.2514 19.4446C91.5584 18.9057 91.4139 18.1057 91.5278 17.4321C91.732 16.2418 92.9223 15.6849 93.582 16.471C93.0889 16.3446 92.5792 16.9279 92.5181 17.6349C92.4556 18.3418 92.8125 19.0557 93.2903 19.2696C94.0931 19.6252 94.8792 18.7307 95.4862 17.9029C96.1195 17.0363 96.7537 16.1701 97.3889 15.3043C97.4904 15.1569 97.6042 15.0185 97.7292 14.8904C97.9281 14.6965 98.1933 14.5855 98.4711 14.5798C98.7488 14.5741 99.0184 14.6743 99.225 14.8599C99.8667 15.3835 100.168 16.4571 100.694 17.196C101.458 18.2696 102.601 18.5307 103.665 18.739C104.458 18.8932 105.252 19.0483 106.046 19.2043C106.575 20.189 107.037 21.2084 107.428 22.2557C106.083 22.8265 104.843 23.8946 103.869 25.3321Z" fill="white"/>
<path d="M106.433 42.0429C105.838 43.2511 105.146 44.4091 104.364 45.5054C103.864 45.2915 103.326 45.6734 102.858 46.0317C102.369 46.4067 101.782 46.772 101.281 46.4304C100.768 46.0803 100.603 45.1012 100.765 44.3248C100.928 43.5498 101.333 42.9331 101.726 42.347C102.143 41.7248 102.589 41.079 103.168 40.8373C103.749 40.5956 104.494 40.9373 104.664 41.7623L105.075 41.7484C104.844 41.4317 104.965 40.7762 105.275 40.6609C105.632 40.5262 105.942 41.0165 106.153 41.4498C106.247 41.6456 106.343 41.8429 106.433 42.0429Z" fill="white"/>
<path d="M90.6881 36.1766C89.8045 36.2322 89.1045 35.1444 88.6394 34.0742C88.1743 33.004 87.7499 31.7802 86.9526 31.2355C86.497 30.9242 85.9776 30.8815 85.4834 30.7307C84.9893 30.5799 84.472 30.2678 84.2358 29.6322L83.6753 29.4058C82.935 29.822 82.1849 30.2459 81.547 30.9232C80.8316 31.6832 80.386 32.6574 80.2789 33.6956C80.1718 34.8176 80.5672 36.0687 81.3061 36.4902C81.8898 36.8232 82.5695 36.6133 83.1609 36.9182C83.8997 37.2991 84.3383 38.4057 84.5043 39.4982C84.6704 40.5908 84.6283 41.7262 84.7471 42.8312C84.8659 43.9362 85.1933 45.0859 85.8708 45.6522C86.7187 46.3608 87.9628 45.7719 88.3432 44.4821C88.5298 43.8493 88.5234 43.1354 88.663 42.4786C88.9087 41.322 89.5719 40.4639 90.0979 39.5151C90.6239 38.5663 91.038 37.2777 90.6881 36.1766Z" fill="white"/>
<path d="M81.9562 24.8111C82.0387 24.887 82.1156 24.9686 82.1864 25.0554C82.2596 25.1818 82.2971 25.3257 82.2946 25.4718C82.2921 25.6178 82.2498 25.7604 82.1722 25.8842C82.2787 25.8781 82.3827 25.8501 82.4777 25.8018C82.5728 25.7535 82.6568 25.686 82.7244 25.6036C82.8857 25.4199 83.0276 25.22 83.1478 25.0072C83.2379 24.8602 83.3338 24.6615 83.2726 24.487C83.2309 24.3678 83.1321 24.317 83.0629 24.2274C82.9532 24.0854 82.9261 23.8599 82.8693 23.6649C82.7467 23.244 82.4529 22.9344 82.1341 22.8901L82.1784 22.8986C82.0452 22.9442 81.9522 23.1557 81.9816 23.3461C82.0084 23.5194 82.1198 23.6633 82.1087 23.84C82.0928 24.0942 81.8388 24.2135 81.8231 24.4677C81.8206 24.5952 81.8684 24.7186 81.9562 24.8111Z" fill="white"/>
<path d="M80.7072 21.6846C80.9026 21.559 81.0117 21.2115 80.9471 20.9207C80.8829 20.6317 80.6557 20.4374 80.4462 20.4908C80.3854 20.5524 80.3099 20.5976 80.2268 20.622C80.1438 20.6465 80.0559 20.6494 79.9714 20.6305C79.8418 20.5972 79.6996 20.5113 79.5872 20.6089C79.5229 20.6818 79.478 20.7696 79.4564 20.8644C79.4148 20.9921 79.3732 21.1198 79.3316 21.2474C79.3118 21.2931 79.3067 21.3438 79.3168 21.3926C79.3248 21.4121 79.3377 21.4292 79.3542 21.4424C79.3707 21.4555 79.3903 21.4642 79.4111 21.4675C79.6607 21.5411 79.9102 21.6147 80.1598 21.6882C80.3416 21.7418 80.538 21.7935 80.7072 21.6846Z" fill="white"/>
<path d="M99.5464 38.1568C99.4311 37.968 99.3157 37.7791 99.2004 37.5902C99.087 37.3715 98.9321 37.177 98.7443 37.0177C98.703 36.9831 98.6552 36.9571 98.6038 36.9412C98.5523 36.9254 98.4982 36.92 98.4446 36.9254C98.391 36.9307 98.339 36.9468 98.2917 36.9725C98.2444 36.9983 98.2027 37.0332 98.1691 37.0753L98.1831 37.1832C98.446 37.5131 98.7242 37.8795 98.7909 38.3691C98.8172 38.5621 98.8081 38.7619 98.8311 38.9557C98.8542 39.1496 98.9198 39.3506 99.0449 39.4342C99.2265 39.5555 99.4398 39.3766 99.5691 39.1583C99.6846 38.979 99.7365 38.766 99.7162 38.5536C99.6874 38.4111 99.6296 38.276 99.5464 38.1568Z" fill="white"/>
<path d="M104.68 30.9439C104.714 30.7251 104.747 30.5064 104.78 30.2876C104.835 30.0473 104.841 29.7988 104.8 29.5559C104.791 29.5028 104.771 29.4522 104.742 29.4069C104.713 29.3616 104.675 29.3226 104.63 29.2922C104.586 29.2618 104.536 29.2406 104.483 29.2298C104.43 29.2191 104.376 29.219 104.323 29.2295L104.264 29.3211C104.253 29.7428 104.23 30.2023 103.966 30.6198C103.861 30.7844 103.726 30.9313 103.619 31.0945C103.511 31.2576 103.432 31.4537 103.474 31.5982C103.535 31.808 103.813 31.8084 104.053 31.7247C104.257 31.6619 104.433 31.5323 104.555 31.3568C104.624 31.2293 104.667 31.0887 104.68 30.9439Z" fill="#B9D7EA"/>
<path d="M101.356 38.4024C101.412 38.2403 101.331 38.0543 101.314 37.8751C101.306 37.6437 101.367 37.4151 101.49 37.2189C101.612 37.0338 101.705 36.8308 101.764 36.6172C101.79 36.5198 101.785 36.4172 101.751 36.3225C101.713 36.2367 101.621 36.1976 101.567 36.2655L101.681 36.3386C101.528 36.3113 101.37 36.3189 101.22 36.361C101.135 36.3937 101.058 36.4466 100.998 36.5151C100.937 36.5836 100.893 36.6657 100.871 36.7546C100.852 36.8931 100.822 37.0297 100.78 37.1629C100.712 37.3021 100.581 37.3484 100.498 37.4706C100.442 37.5789 100.414 37.6995 100.416 37.8215C100.418 37.9435 100.45 38.0631 100.51 38.1695C100.613 38.3435 100.778 38.4728 100.971 38.5323C101.11 38.582 101.293 38.5847 101.356 38.4024Z" fill="white"/>
<path d="M104.579 39.3746C104.629 39.505 104.696 39.6282 104.778 39.7411C104.933 39.8965 105.142 39.801 105.329 39.7632C105.499 39.7364 105.673 39.756 105.833 39.82C105.992 39.884 106.132 39.99 106.236 40.1268C106.163 39.7648 106.005 39.4255 105.774 39.1374C105.543 38.8493 105.246 38.6209 104.909 38.4712C104.468 38.2914 104.003 38.274 103.544 38.2578L103.465 38.2781C103.667 38.866 104.301 38.8528 104.579 39.3746Z" fill="white"/>
<path d="M90.441 41.5233C90.3344 41.7169 90.2427 41.9183 90.1668 42.1258C90.0662 42.4619 89.9996 42.8073 89.968 43.1567C89.9431 43.3554 89.9355 43.6091 90.06 43.7059C90.0957 43.7297 90.1389 43.7396 90.1814 43.7338C90.2239 43.728 90.2628 43.707 90.2909 43.6746C90.3601 43.6014 90.4167 43.5173 90.4584 43.4257C90.703 43.0043 90.893 42.5535 91.0236 42.0841C91.1428 41.5897 91.1417 41.0076 90.9311 40.5796C90.7677 40.8942 90.6044 41.2087 90.441 41.5233Z" fill="white"/>
<path d="M12.084 83.256C10.4413 83.256 9.05467 83.1493 7.924 82.936C6.79333 82.7227 5.85467 82.3707 5.108 81.88C4.36133 81.368 3.77467 80.6853 3.348 79.832C2.94267 78.9573 2.65467 77.88 2.484 76.6C2.33467 75.32 2.26 73.784 2.26 71.992C2.26 70.2 2.33467 68.664 2.484 67.384C2.65467 66.104 2.95333 65.0373 3.38 64.184C3.80667 63.3093 4.39333 62.6267 5.14 62.136C5.88667 61.624 6.82533 61.2613 7.956 61.048C9.08667 60.8347 10.4627 60.728 12.084 60.728C12.8093 60.728 13.62 60.76 14.516 60.824C15.412 60.888 16.2973 60.9733 17.172 61.08C18.068 61.1867 18.9 61.3147 19.668 61.464V65.464C18.9427 65.3573 18.2173 65.2827 17.492 65.24C16.788 65.176 16.1373 65.1227 15.54 65.08C14.9427 65.0373 14.452 65.016 14.068 65.016C12.916 65.016 11.9667 65.0373 11.22 65.08C10.4733 65.1227 9.86533 65.2613 9.396 65.496C8.92667 65.7093 8.57467 66.0613 8.34 66.552C8.10533 67.0427 7.94533 67.736 7.86 68.632C7.796 69.5067 7.764 70.6267 7.764 71.992C7.764 73.208 7.78533 74.232 7.828 75.064C7.892 75.896 8.00933 76.5787 8.18 77.112C8.372 77.6453 8.628 78.0613 8.948 78.36C9.28933 78.6373 9.72667 78.8293 10.26 78.936C10.8147 79.0427 11.4867 79.096 12.276 79.096C12.532 79.096 12.8093 79.096 13.108 79.096C13.4067 79.0747 13.6947 79.0533 13.972 79.032C14.2493 79.0107 14.484 79 14.676 79V74.232H11.54V70.232H19.764V82.552C18.996 82.7013 18.1533 82.8293 17.236 82.936C16.3187 83.0213 15.412 83.096 14.516 83.16C13.62 83.224 12.8093 83.256 12.084 83.256ZM24.1158 83V60.984H39.5398V65.272H29.6838V69.784H38.0358V74.008H29.6838V78.712H39.5398V83H24.1158ZM52.482 83.256C50.626 83.256 49.1007 83.1493 47.906 82.936C46.7327 82.7013 45.8153 82.3387 45.154 81.848C44.4927 81.336 44.002 80.6533 43.682 79.8C43.3833 78.9253 43.1913 77.848 43.106 76.568C43.042 75.288 43.01 73.7627 43.01 71.992C43.01 70.2213 43.042 68.696 43.106 67.416C43.1913 66.136 43.3833 65.0693 43.682 64.216C44.002 63.3413 44.4927 62.6587 45.154 62.168C45.8153 61.656 46.7327 61.2933 47.906 61.08C49.1007 60.8453 50.626 60.728 52.482 60.728C54.3167 60.728 55.8207 60.8453 56.994 61.08C58.1887 61.2933 59.1273 61.656 59.81 62.168C60.4927 62.6587 60.9833 63.3413 61.282 64.216C61.5807 65.0693 61.7727 66.136 61.858 67.416C61.9433 68.696 61.986 70.2213 61.986 71.992C61.986 73.7627 61.9433 75.288 61.858 76.568C61.7727 77.848 61.5807 78.9253 61.282 79.8C60.9833 80.6533 60.4927 81.336 59.81 81.848C59.1273 82.3387 58.1887 82.7013 56.994 82.936C55.8207 83.1493 54.3167 83.256 52.482 83.256ZM52.482 78.968C53.25 78.968 53.8687 78.9467 54.338 78.904C54.8287 78.84 55.2127 78.7013 55.49 78.488C55.7673 78.2533 55.97 77.8907 56.098 77.4C56.226 76.9093 56.3007 76.2267 56.322 75.352C56.3647 74.4773 56.386 73.3573 56.386 71.992C56.386 70.6267 56.3647 69.5067 56.322 68.632C56.3007 67.7573 56.226 67.0747 56.098 66.584C55.97 66.0933 55.7673 65.7413 55.49 65.528C55.2127 65.2933 54.8287 65.1547 54.338 65.112C53.8687 65.048 53.25 65.016 52.482 65.016C51.7353 65.016 51.1167 65.048 50.626 65.112C50.1353 65.1547 49.7513 65.2933 49.474 65.528C49.1967 65.7413 48.994 66.0933 48.866 66.584C48.738 67.0747 48.6527 67.7573 48.61 68.632C48.5887 69.5067 48.578 70.6267 48.578 71.992C48.578 73.3573 48.5887 74.4773 48.61 75.352C48.6527 76.2267 48.738 76.9093 48.866 77.4C48.994 77.8907 49.1967 78.2533 49.474 78.488C49.7513 78.7013 50.1353 78.84 50.626 78.904C51.1167 78.9467 51.7353 78.968 52.482 78.968ZM66.022 83V60.984H73.67L78.054 74.04H78.278L82.662 60.984H90.278V83H84.934V68.696H84.71L79.942 83H76.198L71.462 68.696H71.206V83H66.022ZM94.8345 83V60.984H100.403V83H94.8345ZM104.991 83V60.984H110.719L117.887 72.792H118.047V60.984H123.391V83H118.175L110.495 70.104H110.335V83H104.991ZM127.928 83V60.984H135.64C137.603 60.984 139.203 61.0907 140.44 61.304C141.678 61.496 142.648 61.8373 143.352 62.328C144.056 62.7973 144.558 63.4587 144.856 64.312C145.176 65.144 145.379 66.1893 145.464 67.448C145.55 68.7067 145.592 70.2213 145.592 71.992C145.592 73.7627 145.55 75.2773 145.464 76.536C145.379 77.7947 145.176 78.8507 144.856 79.704C144.558 80.536 144.056 81.1973 143.352 81.688C142.648 82.1573 141.678 82.4987 140.44 82.712C139.203 82.904 137.603 83 135.64 83H127.928ZM133.496 78.712H135.512C136.387 78.712 137.102 78.6907 137.656 78.648C138.211 78.584 138.648 78.456 138.968 78.264C139.31 78.0507 139.544 77.7093 139.672 77.24C139.822 76.7493 139.907 76.088 139.928 75.256C139.971 74.4027 139.992 73.3147 139.992 71.992C139.992 70.6693 139.971 69.592 139.928 68.76C139.907 67.9067 139.822 67.2453 139.672 66.776C139.523 66.2853 139.288 65.9333 138.968 65.72C138.648 65.5067 138.211 65.3787 137.656 65.336C137.102 65.2933 136.387 65.272 135.512 65.272H133.496V78.712ZM157.68 83.256C156.826 83.256 155.898 83.2347 154.896 83.192C153.914 83.1493 152.944 83.0853 151.984 83C151.045 82.9147 150.202 82.8293 149.456 82.744V78.616C150.245 78.68 151.034 78.744 151.824 78.808C152.634 78.872 153.402 78.9147 154.128 78.936C154.853 78.9573 155.461 78.968 155.952 78.968C156.976 78.968 157.754 78.936 158.288 78.872C158.821 78.7867 159.216 78.6693 159.472 78.52C159.642 78.3707 159.76 78.2107 159.824 78.04C159.909 77.8693 159.962 77.6667 159.984 77.432C160.005 77.1973 160.016 76.9307 160.016 76.632C160.016 76.184 159.984 75.832 159.92 75.576C159.877 75.2987 159.77 75.0853 159.6 74.936C159.45 74.7867 159.216 74.68 158.896 74.616C158.576 74.5307 158.16 74.456 157.648 74.392L153.136 73.816C152.261 73.7093 151.546 73.496 150.992 73.176C150.437 72.8347 150 72.3867 149.68 71.832C149.36 71.2773 149.136 70.6267 149.008 69.88C148.88 69.112 148.816 68.2587 148.816 67.32C148.816 65.8693 149.029 64.7173 149.456 63.864C149.882 62.9893 150.469 62.328 151.216 61.88C151.984 61.4107 152.869 61.1013 153.872 60.952C154.896 60.8027 156.005 60.728 157.2 60.728C158.053 60.728 158.938 60.76 159.856 60.824C160.773 60.8667 161.637 60.9413 162.448 61.048C163.258 61.1333 163.93 61.24 164.464 61.368V65.4C163.93 65.3147 163.301 65.2507 162.576 65.208C161.872 65.144 161.136 65.1013 160.368 65.08C159.6 65.0373 158.874 65.016 158.192 65.016C157.36 65.016 156.698 65.048 156.208 65.112C155.717 65.1547 155.333 65.2507 155.056 65.4C154.757 65.5707 154.565 65.7947 154.48 66.072C154.416 66.3493 154.384 66.7013 154.384 67.128C154.384 67.6613 154.426 68.0773 154.512 68.376C154.597 68.6533 154.789 68.8453 155.088 68.952C155.386 69.0587 155.845 69.1547 156.464 69.24L160.848 69.752C161.445 69.816 161.989 69.9227 162.48 70.072C162.992 70.2213 163.45 70.456 163.856 70.776C164.282 71.096 164.634 71.5547 164.912 72.152C165.061 72.4293 165.178 72.7707 165.264 73.176C165.349 73.56 165.424 74.008 165.488 74.52C165.552 75.032 165.584 75.608 165.584 76.248C165.584 77.5067 165.456 78.5733 165.2 79.448C164.944 80.3013 164.581 80.984 164.112 81.496C163.642 81.9867 163.077 82.3707 162.416 82.648C161.754 82.904 161.018 83.064 160.208 83.128C159.418 83.2133 158.576 83.256 157.68 83.256Z" fill="#04364A"/>
</svg>
