<svg width="500" height="500" viewBox="0 0 500 500" fill="none" xmlns="http://www.w3.org/2000/svg">
<path d="M249.374 483.03C382.126 483.03 489.742 420.219 489.742 342.737C489.742 265.255 382.126 202.444 249.374 202.444C116.622 202.444 9.00598 265.255 9.00598 342.737C9.00598 420.219 116.622 483.03 249.374 483.03Z" fill="#F0F0F0"/>
<path d="M187.043 325.323C149.605 346.938 149.605 381.983 187.043 403.598C224.481 425.213 285.181 425.213 322.619 403.598C360.057 381.983 360.057 346.938 322.619 325.323C285.181 303.708 224.481 303.708 187.043 325.323Z" fill="#0D5068" fill-opacity="0.75"/>
<path d="M390.803 349.326C371.573 360.428 371.573 378.429 390.803 389.531C410.033 400.633 441.21 400.633 460.44 389.531C479.67 378.429 479.67 360.428 460.44 349.326C441.21 338.224 410.033 338.224 390.803 349.326Z" fill="#0D5068" fill-opacity="0.75"/>
<path d="M37.969 353.545C20.426 363.673 20.426 380.094 37.969 390.223C55.512 400.351 83.954 400.351 101.497 390.223C119.04 380.095 119.04 363.674 101.497 353.545C83.954 343.417 55.512 343.417 37.969 353.545Z" fill="#0D5068" fill-opacity="0.75"/>
<path d="M416.339 96.057L410.006 92.401C410.037 92.154 410.059 91.899 410.059 91.624V89.789C410.059 86.524 407.767 82.554 404.94 80.922C403.795 80.261 402.741 80.092 401.889 80.333C401.426 75.693 398.205 70.445 394.293 68.186C390.063 65.744 386.634 67.724 386.634 72.608V75.353C386.634 76.618 386.868 77.954 387.282 79.281L382.022 76.244C380.454 75.339 379.182 76.072 379.182 77.883C379.182 79.694 380.453 81.896 382.022 82.802L416.339 102.615C417.907 103.52 419.179 102.786 419.179 100.976C419.178 99.164 417.907 96.962 416.339 96.057Z" fill="#04364A"/>
<path d="M423.293 50.087L426.786 51.431V43.735C426.786 37.635 431.652 36.172 436.935 39.222C442.218 42.272 446.501 49.691 446.501 55.791V56.909C447.7 56.431 449.248 56.616 450.94 57.593C454.742 59.788 457.824 65.126 457.824 69.516V70.024L462.695 72.836C465.199 74.281 467.228 77.797 467.228 80.688C467.228 83.579 465.198 84.751 462.695 83.305L423.293 60.556C420.789 59.11 418.76 55.595 418.76 52.704C418.76 49.813 420.79 48.642 423.293 50.087Z" fill="#04364A"/>
<path d="M92.539 96.057L98.872 92.401C98.841 92.154 98.819 91.899 98.819 91.624V89.789C98.819 86.524 101.111 82.554 103.938 80.922C105.083 80.261 106.137 80.092 106.989 80.333C107.452 75.693 110.673 70.445 114.585 68.186C118.815 65.744 122.244 67.724 122.244 72.608V75.353C122.244 76.618 122.01 77.954 121.595 79.281L126.855 76.244C128.423 75.339 129.695 76.072 129.695 77.883C129.695 79.694 128.424 81.896 126.855 82.802L92.538 102.615C90.97 103.52 89.698 102.786 89.698 100.976C89.7 99.164 90.971 96.962 92.539 96.057Z" fill="#04364A"/>
<path d="M85.585 50.087L82.092 51.431V43.735C82.092 37.635 77.226 36.172 71.943 39.222C66.66 42.272 62.377 49.691 62.377 55.791V56.909C61.178 56.431 59.63 56.616 57.938 57.593C54.136 59.788 51.054 65.126 51.054 69.516V70.024L46.183 72.836C43.679 74.281 41.65 77.797 41.65 80.688C41.65 83.579 43.68 84.751 46.183 83.305L85.586 60.556C88.09 59.11 90.119 55.595 90.119 52.704C90.118 49.813 88.088 48.642 85.585 50.087Z" fill="#04364A"/>
<path d="M457.323 356.925L454.321 353.222C454.321 353.222 449.715 340.556 451.39 326.126C453.323 309.469 460.992 303.46 466.365 305.289C470.348 306.645 471.572 311.219 465.11 320.769C461.298 326.405 456.264 342.309 457.323 356.925Z" fill="#176B87"/>
<path opacity="0.15" d="M457.323 356.925L454.321 353.222C454.321 353.222 449.715 340.556 451.39 326.126C453.323 309.469 460.992 303.46 466.365 305.289C470.348 306.645 471.572 311.219 465.11 320.769C461.298 326.405 456.264 342.309 457.323 356.925Z" fill="black"/>
<path d="M455.55 346.57C455.566 346.569 455.582 346.567 455.599 346.563C455.79 346.524 455.913 346.338 455.874 346.148C452.902 331.524 457.813 314.985 464.067 308.049C464.197 307.905 464.186 307.682 464.041 307.551C463.896 307.422 463.674 307.432 463.543 307.577C457.175 314.639 452.168 331.448 455.184 346.287C455.219 346.462 455.378 346.581 455.55 346.57Z" fill="#04364A"/>
<path d="M456.361 358.431C456.736 358.807 457.107 359.44 457.573 359.695C457.94 359.896 458.401 359.297 458.747 359.896C458.936 360.224 458.975 360.664 459.288 360.876C459.603 361.089 460.05 360.949 460.324 360.685C460.598 360.422 460.754 360.063 460.959 359.743C461.798 358.426 463.402 357.815 464.94 357.545C466.478 357.275 468.555 357.056 470.027 356.535C471.499 356.014 472.816 354.742 472.92 353.184C472.998 352.015 472.309 351.237 471.721 350.044C471.04 348.662 471.815 347.436 472.832 346.549C473.923 345.598 475.878 344.951 477.14 344.242C478.402 343.533 480.408 342.073 480.68 340.652C481.349 337.156 477.655 336.97 477.542 334.495C477.467 332.85 478.7 331.442 479.059 329.834C479.398 328.318 479.496 326.58 478.366 325.515C477.236 324.45 475.254 324.594 473.761 325.021C471.852 325.567 470.216 326.696 468.723 327.894C466.969 329.301 465.796 330.266 463.67 329.405C460.689 328.198 457.781 330.588 457.919 334.821C457.973 336.479 458.552 338.156 457.727 339.595C456.984 340.891 454.829 340.874 453.728 341.882C452.174 343.305 451.622 345.459 451.776 347.56C452.04 351.156 453.799 355.86 456.361 358.431Z" fill="#176B87"/>
<path d="M457.951 360.638C457.949 360.638 457.948 360.638 457.946 360.639C457.745 360.659 457.565 360.511 457.546 360.31C456.325 347.861 466.628 332.674 474.552 327.268C474.716 327.153 474.946 327.196 475.061 327.364C475.176 327.531 475.132 327.759 474.965 327.873C467.191 333.177 457.08 348.057 458.275 360.239C458.294 360.438 458.15 360.616 457.951 360.638Z" fill="#04364A"/>
<path d="M462.565 342.509C462.436 342.522 462.304 342.463 462.229 342.347C462.122 342.18 462.17 341.959 462.336 341.851C466.851 338.94 472.061 337.909 475.608 339.218C475.794 339.287 475.889 339.494 475.821 339.679C475.751 339.865 475.546 339.96 475.36 339.892C472.018 338.656 467.059 339.661 462.725 342.453C462.676 342.485 462.62 342.503 462.565 342.509Z" fill="#04364A"/>
<path d="M44.3471 360.864L46.6841 356.71C46.6841 356.71 49.0981 343.45 45.0241 329.507C40.3211 313.411 31.7531 308.774 26.7631 311.48C23.0641 313.486 22.6261 318.2 30.5991 326.53C35.3041 331.444 42.9371 346.278 44.3471 360.864Z" fill="#176B87"/>
<path opacity="0.15" d="M44.3471 360.864L46.6841 356.71C46.6841 356.71 49.0981 343.45 45.0241 329.507C40.3211 313.411 31.7531 308.774 26.7631 311.48C23.0641 313.486 22.6261 318.2 30.5991 326.53C35.3041 331.444 42.9371 346.278 44.3471 360.864Z" fill="black"/>
<path d="M44.356 350.358C44.34 350.36 44.324 350.36 44.307 350.36C44.113 350.354 43.96 350.191 43.966 349.997C44.44 335.082 36.823 319.602 29.493 313.815C29.34 313.695 29.314 313.473 29.435 313.32C29.556 313.169 29.777 313.141 29.93 313.262C37.393 319.155 45.152 334.884 44.67 350.02C44.665 350.197 44.528 350.34 44.356 350.358Z" fill="#04364A"/>
<path d="M43.442 364.032C43.183 364.732 42.836 364.645 42.137 364.432C41.617 364.274 41.133 364.012 40.614 363.855C39.592 363.547 38.552 363.302 37.501 363.119C35.593 362.788 33.654 362.94 31.759 362.612C30.221 362.346 28.709 361.312 28.344 359.794C28.07 358.655 28.619 357.773 28.998 356.498C29.437 355.022 28.467 353.943 27.317 353.24C26.082 352.485 24.046 352.176 22.683 351.689C21.32 351.202 19.097 350.1 18.59 348.744C17.344 345.41 20.954 344.606 20.65 342.147C20.448 340.512 18.996 339.331 18.372 337.807C17.784 336.37 17.394 334.673 18.33 333.433C19.265 332.193 21.243 332.003 22.787 332.173C24.761 332.391 26.563 333.229 28.236 334.159C30.202 335.252 31.52 336.006 33.471 334.801C36.207 333.111 39.475 334.978 40.05 339.174C40.275 340.817 39.986 342.568 41.041 343.848C41.991 345 44.112 344.622 45.367 345.431C47.138 346.573 48.043 348.604 48.244 350.701C48.588 354.29 47.644 359.222 45.55 362.187C45.244 362.621 44.985 363.307 44.567 363.637C44.237 363.897 43.682 363.383 43.442 364.032Z" fill="#176B87"/>
<path d="M44.352 364.63C44.354 364.63 44.355 364.63 44.357 364.63C44.559 364.616 44.711 364.44 44.697 364.239C43.81 351.761 31.104 338.52 22.384 334.521C22.203 334.435 21.983 334.516 21.898 334.701C21.813 334.885 21.895 335.103 22.078 335.187C30.633 339.111 43.098 352.081 43.965 364.291C43.979 364.49 44.152 364.641 44.352 364.63Z" fill="#04364A"/>
<path d="M36.7581 347.532C36.8881 347.523 37.0071 347.443 37.0621 347.316C37.1401 347.134 37.0551 346.923 36.8741 346.846C31.9341 344.734 26.6251 344.593 23.3491 346.479C23.1771 346.578 23.1181 346.798 23.2171 346.969C23.3171 347.141 23.5351 347.2 23.7071 347.102C26.7941 345.322 31.8521 345.48 36.5921 347.506C36.6461 347.527 36.7031 347.536 36.7581 347.532Z" fill="#04364A"/>
<path d="M289.221 362.932C284.39 353.953 287.232 343.786 291.376 336.666C295.775 329.107 290.148 324.155 284.461 329.849C278.774 335.543 278.988 350.095 285.671 361.459L289.221 362.932Z" fill="#37474F"/>
<path d="M287.572 330.397C285.013 333.677 279.823 344.507 285.864 359.507" stroke="#04364A" stroke-width="0.5" stroke-miterlimit="10" stroke-linecap="round" stroke-linejoin="round"/>
<path d="M286.764 359.932C285.347 354.361 289.266 345.125 295.226 341.251C300.589 337.765 303.745 338.011 305.304 339.959C306.762 341.78 304.433 344.852 300.307 347.35C296.181 349.848 289.463 355.355 289.229 361.672L286.764 359.932Z" fill="#D6E6F2"/>
<path d="M301.874 341.141C296.153 342.638 288.9 350.714 287.696 359.492" stroke="#04364A" stroke-width="0.5" stroke-miterlimit="10" stroke-linecap="round" stroke-linejoin="round"/>
<path d="M219.883 363.19C224.714 354.211 221.872 344.044 217.728 336.924C213.329 329.366 218.956 324.413 224.643 330.107C230.33 335.801 230.116 350.353 223.433 361.717L219.883 363.19Z" fill="#37474F"/>
<path d="M221.532 330.656C224.091 333.936 229.281 344.766 223.241 359.766" stroke="#04364A" stroke-width="0.5" stroke-miterlimit="10" stroke-linecap="round" stroke-linejoin="round"/>
<path d="M222.34 360.191C223.757 354.62 219.838 345.384 213.877 341.51C208.514 338.024 205.358 338.27 203.799 340.218C202.341 342.039 204.67 345.111 208.796 347.609C212.922 350.107 219.64 355.614 219.873 361.931L222.34 360.191Z" fill="#D6E6F2"/>
<path d="M207.23 341.4C212.951 342.897 220.203 350.973 221.408 359.751" stroke="#04364A" stroke-width="0.5" stroke-miterlimit="10" stroke-linecap="round" stroke-linejoin="round"/>
<path d="M287.373 370.764C287.729 370.247 288.044 369.724 288.324 369.195C288.4 369.051 288.469 368.907 288.54 368.762C288.763 368.305 288.957 367.845 289.123 367.382C289.175 367.238 289.232 367.094 289.279 366.949C289.465 366.369 289.618 365.786 289.716 365.2C289.718 365.188 289.722 365.176 289.724 365.163C289.822 364.568 289.865 363.97 289.872 363.372C289.874 363.195 289.86 363.019 289.854 362.843C289.841 362.426 289.808 362.01 289.751 361.595C289.722 361.381 289.687 361.167 289.646 360.954C289.569 360.556 289.466 360.159 289.349 359.763C289.29 359.565 289.242 359.367 289.173 359.17C288.977 358.611 288.747 358.056 288.47 357.507C288.383 357.334 288.27 357.165 288.174 356.992C287.956 356.6 287.727 356.21 287.466 355.824C287.311 355.594 287.14 355.367 286.97 355.14C286.844 354.971 286.736 354.799 286.601 354.631C286.411 354.418 286.212 354.18 286.008 353.943C285.901 353.822 285.793 353.701 285.681 353.581C278.132 344.898 267.028 339.435 254.614 339.435C242.184 339.435 231.068 344.91 223.517 353.612C223.426 353.71 223.338 353.808 223.25 353.907C223.034 354.156 222.826 354.406 222.626 354.631C222.483 354.808 222.368 354.991 222.235 355.17C222.078 355.381 221.919 355.59 221.775 355.804C221.494 356.219 221.245 356.639 221.013 357.062C220.934 357.206 220.839 357.347 220.766 357.492C220.483 358.052 220.248 358.617 220.05 359.186C219.989 359.361 219.947 359.538 219.894 359.713C219.767 360.134 219.659 360.556 219.578 360.98C219.541 361.175 219.509 361.369 219.482 361.564C219.42 362.006 219.385 362.448 219.372 362.891C219.368 363.044 219.355 363.197 219.356 363.35C219.369 364.562 219.571 365.772 219.956 366.966C219.997 367.092 220.047 367.217 220.092 367.344C220.265 367.83 220.469 368.313 220.705 368.792C220.767 368.918 220.826 369.043 220.893 369.169C221.187 369.726 221.516 370.278 221.895 370.822C221.911 370.845 221.923 370.868 221.939 370.891C222.361 371.49 222.835 372.08 223.36 372.658C223.393 372.695 223.432 372.731 223.466 372.768C223.935 373.277 224.449 373.775 224.999 374.265C225.124 374.377 225.255 374.488 225.385 374.599C225.889 375.029 226.425 375.45 226.993 375.861C227.131 375.962 227.264 376.064 227.406 376.163C228.124 376.664 228.873 377.155 229.687 377.623C243.44 385.574 265.787 385.574 279.54 377.623C280.347 377.159 281.091 376.673 281.803 376.176C281.964 376.064 282.114 375.948 282.27 375.834C282.815 375.438 283.33 375.033 283.817 374.62C283.963 374.496 284.108 374.372 284.249 374.247C284.775 373.777 285.266 373.299 285.719 372.811C285.771 372.755 285.829 372.701 285.88 372.644C286.395 372.075 286.862 371.495 287.278 370.905C287.313 370.86 287.34 370.812 287.373 370.764Z" fill="#176B87"/>
<path opacity="0.2" d="M287.373 370.764C287.729 370.247 288.044 369.724 288.324 369.195C288.4 369.051 288.469 368.907 288.54 368.762C288.763 368.305 288.957 367.845 289.123 367.382C289.175 367.238 289.232 367.094 289.279 366.949C289.465 366.369 289.618 365.786 289.716 365.2C289.718 365.188 289.722 365.176 289.724 365.163C289.822 364.568 289.865 363.97 289.872 363.372C289.874 363.195 289.86 363.019 289.854 362.843C289.841 362.426 289.808 362.01 289.751 361.595C289.722 361.381 289.687 361.167 289.646 360.954C289.569 360.556 289.466 360.159 289.349 359.763C289.29 359.565 289.242 359.367 289.173 359.17C288.977 358.611 288.747 358.056 288.47 357.507C288.383 357.334 288.27 357.165 288.174 356.992C287.956 356.6 287.727 356.21 287.466 355.824C287.311 355.594 287.14 355.367 286.97 355.14C286.844 354.971 286.736 354.799 286.601 354.631C286.411 354.418 286.212 354.18 286.008 353.943C285.901 353.822 285.793 353.701 285.681 353.581C278.132 344.898 267.028 339.435 254.614 339.435C242.184 339.435 231.068 344.91 223.517 353.612C223.426 353.71 223.338 353.808 223.25 353.907C223.034 354.156 222.826 354.406 222.626 354.631C222.483 354.808 222.368 354.991 222.235 355.17C222.078 355.381 221.919 355.59 221.775 355.804C221.494 356.219 221.245 356.639 221.013 357.062C220.934 357.206 220.839 357.347 220.766 357.492C220.483 358.052 220.248 358.617 220.05 359.186C219.989 359.361 219.947 359.538 219.894 359.713C219.767 360.134 219.659 360.556 219.578 360.98C219.541 361.175 219.509 361.369 219.482 361.564C219.42 362.006 219.385 362.448 219.372 362.891C219.368 363.044 219.355 363.197 219.356 363.35C219.369 364.562 219.571 365.772 219.956 366.966C219.997 367.092 220.047 367.217 220.092 367.344C220.265 367.83 220.469 368.313 220.705 368.792C220.767 368.918 220.826 369.043 220.893 369.169C221.187 369.726 221.516 370.278 221.895 370.822C221.911 370.845 221.923 370.868 221.939 370.891C222.361 371.49 222.835 372.08 223.36 372.658C223.393 372.695 223.432 372.731 223.466 372.768C223.935 373.277 224.449 373.775 224.999 374.265C225.124 374.377 225.255 374.488 225.385 374.599C225.889 375.029 226.425 375.45 226.993 375.861C227.131 375.962 227.264 376.064 227.406 376.163C228.124 376.664 228.873 377.155 229.687 377.623C243.44 385.574 265.787 385.574 279.54 377.623C280.347 377.159 281.091 376.673 281.803 376.176C281.964 376.064 282.114 375.948 282.27 375.834C282.815 375.438 283.33 375.033 283.817 374.62C283.963 374.496 284.108 374.372 284.249 374.247C284.775 373.777 285.266 373.299 285.719 372.811C285.771 372.755 285.829 372.701 285.88 372.644C286.395 372.075 286.862 371.495 287.278 370.905C287.313 370.86 287.34 370.812 287.373 370.764Z" fill="black"/>
<g opacity="0.5">
<path d="M259.999 350.769C258.498 351.146 261.463 356.672 264.648 366.474C266.329 371.647 267.231 379.078 275.664 374.947C283.431 371.141 276.917 362.168 270.899 356.437C265.552 351.345 261.613 350.365 259.999 350.769Z" fill="#176B87"/>
<path d="M261.394 347.39C262.178 347.796 267.046 348.44 274.891 355.764C279.103 359.697 282.387 364.678 283.96 365.315C285.533 365.953 286.615 359.07 283.96 355.629C281.305 352.188 276.524 348.116 271.098 346.49C265.672 344.864 260.081 346.711 261.394 347.39Z" fill="#176B87"/>
<path d="M254.615 379.869C246.518 379.869 245.149 378.409 248.269 365.357C249.914 358.474 253.246 351.546 254.615 351.546C255.983 351.546 259.315 358.475 260.96 365.357C264.08 378.409 262.711 379.869 254.615 379.869Z" fill="#176B87"/>
<path d="M249.23 350.769C250.731 351.146 247.766 356.672 244.581 366.474C242.9 371.647 241.998 379.078 233.565 374.947C225.798 371.141 232.312 362.168 238.33 356.437C243.677 351.345 247.616 350.365 249.23 350.769Z" fill="#176B87"/>
<path d="M247.835 347.39C247.051 347.796 242.183 348.44 234.338 355.764C230.126 359.697 226.842 364.678 225.269 365.315C223.696 365.953 222.614 359.07 225.269 355.629C227.924 352.188 232.705 348.116 238.131 346.49C243.557 344.864 249.148 346.711 247.835 347.39Z" fill="#176B87"/>
</g>
<path d="M254.615 309.552C253.636 309.552 252.658 309.768 251.911 310.199C251.242 310.585 250.89 311.079 250.819 311.583H250.802C250.117 327.73 248.861 335.549 243.698 344.128C243.698 345.741 244.764 347.354 246.896 348.585C249.028 349.816 251.821 350.431 254.615 350.431H254.614C257.408 350.431 260.202 349.816 262.333 348.585C264.465 347.354 265.531 345.741 265.531 344.128C260.367 335.549 259.112 327.73 258.427 311.583H258.41C258.339 311.079 257.987 310.585 257.318 310.199C256.572 309.768 255.593 309.552 254.615 309.552Z" fill="#176B87"/>
<path opacity="0.3" d="M254.615 309.552C253.636 309.552 252.658 309.768 251.911 310.199C251.242 310.585 250.89 311.079 250.819 311.583H250.802C250.117 327.73 248.861 335.549 243.698 344.128C243.698 345.741 244.764 347.354 246.896 348.585C249.028 349.816 251.821 350.431 254.615 350.431H254.614C257.408 350.431 260.202 349.816 262.333 348.585C264.465 347.354 265.531 345.741 265.531 344.128C260.367 335.549 259.112 327.73 258.427 311.583H258.41C258.339 311.079 257.987 310.585 257.318 310.199C256.572 309.768 255.593 309.552 254.615 309.552Z" fill="black"/>
<path opacity="0.15" d="M258.501 313.222C255.911 313.316 253.318 313.32 250.728 313.235C250.499 318.3 250.199 323.244 249.729 327.903C252.968 327.842 256.209 327.646 259.444 327.324C259.006 322.831 258.721 318.082 258.501 313.222Z" fill="black"/>
<path opacity="0.15" d="M234.9 372.795C223.443 365.616 224.252 352.831 231.848 346.294C228.753 348.352 225.948 350.813 223.517 353.614C223.426 353.712 223.338 353.81 223.25 353.909C223.034 354.158 222.826 354.408 222.626 354.633C222.483 354.81 222.368 354.993 222.235 355.172C222.078 355.383 221.919 355.592 221.775 355.806C221.494 356.221 221.245 356.641 221.013 357.064C220.934 357.208 220.839 357.349 220.766 357.494C220.483 358.054 220.248 358.619 220.05 359.188C219.989 359.363 219.947 359.54 219.894 359.715C219.767 360.136 219.659 360.558 219.578 360.982C219.541 361.177 219.509 361.371 219.482 361.566C219.42 362.008 219.385 362.45 219.372 362.894C219.368 363.047 219.355 363.2 219.356 363.353C219.368 364.565 219.571 365.775 219.956 366.969C219.997 367.095 220.047 367.22 220.092 367.347C220.265 367.833 220.469 368.316 220.705 368.795C220.767 368.921 220.826 369.046 220.893 369.172C221.187 369.729 221.516 370.281 221.895 370.825C221.911 370.848 221.923 370.871 221.939 370.894C222.361 371.494 222.835 372.083 223.36 372.661C223.393 372.698 223.432 372.734 223.466 372.771C223.935 373.28 224.449 373.778 224.999 374.268C225.124 374.38 225.255 374.491 225.385 374.602C225.889 375.032 226.425 375.453 226.993 375.865C227.132 375.966 227.264 376.068 227.406 376.167C228.124 376.668 228.873 377.158 229.687 377.627C243.44 385.578 265.787 385.578 279.54 377.627C280.347 377.163 281.091 376.677 281.803 376.18C281.964 376.068 282.114 375.952 282.27 375.838C282.815 375.442 283.331 375.037 283.817 374.624C283.963 374.5 284.108 374.376 284.249 374.251C284.775 373.781 285.266 373.303 285.719 372.815C285.771 372.759 285.829 372.705 285.88 372.649C271.558 382.807 246.368 379.979 234.9 372.795Z" fill="black"/>
<path d="M333.54 268.947C289.851 312.637 219.016 312.637 175.326 268.947C131.637 225.258 131.637 154.423 175.326 110.733L168.114 103.521C117.803 153.832 113.025 230.625 163.336 280.936C213.647 331.247 290.387 326.416 340.698 276.105L333.54 268.947Z" fill="#37474F"/>
<path d="M160.416 111.849L167.718 119.146C170.087 116.247 172.623 113.438 175.327 110.734L168.115 103.522C165.414 106.222 162.853 109.004 160.416 111.849Z" fill="#04364A"/>
<path d="M333.54 268.947C330.855 271.632 328.067 274.149 325.19 276.504L332.439 283.748C335.26 281.328 338.019 278.786 340.698 276.106L333.54 268.947Z" fill="#04364A"/>
<path d="M132.607 200.814C135.838 227.265 145.359 257.973 170.991 280.486C192.828 299.666 226.233 320.031 277.656 312.506C237.916 322.572 195.296 312.896 163.337 280.936C114.524 232.123 117.574 158.386 163.747 108.088C161.852 110.36 126.782 153.116 132.607 200.814Z" fill="#D6E6F2"/>
<path d="M344.69 286.385C346.315 286.385 347.937 285.765 349.178 284.526C351.656 282.048 351.656 278.028 349.178 275.55L168.658 95.1621C166.177 92.6841 162.163 92.6841 159.682 95.1621C157.204 97.6401 157.204 101.659 159.682 104.138L340.202 284.526C341.443 285.764 343.065 286.385 344.69 286.385Z" fill="#37474F"/>
<path d="M168.658 95.1621L349.178 275.55C350.989 277.361 351.462 279.992 350.625 282.247C349.997 282.448 349.35 282.576 348.696 282.576C347.071 282.576 345.449 281.956 344.208 280.717L163.688 100.328C161.877 98.5171 161.405 95.8861 162.241 93.6321C164.431 92.9321 166.918 93.4241 168.658 95.1621Z" fill="#D6E6F2"/>
<path d="M150.737 189.847C150.737 247.111 197.175 293.522 254.439 293.522C289.73 293.522 320.921 275.89 339.625 248.96C351.308 232.185 358.141 211.82 358.141 189.847C358.141 132.583 311.703 86.145 254.439 86.145C232.439 86.145 212.02 93.005 195.246 104.688C168.342 123.445 150.737 154.582 150.737 189.847Z" fill="#176B87"/>
<path opacity="0.5" d="M150.737 189.847C150.737 247.111 197.175 293.522 254.439 293.522C289.73 293.522 320.921 275.89 339.625 248.96C351.308 232.185 358.141 211.82 358.141 189.847C358.141 132.583 311.703 86.145 254.439 86.145C232.439 86.145 212.02 93.005 195.246 104.688C168.342 123.445 150.737 154.582 150.737 189.847Z" fill="#04364A"/>
<path d="M275.806 103.078C271.373 101.392 265.099 100.689 268.186 104.828C271.274 108.967 273.797 110.248 272.529 113.506C271.262 116.764 267.776 119.326 267.896 122.045C268.017 124.764 268.664 128.137 270.648 128.029C272.632 127.921 279.269 124.643 281.792 125.923C284.315 127.203 293.063 131.17 295.523 128.774C297.982 126.377 299.216 127.107 302.646 124.723C306.076 122.339 307.692 117.971 305.1 116.913C302.507 115.855 301.715 116.825 297.487 114.765C293.258 112.706 292.397 109.022 287.851 108.081C283.306 107.141 279.062 104.316 275.806 103.078Z" fill="#D6E6F2"/>
<path d="M258.971 97.677C252.91 98.347 240.783 98.165 236.454 94.86C234.311 93.207 231.816 91.092 228.974 89.292C205.009 95.366 183.615 109.926 169.229 130.622C169.444 133.615 170.007 136.527 170.881 139.098C172.9 145.1 176.614 147.247 181.068 150.109C185.536 152.975 182.928 155.081 184.164 158.878C185.413 162.678 185.744 164.742 187.851 167.349C189.957 169.956 185.127 171.364 182.817 174.061C180.511 176.745 179.503 178.373 179.195 185.589C178.875 192.802 183.276 200.533 184.21 203.751C185.144 206.97 180.766 208.52 179.533 213.983C178.3 219.446 172.589 232.966 174.447 242.603C176.291 252.236 179.611 252.518 181.283 247.193C182.956 241.868 183.239 236.311 187.782 233.629C192.326 230.946 197.982 234.405 202.877 228.133C207.769 221.874 208.962 222.731 213.21 221.638C217.45 220.527 216.817 217.886 222.061 213.624C227.305 209.363 230.276 204.562 226.666 200.503C223.07 196.448 219.968 195.474 218.224 188.593C216.48 181.712 212.531 174.123 208.132 168.851C203.751 163.569 193.377 163.718 190.241 161.27C187.105 158.822 187.564 151.171 188.839 148.646C190.128 146.126 187.746 144.397 184.941 144.013C182.141 143.616 181.365 141.427 182.03 137.73C182.707 134.038 189.727 131.854 194.173 133.251C198.606 134.644 200.131 137.565 198.759 143.468C197.383 149.384 199.963 153.602 203.539 156.188C207.115 158.774 206.284 153.642 204.6 149.691C202.912 145.753 203.748 143.091 208.364 137.71C212.975 132.343 218.024 134.895 224.219 130.727C230.405 126.542 229.434 131.166 233.148 133.313C236.862 135.459 237.12 133.098 240.008 130.1C242.904 127.119 246.664 132.191 251.947 130.925C257.216 129.655 250.462 121.683 252.596 117.965C254.743 114.252 258.594 115.959 258.777 109.186C258.946 102.409 262.062 103.387 264.501 101.814C266.938 100.253 265.033 97.007 258.971 97.677ZM247.384 109.745C244.919 112.144 244.023 111.132 240.612 113.468C237.184 115.814 233.158 116.245 230.901 115.653C228.649 115.048 226.638 109.809 227.403 107.373C228.168 104.937 231.865 105.601 235.925 106.643C239.99 107.671 243.96 107.324 248.566 105.978C252.208 104.913 249.845 107.359 247.384 109.745Z" fill="#D6E6F2"/>
<path d="M353.344 220.949L353.256 221.229C351.461 221.264 349.533 221.814 347.924 223.488C343.588 227.976 344.127 225.469 337.531 227.053C330.947 228.641 331.743 232.299 330.56 236.067C329.372 239.848 321.758 241.595 318.296 241.722C314.843 241.865 310.199 249.665 309.539 254.094C308.883 258.51 303.366 258.239 298.921 260.748C294.476 263.257 290.304 268.762 287.174 270.952C284.056 273.147 279.791 273.503 276.525 271.512C273.251 269.503 272.315 262.379 272.444 256.569C272.56 250.755 274.144 244.919 277.446 239.857C280.743 234.808 280.081 235.332 282.205 226.243C284.329 217.154 279.313 212.17 276.332 210.02C273.356 207.857 267.102 207.603 264.84 204.699C262.592 201.799 262.31 198.785 263.626 189.94C264.946 181.081 269.651 180.863 274.532 177.76C279.399 174.652 287.377 172.537 293.506 173.234C299.618 173.94 302.829 176.894 305.529 179.936C308.23 182.978 308.306 187.391 310.614 188.613C312.912 189.818 315.482 189.411 317.709 190.842C319.936 192.273 321.076 194.094 323.583 194.633C326.104 195.177 325.676 191.883 325.939 190.254C326.202 188.625 323.921 188.157 321.107 187.01C318.289 185.876 317.896 184.802 317.644 182.529C317.379 180.252 315.119 181.253 314.068 179.943C313.017 178.633 311.9 182.187 311.247 183.474C310.594 184.761 310.498 181.995 310.498 181.995C310.498 181.995 308.61 183.348 308.438 182.313C308.275 181.296 310.233 179.718 310.903 177.588C311.568 175.471 308.386 174.749 307.163 172.405C305.949 170.078 303.424 168.803 300.552 168.632C297.68 168.461 297.45 167.658 295.425 169.449C293.395 171.254 287.271 170.544 285.638 169.549C284.005 168.553 286.666 165.484 289.425 162.942C292.174 160.383 294.858 162.689 298.056 160.286C301.253 157.883 298.8 156.38 297.225 155.154C295.663 153.932 295.784 152.01 299.249 148.711C302.727 145.416 304.745 147.512 305.009 149.789C305.274 152.066 307.133 153.879 309.515 154.861C311.88 155.852 311.997 153.944 313.326 150.457C314.669 146.973 316.996 145.759 320.671 145.7C324.351 145.627 330.458 145.601 333.237 144.528C336.008 143.439 339.073 146.113 340.145 148.892C341.235 151.662 345.09 154.102 349.189 156.604C350.353 157.321 351.539 157.225 352.706 156.817C359.482 176.877 360.174 199.21 353.344 220.949Z" fill="#D6E6F2"/>
<path d="M316.356 261.106C314.174 259.77 314.067 260.631 311.957 261.918C309.846 263.205 307 264.505 306.595 266.571C306.189 268.638 305.423 271.078 307.616 270.305C309.809 269.531 309.923 267.617 312.643 267.496C315.362 267.375 319.627 263.109 316.356 261.106Z" fill="#D6E6F2"/>
<path opacity="0.1" d="M313.665 114.562C259.44 72.3221 231.265 109.53 253.212 148.876C275.159 188.222 327.38 219.191 341.835 204.83C356.291 190.468 353.972 145.96 313.665 114.562Z" fill="#04364A"/>
<path opacity="0.15" d="M209.023 227.617C177.032 169.451 208.894 94.145 260.481 86.337C258.48 86.222 256.469 86.144 254.439 86.144C197.175 86.144 150.737 132.582 150.737 189.846C150.737 211.819 157.57 232.184 169.253 248.959C187.957 275.889 219.148 293.521 254.439 293.521C283.374 293.521 309.532 281.66 328.345 262.548C307.405 275.841 240.997 285.752 209.023 227.617Z" fill="black"/>
<path d="M416.248 367.109C416.419 366.804 416.54 366.449 416.64 365.996C416.927 364.705 416.611 363.516 416.108 362.318C415.502 360.874 415.147 359.667 415.225 357.913C415.296 356.327 415.49 354.947 415.733 353.234C416.737 346.141 418.737 334.451 418.809 331.658C418.932 326.903 418.93 324.55 418.044 320.813C418.044 320.813 421.354 310.009 422.748 303.845C424.974 294.006 426.482 286.394 425.692 277.848C424.979 270.136 425.819 266.873 421.321 261.705C420.803 261.036 420.476 260.63 420.476 260.63C420.476 260.63 404.86 277.434 403.974 280.337C403.432 289.889 403.086 301.324 402.792 310.314C402.548 317.78 402.85 318.796 403.713 327.563C404.424 334.788 405.157 342.776 406.021 351.267C406.295 353.961 406.509 357.18 405.658 359.791C403.903 365.172 398.97 368.364 394.81 371.792C394.081 372.393 393.29 373.115 393.266 374.06C393.246 374.872 393.838 375.6 394.555 375.983C395.431 376.451 396.428 376.483 397.383 376.628C398.431 376.787 399.45 376.991 400.517 376.888C402.291 376.716 404.257 376.616 405.895 375.839C407.361 375.143 408.442 373.458 409.585 372.305C410.689 371.193 411.56 370.015 412.888 369.183C413.931 368.529 415.597 368.266 416.248 367.109Z" fill="#FFA8A7"/>
<path d="M392.928 374.757C392.857 375.447 392.927 376.349 393.267 376.769C393.793 377.419 395.713 379.136 400.663 378.937C405.421 378.745 408.204 376.462 409.183 375.186C410.162 373.91 411.05 372.659 412.017 371.627C412.867 370.72 414.348 370.136 415.284 369.839C416.22 369.541 416.483 369.202 416.394 367.845C416.095 366.576 392.928 374.757 392.928 374.757Z" fill="#37474F"/>
<path d="M415.215 358.274C415.211 358.545 415.22 358.826 415.243 359.116C415.243 359.116 415.315 361.045 414.052 361.494C412.556 362.026 412.655 360.929 411.525 360.031C409.061 358.075 406.056 358.237 405.34 359.898C404.39 362.102 401.027 366.189 399.82 367.314C398.613 368.438 397.886 369.04 396.69 369.888C395.494 370.736 392.591 372.273 392.876 374.152C393.161 376.031 394.926 377.056 397.317 377.454C399.708 377.852 403.659 377.565 406.678 375.6C408.875 374.17 410.789 371.4 411.608 370.594C413.101 369.124 415.495 368.815 416.261 368.068C416.898 367.095 417.097 365.514 416.788 363.796C416.487 362.121 416.049 360.623 415.992 359.785C415.936 358.946 415.814 358.337 415.215 358.274Z" fill="#D6E6F2"/>
<path d="M400.373 369.748C399.186 369.376 398.11 369.362 397.171 369.536C396.903 369.511 396.486 369.759 396.311 369.883C395.115 370.731 392.474 372.217 392.758 374.095C393.043 375.974 394.748 377.114 397.14 377.512C399.338 377.878 403.196 377.85 405.921 376.025C405.699 373.376 403.616 370.765 400.373 369.748Z" fill="#F0F0F0"/>
<path d="M460.93 360.172C460.656 359.27 460.003 358.462 459.298 357.805C458.513 357.074 457.627 356.443 456.925 355.626C456.289 354.885 455.933 353.811 455.561 352.912C455.32 352.33 454.734 350.382 453.979 347.786C451.979 340.908 448.79 329.486 447.678 326.923C445.786 322.559 443.944 319.738 441.556 317.765C441.556 317.765 441.001 305.862 440.781 299.546C440.456 290.222 439.371 280.156 434.876 273.644C430.477 267.27 426.741 265.214 420.484 262.423C419.732 262.034 419.265 261.804 419.265 261.804C419.265 261.804 417.174 291.244 418.465 289.963C420.125 297.566 422.331 306.496 424.16 314.313C425.81 321.362 426.249 322.659 431.136 330.1C435.121 336.168 439.868 343.401 444.229 350.737C446.124 353.925 448.231 358.211 448.665 361.981C449.232 366.91 447.878 372.385 444.87 376.361C444.475 376.883 444.025 377.445 444.053 378.098C444.092 379.014 445.036 379.603 445.904 379.896C448.021 380.611 450.391 380.545 452.465 379.715C455.964 378.315 458.552 374.623 458.314 370.799C458.18 368.648 458.458 366.442 459.537 364.541C460.148 363.464 461.002 362.436 461.062 361.199C461.08 360.847 461.03 360.504 460.93 360.172Z" fill="#FFA8A7"/>
<path d="M444.092 380.071C444.445 381.078 445.064 382.027 446.425 382.274C447.786 382.521 451.374 383.083 455.127 380.39C458.88 377.697 459.375 375.47 459.54 373.449C459.705 371.428 459.128 368.541 459.829 367.016C460.53 365.49 461.432 364.5 461.682 363.346C461.932 362.191 461.396 360.583 461.396 360.583L444.092 380.071Z" fill="#37474F"/>
<path d="M456.925 355.626C456.925 355.626 457.323 356.314 457.403 356.518C457.542 356.874 458.438 358.548 456.594 360.149C456.014 360.653 454.747 360.115 453.682 360.034C451.888 359.899 449.658 360.53 448.445 362.161C448.55 365.575 448.635 367.612 447.684 370.369C447.684 370.369 446.298 373.325 445.377 374.504C444.456 375.683 442.827 377.596 443.677 379.296C443.677 379.296 444.173 380.358 445.802 380.925C447.431 381.492 450.972 381.704 454.372 379.508C457.772 377.312 458.409 374.692 458.692 372.426C458.975 370.16 458.48 367.746 459.329 366.084C460.179 364.422 461.326 363.828 461.632 361.543C461.632 361.543 461.832 360.161 460.328 358.741C458.491 357.004 457.438 354.94 456.925 355.626Z" fill="#D6E6F2"/>
<path d="M454.666 374.472C452.559 372.783 448.948 371.784 445.78 373.926L445.778 373.928C445.575 374.104 445.326 374.393 445.2 374.555C444.279 375.734 442.653 377.549 443.503 379.249C443.503 379.249 443.875 380.389 445.681 380.983C447.319 381.522 450.973 381.703 454.372 379.508C455.2 378.973 455.862 378.413 456.397 377.839L456.469 377.761C456.488 377.74 456.504 377.719 456.523 377.698C456.52 377.675 456.093 375.616 454.666 374.472Z" fill="#F0F0F0"/>
<path d="M403.736 281.163C402.973 292.802 402.4 307.78 402.4 307.78C402.4 307.78 405.071 310.738 412.513 311.31C419.954 311.882 421.29 311.31 421.29 311.31L422.149 308.257L423.008 311.978C423.008 311.978 426.254 313.26 433.312 311.978C441.231 310.539 442.312 307.531 442.312 307.531C442.312 307.531 442.161 295.884 441.589 289.506C441.017 283.128 436.698 272.674 436.698 272.674L403.736 281.163Z" fill="#D6E6F2"/>
<path d="M422.149 308.258L419.604 297.669C419.604 297.669 415.674 297.775 412.062 295.757C412.062 295.757 413.655 298.944 418.648 299.581L421.091 308.258L421.29 311.311L422.149 308.258Z" fill="#37474F"/>
<path d="M385.247 214.117L390.97 229.775C390.97 229.775 406.716 237.665 413.947 240.47C411.698 242.009 410.136 244.167 408.363 248.417L406.99 252.667C406.99 252.667 392.866 244.683 384.818 238.935C381.156 236.319 380.605 233.758 379.985 230.997C379.228 227.627 378.862 225.664 377.754 219.447C377.477 217.894 377.203 216.45 376.935 215.125C376.482 212.886 375.779 210.708 375.092 208.532C374.359 206.212 374.265 204.375 374.438 201.954C374.55 200.379 374.974 198.738 375.905 197.403C376.836 196.068 378.793 194.95 380.348 194.469C381.537 194.102 382.485 194.512 382.837 195.153C383.095 195.625 383.042 196.198 383.001 196.734C382.831 198.981 382.452 201.281 382.988 203.47C383.056 203.748 383.154 204.057 383.409 204.188C383.889 204.435 384.603 202.696 384.941 202.338C386.022 201.195 387.205 201.501 387.645 201.855C387.988 202.131 387.237 202.926 386.805 204.651C386.254 206.854 386.603 208.644 385.436 210.807C385.054 211.514 384.808 212.615 385.247 214.117Z" fill="#FFA8A7"/>
<path d="M413.458 239.762L401.474 234.895C401.474 234.895 399.337 234.923 396.833 239.167C394.328 243.411 395.72 247.585 395.72 247.585L406.167 253.568L413.458 239.762Z" fill="#D6E6F2"/>
<path d="M434.526 241.995C437.677 242.555 439.167 245.049 439.857 248.174C440.199 249.726 440.012 251.578 439.556 254.864C439.099 258.15 437.038 272.548 437.038 272.548L440.783 283.707C435.712 289.224 414.423 293.661 403.349 285.574C403.349 285.574 404.27 257.627 405.099 252.056C406.222 244.51 409.021 240.615 412.415 239.853C412.765 239.774 414.308 239.693 415.333 239.773L427.671 240.448L434.526 241.995Z" fill="#176B87"/>
<path d="M441.265 287.458L443.141 270.893C443.141 270.893 438.824 264.87 434.307 258.664C429.085 250.266 435.454 242.235 435.454 242.235C441.858 243.35 441.646 247.267 452.737 265.446C455.081 269.287 454.705 269.426 453.514 274.707C452.754 278.076 452.136 279.979 450.349 286.037C449.903 287.551 449.503 288.964 449.151 290.269C448.556 292.475 448.211 294.737 447.854 296.991C447.473 299.394 446.736 301.079 445.5 303.168C444.696 304.527 443.583 305.806 442.154 306.584C440.725 307.362 438.474 307.488 436.868 307.223C435.641 307.021 434.975 306.23 434.947 305.5C434.927 304.962 435.23 304.474 435.506 304.012C436.662 302.077 438.029 300.19 438.528 297.992C438.591 297.713 438.642 297.393 438.473 297.162C438.154 296.726 436.738 297.964 436.276 298.133C434.798 298.673 433.876 297.87 433.641 297.356C433.457 296.956 434.485 296.58 435.642 295.23C437.119 293.505 437.607 291.748 439.617 290.334C440.275 289.873 440.987 288.999 441.265 287.458Z" fill="#FFA8A7"/>
<path d="M434.526 241.995C436.888 242.318 438.257 242.604 440.004 244.231C441.751 245.858 442.741 247.511 443.97 249.682C446.614 254.356 448.455 257.613 448.455 257.613C448.455 257.613 447.455 262.969 438.881 265.403C438.881 265.403 432.901 257.566 432.251 256.291C431.601 255.018 428.624 246.723 434.526 241.995Z" fill="#D6E6F2"/>
<path d="M428.275 236.614C431.03 232.435 435.2 232.276 438.851 225.764C442.783 218.752 437.581 211.16 435.776 209.871C435.776 209.871 435.645 206.131 430.471 203.047C424.005 199.193 410.791 200.066 405.051 209.26L428.275 236.614Z" fill="#37474F"/>
<path d="M435.364 209.536C438.807 206.085 443.372 205.521 447.394 208.719C452.129 212.483 451.454 223.382 457.972 225.22C460.591 225.959 459.463 228.691 455.932 229.515C451.255 230.606 446.737 228.346 444.255 222.721C441.773 217.096 441.421 210.729 436.907 211.487C433.858 212 435.364 209.536 435.364 209.536Z" fill="#37474F"/>
<path d="M429.855 224.538C430.446 224.978 430.583 225.183 431.115 224.187C432.259 222.046 435.214 221.75 436.178 223.805C437.461 226.538 435.725 229.102 433.303 230.079C430.054 231.388 429.167 229.415 429.167 229.415L427.635 241.785C427.635 241.785 424.821 247.061 418.642 247.262C412.464 247.464 413.253 242.533 415.507 240.276L415.661 236.625C415.661 236.625 413.431 236.575 411.196 235.715C409.31 234.989 407.955 233.672 406.982 230.591C405.673 226.445 405.891 222.081 407.989 214.071C410.419 204.793 422.053 205.705 427.619 210.059C433.185 214.413 429.855 224.538 429.855 224.538Z" fill="#FFA8A7"/>
<path d="M431.176 218.946L431.969 210.433L419.901 202.347C411.488 201.276 403.799 207.228 402.728 215.641L402.476 217.616L409.93 218.565C413.4 219.007 416.663 216.816 417.568 213.437L417.077 219.475C419.938 219.839 422.602 217.956 423.214 215.138L423.424 214.171C423.272 217.412 425.497 220.247 428.616 220.917L428.377 224.107C428.269 225.551 429.327 226.82 430.767 226.972L431.113 224.187L432.569 219.348L431.176 218.946Z" fill="#37474F"/>
<path d="M418.963 222.585C418.888 223.316 419.398 223.965 420.102 224.035C420.805 224.105 421.436 223.57 421.511 222.838C421.586 222.107 421.076 221.458 420.373 221.388C419.669 221.318 419.038 221.854 418.963 222.585Z" fill="#04364A"/>
<path d="M421.015 218.91L423.569 220.681C424.048 219.944 423.864 218.95 423.159 218.462C422.454 217.973 421.494 218.174 421.015 218.91Z" fill="#04364A"/>
<path d="M419.588 229.119L414.602 230.429C414.936 231.854 416.323 232.716 417.7 232.355C419.077 231.993 419.922 230.544 419.588 229.119Z" fill="#B14043"/>
<path d="M419.501 230.673C419.188 230.477 418.826 230.353 418.43 230.342C417.296 230.313 416.354 231.179 416.261 232.295C416.709 232.451 417.204 232.484 417.699 232.354C418.561 232.128 419.214 231.477 419.501 230.673Z" fill="#F28F8F"/>
<path d="M407.995 217.424L411.031 216.655C410.849 215.802 410.021 215.283 409.183 215.495C408.345 215.708 407.813 216.571 407.995 217.424Z" fill="#04364A"/>
<path d="M408.351 221.382C408.276 222.113 408.786 222.762 409.49 222.832C410.193 222.902 410.825 222.367 410.899 221.636C410.974 220.905 410.464 220.256 409.761 220.186C409.057 220.116 408.426 220.652 408.351 221.382Z" fill="#04364A"/>
<path d="M415.285 220.803L414.217 227.565L410.791 225.991L415.285 220.803Z" fill="#F28F8F"/>
<path d="M415.66 236.625C415.66 236.625 421.788 236.621 424.72 235.135C426.061 234.455 427.324 233.463 427.723 232.716C427.723 232.716 427.234 234.405 425.848 235.739C422.801 238.673 415.599 238.066 415.599 238.066L415.66 236.625Z" fill="#F28F8F"/>
<path d="M394.189 187.711C391.912 182.951 386.207 180.939 381.448 183.216C373.276 187.126 369.667 199.443 369.667 199.443C369.667 199.443 381.522 204.363 389.694 200.453C394.453 198.175 396.466 192.471 394.189 187.711ZM381.93 193.575C380.827 191.27 381.802 188.508 384.107 187.405C386.412 186.302 389.174 187.277 390.277 189.582C391.38 191.887 390.405 194.649 388.1 195.752C385.795 196.855 383.033 195.88 381.93 193.575Z" fill="#176B87"/>
<path d="M55.0951 361.197C55.9891 358.26 62.4441 338.107 64.9021 331.277C67.6771 323.567 68.0561 320.853 69.7751 313.822C70.5911 310.483 71.4781 306.942 72.3621 303.387C73.5431 308.868 75.2971 318.568 75.6831 320.714C75.6531 321.037 75.6181 321.44 75.5821 321.906C74.8361 325.214 74.8181 327.56 74.8891 331.986C74.9341 334.78 76.7371 346.5 77.7511 353.591C77.9751 355.162 78.2241 356.736 78.3761 358.316C78.5301 359.91 77.9061 361.234 77.2851 362.672C76.7701 363.866 76.4431 365.051 76.7171 366.345C76.8131 366.799 76.9301 367.155 77.0981 367.462C77.7371 368.625 79.0321 368.995 80.0661 369.657C81.3861 370.502 82.5151 372.109 83.6081 373.233C84.7401 374.396 85.9031 375.583 87.3621 376.293C88.9921 377.087 90.9571 377.206 92.7291 377.395C93.7951 377.509 94.8161 377.315 95.8651 377.166C96.8221 377.03 97.8191 377.008 98.7001 376.549C99.4201 376.173 100.02 375.451 100.008 374.639C99.9941 373.694 99.2101 372.964 98.4871 372.356C94.3621 368.886 88.3431 364.539 87.2511 358.985C87.2511 358.985 87.8561 354.49 88.0941 351.792C88.9021 342.639 89.2401 335.258 90.0231 328.041C90.9731 319.282 91.2861 318.269 91.1151 310.801C91.0571 308.268 90.9441 305.572 90.7841 302.801C90.6391 294.053 90.0751 285.574 90.1001 279.053C90.1001 279.053 77.9971 279.283 68.4071 279.887C58.0721 281.153 54.5441 283.487 54.8491 284.808C53.9171 289.321 53.5111 294.199 53.3011 298.891C53.0191 305.204 51.9451 321.636 51.9451 321.636C48.8691 326.985 47.8691 331.731 47.4881 335.379C47.1981 338.158 46.0811 356.911 45.8381 358.267C45.6051 359.319 44.7101 360.904 44.1321 361.807C43.6121 362.619 43.1821 363.564 43.1411 364.506C43.1261 364.852 43.1641 365.197 43.2681 365.535C43.6351 366.718 44.7181 367.501 45.5781 368.392C47.0961 369.965 47.9151 372.032 48.3211 374.148C49.0431 377.91 52.4691 380.841 56.2061 381.326C58.4211 381.613 60.7331 381.086 62.6051 379.867C63.3731 379.367 64.1401 378.561 63.9501 377.664C63.8151 377.024 63.2381 376.592 62.7261 376.185C58.8221 373.083 55.7441 368.344 55.0651 363.429C54.9371 362.489 54.9301 361.785 55.0951 361.197Z" fill="#B14043"/>
<path d="M76.816 367.854C76.816 367.854 76.491 367.837 76.533 368.668C76.586 369.73 76.906 370.019 77.507 370.456C78.2 370.96 80.658 371.961 82.198 373.988C83.283 375.416 83.751 376.976 87.364 378.878C90.976 380.779 96.157 380.019 97.963 379.116C99.769 378.213 100.152 377.835 100.246 376.218L76.816 367.854Z" fill="#04364A"/>
<path d="M87.2521 358.984C86.7961 359.671 84.3561 360.012 83.2991 360.423C82.2421 360.834 82.3761 363.256 82.3761 363.256C81.4131 363.241 81.3251 362.529 80.9991 361.296C80.4481 359.211 78.8991 359.216 78.3961 358.95L78.3751 358.314C78.3751 358.314 77.8461 358.157 77.7301 359.156C77.6151 360.155 77.2361 361.91 76.8321 363.11C76.5321 364.003 76.0431 367.261 76.7321 368.245C76.7321 368.245 77.7921 369.211 78.8871 369.854C80.4501 370.772 82.3371 372.31 83.2191 373.635C84.1011 374.96 86.8081 378.04 92.7551 378.099C98.7031 378.158 100.356 376.016 100.356 376.016C100.356 376.016 101.802 373.556 99.3461 371.742C96.8901 369.928 95.8471 369.142 92.8151 366.729C87.8291 362.758 89.1321 358.543 87.2521 358.984Z" fill="#D6E6F2"/>
<path d="M86.5901 376.63C87.7651 373.711 89.3361 371.666 92.4881 370.476C95.6401 369.286 97.0821 369.699 98.3761 370.476C99.6701 371.252 101.952 373.208 100.358 376.016C100.358 376.016 99.4701 378.306 93.7471 378.435C88.0241 378.564 86.5901 376.63 86.5901 376.63Z" fill="#04364A"/>
<path d="M42.303 366.263C42.04 367.257 41.752 368.064 42.676 369.168C43.6 370.272 44.791 370.936 45.599 371.807C46.406 372.678 46.73 374.596 47.236 376.233C47.742 377.87 49.183 380.647 51.667 382.012C54.151 383.377 56.143 384.014 59.011 383.486C61.879 382.959 63.432 382.078 64.145 379.62L42.303 366.263Z" fill="#04364A"/>
<path d="M55.646 360.826C56.094 359.636 53.132 361.439 49.829 360.639C49.237 360.496 48.959 360.763 48.819 361.37C48.704 361.866 48.542 362.632 47.793 362.375C47.497 362.274 47.288 362 47.177 361.707C47.066 361.414 47.038 361.098 46.99 360.789C46.861 359.945 46.649 358.689 45.839 358.265L45.99 357.267C45.99 357.267 45.222 356.563 44.734 358.973C44.246 361.383 41.723 363.006 42.302 366.263C42.302 366.263 43.199 367.955 44.618 369.1C46.037 370.245 47.261 371.719 47.795 374.168C48.329 376.617 50.613 380.345 53.941 381.313C57.269 382.28 60.821 382.036 64.347 379.402C64.347 379.402 66.083 377.007 63.415 374.961C60.747 372.915 59.83 371.706 58.234 369.745C56.732 367.897 55.197 363.548 55.646 360.826Z" fill="#D6E6F2"/>
<path d="M50.5021 379.086C52.0211 376.764 53.9181 374.122 57.5491 373.331C61.1801 372.539 62.6581 374.144 63.8651 375.174C65.0721 376.205 65.6361 377.927 64.3471 379.401C63.0581 380.874 60.5001 382.311 56.8141 382.112C52.6811 381.888 50.5021 379.086 50.5021 379.086Z" fill="#04364A"/>
<path d="M54.3991 278.698C54.3991 278.698 53.5971 288.089 53.3061 293.6C53.0151 299.112 51.3471 321.262 51.3471 321.262C49.3011 325.157 47.7651 328.672 47.1931 334.453C46.4761 341.703 46.2381 349.232 46.0701 351.517C46.0701 351.517 51.7151 355.243 57.6891 353.923C58.1271 352.249 66.0321 329.928 67.7931 324.181C69.4941 318.628 72.3321 305.448 72.3321 305.448C72.3321 305.448 74.8561 317.864 74.4701 320.201C72.9131 329.623 76.4501 345.481 77.1561 351.995C77.1561 351.995 77.8731 353.859 82.5531 353.921C87.3931 353.985 88.2961 352.332 88.2961 352.332C88.2961 352.332 91.2531 320.997 91.6261 315.092C92.0001 309.187 90.8291 286.756 90.1001 279.052L54.3991 278.698Z" fill="#D6E6F2"/>
<path d="M72.332 305.448L73.335 299.565C73.335 299.565 81.196 299.002 84.681 295.109C84.681 295.109 83.485 300.254 75.246 300.98L74.148 306.66L74.43 318.122C73.864 313.838 73.092 310.103 72.332 305.448Z" fill="#37474F"/>
<path d="M105.516 209.893L100.484 225.786C100.484 225.786 85.0991 234.357 77.9971 237.477C80.3111 238.916 81.9661 241.003 83.9231 245.172L85.4811 249.358C85.4811 249.358 99.2421 240.764 107.031 234.669C110.575 231.896 111.013 229.313 111.512 226.527C112.121 223.127 112.4 221.15 113.236 214.89C113.445 213.326 113.655 211.872 113.865 210.536C114.219 208.279 114.827 206.072 115.418 203.869C116.049 201.519 116.062 199.68 115.784 197.269C115.603 195.7 115.108 194.079 114.119 192.786C113.131 191.493 111.126 190.462 109.551 190.05C108.348 189.735 107.418 190.186 107.095 190.842C106.857 191.325 106.936 191.895 107 192.429C107.268 194.667 107.747 196.947 107.308 199.158C107.252 199.439 107.168 199.751 106.919 199.894C106.451 200.162 105.661 198.455 105.308 198.113C104.178 197.018 103.009 197.376 102.585 197.749C102.255 198.039 103.04 198.801 103.547 200.506C104.194 202.683 103.923 204.486 105.184 206.596C105.595 207.285 105.889 208.374 105.516 209.893Z" fill="#B14043"/>
<path d="M77.576 237.15L90.2141 231.362C90.2141 231.362 92.3501 231.296 95.0381 235.427C97.7261 239.557 96.5181 243.788 96.5181 243.788L86.9431 251.117L77.576 237.15Z" fill="#D6E6F2"/>
<path d="M55.66 239.048C51.844 239.828 50.697 241.662 50.24 245.089C50.028 246.679 50.054 251.503 51.112 254.382L53.325 268.204L53.227 286.044C61.426 290.675 79.965 292.435 91.222 284.384C91.222 284.384 89.783 255.637 89.001 250.006C87.644 240.223 83.625 236.744 78.925 237.062L65.347 237.971C65.347 237.969 60.413 238.076 55.66 239.048Z" fill="#176B87"/>
<path d="M87.485 274.108L70.678 265.403C70.678 265.403 67.26 259.137 63.365 251.117C56.716 240.988 53.29 240.407 53.29 240.407C45.617 244.681 48.671 251.205 59.032 271.039C61.049 274.899 63.705 275.862 69.106 277.804C72.552 279.043 74.37 279.723 81.007 281.798C82.604 282.297 84.617 282.866 85.985 283.294C88.297 284.017 89.855 284.738 92.259 285.431C94.738 286.146 96.552 286.759 99.124 286.843C100.797 286.898 102.575 286.631 104.085 285.796C105.595 284.961 106.989 283.019 107.667 281.432C108.185 280.219 107.857 279.173 107.219 278.733C106.75 278.409 106.14 278.402 105.569 278.386C103.181 278.318 100.714 278.465 98.464 277.66C98.178 277.558 97.863 277.421 97.753 277.138C97.545 276.605 99.458 276.043 99.872 275.726C101.196 274.711 101.003 273.43 100.678 272.927C100.425 272.535 99.504 273.24 97.637 273.506C95.253 273.845 93.404 273.28 90.995 274.273C90.209 274.598 89.021 274.736 87.485 274.108Z" fill="#B14043"/>
<path d="M54.111 239.475C47.43 241.688 47.798 246.87 48.258 249.359C48.719 251.848 49.322 253.015 50.382 255.438C52.835 261.044 57.497 269.882 57.497 269.882C57.497 269.882 62.965 269.295 70.025 263.012C70.025 263.012 61.841 246.905 61 245.323C60.288 243.984 57.624 239.671 54.111 239.475Z" fill="#D6E6F2"/>
<path d="M87.483 211.797C87.646 217.527 83.292 222.3 77.759 222.457C72.226 222.614 67.608 218.097 67.445 212.366C67.282 206.636 71.636 201.863 77.169 201.705C82.702 201.549 87.32 206.067 87.483 211.797Z" fill="#04364A"/>
<path d="M57.1211 220.381C57.1211 220.381 59.0831 228.464 59.8151 229.78C60.5471 231.096 61.9921 231.435 61.9921 231.435L61.7081 225.718L57.1211 220.381Z" fill="#04364A"/>
<path d="M58.962 208.669C58.962 208.669 57.088 208.403 55.678 209.93C54.295 211.428 55.22 215.965 57.121 220.381L60.392 220.663L58.962 208.669Z" fill="#04364A"/>
<path d="M61.37 220.638C60.727 221.047 59.759 219.818 58.929 218.997C58.099 218.177 55.434 217.098 54.2 219.902C52.942 222.759 55.545 226.414 57.636 227.005C61.239 228.024 61.71 225.719 61.71 225.719L62.349 238.592C62.349 238.592 64.85 244.247 71.206 244.925C77.562 245.603 77.35 240.298 75.197 237.799L75.09 234.182C75.09 234.182 77.393 234.3 79.764 233.583C81.764 232.978 83.262 231.723 84.499 228.619C86.164 224.443 86.272 219.926 84.718 211.506C82.918 201.753 70.851 201.808 64.78 205.875C58.707 209.943 61.37 220.638 61.37 220.638Z" fill="#B14043"/>
<path d="M63.34 214.057C62.846 216.893 62.506 221.685 61.401 221.738C61.072 221.754 59.763 219.714 58.928 218.997C58.556 218.677 58.529 217.957 58.484 217.513C58.317 215.862 58.297 214.058 58.377 212.407C58.466 210.591 58.119 208.574 58.644 206.812C59.045 205.465 60.027 204.337 61.211 203.58C63.877 201.876 67.455 201.954 70.473 201.26C74.018 200.446 77.427 199.266 80.486 197.275C80.795 197.074 81.106 196.876 81.42 196.682C81.698 196.509 82.008 196.332 82.333 196.376C82.61 196.413 82.846 196.612 82.991 196.852C83.135 197.092 83.201 197.37 83.25 197.646C83.401 198.488 83.421 199.353 83.314 200.202C83.216 200.977 83.276 201.697 82.799 202.377C83.52 201.897 84.241 201.417 84.962 200.936C85.11 200.837 85.277 200.734 85.453 200.758C85.757 200.8 85.881 201.169 85.916 201.474C86.208 204.014 84.826 206.553 82.807 208.122C80.788 209.691 78.219 210.402 75.675 210.662C73.131 210.922 70.566 210.767 68.009 210.792C67.048 210.801 65.602 210.743 64.775 211.282C63.85 211.887 63.519 213.029 63.34 214.057Z" fill="#04364A"/>
<path d="M58.9891 209.392L54.9761 207.382C55.5051 206.233 56.8321 205.752 57.9401 206.307C59.0481 206.862 59.5181 208.243 58.9891 209.392Z" fill="#04364A"/>
<path d="M75.089 234.182C75.089 234.182 68.769 233.711 65.859 231.955C64.528 231.152 63.301 230.033 62.946 229.232C62.946 229.232 63.322 231.011 64.65 232.493C67.569 235.75 75.148 236.175 75.148 236.175L75.089 234.182Z" fill="#9C3E41"/>
<path d="M72.4259 218.878C72.4479 219.637 71.8719 220.268 71.1409 220.287C70.4099 220.306 69.7999 219.706 69.7789 218.946C69.7569 218.187 70.3319 217.556 71.0629 217.537C71.7949 217.518 72.4049 218.119 72.4259 218.878Z" fill="#04364A"/>
<path d="M70.59 214.933L67.822 216.565C67.384 215.769 67.649 214.758 68.414 214.307C69.178 213.857 70.152 214.137 70.59 214.933Z" fill="#04364A"/>
<path d="M71.879 226.011L77.139 227.816C76.666 229.323 75.106 230.14 73.653 229.641C72.2 229.143 71.406 227.518 71.879 226.011Z" fill="#9C3E41"/>
<path opacity="0.6" d="M73.185 227.535C72.716 227.548 72.295 227.719 71.947 227.981C72.243 228.74 72.846 229.365 73.653 229.642C74.26 229.85 74.884 229.826 75.441 229.621C75.379 228.431 74.382 227.501 73.185 227.535Z" fill="#F28F8F"/>
<path d="M83.654 215.293L81.033 213.391C81.535 212.642 82.529 212.46 83.253 212.986C83.976 213.511 84.156 214.544 83.654 215.293Z" fill="#04364A"/>
<path d="M83.053 217.961C83.074 218.72 82.499 219.351 81.768 219.37C81.037 219.388 80.427 218.788 80.406 218.029C80.384 217.27 80.959 216.639 81.69 216.62C82.422 216.601 83.032 217.201 83.053 217.961Z" fill="#04364A"/>
<path d="M76.01 217.305L76.597 224.359L80.25 222.996L76.01 217.305Z" fill="#9C3E41"/>
<path d="M108.499 178.977C103.756 176.665 98.037 178.635 95.725 183.378C93.413 188.121 95.383 193.84 100.126 196.152C108.269 200.122 120.16 195.29 120.16 195.29C120.16 195.29 116.642 182.947 108.499 178.977ZM107.939 189.333C106.819 191.63 104.05 192.584 101.753 191.464C99.456 190.344 98.502 187.575 99.622 185.278C100.742 182.981 103.511 182.027 105.808 183.147C108.105 184.267 109.059 187.037 107.939 189.333Z" fill="#176B87"/>
<path d="M223.922 57.072C218.736 58.043 215.318 63.034 216.289 68.22C217.956 77.125 228.923 83.791 228.923 83.791C228.923 83.791 236.737 73.609 235.07 64.704C234.099 59.519 229.108 56.101 223.922 57.072ZM226.422 70.429C223.91 70.899 221.493 69.244 221.023 66.733C220.553 64.222 222.208 61.805 224.719 61.334C227.23 60.864 229.647 62.519 230.118 65.03C230.588 67.542 228.933 69.959 226.422 70.429Z" fill="#176B87"/>
<path d="M336.592 81.1889C332.257 78.1799 326.304 79.2559 323.296 83.5899C318.131 91.0319 321.093 103.521 321.093 103.521C321.093 103.521 333.829 101.927 338.994 94.4849C342.002 90.1499 340.927 84.1969 336.592 81.1889ZM328.844 92.3529C326.745 90.8959 326.224 88.0129 327.681 85.9139C329.138 83.8149 332.021 83.2939 334.12 84.7509C336.219 86.2079 336.74 89.0909 335.283 91.1899C333.826 93.2889 330.943 93.8089 328.844 92.3529Z" fill="#D6E6F2"/>
</svg>
