<svg width="50" height="50" viewBox="0 0 50 50" fill="none" xmlns="http://www.w3.org/2000/svg">
<path d="M8.66699 15H38.667C38.9322 15 39.1866 14.8946 39.3741 14.7071C39.5616 14.5196 39.667 14.2652 39.667 14C39.667 13.7348 39.5616 13.4804 39.3741 13.2929C39.1866 13.1054 38.9322 13 38.667 13H8.66699C8.40178 13 8.14742 13.1054 7.95989 13.2929C7.77235 13.4804 7.66699 13.7348 7.66699 14C7.66699 14.2652 7.77235 14.5196 7.95989 14.7071C8.14742 14.8946 8.40178 15 8.66699 15ZM8.66699 37H38.667C38.9322 37 39.1866 36.8946 39.3741 36.7071C39.5616 36.5196 39.667 36.2652 39.667 36C39.667 35.7348 39.5616 35.4804 39.3741 35.2929C39.1866 35.1054 38.9322 35 38.667 35H8.66699C8.40178 35 8.14742 35.1054 7.95989 35.2929C7.77235 35.4804 7.66699 35.7348 7.66699 36C7.66699 36.2652 7.77235 36.5196 7.95989 36.7071C8.14742 36.8946 8.40178 37 8.66699 37ZM8.66699 26H38.667C38.9322 26 39.1866 25.8946 39.3741 25.7071C39.5616 25.5196 39.667 25.2652 39.667 25C39.667 24.7348 39.5616 24.4804 39.3741 24.2929C39.1866 24.1054 38.9322 24 38.667 24H8.66699C8.40178 24 8.14742 24.1054 7.95989 24.2929C7.77235 24.4804 7.66699 24.7348 7.66699 25C7.66699 25.2652 7.77235 25.5196 7.95989 25.7071C8.14742 25.8946 8.40178 26 8.66699 26Z" fill="#04364A"/>
</svg>
