<svg width="50" height="50" viewBox="0 0 50 50" fill="none" xmlns="http://www.w3.org/2000/svg">
<path d="M50 25C50.0006 28.2832 49.3545 31.5344 48.0983 34.5678C46.8422 37.6013 45.0007 40.3575 42.6791 42.6791C40.3575 45.0007 37.6013 46.8422 34.5679 48.0983C31.5344 49.3544 28.2832 50.0006 25 50C11.1931 50 9.8407e-06 38.8069 9.8407e-06 25C-0.00237342 22.3143 0.428149 19.6458 1.27502 17.0972C2.93766 12.1197 6.12295 7.79087 10.3804 4.72275C14.6379 1.65462 19.7522 0.00250018 25 1.50837e-06C29.5259 -0.00157069 33.9673 1.22593 37.8501 3.55147C41.7328 5.877 44.9112 9.21328 47.0458 13.2041C47.5751 14.1888 48.0368 15.2083 48.4278 16.2556C48.4819 16.4014 48.5347 16.5472 48.5861 16.6944V16.6958C48.8153 17.343 49.0171 18.0023 49.1917 18.6736C49.7301 20.7392 50.0017 22.8653 50 25Z" fill="#04364A"/>
<path d="M22.2644 8.13278C21.1409 7.52523 19.8935 7.18227 18.6173 7.13006C17.3412 7.07785 16.0699 7.31776 14.9006 7.83151C13.871 8.27959 12.7868 9.0834 12.4434 10.5349C13.8325 9.7151 15.6307 11.0104 15.9882 13.0884L15.9047 13.1114C15.7159 14.5506 16.1374 16.1176 16.9534 17.0101C17.0605 16.0831 17.67 15.4522 18.2696 15.0581C18.8691 14.664 19.5323 14.3777 19.9899 13.7002C20.5324 12.8971 20.6702 11.7234 20.8857 10.6527C21.1012 9.58197 21.51 8.43114 22.2644 8.13278Z" fill="white"/>
<path d="M14.4893 20.3805C14.1045 20.9583 13.5907 21.3208 13.1295 21.7722C12.6698 22.225 12.2323 22.8361 12.1407 23.6208C12.0823 24.1236 12.1726 24.6347 12.1601 25.143C12.1476 25.6514 11.9782 26.2236 11.6323 26.35C11.0865 26.5472 10.6698 25.5333 10.1087 25.4625C9.66287 25.4069 9.2615 26.1083 9.39066 26.7166C9.51983 27.325 10.1268 27.5944 10.4754 27.1972C10.7907 27.7264 10.5684 28.6861 10.0948 28.8486C10.0448 29.1819 9.99484 29.5139 9.94621 29.8472C8.74899 29.0097 7.53927 28.1583 6.52122 26.9319C5.38897 25.5795 4.6867 23.9196 4.50455 22.1653C4.37262 20.7555 4.56844 19.143 3.92123 18.0583C3.40316 17.1903 2.51426 16.9986 1.71427 17.0528C1.56844 17.0625 1.42123 17.0791 1.27539 17.0972C1.74718 15.6802 2.34639 14.3089 3.06565 13C3.22843 12.9301 3.37968 12.836 3.51426 12.7208C4.25872 12.0889 4.58928 10.8097 5.19344 9.92498C5.23233 9.86803 5.27261 9.81248 5.31427 9.75832C5.93234 8.95137 6.76011 8.53609 7.56011 8.14997C9.33094 7.29026 11.1532 6.41943 13.0226 6.53887L12.4907 6.59026C11.8698 8.32915 11.2485 10.068 10.6268 11.8069C10.5323 12.0736 10.437 12.3407 10.3407 12.6083C9.98789 13.5972 9.624 14.65 9.67817 15.7569C9.71011 16.4125 9.93787 17.1125 10.3712 17.3375C10.7754 17.5458 11.217 17.2903 11.6073 17.0375C11.7726 16.9319 11.9365 16.8264 12.1018 16.7194C12.6948 16.3375 13.3518 15.9458 13.9782 16.2014C14.5518 16.4347 14.9754 17.2139 15.0559 18.0541C15.1298 18.871 14.9305 19.6892 14.4893 20.3805Z" fill="white"/>
<path d="M18.0157 32.2524C16.2837 31.1859 14.5516 30.1195 12.8195 29.053L12.8489 28.9773C11.772 29.3875 11.3249 31.3018 11.5028 32.8672C11.6808 34.4327 12.2843 35.8322 12.5892 37.3576C13.0002 39.445 12.8451 41.6044 12.1398 43.6116C14.4174 41.056 16.433 38.2785 18.1565 35.3208C18.3972 34.948 18.5807 34.5412 18.7007 34.114C18.8108 33.6595 18.7938 33.1131 18.5735 32.7486C18.4317 32.5394 18.24 32.3689 18.0157 32.2524Z" fill="white"/>
<path d="M11.18 12.8503C10.9961 13.2639 10.9254 13.8153 11.0923 14.2432C11.2627 14.6802 11.6231 14.8776 11.9548 15.0421L12.9119 15.5165C13.2303 15.6743 13.5735 15.8337 13.8981 15.7038C14.2895 15.5472 14.561 14.9335 14.4907 14.3637C14.416 13.7574 14.0338 13.3403 13.6804 12.9852C13.1857 12.4882 12.6911 11.9912 12.1965 11.4941L11.9177 11.8356C11.6162 12.1297 11.3668 12.4728 11.18 12.8503Z" fill="white"/>
<path d="M44.8692 19.3319C45.2998 19.4332 45.7303 19.5346 46.1609 19.636C46.0859 21.0902 45.3651 22.436 44.3984 22.9235C43.9956 23.1263 43.547 23.2013 43.2137 23.5805C42.9123 23.9249 42.7595 24.461 42.6192 24.9735C42.3734 25.868 42.1276 26.7624 41.8817 27.6568C41.6179 28.6207 41.279 29.6916 40.5929 30.0388C40.004 30.3374 39.3304 29.9721 38.8776 29.3596C38.4248 28.7471 38.1484 27.9235 37.8803 27.1208C37.897 27.9957 37.4901 28.8541 36.9137 29.1582C36.3359 29.4624 35.6331 29.1874 35.247 28.5082C34.9692 28.0207 34.854 27.3777 34.5817 26.8832C34.3095 26.3888 33.7387 26.1055 33.4415 26.5693C33.2456 26.8777 33.2706 27.3499 33.1734 27.7416C33.022 28.3499 32.5637 28.7318 32.1095 28.7652C31.6568 28.7985 31.2151 28.5374 30.8359 28.1832C30.054 27.4499 29.4776 26.286 29.254 24.993C29.1554 24.4166 29.1276 23.7888 29.2984 23.2485C29.4693 22.7083 29.8818 22.2916 30.2915 22.3944C30.5609 21.8249 30.029 21.0694 29.5498 21.136C29.0692 21.2027 28.6929 21.718 28.2984 22.1138C27.9054 22.5096 27.3554 22.7971 26.9595 22.4041C26.9623 22.7694 26.6651 23.011 26.4081 22.9805C26.1526 22.9513 25.9248 22.7457 25.6901 22.5999C24.7831 22.0346 23.6318 22.4096 22.9873 23.4791C23.3901 21.7652 23.9804 19.7985 25.2179 19.3957C25.7234 19.2305 26.2748 19.3666 26.7526 19.0805C27.5984 18.5735 27.7693 16.6582 27.0387 15.868C27.1317 16.6152 27.1137 17.4874 26.7192 17.9985C26.3248 18.5096 25.497 18.1763 25.547 17.4207C25.4331 17.9416 24.8665 18.0207 24.6054 17.6207C24.3429 17.2207 24.3651 16.5666 24.5512 16.0888C24.7373 15.611 25.054 15.268 25.3609 14.9388C26.0206 14.2319 26.6901 13.5166 27.454 13.0721C28.2192 12.6277 29.1026 12.4777 29.8692 12.9194C30.2734 13.1527 30.629 13.5416 31.0415 13.7471C31.454 13.9541 31.9776 13.9277 32.2512 13.4443C32.5581 12.9055 32.4137 12.1055 32.5276 11.4318C32.7318 10.2416 33.922 9.68463 34.5817 10.4707C34.0887 10.3443 33.579 10.9277 33.5178 11.6346C33.4553 12.3416 33.8123 13.0555 34.2901 13.2694C35.0929 13.6249 35.879 12.7305 36.4859 11.9027C37.1192 11.036 37.7535 10.1698 38.3887 9.30408C38.4901 9.15668 38.604 9.01821 38.729 8.89019C38.9279 8.69629 39.1931 8.58525 39.4708 8.57957C39.7486 8.5739 40.0181 8.67402 40.2248 8.85964C40.8665 9.38324 41.1679 10.4569 41.6943 11.1957C42.4581 12.2694 43.6012 12.5305 44.6651 12.7388C45.4581 12.893 46.2517 13.0481 47.0457 13.2041C47.5749 14.1887 48.0366 15.2082 48.4276 16.2555C47.0831 16.8263 45.8428 17.8944 44.8692 19.3319Z" fill="white"/>
<path d="M47.4332 36.0431C46.8382 37.2513 46.1461 38.4093 45.3638 39.5056C44.8638 39.2917 44.3263 39.6736 43.8583 40.032C43.3694 40.407 42.7819 40.7723 42.2805 40.4306C41.768 40.0806 41.6027 39.1014 41.7652 38.325C41.9277 37.55 42.3332 36.9334 42.7263 36.3473C43.143 35.725 43.5888 35.0792 44.168 34.8375C44.7485 34.5959 45.4943 34.9375 45.6638 35.7625L46.0749 35.7486C45.8444 35.432 45.9652 34.7764 46.2749 34.6611C46.6319 34.5264 46.9416 35.0167 47.1527 35.45C47.2471 35.6459 47.343 35.8431 47.4332 36.0431Z" fill="white"/>
<path d="M31.6883 30.1764C30.8046 30.2319 30.1047 29.1441 29.6395 28.0739C29.1744 27.0038 28.75 25.7799 27.9527 25.2352C27.4971 24.924 26.9777 24.8813 26.4835 24.7304C25.9894 24.5796 25.4721 24.2675 25.2359 23.632L24.6754 23.4055C23.9351 23.8218 23.185 24.2456 22.5472 24.923C21.8317 25.683 21.3861 26.6572 21.279 27.6954C21.172 28.8174 21.5674 30.0685 22.3062 30.4899C22.89 30.823 23.5696 30.6131 24.161 30.918C24.8998 31.2989 25.3384 32.4054 25.5045 33.498C25.6705 34.5906 25.6284 35.726 25.7472 36.831C25.866 37.9359 26.1934 39.0857 26.871 39.6519C27.7188 40.3605 28.963 39.7717 29.3434 38.4818C29.53 37.8491 29.5235 37.1352 29.6631 36.4784C29.9088 35.3217 30.572 34.4636 31.098 33.5148C31.6241 32.5661 32.0381 31.2774 31.6883 30.1764Z" fill="white"/>
<path d="M22.9565 18.8109C23.0389 18.8868 23.1158 18.9684 23.1866 19.0552C23.2599 19.1815 23.2973 19.3255 23.2948 19.4715C23.2923 19.6176 23.25 19.7602 23.1725 19.884C23.2789 19.8779 23.3829 19.8498 23.478 19.8015C23.573 19.7532 23.657 19.6857 23.7247 19.6033C23.8859 19.4196 24.0278 19.2198 24.148 19.007C24.2381 18.86 24.334 18.6613 24.2728 18.4867C24.2311 18.3676 24.1324 18.3168 24.0632 18.2272C23.9535 18.0852 23.9263 17.8596 23.8695 17.6647C23.7469 17.2437 23.4532 16.9342 23.1343 16.8899L23.1786 16.8984C23.0454 16.944 22.9524 17.1555 22.9819 17.3458C23.0087 17.5191 23.1201 17.663 23.109 17.8398C23.0931 18.094 22.839 18.2133 22.8233 18.4675C22.8209 18.595 22.8687 18.7184 22.9565 18.8109Z" fill="white"/>
<path d="M21.707 15.6846C21.9024 15.559 22.0115 15.2115 21.9469 14.9207C21.8827 14.6317 21.6555 14.4374 21.4459 14.4908C21.3851 14.5524 21.3096 14.5976 21.2266 14.622C21.1435 14.6465 21.0556 14.6494 20.9712 14.6305C20.8416 14.5972 20.6994 14.5113 20.587 14.6089C20.5227 14.6818 20.4777 14.7696 20.4561 14.8644C20.4145 14.9921 20.3729 15.1198 20.3313 15.2474C20.3116 15.2931 20.3064 15.3438 20.3166 15.3926C20.3246 15.4121 20.3374 15.4292 20.3539 15.4424C20.3705 15.4555 20.3901 15.4642 20.4109 15.4675C20.6604 15.5411 20.91 15.6147 21.1595 15.6882C21.3414 15.7418 21.5377 15.7935 21.707 15.6846Z" fill="white"/>
<path d="M40.5463 32.1566C40.4309 31.9677 40.3156 31.7789 40.2002 31.59C40.0869 31.3713 39.932 31.1768 39.7442 31.0174C39.7029 30.9828 39.6551 30.9568 39.6036 30.941C39.5522 30.9251 39.498 30.9197 39.4444 30.9251C39.3908 30.9305 39.3389 30.9465 39.2916 30.9723C39.2442 30.998 39.2026 31.033 39.1689 31.075L39.183 31.1829C39.4459 31.5128 39.7241 31.8793 39.7908 32.3689C39.8171 32.5619 39.808 32.7616 39.831 32.9555C39.8541 33.1493 39.9196 33.3503 40.0447 33.4339C40.2264 33.5553 40.4397 33.3763 40.5689 33.158C40.6845 32.9787 40.7364 32.7657 40.7161 32.5533C40.6873 32.4108 40.6295 32.2758 40.5463 32.1566Z" fill="white"/>
<path d="M45.6806 24.9439C45.7139 24.7251 45.7473 24.5064 45.7807 24.2876C45.8348 24.0473 45.8416 23.7988 45.8005 23.5559C45.7912 23.5028 45.7713 23.4522 45.7422 23.4069C45.713 23.3616 45.6751 23.3226 45.6306 23.2922C45.5861 23.2618 45.5361 23.2406 45.4833 23.2298C45.4305 23.2191 45.3761 23.219 45.3233 23.2295L45.2646 23.3211C45.2533 23.7428 45.2301 24.2023 44.9659 24.6198C44.8617 24.7844 44.7261 24.9313 44.6189 25.0945C44.5117 25.2576 44.4324 25.4537 44.4743 25.5982C44.5351 25.808 44.8135 25.8084 45.053 25.7247C45.2569 25.6619 45.4337 25.5323 45.555 25.3568C45.6247 25.2293 45.6675 25.0887 45.6806 24.9439Z" fill="#B9D7EA"/>
<path d="M42.3562 32.4024C42.4126 32.2403 42.3312 32.0543 42.314 31.8751C42.3058 31.6437 42.3671 31.4151 42.4902 31.2189C42.6124 31.0338 42.705 30.8308 42.7646 30.6172C42.7897 30.5198 42.7852 30.4172 42.7514 30.3225C42.7133 30.2367 42.6208 30.1976 42.5677 30.2655L42.6813 30.3386C42.528 30.3113 42.3705 30.3189 42.2205 30.361C42.135 30.3937 42.0586 30.4466 41.9978 30.5151C41.9371 30.5836 41.8937 30.6657 41.8714 30.7546C41.8526 30.8931 41.822 31.0297 41.7798 31.1629C41.7121 31.3021 41.581 31.3484 41.4986 31.4706C41.4424 31.5789 41.4141 31.6995 41.4161 31.8215C41.4181 31.9435 41.4505 32.0631 41.5102 32.1695C41.6137 32.3435 41.7781 32.4728 41.9716 32.5323C42.1102 32.582 42.2928 32.5847 42.3562 32.4024Z" fill="white"/>
<path d="M45.5786 33.3748C45.6287 33.5053 45.6958 33.6285 45.7782 33.7413C45.9325 33.8967 46.1422 33.8012 46.3293 33.7634C46.4992 33.7366 46.6731 33.7563 46.8327 33.8203C46.9923 33.8843 47.1316 33.9903 47.2358 34.127C47.1632 33.765 47.0048 33.4257 46.7739 33.1377C46.543 32.8496 46.2463 32.6211 45.9088 32.4715C45.4676 32.2916 45.0029 32.2742 44.5441 32.2581L44.4648 32.2784C44.6668 32.8662 45.301 32.8531 45.5786 33.3748Z" fill="white"/>
<path d="M31.441 35.5235C31.3344 35.7171 31.2427 35.9185 31.1668 36.126C31.0662 36.4622 30.9996 36.8075 30.968 37.1569C30.9431 37.3556 30.9355 37.6094 31.06 37.7062C31.0957 37.7299 31.1389 37.7398 31.1814 37.734C31.2239 37.7283 31.2628 37.7072 31.2909 37.6748C31.3601 37.6016 31.4167 37.5175 31.4584 37.4259C31.703 37.0046 31.893 36.5537 32.0236 36.0843C32.1428 35.5899 32.1417 35.0079 31.9311 34.5798C31.7677 34.8944 31.6044 35.209 31.441 35.5235Z" fill="white"/>
</svg>
