<svg width="232" height="50" viewBox="0 0 232 50" fill="none" xmlns="http://www.w3.org/2000/svg">
<path d="M50 25C50.0006 28.2832 49.3545 31.5344 48.0983 34.5678C46.8422 37.6013 45.0007 40.3575 42.6791 42.6791C40.3575 45.0007 37.6013 46.8422 34.5679 48.0983C31.5344 49.3544 28.2832 50.0006 25 50C11.1931 50 9.8407e-06 38.8069 9.8407e-06 25C-0.00237342 22.3143 0.428149 19.6458 1.27502 17.0972C2.93766 12.1197 6.12295 7.79087 10.3804 4.72275C14.6379 1.65462 19.7522 0.00250018 25 1.50837e-06C29.5259 -0.00157069 33.9673 1.22593 37.8501 3.55147C41.7328 5.877 44.9112 9.21328 47.0458 13.2041C47.5751 14.1888 48.0368 15.2083 48.4278 16.2556C48.4819 16.4014 48.5347 16.5472 48.5861 16.6944V16.6958C48.8153 17.343 49.0171 18.0023 49.1917 18.6736C49.7301 20.7392 50.0017 22.8653 50 25Z" fill="#04364A"/>
<path d="M22.2648 8.13278C21.1413 7.52523 19.8939 7.18227 18.6177 7.13006C17.3415 7.07785 16.0703 7.31776 14.9009 7.83151C13.8713 8.27959 12.7872 9.0834 12.4437 10.5349C13.8329 9.7151 15.6311 11.0104 15.9885 13.0884L15.9051 13.1114C15.7163 14.5506 16.1378 16.1176 16.9538 17.0101C17.0609 16.0831 17.6704 15.4522 18.2699 15.0581C18.8695 14.664 19.5327 14.3777 19.9903 13.7002C20.5328 12.8971 20.6705 11.7234 20.886 10.6527C21.1015 9.58197 21.5104 8.43114 22.2648 8.13278Z" fill="white"/>
<path d="M14.4889 20.3805C14.1042 20.9583 13.5903 21.3208 13.1292 21.7722C12.6695 22.225 12.2319 22.8361 12.1403 23.6208C12.082 24.1236 12.1722 24.6347 12.1597 25.143C12.1472 25.6514 11.9778 26.2236 11.632 26.35C11.0861 26.5472 10.6694 25.5333 10.1083 25.4625C9.66251 25.4069 9.26113 26.1083 9.39029 26.7166C9.51946 27.325 10.1264 27.5944 10.475 27.1972C10.7903 27.7264 10.5681 28.6861 10.0945 28.8486C10.0445 29.1819 9.99447 29.5139 9.94585 29.8472C8.74863 29.0097 7.53891 28.1583 6.52086 26.9319C5.38861 25.5795 4.68634 23.9196 4.50419 22.1653C4.37225 20.7555 4.56807 19.143 3.92086 18.0583C3.40279 17.1903 2.5139 16.9986 1.7139 17.0528C1.56808 17.0625 1.42086 17.0791 1.27502 17.0972C1.74682 15.6802 2.34602 14.3089 3.06529 13C3.22806 12.9301 3.37931 12.836 3.51389 12.7208C4.25835 12.0889 4.58891 10.8097 5.19307 9.92498C5.23197 9.86803 5.27224 9.81247 5.31391 9.75832C5.93197 8.95137 6.75974 8.53609 7.55975 8.14997C9.33058 7.29026 11.1528 6.41943 13.0222 6.53887L12.4903 6.59026C11.8695 8.32915 11.2482 10.068 10.6264 11.8069C10.532 12.0736 10.4366 12.3407 10.3403 12.6083C9.98752 13.5972 9.62363 14.65 9.6778 15.7569C9.70974 16.4125 9.93751 17.1125 10.3709 17.3375C10.775 17.5458 11.2167 17.2903 11.6069 17.0375C11.7722 16.9319 11.9361 16.8264 12.1014 16.7194C12.6945 16.3375 13.3514 15.9458 13.9778 16.2014C14.5514 16.4347 14.975 17.2139 15.0556 18.0541C15.1294 18.871 14.9301 19.6892 14.4889 20.3805Z" fill="white"/>
<path d="M18.0161 32.2523C16.284 31.1859 14.5519 30.1194 12.8199 29.053L12.8493 28.9772C11.7723 29.3874 11.3252 31.3017 11.5032 32.8672C11.6812 34.4327 12.2847 35.8321 12.5895 37.3575C13.0006 39.4449 12.8455 41.6043 12.1402 43.6115C14.4178 41.056 16.4334 38.2785 18.1569 35.3208C18.3976 34.948 18.5811 34.5412 18.7011 34.114C18.8111 33.6594 18.7942 33.113 18.5739 32.7485C18.4321 32.5393 18.2404 32.3688 18.0161 32.2523Z" fill="white"/>
<path d="M11.1802 12.8502C10.9962 13.2638 10.9255 13.8152 11.0924 14.2431C11.2628 14.68 11.6232 14.8775 11.955 15.042L12.912 15.5163C13.2304 15.6742 13.5736 15.8336 13.8982 15.7037C14.2897 15.5471 14.5611 14.9334 14.4909 14.3636C14.4161 13.7573 14.034 13.3402 13.6805 12.9851C13.1859 12.488 12.6912 11.991 12.1966 11.494L11.9178 11.8355C11.6163 12.1295 11.3669 12.4727 11.1802 12.8502Z" fill="white"/>
<path d="M44.8694 19.3319C45.3 19.4333 45.7305 19.5347 46.1611 19.6361C46.0861 21.0903 45.3653 22.4361 44.3986 22.9236C43.9958 23.1264 43.5472 23.2014 43.2139 23.5805C42.9125 23.925 42.7597 24.4611 42.6194 24.9736C42.3736 25.868 42.1277 26.7625 41.8819 27.6569C41.618 28.6208 41.2792 29.6916 40.593 30.0389C40.0042 30.3375 39.3305 29.9722 38.8778 29.3597C38.425 28.7472 38.1486 27.9236 37.8805 27.1208C37.8972 27.9958 37.4903 28.8541 36.9139 29.1583C36.3361 29.4625 35.6333 29.1875 35.2472 28.5083C34.9694 28.0208 34.8542 27.3777 34.5819 26.8833C34.3097 26.3889 33.7389 26.1055 33.4417 26.5694C33.2458 26.8778 33.2708 27.35 33.1736 27.7416C33.0222 28.35 32.5639 28.7319 32.1097 28.7653C31.6569 28.7986 31.2153 28.5375 30.8361 28.1833C30.0542 27.45 29.4778 26.2861 29.2542 24.993C29.1555 24.4166 29.1278 23.7889 29.2986 23.2486C29.4694 22.7083 29.8819 22.2916 30.2917 22.3944C30.5611 21.825 30.0292 21.0694 29.55 21.1361C29.0694 21.2027 28.693 21.718 28.2986 22.1139C27.9055 22.5097 27.3556 22.7972 26.9597 22.4041C26.9625 22.7694 26.6653 23.0111 26.4083 22.9805C26.1528 22.9514 25.925 22.7458 25.6903 22.6C24.7833 22.0347 23.6319 22.4097 22.9875 23.4791C23.3903 21.7652 23.9805 19.7986 25.218 19.3958C25.7236 19.2305 26.275 19.3666 26.7528 19.0805C27.5986 18.5736 27.7694 16.6583 27.0389 15.868C27.1319 16.6152 27.1139 17.4875 26.7194 17.9986C26.325 18.5097 25.4972 18.1763 25.5472 17.4208C25.4333 17.9416 24.8667 18.0208 24.6055 17.6208C24.343 17.2208 24.3653 16.5666 24.5514 16.0889C24.7375 15.6111 25.0541 15.268 25.3611 14.9389C26.0208 14.2319 26.6903 13.5166 27.4542 13.0722C28.2194 12.6277 29.1028 12.4777 29.8694 12.9194C30.2736 13.1527 30.6292 13.5416 31.0416 13.7472C31.4542 13.9541 31.9778 13.9278 32.2514 13.4444C32.5583 12.9055 32.4139 12.1055 32.5278 11.4319C32.7319 10.2416 33.9222 9.68469 34.5819 10.4708C34.0889 10.3444 33.5791 10.9277 33.518 11.6347C33.4555 12.3416 33.8125 13.0555 34.2903 13.2694C35.093 13.625 35.8791 12.7305 36.4861 11.9027C37.1194 11.0361 37.7537 10.1699 38.3889 9.30414C38.4903 9.15674 38.6041 9.01827 38.7291 8.89025C38.9281 8.69635 39.1933 8.58531 39.471 8.57964C39.7488 8.57396 40.0183 8.67408 40.225 8.8597C40.8666 9.3833 41.168 10.4569 41.6944 11.1958C42.4583 12.2694 43.6014 12.5305 44.6653 12.7389C45.4583 12.893 46.2518 13.0481 47.0458 13.2041C47.5751 14.1888 48.0368 15.2083 48.4278 16.2555C47.0833 16.8264 45.843 17.8944 44.8694 19.3319Z" fill="white"/>
<path d="M47.4333 36.043C46.8383 37.2513 46.1462 38.4092 45.3639 39.5055C44.8639 39.2916 44.3264 39.6736 43.8583 40.0319C43.3694 40.4069 42.7819 40.7722 42.2805 40.4305C41.768 40.0805 41.6028 39.1014 41.7653 38.325C41.9278 37.55 42.3333 36.9333 42.7264 36.3472C43.143 35.725 43.5889 35.0791 44.168 34.8375C44.7486 34.5958 45.4944 34.9375 45.6639 35.7625L46.075 35.7486C45.8444 35.4319 45.9653 34.7764 46.275 34.6611C46.6319 34.5264 46.9417 35.0166 47.1528 35.45C47.2472 35.6458 47.343 35.843 47.4333 36.043Z" fill="white"/>
<path d="M31.6881 30.1765C30.8044 30.2321 30.1045 29.1442 29.6394 28.0741C29.1742 27.0039 28.7498 25.7801 27.9525 25.2353C27.4969 24.9241 26.9775 24.8814 26.4834 24.7306C25.9892 24.5797 25.472 24.2676 25.2357 23.6321L24.6752 23.4056C23.9349 23.8219 23.1849 24.2457 22.547 24.9231C21.8315 25.6831 21.3859 26.6573 21.2788 27.6955C21.1718 28.8175 21.5672 30.0686 22.306 30.4901C22.8898 30.8231 23.5695 30.6132 24.1608 30.9181C24.8996 31.299 25.3382 32.4055 25.5043 33.4981C25.6703 34.5907 25.6282 35.7261 25.747 36.8311C25.8658 37.936 26.1932 39.0858 26.8708 39.652C27.7187 40.3606 28.9628 39.7718 29.3432 38.4819C29.5298 37.8492 29.5233 37.1353 29.6629 36.4785C29.9087 35.3219 30.5719 34.4637 31.0979 33.515C31.6239 32.5662 32.0379 31.2776 31.6881 30.1765Z" fill="white"/>
<path d="M22.9562 18.811C23.0387 18.8869 23.1156 18.9685 23.1864 19.0553C23.2596 19.1816 23.2971 19.3256 23.2946 19.4717C23.2921 19.6177 23.2498 19.7603 23.1722 19.8841C23.2787 19.878 23.3827 19.8499 23.4777 19.8016C23.5728 19.7533 23.6568 19.6859 23.7244 19.6034C23.8857 19.4198 24.0276 19.2199 24.1478 19.0071C24.2379 18.8601 24.3338 18.6614 24.2726 18.4869C24.2309 18.3677 24.1321 18.3169 24.0629 18.2273C23.9532 18.0853 23.9261 17.8597 23.8693 17.6648C23.7467 17.2438 23.4529 16.9343 23.1341 16.89L23.1784 16.8985C23.0452 16.9441 22.9522 17.1556 22.9816 17.3459C23.0084 17.5193 23.1198 17.6631 23.1087 17.8399C23.0928 18.0941 22.8388 18.2134 22.8231 18.4676C22.8206 18.5951 22.8684 18.7185 22.9562 18.811Z" fill="white"/>
<path d="M21.7073 15.6846C21.9027 15.559 22.0118 15.2115 21.9472 14.9207C21.883 14.6317 21.6558 14.4374 21.4462 14.4908C21.3854 14.5524 21.3099 14.5976 21.2269 14.622C21.1439 14.6465 21.056 14.6494 20.9715 14.6305C20.8419 14.5972 20.6997 14.5113 20.5873 14.6089C20.523 14.6818 20.478 14.7696 20.4564 14.8644C20.4148 14.9921 20.3732 15.1198 20.3317 15.2474C20.3119 15.2931 20.3068 15.3438 20.3169 15.3926C20.3249 15.4121 20.3377 15.4292 20.3542 15.4424C20.3708 15.4555 20.3904 15.4642 20.4112 15.4675C20.6607 15.5411 20.9103 15.6147 21.1598 15.6882C21.3417 15.7418 21.5381 15.7935 21.7073 15.6846Z" fill="white"/>
<path d="M40.5464 32.1567C40.4311 31.9679 40.3157 31.779 40.2004 31.5901C40.087 31.3714 39.9321 31.1769 39.7443 31.0175C39.703 30.983 39.6552 30.957 39.6038 30.9411C39.5523 30.9253 39.4982 30.9199 39.4446 30.9252C39.391 30.9306 39.339 30.9466 39.2917 30.9724C39.2444 30.9981 39.2027 31.0331 39.1691 31.0752L39.1831 31.183C39.446 31.5129 39.7242 31.8794 39.7909 32.369C39.8172 32.562 39.8081 32.7617 39.8311 32.9556C39.8542 33.1494 39.9198 33.3505 40.0449 33.434C40.2265 33.5554 40.4398 33.3765 40.5691 33.1581C40.6846 32.9788 40.7365 32.7658 40.7162 32.5535C40.6874 32.411 40.6296 32.2759 40.5464 32.1567Z" fill="white"/>
<path d="M45.6803 24.9439C45.7136 24.7251 45.747 24.5064 45.7804 24.2876C45.8345 24.0473 45.8412 23.7988 45.8002 23.5559C45.7909 23.5028 45.771 23.4522 45.7419 23.4069C45.7127 23.3616 45.6748 23.3226 45.6303 23.2922C45.5858 23.2618 45.5357 23.2406 45.483 23.2298C45.4302 23.2191 45.3758 23.219 45.323 23.2295L45.2643 23.3211C45.253 23.7428 45.2298 24.2023 44.9656 24.6198C44.8614 24.7844 44.7258 24.9313 44.6186 25.0945C44.5114 25.2576 44.4321 25.4537 44.474 25.5982C44.5348 25.808 44.8132 25.8084 45.0527 25.7247C45.2566 25.6619 45.4334 25.5323 45.5547 25.3568C45.6244 25.2293 45.6671 25.0887 45.6803 24.9439Z" fill="#B9D7EA"/>
<path d="M42.356 32.4025C42.4124 32.2404 42.331 32.0544 42.3138 31.8752C42.3055 31.6437 42.3669 31.4151 42.4899 31.219C42.6121 31.0339 42.7047 30.8309 42.7644 30.6172C42.7895 30.5199 42.7849 30.4173 42.7512 30.3226C42.713 30.2368 42.6205 30.1977 42.5675 30.2656L42.681 30.3387C42.5277 30.3113 42.3702 30.319 42.2203 30.361C42.1348 30.3938 42.0584 30.4466 41.9976 30.5151C41.9368 30.5836 41.8934 30.6658 41.8711 30.7546C41.8524 30.8931 41.8217 31.0298 41.7796 31.163C41.7118 31.3022 41.5808 31.3485 41.4984 31.4707C41.4422 31.579 41.4138 31.6996 41.4159 31.8216C41.4179 31.9436 41.4502 32.0631 41.51 32.1695C41.6134 32.3435 41.7779 32.4729 41.9714 32.5324C42.11 32.5821 42.2926 32.5847 42.356 32.4025Z" fill="white"/>
<path d="M45.5785 33.3748C45.6286 33.5052 45.6958 33.6284 45.7782 33.7412C45.9324 33.8966 46.1421 33.8011 46.3293 33.7634C46.4991 33.7366 46.6731 33.7562 46.8326 33.8202C46.9922 33.8842 47.1315 33.9902 47.2358 34.127C47.1632 33.765 47.0048 33.4257 46.7738 33.1376C46.5429 32.8495 46.2463 32.6211 45.9088 32.4714C45.4675 32.2915 45.0029 32.2742 44.544 32.258L44.4648 32.2783C44.6667 32.8662 45.3009 32.853 45.5785 33.3748Z" fill="white"/>
<path d="M31.441 35.5235C31.3343 35.717 31.2427 35.9185 31.1667 36.126C31.0661 36.4621 30.9995 36.8075 30.9679 37.1569C30.9431 37.3556 30.9354 37.6093 31.0599 37.7061C31.0956 37.7298 31.1388 37.7397 31.1813 37.734C31.2238 37.7282 31.2628 37.7071 31.2909 37.6747C31.36 37.6016 31.4166 37.5175 31.4583 37.4259C31.703 37.0045 31.8929 36.5537 32.0236 36.0843C32.1427 35.5899 32.1416 35.0078 31.931 34.5798C31.7677 34.8944 31.6043 35.2089 31.441 35.5235Z" fill="white"/>
<path d="M76.584 36.756C74.9413 36.756 73.5547 36.6493 72.424 36.436C71.2933 36.2227 70.3547 35.8707 69.608 35.38C68.8613 34.868 68.2747 34.1853 67.848 33.332C67.4427 32.4573 67.1547 31.38 66.984 30.1C66.8347 28.82 66.76 27.284 66.76 25.492C66.76 23.7 66.8347 22.164 66.984 20.884C67.1547 19.604 67.4533 18.5373 67.88 17.684C68.3067 16.8093 68.8933 16.1267 69.64 15.636C70.3867 15.124 71.3253 14.7613 72.456 14.548C73.5867 14.3347 74.9627 14.228 76.584 14.228C77.3093 14.228 78.12 14.26 79.016 14.324C79.912 14.388 80.7973 14.4733 81.672 14.58C82.568 14.6867 83.4 14.8147 84.168 14.964V18.964C83.4427 18.8573 82.7173 18.7827 81.992 18.74C81.288 18.676 80.6373 18.6227 80.04 18.58C79.4427 18.5373 78.952 18.516 78.568 18.516C77.416 18.516 76.4667 18.5373 75.72 18.58C74.9733 18.6227 74.3653 18.7613 73.896 18.996C73.4267 19.2093 73.0747 19.5613 72.84 20.052C72.6053 20.5427 72.4453 21.236 72.36 22.132C72.296 23.0067 72.264 24.1267 72.264 25.492C72.264 26.708 72.2853 27.732 72.328 28.564C72.392 29.396 72.5093 30.0787 72.68 30.612C72.872 31.1453 73.128 31.5613 73.448 31.86C73.7893 32.1373 74.2267 32.3293 74.76 32.436C75.3147 32.5427 75.9867 32.596 76.776 32.596C77.032 32.596 77.3093 32.596 77.608 32.596C77.9067 32.5747 78.1947 32.5533 78.472 32.532C78.7493 32.5107 78.984 32.5 79.176 32.5V27.732H76.04V23.732H84.264V36.052C83.496 36.2013 82.6533 36.3293 81.736 36.436C80.8187 36.5213 79.912 36.596 79.016 36.66C78.12 36.724 77.3093 36.756 76.584 36.756ZM88.6158 36.5V14.484H104.04V18.772H94.1838V23.284H102.536V27.508H94.1838V32.212H104.04V36.5H88.6158ZM116.982 36.756C115.126 36.756 113.601 36.6493 112.406 36.436C111.233 36.2013 110.315 35.8387 109.654 35.348C108.993 34.836 108.502 34.1533 108.182 33.3C107.883 32.4253 107.691 31.348 107.606 30.068C107.542 28.788 107.51 27.2627 107.51 25.492C107.51 23.7213 107.542 22.196 107.606 20.916C107.691 19.636 107.883 18.5693 108.182 17.716C108.502 16.8413 108.993 16.1587 109.654 15.668C110.315 15.156 111.233 14.7933 112.406 14.58C113.601 14.3453 115.126 14.228 116.982 14.228C118.817 14.228 120.321 14.3453 121.494 14.58C122.689 14.7933 123.627 15.156 124.31 15.668C124.993 16.1587 125.483 16.8413 125.782 17.716C126.081 18.5693 126.273 19.636 126.358 20.916C126.443 22.196 126.486 23.7213 126.486 25.492C126.486 27.2627 126.443 28.788 126.358 30.068C126.273 31.348 126.081 32.4253 125.782 33.3C125.483 34.1533 124.993 34.836 124.31 35.348C123.627 35.8387 122.689 36.2013 121.494 36.436C120.321 36.6493 118.817 36.756 116.982 36.756ZM116.982 32.468C117.75 32.468 118.369 32.4467 118.838 32.404C119.329 32.34 119.713 32.2013 119.99 31.988C120.267 31.7533 120.47 31.3907 120.598 30.9C120.726 30.4093 120.801 29.7267 120.822 28.852C120.865 27.9773 120.886 26.8573 120.886 25.492C120.886 24.1267 120.865 23.0067 120.822 22.132C120.801 21.2573 120.726 20.5747 120.598 20.084C120.47 19.5933 120.267 19.2413 119.99 19.028C119.713 18.7933 119.329 18.6547 118.838 18.612C118.369 18.548 117.75 18.516 116.982 18.516C116.235 18.516 115.617 18.548 115.126 18.612C114.635 18.6547 114.251 18.7933 113.974 19.028C113.697 19.2413 113.494 19.5933 113.366 20.084C113.238 20.5747 113.153 21.2573 113.11 22.132C113.089 23.0067 113.078 24.1267 113.078 25.492C113.078 26.8573 113.089 27.9773 113.11 28.852C113.153 29.7267 113.238 30.4093 113.366 30.9C113.494 31.3907 113.697 31.7533 113.974 31.988C114.251 32.2013 114.635 32.34 115.126 32.404C115.617 32.4467 116.235 32.468 116.982 32.468ZM130.522 36.5V14.484H138.17L142.554 27.54H142.778L147.162 14.484H154.778V36.5H149.434V22.196H149.21L144.442 36.5H140.698L135.962 22.196H135.706V36.5H130.522ZM159.335 36.5V14.484H164.903V36.5H159.335ZM169.491 36.5V14.484H175.219L182.387 26.292H182.547V14.484H187.891V36.5H182.675L174.995 23.604H174.835V36.5H169.491ZM192.428 36.5V14.484H200.14C202.103 14.484 203.703 14.5907 204.94 14.804C206.178 14.996 207.148 15.3373 207.852 15.828C208.556 16.2973 209.058 16.9587 209.356 17.812C209.676 18.644 209.879 19.6893 209.964 20.948C210.05 22.2067 210.092 23.7213 210.092 25.492C210.092 27.2627 210.05 28.7773 209.964 30.036C209.879 31.2947 209.676 32.3507 209.356 33.204C209.058 34.036 208.556 34.6973 207.852 35.188C207.148 35.6573 206.178 35.9987 204.94 36.212C203.703 36.404 202.103 36.5 200.14 36.5H192.428ZM197.996 32.212H200.012C200.887 32.212 201.602 32.1907 202.156 32.148C202.711 32.084 203.148 31.956 203.468 31.764C203.81 31.5507 204.044 31.2093 204.172 30.74C204.322 30.2493 204.407 29.588 204.428 28.756C204.471 27.9027 204.492 26.8147 204.492 25.492C204.492 24.1693 204.471 23.092 204.428 22.26C204.407 21.4067 204.322 20.7453 204.172 20.276C204.023 19.7853 203.788 19.4333 203.468 19.22C203.148 19.0067 202.711 18.8787 202.156 18.836C201.602 18.7933 200.887 18.772 200.012 18.772H197.996V32.212ZM222.18 36.756C221.326 36.756 220.398 36.7347 219.396 36.692C218.414 36.6493 217.444 36.5853 216.484 36.5C215.545 36.4147 214.702 36.3293 213.956 36.244V32.116C214.745 32.18 215.534 32.244 216.324 32.308C217.134 32.372 217.902 32.4147 218.628 32.436C219.353 32.4573 219.961 32.468 220.452 32.468C221.476 32.468 222.254 32.436 222.788 32.372C223.321 32.2867 223.716 32.1693 223.972 32.02C224.142 31.8707 224.26 31.7107 224.324 31.54C224.409 31.3693 224.462 31.1667 224.484 30.932C224.505 30.6973 224.516 30.4307 224.516 30.132C224.516 29.684 224.484 29.332 224.42 29.076C224.377 28.7987 224.27 28.5853 224.1 28.436C223.95 28.2867 223.716 28.18 223.396 28.116C223.076 28.0307 222.66 27.956 222.148 27.892L217.636 27.316C216.761 27.2093 216.046 26.996 215.492 26.676C214.937 26.3347 214.5 25.8867 214.18 25.332C213.86 24.7773 213.636 24.1267 213.508 23.38C213.38 22.612 213.316 21.7587 213.316 20.82C213.316 19.3693 213.529 18.2173 213.956 17.364C214.382 16.4893 214.969 15.828 215.716 15.38C216.484 14.9107 217.369 14.6013 218.372 14.452C219.396 14.3027 220.505 14.228 221.7 14.228C222.553 14.228 223.438 14.26 224.356 14.324C225.273 14.3667 226.137 14.4413 226.948 14.548C227.758 14.6333 228.43 14.74 228.964 14.868V18.9C228.43 18.8147 227.801 18.7507 227.076 18.708C226.372 18.644 225.636 18.6013 224.868 18.58C224.1 18.5373 223.374 18.516 222.692 18.516C221.86 18.516 221.198 18.548 220.708 18.612C220.217 18.6547 219.833 18.7507 219.556 18.9C219.257 19.0707 219.065 19.2947 218.98 19.572C218.916 19.8493 218.884 20.2013 218.884 20.628C218.884 21.1613 218.926 21.5773 219.012 21.876C219.097 22.1533 219.289 22.3453 219.588 22.452C219.886 22.5587 220.345 22.6547 220.964 22.74L225.348 23.252C225.945 23.316 226.489 23.4227 226.98 23.572C227.492 23.7213 227.95 23.956 228.356 24.276C228.782 24.596 229.134 25.0547 229.412 25.652C229.561 25.9293 229.678 26.2707 229.764 26.676C229.849 27.06 229.924 27.508 229.988 28.02C230.052 28.532 230.084 29.108 230.084 29.748C230.084 31.0067 229.956 32.0733 229.7 32.948C229.444 33.8013 229.081 34.484 228.612 34.996C228.142 35.4867 227.577 35.8707 226.916 36.148C226.254 36.404 225.518 36.564 224.708 36.628C223.918 36.7133 223.076 36.756 222.18 36.756Z" fill="#04364A"/>
</svg>
