<svg width="700" height="379" viewBox="0 0 700 379" fill="none" xmlns="http://www.w3.org/2000/svg">
<path d="M162.571 34.4146C162.32 32.2983 161.811 30.2256 161.059 28.2487C160.963 27.8749 160.795 27.5264 160.565 27.2255C160.336 26.9246 160.05 26.6779 159.727 26.5011C159.294 26.3812 158.84 26.3758 158.405 26.4853L151.618 27.5914C151.05 27.619 150.506 27.8441 150.07 28.2322C149.186 29.2223 150.056 30.8166 150.029 32.1826C149.999 33.7186 148.717 34.9654 147.328 35.3779C145.909 35.6831 144.446 35.6638 143.036 35.3212L133.546 33.7505C136.341 32.8001 138.828 31.032 140.725 28.6478C141.974 27.0721 142.638 24.1303 140.833 23.3841C140.297 23.2274 139.738 23.1796 139.185 23.2432C134.886 23.2788 131.502 19.4553 127.477 17.845C124.901 16.8809 122.105 16.8092 119.488 17.64C116.871 18.4709 114.568 20.1617 112.908 22.4708L117.963 22.7304C118.439 22.7025 118.911 22.8364 119.31 23.1129C120.418 24.0824 119.041 25.9447 119.197 27.4628C119.399 29.4352 121.858 29.8563 123.712 30.0558C125.565 30.2552 127.917 31.8592 127.025 33.6014C117.709 37.0191 108.229 26.9205 98.4456 28.1636C95.9694 28.4783 93.6312 29.5143 91.2137 30.1658C76.4454 34.1456 61.1777 23.5271 46.0912 25.7759C42.7373 26.3849 39.4409 27.3108 36.2413 28.5428C34.188 29.2609 32.0462 30.0369 30.5543 31.7023C29.0624 33.3676 28.4946 36.2157 29.908 37.957C26.0124 38.2987 22.0908 37.9017 18.3254 36.7844C19.3436 37.3872 20.1907 38.2709 20.7777 39.3427C21.3647 40.4144 21.67 41.6348 21.6615 42.8756C15.579 43.932 9.65758 45.8551 4.05648 48.593C5.10185 50.4446 6.32286 52.177 7.7003 53.7631L0 59.0322C2.60153 59.7303 3.94658 63.5086 2.4337 65.8684C5.13119 64.5903 6.80296 61.2838 9.68748 60.6134C11.5772 60.1742 13.5001 60.9976 15.2928 61.7711C17.0855 62.5446 19.0559 63.2946 20.9117 62.7141C22.7675 62.1336 24.1364 59.5705 22.9571 57.9376C30.8894 55.4725 39.0873 54.1083 47.3475 53.8788C47.9848 53.7937 48.6311 53.9243 49.1948 54.2522C50.27 55.0468 49.9871 56.763 49.9292 58.1556C49.8713 59.5481 50.8903 61.3783 52.0588 60.7506C50.684 62.0204 51.8593 64.4107 53.1782 65.7459C54.4972 67.0811 56.0869 68.9235 55.2794 70.6604C55.0687 71.1137 54.7112 71.4764 54.5084 71.9338C53.9099 73.284 54.8602 74.858 55.9812 75.7546C57.1021 76.6513 58.4752 77.2779 59.2538 78.5195C60.0325 79.7611 59.6789 81.9344 58.2865 82.1078L54.3289 76.7558C52.9768 78.2491 52.0498 80.1202 51.6555 82.1518C55.8522 85.8059 56.4834 93.2434 52.97 97.6398C51.1745 99.8865 48.6213 101.252 46.3928 103.004C44.1644 104.756 42.1023 107.252 42.1079 110.202C42.1176 115.299 41.7266 120.035 43.5199 124.761C46.8267 133.474 50.6446 141.958 54.9509 150.162C56.0817 152.316 57.5432 154.677 59.8341 155.048C56.9389 147.541 54.3326 139.917 52.0153 132.176C53.5246 132.183 55.2688 132.31 56.1536 133.613C56.8863 134.691 56.7289 136.157 56.9566 137.466C57.2461 138.735 57.729 139.944 58.3859 141.045L72.2113 167.276C73.3575 169.45 74.6721 171.784 76.8626 172.665C78.263 173.228 79.8833 173.122 81.1723 173.933C82.1827 174.568 82.8632 175.696 83.8932 176.294C86.8056 177.986 90.8556 174.741 93.5773 176.761C94.3555 177.339 94.8506 178.257 95.5677 178.918C98.0814 181.237 102.205 179.686 105.107 181.415C106.977 182.53 107.946 184.759 108.944 186.78C111.443 191.84 115.486 196.798 120.84 197.201C122.523 197.328 124.241 196.988 125.885 197.387C127.529 197.785 129.148 199.313 128.884 201.087C128.431 204.129 129.842 207.459 129.463 210.511C128.773 216.072 121.368 218.515 120.732 224.083C120.593 225.302 120.811 226.56 120.538 227.753C120.204 229.216 119.173 230.407 118.807 231.86C118.112 234.615 119.965 237.356 122.001 239.21C124.036 241.063 126.465 242.661 127.577 245.255C128.754 247.997 128.176 251.195 128.559 254.182C129.394 260.703 134.682 265.537 140.124 268.655C141.783 269.604 143.563 270.524 144.636 272.171C146.037 274.322 145.897 277.157 146.365 279.726C147.511 286.019 152.484 291.204 152.626 297.612C152.726 302.167 150.349 306.299 148.929 310.596C147.598 314.714 147.116 319.089 147.517 323.423C147.917 327.757 149.191 331.948 151.25 335.71C152.313 337.62 153.583 339.421 154.335 341.492C155.676 345.188 155.24 349.39 156.477 353.127C158.111 358.067 162.603 362.148 162.173 367.366C164.212 371.876 168.715 374.093 173.243 375.435L181.358 377.841C182.912 378.302 184.535 378.766 186.117 378.432C187.7 378.099 189.21 376.7 189.169 374.982C185.189 374.026 181.082 373.01 177.802 370.427C174.521 367.844 172.274 363.245 173.519 359.107C174.096 357.188 175.324 354.973 174.157 353.387C173.488 352.48 172.266 352.243 171.512 351.414C170.336 350.123 170.74 347.953 171.586 346.395C172.431 344.837 173.653 343.445 173.994 341.683C174.166 340.697 174.051 339.679 173.664 338.764C173.278 337.85 172.638 337.084 171.83 336.568C173.335 335.963 174.703 335.028 175.847 333.823C176.903 332.538 177.391 330.557 176.56 329.097C179.028 329.43 181.941 329.593 183.56 327.583C184.854 325.978 184.765 323.578 184.254 321.533C183.743 319.489 182.879 317.504 182.852 315.388C188.544 315.676 194.249 315.47 199.909 314.772C199.091 311.836 197.231 309.355 194.723 307.855C197.287 307.393 199.623 304.124 200.433 301.492C201.243 298.86 201.036 295.994 200.535 293.276C200.343 292.576 200.317 291.837 200.459 291.124C200.747 290.144 201.651 289.546 202.487 289.034L215.213 281.25C215.972 280.845 216.66 280.304 217.248 279.65C218.581 277.982 218.383 275.464 217.701 273.398C217.018 271.331 215.925 269.388 215.662 267.216C214.875 260.718 221.406 256.056 223.61 249.939C224.475 247.539 224.651 244.93 224.818 242.365C224.998 239.61 225.011 236.41 223.025 234.635C221.122 232.933 218.147 233.313 216.155 231.73C214.329 230.279 213.699 227.46 211.704 226.288C209.892 225.224 207.62 225.901 205.605 225.4C202.057 224.519 199.824 220.163 196.201 219.76C194.156 219.532 191.842 220.597 190.167 219.329C188.69 218.211 188.631 215.965 188.35 214.059C187.858 211.098 186.525 208.367 184.531 206.237C182.537 204.107 179.978 202.678 177.199 202.144C175.091 201.784 172.796 201.921 171.003 200.687C169.187 199.437 168.355 197.098 166.928 195.368C164.629 192.58 161.009 191.589 157.617 190.74L143.821 187.285C141.372 186.672 138.215 186.347 136.901 188.632C136.512 189.502 136.237 190.424 136.083 191.374C135.59 193.092 134.599 194.599 133.252 195.679C131.905 196.759 130.271 197.356 128.585 197.385C127.429 195.284 125.555 193.74 123.356 193.076C121.957 192.66 120.46 192.614 119.126 192.003C118.399 191.626 117.752 191.094 117.225 190.441C116.698 189.788 116.302 189.027 116.061 188.205C115.819 187.383 115.738 186.517 115.822 185.661C115.905 184.804 116.152 183.975 116.547 183.223C117.343 181.715 117.65 179.97 117.421 178.257C117.193 176.544 116.441 174.959 115.283 173.746C112.937 171.503 109.543 170.961 106.397 171.185C105.573 169.271 106.951 167.11 108.436 165.719C109.92 164.327 111.723 162.959 112.046 160.881C112.555 157.612 108.639 155.13 105.666 156.104C102.693 157.079 100.795 160.155 99.5407 163.187C98.821 164.926 98.2091 166.758 97.0738 168.225C95.9386 169.692 94.1103 170.742 92.3811 170.271C89.933 169.605 88.9875 166.507 88.4457 163.878C87.7187 160.352 86.9875 156.776 87.1398 153.168C87.2922 149.561 88.4339 145.857 90.9312 143.415C95.0008 139.436 101.244 139.826 106.736 140.461C105.438 138.904 105.759 136.28 107.147 134.814C107.88 134.12 108.761 133.628 109.713 133.379C110.665 133.129 111.66 133.131 112.611 133.384C114.266 133.751 115.757 134.701 116.844 136.08C118.404 138.106 118.848 140.843 120.028 143.143C121.208 145.444 123.86 147.406 126.031 146.172C127.907 145.106 128.204 142.336 127.738 140.127C127.271 137.918 126.28 135.771 126.449 133.514C126.771 129.207 130.962 126.615 134.661 124.842C138.359 123.068 142.594 120.683 143.18 116.408C143.2 115.571 143.349 114.743 143.619 113.957C144.029 113.263 144.6 112.692 145.275 112.298C156.07 104.7 167.043 97.0098 179.38 92.8582C180.022 92.6422 180.098 92.8823 180.752 92.713C181.667 92.1495 181.061 90.5905 180.183 89.9624C179.305 89.3344 178.132 88.8528 177.909 87.7518C177.746 86.9425 178.193 86.1478 178.31 85.3292C178.595 83.3178 176.336 81.4606 174.582 82.2648C173.591 80.8669 175.552 79.2426 177.137 78.7776C181.898 77.3819 186.786 76.5315 191.717 76.2409C192.286 76.1445 192.869 76.2501 193.376 76.5414C194.204 77.1525 194.098 78.5539 193.511 79.426C192.924 80.2981 192.011 80.8457 191.28 81.5837C190.481 82.4128 189.911 83.4598 189.632 84.6103C189.354 85.7609 189.377 86.9709 189.7 88.1082C192.274 89.5028 195.073 90.9384 197.924 90.4471C200.775 89.9558 203.305 86.5441 201.965 83.8192C200.717 81.2818 196.969 80.7095 196.324 77.9285C195.569 74.6725 199.897 71.7766 198.922 68.5876C198.495 67.1907 197.188 66.3686 196.185 65.3601C195.001 64.1235 194.195 62.5344 193.874 60.8013C193.553 59.0682 193.731 57.2722 194.386 55.6492C192.752 55.9552 191.073 55.8396 189.49 55.312C187.907 54.7844 186.466 53.8601 185.288 52.6168C183.112 50.2776 181.376 46.5877 178.286 46.6924C175.45 46.7884 173.007 50.3121 170.356 49.2371C169.703 48.9726 169.016 48.4343 168.384 48.7497C168.176 48.893 168.003 49.0845 167.875 49.3098C167.748 49.5351 167.67 49.7883 167.648 50.0503C166.974 53.4816 168.133 57.3912 166.378 60.3562C164.467 63.5828 160.047 64.0301 157.731 66.9397C156.474 68.5191 155.986 70.6473 154.831 72.3125C153.675 73.9776 151.222 75.0363 149.835 73.5852C150.517 72.0926 150.703 70.3979 150.363 68.778C150.023 67.1581 149.178 65.7089 147.964 64.6672C146.677 63.7724 145.288 63.0532 143.833 62.5267C142.206 61.7932 140.658 60.8745 139.217 59.7866C138.495 59.3227 137.908 58.6541 137.522 57.8555C137.217 56.8555 137.258 55.7721 137.638 54.8016C138.341 52.6539 139.582 50.7516 141.226 49.3001C142.871 47.8486 144.856 46.903 146.968 46.5654C148.814 46.2978 150.964 46.3921 152.186 44.8934C152.833 44.1004 153.172 42.9015 154.111 42.5794C154.711 42.4509 155.334 42.5327 155.887 42.8125L162.78 45.3966C163.549 45.7664 164.396 45.9156 165.236 45.8292C165.652 45.7694 166.032 45.5441 166.299 45.1985C166.566 44.8529 166.701 44.4125 166.675 43.9657C166.455 42.7465 164.694 42.1615 164.854 40.9317C164.944 40.5332 165.145 40.173 165.431 39.8988C167.919 37.0788 170.961 34.8794 174.34 33.4582C177.719 32.037 181.351 31.4291 184.976 31.678C185.846 33.1999 184.47 35.002 183.326 36.3012C182.181 37.6004 181.261 39.9218 182.645 40.9218C183.213 41.2303 183.844 41.3817 184.481 41.3621C186.178 41.6067 187.827 42.1395 189.366 42.9402C191.747 44.0443 194.084 45.2523 196.374 46.5642C196.172 44.9557 195.979 43.2611 196.551 41.757C197.124 40.253 198.75 39.0733 200.171 39.6591C201.541 40.2236 202.243 42.1549 203.702 42.3319C205.649 42.5679 206.416 39.5055 205.603 37.6073C204.79 35.7091 203.181 34.1197 203.047 32.0383C202.956 30.6341 203.458 28.8925 202.405 28.0422C202.03 27.787 201.605 27.6281 201.162 27.5782L174.867 22.4244C173.305 22.1183 171.049 22.3529 170.98 24.0423C170.942 24.9854 171.732 25.9183 171.382 26.7854C171.008 27.7108 169.78 27.6261 168.886 27.9535C167.498 28.4613 166.801 30.2168 166.934 31.7735C167.178 33.3203 167.741 34.7904 168.581 36.0784C166.871 35.3165 164.281 35.1765 162.571 34.4146Z" fill="#176B87"/>
<path d="M140.926 9.80784C139.28 9.17245 137.507 9.14286 135.846 9.72306C134.185 10.3033 132.717 11.4652 131.641 13.0513C131.211 13.7114 130.85 14.6214 131.21 15.3362C131.726 16.3609 133.04 15.9561 134.01 15.5896C135.434 14.996 136.984 14.9528 138.432 15.4665C139.342 15.831 140.156 16.475 141.07 16.8257C141.515 17.0428 142.002 17.1145 142.479 17.0331C142.956 16.9518 143.405 16.7205 143.778 16.364C144.406 15.6178 144.445 14.4577 144.446 13.4126C144.49 13.063 144.466 12.7064 144.376 12.3689C144.286 12.0314 144.133 11.7215 143.928 11.4618C143.562 11.2147 143.151 11.0728 142.728 11.0481C141.783 10.8439 140.928 10.2613 140.311 9.40058" fill="#176B87"/>
<path d="M152.088 7.75979C151.818 7.74115 151.549 7.81089 151.306 7.96232C151.063 8.11375 150.856 8.34178 150.702 8.62446C150.549 8.90715 150.456 9.23499 150.432 9.57646C150.408 9.91794 150.453 10.2616 150.564 10.5743C151.394 10.861 152.261 10.9326 153.113 10.7849C153.538 10.7012 153.934 10.4601 154.251 10.0918C154.567 9.72351 154.791 9.24455 154.894 8.71529C153.891 8.94662 152.856 8.69609 151.99 8.01257" fill="#176B87"/>
<path d="M183.29 3.00906C180.168 3.70034 177.136 4.77327 174.255 6.20555C175.613 6.74913 176.767 7.7326 177.548 9.01105C178.329 10.2895 178.694 11.7953 178.591 13.3065C178.469 13.8867 178.483 14.4889 178.632 15.0622C178.964 15.9 179.925 16.2143 180.771 16.4294C182.289 16.9108 183.875 17.1216 185.461 17.0529C186.255 17.0097 187.025 16.7611 187.703 16.3296C188.381 15.8981 188.945 15.2974 189.344 14.5818C189.574 13.9026 189.844 13.2387 190.151 12.5939C192.178 9.38 198.197 13.2661 200.372 10.1598C201.139 9.06557 201.069 7.41844 202.068 6.55136C202.584 6.17359 203.183 5.93556 203.81 5.85869C208.185 4.95343 212.604 4.29793 217.048 3.89514C219.153 3.70432 221.897 2.91693 221.915 0.715904C213.985 -0.906232 205.762 0.245873 198.525 3.9931C195.918 5.35325 192.469 8.21436 189.958 6.41114C189.017 5.73598 189.064 3.91794 187.77 3.15874C186.446 2.38255 184.695 2.69824 183.29 3.00906Z" fill="#176B87"/>
<path d="M209.809 8.73954L213.483 9.50794C212.807 9.47534 212.132 9.60009 211.503 9.87388C210.875 10.1477 210.307 10.5642 209.838 11.0957C209.369 11.6271 209.01 12.2613 208.784 12.9559C208.558 13.6505 208.471 14.3896 208.528 15.1238C211.969 16.3748 215.721 15.1574 219.346 15.3237C222.971 15.49 227.188 18.3079 226.57 22.1983C226.383 23.3747 225.758 24.5503 226.083 25.6906C226.31 26.4899 226.958 27.057 227.324 27.7931C228.086 29.327 227.477 31.2672 226.515 32.6616C225.553 34.056 224.26 35.1686 223.415 36.6504C221.315 40.336 222.508 45.1007 223.759 49.2182C224.121 50.7739 224.789 52.2256 225.717 53.4728C227.571 55.6174 230.591 55.8039 233.296 55.8469C235.265 55.8782 237.521 55.7723 238.766 54.1123C240.391 51.945 239.255 48.5635 240.325 46.0198C241.297 43.7097 243.773 42.7186 246.017 42.0157C250.127 40.728 254.316 39.6332 258.202 37.6881C263.027 35.2728 267.537 31.5088 272.841 31.1979C274.329 31.1107 275.853 31.3018 277.287 30.8582C278.72 30.4145 280.081 29.066 279.973 27.4488C279.88 26.067 278.806 25.0523 277.966 24.0106C277.127 22.9689 276.468 21.3671 277.239 20.265L291.141 17.4394C290.155 14.5169 289.388 10.6681 291.652 8.76582C292.469 8.07948 293.563 7.80517 294.258 6.97542C295.444 5.56122 294.848 3.12513 293.479 1.92243C292.111 0.719732 290.26 0.440533 288.507 0.282069C282.412 -0.268829 276.281 0.0951936 270.174 0.459498C258.235 1.17163 246.297 1.88377 234.359 2.59591C231.955 2.73926 229.18 2.52025 226.976 3.41251C225.11 4.1679 223.783 5.55449 221.649 6.04166C217.709 6.94102 213.374 6.33244 209.809 8.73954Z" fill="#176B87"/>
<path d="M275.526 39.9086C275.155 39.8495 274.777 39.9361 274.468 40.1504C274.264 40.377 274.142 40.667 274.123 40.9725C273.889 42.3209 274.168 43.7089 274.906 44.8585C275.282 45.4225 275.8 45.8748 276.408 46.1684C277.016 46.4621 277.69 46.5864 278.362 46.5286C279.998 46.3182 281.204 44.9112 282.709 44.2246C285.027 43.1673 294.874 41.5191 288.062 37.81C285.715 36.5318 284.198 37.6602 282.348 38.502C280.243 39.5874 277.884 40.0737 275.526 39.9086Z" fill="#176B87"/>
<path d="M335.885 5.88706C335.019 6.27486 334.296 6.96608 333.826 7.85278C333.61 8.30302 333.56 8.82723 333.686 9.31697C333.812 9.8067 334.105 10.2245 334.504 10.4838C334.827 10.6124 335.17 10.672 335.514 10.6595L339.032 10.7748C340.527 10.8238 342.394 11.173 342.795 12.753C343.094 13.9263 342.426 15.4339 343.231 16.2723C343.577 16.566 343.993 16.7438 344.428 16.7844C345.587 17.111 346.798 17.1539 347.973 16.9099C350.533 16.1567 349.188 14.4427 349.994 12.9166C351.228 10.5815 351.014 11.9951 353.188 10.6568C354.793 9.66841 356.868 7.87553 355.528 5.35651C353.198 0.975989 339.323 4.0052 335.885 5.88706Z" fill="#176B87"/>
<path d="M400.834 3.45972L398.873 3.70999C394.451 4.27434 390.004 4.84388 385.745 6.11386C387.588 6.81096 389.522 7.26488 391.494 7.46309C392.579 7.51397 393.657 7.66053 394.715 7.90092C396.596 8.43648 398.491 9.81949 400.309 9.11104C401.435 8.67176 401.803 7.54966 402.736 6.95498C403.381 6.54435 405.826 5.87971 406.099 5.46525C408.308 2.11459 402.532 3.24299 400.834 3.45972Z" fill="#176B87"/>
<path d="M408.923 12.7661C406.517 14.3012 404.285 16.1665 402.276 18.3205C401.43 19.2283 400.566 20.3573 400.642 21.6798C400.744 23.4374 402.385 24.4569 403.807 25.1437L409.565 27.9255C410.264 26.802 409.624 25.2513 408.902 24.1473C408.18 23.0433 407.322 21.766 407.641 20.4375C408.005 18.9214 409.625 18.4048 410.984 18.1436C413.197 17.7181 419.168 17.7522 418.451 13.682C417.605 8.8861 411.145 11.349 408.923 12.7661Z" fill="#176B87"/>
<path d="M407.041 282.345C406.42 284.185 406.361 286.353 407.435 287.959C408.64 289.762 411.053 290.434 413.14 289.976C415.218 289.411 417.071 288.192 418.436 286.491C419.685 285.067 420.713 283.454 421.483 281.71C422.558 278.992 423.316 276.154 423.741 273.255L425.766 262.372C426.219 259.94 426.201 252.483 421.833 254.913C420.64 255.576 417.877 260.817 416.626 262.303C414.372 264.981 414.074 267.579 412.888 270.824C411.401 274.888 408.414 278.275 407.041 282.345Z" fill="#176B87"/>
<path d="M624.589 336.71C623.103 336.258 621.66 335.722 620.273 335.106C618.882 338.092 618.142 341.238 618.085 344.415L628.256 339.923C629.786 339.247 631.52 338.308 631.487 336.936C631.501 336.766 631.456 336.597 631.357 336.446C631.258 336.295 631.108 336.167 630.924 336.077C630.698 336.006 630.452 335.983 630.211 336.011C628.703 336.11 627.328 336.689 625.906 337.092C624.483 337.494 622.819 337.707 621.514 337.109" fill="#176B87"/>
<path d="M672.826 340.132C671.841 340.429 670.88 340.811 669.95 341.275C667.891 342.436 666.491 344.64 664.639 346.168C662.866 347.63 660.733 348.433 658.638 349.214C658.022 349.817 658.305 351.033 658.974 351.563C659.693 352.016 660.518 352.221 661.343 352.153C663.519 352.206 665.811 352.229 667.717 351.065C668.791 350.293 669.796 349.409 670.719 348.426C672.947 346.365 675.624 345.006 678.273 343.693C679.237 343.289 680.129 342.699 680.906 341.948C682.57 340.131 682.688 337.328 680.287 336.71C678.348 336.21 674.673 339.47 672.826 340.132Z" fill="#176B87"/>
<path d="M694.48 324.802C694.587 323.557 694.438 322.302 694.044 321.131C693.65 319.959 693.021 318.903 692.204 318.041C692.18 320.531 692.112 323.184 690.849 325.243C689.95 326.71 688.539 327.702 687.554 329.099C686.568 330.497 686.13 332.712 687.286 333.939C688.025 334.562 688.925 334.906 689.854 334.92C692.155 335.22 694.819 335.388 696.433 333.543C697.314 332.537 697.742 331.046 698.817 330.305C699.217 330.119 699.574 329.835 699.863 329.475C700.306 328.693 699.601 327.662 698.808 327.38C698.014 327.098 697.14 327.23 696.343 326.963C695.545 326.695 694.813 325.7 695.223 324.895" fill="#176B87"/>
<path d="M656.652 234.816C655.412 235.131 654.127 235.21 652.86 235.05C650.755 234.646 649.117 232.989 647.417 231.63C643.377 228.418 638.466 226.625 633.39 226.511C628.772 226.42 624.111 227.727 619.575 226.815C619.872 228.537 621.282 229.828 622.787 230.595C624.291 231.363 625.952 231.749 627.464 232.5C629.886 233.716 631.806 235.803 632.874 238.378C633.361 239.565 633.667 240.857 634.405 241.894C635.913 244.013 638.771 244.478 641.293 244.305C644.581 244.079 648.016 243.091 651.075 244.371C653.415 245.349 655.09 247.489 657.045 249.152C658.999 250.816 661.751 252.05 663.995 250.85C661.664 250.062 659.636 248.516 658.205 246.439C656.775 244.362 656.018 241.862 656.045 239.303C658.246 239.515 664.584 239.433 664.243 235.527C663.953 232.218 658.542 234.459 656.652 234.816Z" fill="#176B87"/>
<path d="M627.698 262.77C628.092 260.509 630.245 258.513 629.574 256.324C629.111 254.811 627.435 254.064 625.918 254.027C624.401 253.989 622.91 254.463 621.393 254.507C620.406 254.452 619.416 254.467 618.43 254.551C615.419 255.07 613.563 258.375 610.725 259.55C608.999 260.265 607.061 260.128 605.266 260.622C601.192 261.744 598.615 265.775 595.767 269.026C591.166 274.254 585.171 277.915 578.56 279.534C576.244 280.096 573.754 280.455 571.913 282.031C569.474 284.117 568.874 287.693 568.332 290.941C566.833 299.911 564.543 308.716 561.49 317.243L571.164 318.536C573.003 318.782 574.908 319.023 576.681 318.452C577.968 317.943 579.188 317.263 580.309 316.428C584.618 313.627 589.439 311.804 594.463 311.078C596.996 310.714 599.652 310.647 602.029 311.633C604.406 312.619 606.445 314.855 606.645 317.525C607.673 317.19 608.768 317.153 609.814 317.42C610.861 317.686 611.818 318.245 612.584 319.037C614.099 320.654 615.091 322.727 615.42 324.965C615.675 326.351 615.93 328.012 617.158 328.593C618.16 329.068 619.309 328.557 620.405 328.465C624.124 328.153 627.21 332.695 630.865 331.913C634.786 331.074 635.748 324.925 639.573 323.694C641.77 322.986 644.851 323.846 645.903 321.707C646.83 319.821 644.98 317.644 645.171 315.532C645.406 312.932 648.335 311.828 650.593 310.719C658.377 306.894 662.071 295.921 658.299 287.829C656.064 283.035 651.666 279.26 650.854 273.993C650.229 269.941 651.755 265.215 649.288 262.025C648.032 260.403 645.907 259.507 645.161 257.571C644.69 256.352 644.879 254.969 644.626 253.682C644.373 252.394 643.301 251.047 642.087 251.381C638.563 252.35 637.438 263.75 635.551 266.521C632.683 270.731 626.795 267.958 627.698 262.77Z" fill="#176B87"/>
<path d="M562.109 237.943C560.886 237.491 559.55 237.045 558.379 237.692C557.207 238.338 556.523 240.609 557.463 241.735C564.82 241.357 572.223 240.981 579.517 242.3C587.922 243.819 596.24 247.582 604.682 246.475C599.859 244.598 594.958 243.097 590.002 241.98L581.738 239.896C579.521 239.284 577.281 238.827 575.027 238.528C570.313 238.014 566.744 239.658 562.109 237.943Z" fill="#176B87"/>
<path d="M569.6 212.424C569.026 212.371 568.315 212.326 568.018 212.87C567.735 213.39 568.059 214.077 567.907 214.66C567.698 215.456 566.752 215.66 566.007 215.551C565.262 215.443 564.456 215.183 563.795 215.579C563.46 215.832 563.209 216.197 563.078 216.62C562.947 217.043 562.945 217.502 563.07 217.927C563.34 218.771 563.777 219.539 564.349 220.174C565.325 221.531 566.438 222.762 567.666 223.842C570.042 225.776 573.261 226.708 574.758 229.516C574.969 230.06 575.294 230.542 575.705 230.922C576.424 231.423 577.361 231.042 578.134 230.652L580.846 229.286C581.334 229.092 581.77 228.765 582.113 228.335C582.733 227.408 582.352 226.091 581.832 225.092C581.312 224.094 580.647 223.06 580.758 221.916C580.957 219.875 583.337 219.094 584.316 217.348C585.303 215.587 584.66 213.319 584.774 211.254C584.907 208.838 586.284 205.696 584.069 203.892C582.187 202.358 580.388 203.775 579.036 205.468C576.186 209.039 574.839 212.907 569.6 212.424Z" fill="#176B87"/>
<path d="M585.906 176.285C586.991 178.28 589.253 179.471 590.436 181.414C591.719 183.52 591.572 186.242 592.964 188.283C594.391 190.378 597.263 191.49 598.064 193.872C598.938 196.473 596.955 199.635 598.535 201.907C598.83 202.279 599.202 202.588 599.627 202.814C600.053 203.04 600.522 203.179 601.007 203.222C601.491 203.264 601.979 203.21 602.44 203.062C602.902 202.914 603.326 202.676 603.686 202.362C604.352 201.665 604.709 200.746 604.68 199.8C604.651 198.854 604.238 197.956 603.53 197.299C602.594 196.479 601.251 196.125 600.469 195.168C600.062 194.615 599.791 193.981 599.676 193.313C599.251 191.387 599.319 189.391 599.875 187.496C600.084 187.015 600.137 186.485 600.028 185.974C599.676 184.992 598.291 184.922 597.32 184.467C595.113 183.432 595.166 180.44 595.552 178.111C595.295 179.662 589.544 177.024 588.941 176.145C587.745 174.4 588.396 171.033 588.159 169.104C585.576 170.3 584.58 173.845 585.906 176.285Z" fill="#176B87"/>
<path d="M534.811 206.54C533.878 205.459 532.471 204.327 531.22 204.979C530.265 205.477 530.002 206.845 530.376 207.882C530.832 208.889 531.534 209.755 532.413 210.395C535.022 212.622 537.83 214.632 540.106 217.221C544.178 221.853 546.336 228.104 550.764 232.372C551.655 233.361 552.833 234.022 554.121 234.252C555.411 234.376 556.86 233.521 557.008 232.189C557.13 231.091 556.391 230.108 555.669 229.295C553.948 227.358 552.065 225.575 550.44 223.551C549.69 222.773 549.219 221.754 549.104 220.662C549.096 219.572 550.056 218.431 551.076 218.701C549.835 218.373 548.915 216.233 547.095 215.831C545.573 215.495 545.205 216.47 543.394 215.666C539.94 214.133 537.23 209.343 534.811 206.54Z" fill="#176B87"/>
<path d="M617.07 95.9634C616.076 95.6422 615.099 95.2625 614.143 94.8262C611.572 93.9863 608.169 96.0429 608.512 98.9403C608.739 100.865 610.386 102.163 611.296 103.833C612.644 106.309 612.285 109.45 611.576 112.223C611.402 113.082 611.071 113.894 610.603 114.611C609.948 115.367 609.166 115.98 608.298 116.414C604.825 118.533 601.762 121.364 599.279 124.75C599.009 125.063 598.821 125.449 598.734 125.867C598.612 126.846 599.516 127.558 600.027 128.374C601.162 130.187 600.341 132.626 600.454 134.815C600.436 135.125 600.492 135.434 600.615 135.714C600.739 135.993 600.926 136.234 601.159 136.413C601.843 136.791 602.654 136.149 603.025 135.418C604.255 132.992 603.328 129.099 605.637 127.929C606.073 127.708 606.603 127.615 606.894 127.198C607.356 126.535 606.91 125.555 607.145 124.764C607.496 123.576 608.99 123.522 610.137 123.575C612.111 123.665 614.085 123.379 615.969 122.73C616.709 122.539 617.38 122.116 617.9 121.514C618.59 120.577 618.529 119.244 618.391 118.053C617.701 112.114 615.971 106.373 613.297 101.142C615.325 101.423 617.531 101.667 619.281 100.518C620.261 99.8738 621.436 97.9484 620.95 96.6379C620.182 94.5655 618.793 96.3099 617.07 95.9634Z" fill="#176B87"/>
<path d="M355.409 128.623C355.654 130.025 355.896 131.502 355.464 132.852C355.032 134.202 353.674 135.331 352.391 134.917C351.396 134.596 350.821 133.531 350.114 132.718C346.184 128.202 337.316 130.817 334.888 125.229C333.897 122.949 334.571 120.217 333.895 117.81C333.469 116.418 332.62 115.217 331.483 114.395C330.346 113.572 328.984 113.175 327.612 113.266C326.36 113.459 325.142 113.846 323.996 114.415C316.319 117.687 308.26 119.833 300.04 120.793C298.477 120.894 296.932 121.193 295.437 121.684C292.061 122.987 289.755 126.317 288.114 129.716C286.473 133.115 285.261 136.794 283.06 139.814C280.748 142.988 277.507 145.21 274.485 147.614C273.32 148.412 272.35 149.494 271.655 150.77C271 152.202 271.037 153.867 271.088 155.459L271.706 174.794C271.785 177.281 271.885 179.857 272.931 182.083C274.237 184.862 276.816 186.682 278.606 189.137C280.432 191.66 281.384 194.778 281.299 197.961C281.261 199.241 281.141 200.755 282.078 201.559C282.648 201.952 283.314 202.156 283.993 202.145L308.566 204.286C312.888 204.663 317.678 205.282 320.5 208.787C321.832 210.441 322.902 212.82 324.942 212.998C325.817 213.074 326.669 212.692 327.544 212.618C329.752 212.432 331.692 214.216 332.916 216.18C334.769 219.175 335.61 222.752 335.301 226.322C335.1 228.564 334.447 230.743 334.307 232.989C333.771 241.538 340.579 248.964 340.711 257.53C340.789 262.569 338.542 267.277 336.351 271.744C339.887 277.446 336.991 285.038 338.399 291.704C339.735 298.028 344.688 302.978 345.923 309.326C346.488 312.231 346.52 315.807 348.928 317.304C349.984 317.852 351.155 318.101 352.328 318.028C359.404 318.117 366.399 316.422 372.741 313.082C375.717 311.51 378.802 309.162 379.322 305.669C379.741 302.852 378.399 299.701 379.765 297.247C381.375 294.355 385.499 294.584 387.868 292.36C391.711 288.753 388.714 281.873 390.271 276.677C391.671 272.007 396.488 269.526 398.876 265.334C399.816 263.531 400.49 261.586 400.876 259.565C401.97 254.736 402.651 249.812 402.91 244.852C402.974 241.839 403.183 238.831 403.536 235.841C406.11 218.815 421.924 207.414 427.058 191.057C427.549 189.495 427.779 187.415 426.473 186.531C425.699 186.138 424.821 186.04 423.987 186.254L412.66 187.774C411.253 187.963 409.761 188.139 408.469 187.517C407.177 186.895 406.251 185.155 406.937 183.834C408.86 180.125 404.903 175.437 403.145 171.636C398.41 161.401 392.771 151.667 386.305 142.568C385.891 142.1 385.632 141.501 385.567 140.862L388.782 140.975C387.697 136.831 385.906 132.295 382.123 130.779C379.991 129.924 377.63 130.22 375.356 130.352C368.841 130.731 361.856 129.684 355.409 128.623Z" fill="#176B87"/>
<path d="M375.008 35.6411C376.706 37.5551 378.609 39.5843 381.065 39.9179C385.404 40.5072 388.524 35.7443 390.51 31.6072C390.584 32.6619 391.042 33.6445 391.788 34.3461C392.533 35.0477 393.507 35.4129 394.503 35.364C395.574 35.1727 396.596 34.7485 397.505 34.1179C406.102 29.1309 415.732 26.4886 425.529 26.4283C425.435 25.6405 425.619 24.8437 426.046 24.1915C426.473 23.5393 427.112 23.0781 427.84 22.8967C429.832 22.4775 431.626 24.3055 432.587 26.2044C433.548 28.1034 434.147 30.3044 435.674 31.7257C437.201 33.1471 440.156 33.0852 440.759 31.0269C441.338 29.0509 439.399 27.3657 437.788 26.2007C436.176 25.0357 434.478 22.8794 435.563 21.1601C443.795 19.226 452.077 17.2845 460.5 16.9001C461.935 16.9531 463.363 16.6918 464.698 16.1325C465.983 15.4634 467.004 13.9446 466.658 12.4707C464.82 12.9293 462.895 12.7965 461.128 12.0891C459.361 11.3818 457.833 10.1319 456.738 8.49896C468.426 7.4752 480.857 6.60258 491.215 12.4402C492.458 15.2725 486.123 17.629 487.818 20.1836C488.359 20.9984 489.442 21.0939 490.38 21.1124C497.578 21.2543 504.818 21.3934 511.934 20.2399C514.535 19.8183 517.162 19.2233 519.773 19.5651C524.122 20.1344 527.842 23.2146 532.12 24.2189C533.862 24.6277 535.815 24.6415 537.283 23.5663C538.751 22.4912 539.382 20.0431 538.179 18.6454C542.207 14.4544 548.893 15.4931 554.208 17.4995C559.522 19.506 564.557 22.7417 570.182 23.189C574.216 23.5097 578.306 22.358 582.291 23.09C584.796 23.55 587.127 24.7328 589.575 25.4594C594.205 26.8337 599.102 26.5436 603.909 26.6098C616.175 26.7852 628.306 29.3439 639.702 34.1592C641.185 34.6716 642.543 35.5235 643.681 36.6546C644.742 37.86 645.283 39.7331 644.57 41.1986L632.793 39.3721C633.903 41.6906 636.773 42.0857 639.105 42.8856C641.436 43.6854 643.853 46.418 642.452 48.5514C639.926 47.6977 637.637 50.3783 636.361 52.8446C635.085 55.3109 633.531 58.2646 630.884 58.4148C628.513 58.5494 625.647 56.407 624.102 58.3199C626.236 61.1781 628.064 64.2799 629.551 67.5678C631.078 70.9432 632.165 75.1964 630.102 78.2333C629.777 78.7755 629.285 79.1807 628.709 79.3794C627.024 79.8322 625.93 77.6443 624.721 76.3182C623.199 74.6471 620.896 74.1737 618.834 73.39C616.772 72.6063 614.6 71.0646 614.439 68.7461C614.338 67.3036 615.056 65.9627 615.584 64.6294C616.473 62.3822 616.861 59.948 616.72 57.5156C616.604 55.5588 616.087 53.5232 614.763 52.156C613.439 50.7887 611.153 50.355 609.732 51.6072C609.069 52.1915 608.537 53.1262 607.676 53.1611C606.154 53.2229 604.986 50.4068 603.761 51.3681C603.905 52.3924 603.705 53.4377 603.196 54.3213C599.543 57.694 593.93 56.2671 589.22 57.4586C586.98 58.1389 584.836 59.133 582.844 60.4144C582.098 60.7527 581.464 61.3177 581.021 62.0383C580.433 63.251 581.081 64.8042 582.118 65.6106C583.217 66.326 584.452 66.7735 585.733 66.9206C591.475 68.0749 597.301 69.8619 601.835 73.7767C606.368 77.6916 609.341 84.1631 607.906 90.1767L596.583 78.6916C597.013 83.514 597.257 88.3496 597.315 93.1985C597.388 94.1452 597.266 95.0975 596.956 95.9888C596.149 97.8814 593.961 98.5183 592.044 98.9361C591.51 99.0436 591.004 99.2697 590.559 99.5995C590.114 99.9293 589.74 100.355 589.461 100.849C589.182 101.344 589.005 101.895 588.941 102.467C588.877 103.039 588.927 103.619 589.09 104.169C589.771 106.526 591.469 108.364 593.024 110.194C594.58 112.025 596.11 114.106 596.314 116.562C596.517 119.018 594.772 121.786 592.455 121.615C590.699 121.486 589.395 119.817 588.646 118.125C587.897 116.434 587.451 114.55 586.326 113.113C582.919 108.764 575.266 110.627 572.214 105.99C571.436 106.927 570.897 108.059 570.647 109.28C570.397 110.5 570.445 111.768 570.787 112.963C572.207 112.019 574.151 112.896 575.217 114.267C576.284 115.638 576.787 117.396 577.625 118.935C578.756 121.013 580.555 122.855 580.713 125.249C580.671 126.154 580.685 127.061 580.756 127.964C581.036 129.414 582.191 130.456 582.992 131.668C584.855 134.489 584.763 138.364 583.562 141.564C582.361 144.764 580.203 147.439 578.067 150.031C574.334 154.56 570.526 159.062 566.101 162.823C564.838 163.896 563.491 164.951 562.704 166.451C561.918 167.952 561.878 170.058 563.086 171.199C562.221 171.245 560.671 171.696 559.806 171.742C559.502 168.06 559.436 164.361 559.608 160.67C556.196 158.93 552.522 163.588 552.963 167.578C553.403 171.569 556.122 174.771 558.058 178.224C559.474 180.748 560.526 183.692 560.053 186.587C559.581 189.482 557.146 192.153 554.388 191.897C550.002 191.491 548.168 184.808 543.824 184.043C543.441 183.947 543.039 183.99 542.681 184.163C542.037 184.539 541.924 185.454 541.888 186.234C541.711 190.061 541.557 194.04 542.964 197.568C545.023 202.73 550.342 207.065 549.226 212.544C543.216 209.578 540.091 202.424 538.672 195.551C537.253 188.679 537.016 181.464 534.473 174.967C532.542 177.594 528.482 175.422 526.718 172.666C525.045 170.052 524.015 167.029 522.392 164.381C520.768 161.732 518.282 159.361 515.309 159.215C512.191 159.062 509.487 161.333 507.11 163.479C505.154 165.243 503.147 167.077 502.004 169.516C500.341 173.065 500.776 177.249 500.696 181.212C500.609 185.497 499.754 190.017 497.003 193.153C494.252 196.29 489.174 197.382 486.14 194.556C484.556 193.08 483.789 190.875 483.106 188.758C479.813 178.556 477.07 168.163 474.891 157.63C474.381 160.034 472.392 163.133 470.492 161.717C470.066 161.336 469.721 160.863 469.479 160.331C465.935 153.955 459.372 150.13 452.741 147.837C446.109 145.544 439.132 144.475 432.575 141.954C428.9 140.542 425.39 138.686 422.113 136.423C421.278 137.726 420.791 139.244 420.702 140.816C420.614 142.389 420.928 143.958 421.611 145.357C423.065 148.091 426.357 149.672 429.175 148.717C430.631 148.223 431.861 147.15 433.305 146.62C434.75 146.09 436.69 146.35 437.321 147.828C437.926 149.242 437.012 150.953 437.465 152.43C438.156 154.679 441.352 154.852 442.469 156.899C443.301 158.421 442.616 160.443 441.429 161.672C440.242 162.901 438.658 163.575 437.209 164.43C432.507 167.206 429.164 171.943 425.055 175.629C420.945 179.315 415.148 182.006 410.251 179.642C411.418 173.368 404.377 168.761 403.081 162.515C402.655 160.459 402.876 158.276 402.267 156.272C401.386 153.372 398.962 151.377 396.973 149.179C394.561 146.484 392.681 143.303 391.446 139.825C390.21 136.346 389.644 132.64 389.779 128.925C389.887 126.344 390.334 123.721 389.78 121.205C389.226 118.688 387.263 116.253 384.831 116.367C379.277 116.628 372.28 117.066 369.365 112.04C368.325 110.246 367.873 107.619 369.376 106.245C370.437 105.276 372.003 105.367 373.396 105.512L385.911 106.819C388.838 107.125 392.002 107.377 394.514 105.753C397.026 104.128 398.114 99.8169 395.788 97.9059C394.089 96.5096 391.044 96.5853 390.55 94.3653C390.139 92.5164 392.067 90.4185 391.026 88.8734C390.279 87.7654 388.6 88.0728 387.583 88.9034C386.566 89.7339 385.828 90.9485 384.69 91.5774C382.693 92.6806 380.306 91.6307 378.158 90.9171C376.009 90.2036 373.129 90.143 372.087 92.2611C370.922 94.63 373.121 97.7341 371.964 100.108C370.435 103.246 365.256 101.46 363.109 104.159C360.644 107.257 364.786 111.876 363.954 115.833C362.893 116.391 361.714 116.647 360.532 116.576C359.35 116.506 358.205 116.111 357.21 115.431C356.23 114.724 355.45 113.748 354.952 112.608C354.453 111.468 354.255 110.206 354.378 108.956C354.584 107.176 355.458 105.358 354.873 103.676C354.399 102.316 353.112 101.506 351.917 100.805L339.755 93.6715C338.626 95.8948 340.053 98.6511 341.839 100.321C343.624 101.991 345.86 103.249 347.033 105.446C347.775 106.969 347.941 108.735 347.498 110.383C347.054 112.032 346.035 113.438 344.648 114.316C344.474 114.443 344.276 114.529 344.068 114.568C343.86 114.606 343.647 114.597 343.442 114.539C343.248 114.418 343.079 114.257 342.945 114.065C342.811 113.874 342.714 113.655 342.661 113.423C340.515 107.595 337.293 101.848 332.142 98.8027C326.992 95.7579 319.591 96.3839 316.213 101.513C315.411 102.731 314.872 104.12 314.173 105.408C310.46 112.251 302.5 115.492 295.063 115.28C294.336 115.323 293.612 115.142 292.979 114.76C291.777 113.879 291.831 112.009 292.015 110.471L292.795 103.943C292.952 102.633 293.179 101.184 294.157 100.366C295.534 99.2121 297.522 99.94 299.276 99.9132C300.606 99.8471 301.884 99.3488 302.937 98.4858C303.991 97.6228 304.769 96.4368 305.166 95.0887C305.52 93.7272 305.518 92.2889 305.159 90.9287C304.801 89.5685 304.099 88.3381 303.13 87.3698C302.326 86.5681 301.246 85.561 301.671 84.4802C301.841 84.1812 302.07 83.9253 302.343 83.7304C302.615 83.5355 302.925 83.4064 303.249 83.3521C306.401 82.3806 309.731 82.126 312.83 80.9797C315.929 79.8334 318.935 77.4882 319.669 74.0929C319.894 73.0524 319.996 71.7919 320.877 71.276C321.318 71.078 321.793 70.9751 322.272 70.9733C323.953 70.7196 325.482 69.8074 326.561 68.4164C327.639 67.0253 328.188 65.2562 328.099 63.4573C329.584 62.3557 331.665 63.166 333.101 64.3377C334.538 65.5094 335.807 67.0574 337.555 67.5624C340.813 68.5037 343.962 65.4416 347.339 65.4274C348.759 65.4215 350.229 65.9544 351.564 65.4434C352.919 64.9253 353.727 63.4944 354.767 62.4372C355.806 61.38 357.63 60.7352 358.59 61.8741L357.772 55.4482C359.418 55.8895 361.134 55.952 362.805 55.6314C364.475 55.3108 366.062 54.6146 367.458 53.5894L356.895 49.8011C356.528 49.7036 356.188 49.511 355.908 49.2405C355.14 48.3627 355.902 46.9949 356.527 45.9972C358.021 43.6102 358.272 39.6784 355.815 38.49C354.138 37.6789 352.213 38.6525 350.604 39.6051L342.894 44.168C342.649 45.7235 344.442 46.6051 345.552 47.6528C346.224 48.2868 346.699 49.1216 346.916 50.0476C347.133 50.9737 347.081 51.9476 346.766 52.8416C346.452 53.7356 345.89 54.5077 345.155 55.0566C344.42 55.6055 343.545 55.9055 342.646 55.9172C343.154 56.6178 343.507 57.4306 343.678 58.2955C343.85 59.1604 343.836 60.0552 343.638 60.9137L338.451 61.3097C337.869 61.434 337.264 61.3087 336.768 60.9611C336.214 60.4381 336.289 59.5216 336.16 58.7459C335.85 56.8737 334.123 55.5615 332.36 55.2251C330.598 54.8886 328.794 55.3199 327.049 55.7457C326.308 56.0288 325.494 56.0089 324.766 55.6898C324.349 55.4019 324.031 54.9769 323.863 54.4797C323.098 52.5103 323.813 50.1955 325.042 48.5114C326.271 46.8272 327.953 45.596 329.464 44.194C333.077 40.8288 335.732 36.4581 337.128 31.5757C339.984 30.3057 342.94 28.5802 345.796 27.3102C350.198 24.9443 355.135 23.9289 360.051 24.3784L369.722 24.5745C372.585 24.6325 375.525 24.7069 378.173 25.8655C380.82 27.0241 383.147 29.53 383.329 32.5635C383.385 32.9069 383.357 33.2596 383.248 33.5884C383.14 33.9172 382.954 34.2113 382.709 34.4432C382.335 34.6598 381.912 34.7611 381.487 34.7357C378.817 34.8354 377.678 35.5416 375.008 35.6411Z" fill="#176B87"/>
<path d="M299.143 68.588C299.551 68.205 299.845 67.7178 299.992 67.1801C300.139 66.6423 300.134 66.0748 299.977 65.5398C298.984 65.1598 297.903 65.0623 296.857 65.2581C295.811 65.454 294.841 65.9354 294.056 66.6483C293.437 67.2689 292.904 67.968 292.47 68.7273C291.097 70.9478 289.883 73.6001 290.678 76.0822C290.743 76.3529 290.862 76.608 291.027 76.8326C291.193 77.0572 291.402 77.2467 291.643 77.3901C291.999 77.532 292.384 77.5917 292.767 77.5647C294.279 77.5627 295.79 77.4705 297.291 77.2886C298.213 77.1769 299.284 76.9188 299.64 76.0684C300.108 74.9507 298.975 73.6857 299.305 72.5206C299.523 71.9995 299.852 71.5318 300.271 71.15C300.478 70.9577 300.638 70.7201 300.737 70.4561C300.835 70.192 300.871 69.9087 300.84 69.6288C300.707 69.0821 299.862 68.7719 299.558 69.2469" fill="#176B87"/>
<path d="M305.623 59.2678C304.496 58.9664 303.333 58.8814 302.183 59.0162C301.928 59.0074 301.676 59.0741 301.449 59.2102C301.23 59.3984 301.071 59.6665 300.998 59.9719C300.755 60.8803 300.814 61.862 301.165 62.7215C301.516 63.5809 302.132 64.255 302.89 64.6095C303.303 64.7201 303.699 64.9054 304.063 65.1585C305.036 66.0376 304.416 67.8343 304.6 69.2522C304.807 70.8443 306.131 72.1807 305.888 73.766C305.697 75.0149 304.551 76.0038 304.736 77.2541C304.929 78.5636 306.356 78.9571 307.494 79.062C308.153 79.1964 308.831 79.1059 309.448 78.8013C310.065 78.3096 310.504 77.5691 310.68 76.7225C311.146 75.1084 311.342 73.4054 311.257 71.7055C311.252 70.9324 311.085 70.1723 310.771 69.4911C310.428 68.9515 310.049 68.4452 309.636 67.9773C307.456 65.0254 309.751 60.6223 305.623 59.2678Z" fill="#176B87"/>
<path opacity="0.8" d="M621.063 291.667C621.063 291.667 437.276 179.491 358.153 200.745C358.153 200.745 190.469 219.933 171.035 262.147C171.035 262.147 117.731 85.0266 98.2974 79.1226" stroke="#00AC7C" stroke-width="2" stroke-miterlimit="10"/>
<path opacity="0.8" d="M171.035 262.095C201.851 174.564 479.475 77.5708 479.475 77.5708C440.052 88.2164 358.153 200.587 358.153 200.587C358.153 200.587 184.916 66.3337 98.2974 78.7536C98.2974 78.7536 479.753 92.0607 621.063 291.667" stroke="#00AC7C" stroke-width="2" stroke-miterlimit="10"/>
<path d="M97.5538 86.8796C102.078 86.8796 105.745 83.0593 105.745 78.3468C105.745 73.6342 102.078 69.814 97.5538 69.814C93.0298 69.814 89.3623 73.6342 89.3623 78.3468C89.3623 83.0593 93.0298 86.8796 97.5538 86.8796Z" fill="#00AC7C"/>
<path d="M172.022 269.947C176.546 269.947 180.213 266.127 180.213 261.414C180.213 256.702 176.546 252.881 172.022 252.881C167.498 252.881 163.83 256.702 163.83 261.414C163.83 266.127 167.498 269.947 172.022 269.947Z" fill="#00AC7C"/>
<path d="M479.574 85.3278C483.687 85.3278 487.021 81.5075 487.021 76.795C487.021 72.0825 483.687 68.2622 479.574 68.2622C475.461 68.2622 472.127 72.0825 472.127 76.795C472.127 81.5075 475.461 85.3278 479.574 85.3278Z" fill="#00AC7C"/>
<path d="M620.319 299.424C624.843 299.424 628.511 295.603 628.511 290.891C628.511 286.178 624.843 282.358 620.319 282.358C615.795 282.358 612.128 286.178 612.128 290.891C612.128 295.603 615.795 299.424 620.319 299.424Z" fill="#00AC7C"/>
<path d="M358.191 209.441C362.715 209.441 366.382 205.274 366.382 200.133C366.382 194.992 362.715 190.824 358.191 190.824C353.667 190.824 350 194.992 350 200.133C350 205.274 353.667 209.441 358.191 209.441Z" fill="#00AC7C"/>
</svg>
