<svg width="600" height="492" viewBox="0 0 600 492" fill="none" xmlns="http://www.w3.org/2000/svg">
<path d="M536.25 87.063C543.358 75.1965 538.242 59.4125 524.575 54.3603C515.98 51.1828 506.042 53.804 500.051 60.7386C496.305 65.0727 494.577 70.2245 494.534 75.3065L494.524 75.3L494.535 75.4048C494.529 77.0932 494.921 78.5383 495.072 80.4066L497.384 101.932C497.671 104.611 500.443 106.27 502.94 105.26L522.676 97.2722C522.676 97.2722 526.196 96.0535 527.696 95.241L527.767 95.2125L527.759 95.2074C531.15 93.3534 534.12 90.6196 536.25 87.063ZM511.951 83.9101C507.266 81.1039 505.743 75.0322 508.549 70.3475C511.356 65.6627 517.427 64.1399 522.112 66.9461C526.797 69.7523 528.32 75.824 525.513 80.5088C522.707 85.1935 516.635 86.7163 511.951 83.9101Z" fill="#EBEBEB"/>
<path d="M215.905 108.233L167.063 119.116L201.555 273.909L250.397 263.026L215.905 108.233Z" fill="#F5F5F5"/>
<path d="M215.905 108.235L191.484 113.676L225.881 268.043L250.302 262.601L215.905 108.235Z" fill="#EBEBEB"/>
<path d="M186.501 98.8337L169.254 102.677L172.641 117.874L189.887 114.031L186.501 98.8337Z" fill="#F5F5F5"/>
<path d="M186.5 98.8336L182.39 99.7496L185.776 114.947L189.886 114.031L186.5 98.8336Z" fill="#EBEBEB"/>
<path d="M162.992 120.005L162.795 119.119L217.135 107.008L217.332 107.894" fill="#E0E0E0"/>
<path d="M182.318 122.671L178.184 123.593L180.126 132.31L184.261 131.389L182.318 122.671Z" fill="#FAFAFA"/>
<path d="M195.665 132.42C195.686 132.512 190.235 133.804 183.493 135.308C176.749 136.811 171.266 137.955 171.245 137.863C171.224 137.771 176.674 136.479 183.418 134.975C190.161 133.472 195.644 132.328 195.665 132.42Z" fill="#E0E0E0"/>
<path d="M206.949 117.141L202.815 118.063L204.758 126.779L208.892 125.858L206.949 117.141Z" fill="#E0E0E0"/>
<path d="M220.297 126.931C220.318 127.023 214.867 128.315 208.126 129.818C201.381 131.322 195.898 132.465 195.877 132.374C195.857 132.282 201.306 130.989 208.051 129.486C214.794 127.983 220.278 126.839 220.297 126.931Z" fill="#E0E0E0"/>
<path d="M210.806 134.447L206.672 135.368L208.615 144.085L212.75 143.163L210.806 134.447Z" fill="#E0E0E0"/>
<path d="M224.155 144.237C224.176 144.329 218.725 145.621 211.984 147.125C205.239 148.628 199.756 149.772 199.735 149.68C199.715 149.588 205.164 148.296 211.909 146.792C218.65 145.289 224.135 144.145 224.155 144.237Z" fill="#E0E0E0"/>
<path d="M214.78 152.276L210.646 153.197L212.589 161.914L216.723 160.992L214.78 152.276Z" fill="#E0E0E0"/>
<path d="M228.128 162.067C228.149 162.159 222.698 163.451 215.957 164.955C209.212 166.458 203.729 167.602 203.708 167.51C203.688 167.418 209.137 166.125 215.882 164.622C222.625 163.119 228.108 161.975 228.128 162.067Z" fill="#E0E0E0"/>
<path d="M218.756 170.104L214.621 171.025L216.565 179.742L220.699 178.82L218.756 170.104Z" fill="#E0E0E0"/>
<path d="M232.103 179.895C232.124 179.987 226.673 181.28 219.931 182.783C213.187 184.286 207.704 185.43 207.683 185.338C207.663 185.246 213.112 183.954 219.856 182.45C226.598 180.948 232.083 179.803 232.103 179.895Z" fill="#E0E0E0"/>
<path d="M222.61 187.476L218.475 188.397L220.417 197.115L224.552 196.193L222.61 187.476Z" fill="#E0E0E0"/>
<path d="M235.962 197.215C235.983 197.307 230.532 198.599 223.79 200.103C217.046 201.606 211.563 202.75 211.542 202.658C211.521 202.566 216.971 201.274 223.715 199.77C230.458 198.267 235.941 197.123 235.962 197.215Z" fill="#E0E0E0"/>
<path d="M226.492 204.81L222.358 205.732L224.301 214.448L228.436 213.526L226.492 204.81Z" fill="#E0E0E0"/>
<path d="M230.418 222.476L226.284 223.397L228.226 232.115L232.361 231.193L230.418 222.476Z" fill="#E0E0E0"/>
<path d="M239.839 214.603C239.859 214.695 234.409 215.989 227.667 217.491C220.922 218.994 215.439 220.138 215.419 220.046C215.398 219.954 220.847 218.662 227.592 217.159C234.334 215.656 239.818 214.511 239.839 214.603Z" fill="#E0E0E0"/>
<path d="M186.234 140.202L182.099 141.124L184.043 149.841L188.177 148.919L186.234 140.202Z" fill="#FAFAFA"/>
<path d="M199.581 149.992C199.602 150.084 194.151 151.377 187.409 152.88C180.665 154.383 175.182 155.527 175.161 155.435C175.141 155.343 180.59 154.051 187.334 152.547C194.078 151.044 199.561 149.9 199.581 149.992Z" fill="#E0E0E0"/>
<path d="M190.151 157.772L186.016 158.694L187.96 167.411L192.094 166.489L190.151 157.772Z" fill="#FAFAFA"/>
<path d="M203.498 167.563C203.518 167.655 198.068 168.948 191.326 170.45C184.581 171.954 179.098 173.098 179.078 173.006C179.057 172.914 184.506 171.621 191.251 170.118C197.994 168.615 203.477 167.471 203.498 167.563Z" fill="#E0E0E0"/>
<path d="M194.067 175.342L189.933 176.264L191.876 184.98L196.011 184.058L194.067 175.342Z" fill="#FAFAFA"/>
<path d="M207.414 185.134C207.435 185.225 201.984 186.518 195.242 188.021C188.498 189.525 183.015 190.668 182.994 190.576C182.973 190.485 188.423 189.192 195.167 187.689C201.909 186.185 207.393 185.042 207.414 185.134Z" fill="#E0E0E0"/>
<path d="M197.982 192.958L193.848 193.879L195.79 202.596L199.925 201.675L197.982 192.958Z" fill="#FAFAFA"/>
<path d="M211.33 202.704C211.351 202.796 205.9 204.089 199.158 205.592C192.414 207.095 186.931 208.239 186.91 208.147C186.889 208.055 192.339 206.763 199.083 205.26C205.825 203.756 211.309 202.613 211.33 202.704Z" fill="#E0E0E0"/>
<path d="M201.901 210.483L197.767 211.404L199.711 220.121L203.845 219.199L201.901 210.483Z" fill="#FAFAFA"/>
<path d="M215.246 220.275C215.267 220.367 209.816 221.659 203.075 223.163C196.33 224.666 190.847 225.81 190.826 225.718C190.806 225.626 196.255 224.334 203 222.83C209.741 221.328 215.226 220.183 215.246 220.275Z" fill="#E0E0E0"/>
<path d="M205.818 228.052L201.684 228.974L203.627 237.691L207.762 236.769L205.818 228.052Z" fill="#FAFAFA"/>
<path d="M294.822 178.983L222.108 185.945L231.29 281.853L304.005 274.891L294.822 178.983Z" fill="#EBEBEB"/>
<path d="M294.822 178.983L260.728 182.247L269.91 278.155L304.004 274.891L294.822 178.983Z" fill="#E0E0E0"/>
<path d="M245.165 196.82L238.626 197.447L240.149 213.331L246.687 212.704L245.165 196.82Z" fill="#F5F5F5"/>
<path d="M251.122 258.989L244.584 259.615L246.106 275.499L252.645 274.873L251.122 258.989Z" fill="#F5F5F5"/>
<path d="M264.117 217.354C264.133 217.532 255.501 218.505 244.838 219.527C234.171 220.55 225.512 221.233 225.495 221.054C225.478 220.876 234.109 219.903 244.776 218.882C255.439 217.859 264.1 217.175 264.117 217.354Z" fill="#F5F5F5"/>
<path d="M248.137 228.162L241.599 228.788L243.12 244.672L249.658 244.046L248.137 228.162Z" fill="#F5F5F5"/>
<path d="M267.116 248.675C267.133 248.853 258.501 249.826 247.838 250.847C237.171 251.869 228.512 252.552 228.495 252.374C228.478 252.195 237.109 251.222 247.776 250.202C258.439 249.179 267.098 248.496 267.116 248.675Z" fill="#F5F5F5"/>
<path d="M275.75 193.912L269.212 194.538L270.733 210.422L277.271 209.796L275.75 193.912Z" fill="#F5F5F5"/>
<path d="M289.962 192.528L283.424 193.155L284.946 209.039L291.485 208.412L289.962 192.528Z" fill="#F5F5F5"/>
<path d="M278.666 224.029L272.127 224.655L273.65 240.539L280.188 239.913L278.666 224.029Z" fill="#F5F5F5"/>
<path d="M292.823 222.693L286.284 223.319L287.805 239.203L294.343 238.577L292.823 222.693Z" fill="#F5F5F5"/>
<path d="M281.554 254.17L275.015 254.796L276.538 270.68L283.076 270.054L281.554 254.17Z" fill="#F5F5F5"/>
<path d="M295.708 252.835L289.169 253.461L290.69 269.345L297.228 268.719L295.708 252.835Z" fill="#F5F5F5"/>
<path d="M299.969 175.121L216.322 183.13L216.653 186.587L300.3 178.579L299.969 175.121Z" fill="#E0E0E0"/>
<path d="M295.4 179.38C295.417 179.559 279.177 181.26 259.133 183.18C239.082 185.1 222.818 186.513 222.801 186.334C222.784 186.156 239.02 184.454 259.072 182.534C279.117 180.613 295.383 179.202 295.4 179.38Z" fill="#EBEBEB"/>
<path d="M231.065 284.657L163.717 314.423L116.381 208.112L183.729 178.348L231.065 284.657Z" fill="#EBEBEB"/>
<path d="M183.728 178.373L150.051 193.254L197.089 299.699L230.765 284.817L183.728 178.373Z" fill="#E0E0E0"/>
<path d="M138.587 173.271L114.804 183.78L124.064 204.736L147.847 194.227L138.587 173.271Z" fill="#EBEBEB"/>
<path d="M138.588 173.269L132.92 175.773L142.18 196.729L147.849 194.224L138.588 173.269Z" fill="#E0E0E0"/>
<path d="M185.157 176.278L110.221 209.392L110.761 210.615L185.697 177.501L185.157 176.278Z" fill="#E0E0E0"/>
<path d="M139.407 208.882L133.707 211.401L139.019 223.422L144.72 220.903L139.407 208.882Z" fill="white"/>
<path d="M161.491 219.107C161.547 219.234 154.054 222.669 144.757 226.778C135.456 230.888 127.874 234.117 127.817 233.99C127.761 233.864 135.252 230.43 144.553 226.32C153.852 222.209 161.436 218.98 161.491 219.107Z" fill="#E0E0E0"/>
<path d="M173.378 193.867L167.678 196.386L172.99 208.408L178.691 205.889L173.378 193.867Z" fill="#F5F5F5"/>
<path d="M195.46 204.095C195.515 204.222 188.022 207.657 178.725 211.766C169.424 215.876 161.842 219.106 161.785 218.979C161.73 218.852 169.221 215.418 178.521 211.308C187.819 207.198 195.403 203.968 195.46 204.095Z" fill="#EBEBEB"/>
<path d="M183.924 217.737L178.224 220.256L183.536 232.278L189.236 229.759L183.924 217.737Z" fill="#F5F5F5"/>
<path d="M206.006 227.96C206.062 228.087 198.568 231.522 189.271 235.631C179.97 239.741 172.389 242.97 172.332 242.843C172.276 242.717 179.767 239.283 189.068 235.173C198.367 231.062 205.951 227.833 206.006 227.96Z" fill="#EBEBEB"/>
<path d="M194.789 242.324L189.088 244.843L194.4 256.864L200.101 254.345L194.789 242.324Z" fill="#F5F5F5"/>
<path d="M216.873 252.546C216.928 252.672 209.435 256.107 200.138 260.217C190.837 264.327 183.254 267.556 183.198 267.429C183.143 267.303 190.634 263.869 199.935 259.759C209.233 255.648 216.817 252.419 216.873 252.546Z" fill="#EBEBEB"/>
<path d="M205.654 266.911L199.954 269.43L205.266 281.451L210.966 278.932L205.654 266.911Z" fill="#F5F5F5"/>
<path d="M227.739 277.131C227.795 277.258 220.301 280.693 211.004 284.802C201.703 288.912 194.12 292.14 194.065 292.014C194.009 291.887 201.5 288.453 210.801 284.343C220.098 280.234 227.682 277.005 227.739 277.131Z" fill="#EBEBEB"/>
<path d="M150.117 233.11L144.417 235.629L149.729 247.65L155.429 245.131L150.117 233.11Z" fill="white"/>
<path d="M172.2 243.337C172.256 243.463 164.762 246.898 155.465 251.007C146.164 255.118 138.581 258.346 138.526 258.219C138.47 258.092 145.961 254.659 155.262 250.548C164.56 246.439 172.144 243.21 172.2 243.337Z" fill="#E0E0E0"/>
<path d="M160.84 257.29L155.14 259.809L160.454 271.829L166.153 269.309L160.84 257.29Z" fill="white"/>
<path d="M182.91 267.566C182.965 267.693 175.472 271.128 166.175 275.237C156.874 279.348 149.291 282.576 149.235 282.449C149.18 282.322 156.671 278.888 165.972 274.778C175.269 270.669 182.853 267.44 182.91 267.566Z" fill="#E0E0E0"/>
<path d="M171.549 281.518L165.849 284.038L171.163 296.057L176.863 293.538L171.549 281.518Z" fill="white"/>
<path d="M193.618 291.796C193.674 291.923 186.18 295.358 176.883 299.467C167.582 303.577 159.999 306.805 159.944 306.679C159.888 306.552 167.379 303.118 176.68 299.008C185.977 294.899 193.561 291.67 193.618 291.796Z" fill="#E0E0E0"/>
<path d="M474.22 259.65L446.62 292.03C446.026 292.728 446.109 293.773 446.806 294.368L514.7 352.238C515.404 352.837 516.461 352.746 517.051 352.034L527.002 340.045C527.226 339.776 527.358 339.442 527.381 339.091L528.741 317.774C528.775 317.256 528.564 316.754 528.172 316.415L517.025 306.765C516.336 306.169 516.258 305.13 516.848 304.436L521.021 299.541C521.615 298.843 521.532 297.798 520.835 297.204L476.559 259.465C475.861 258.87 474.814 258.952 474.22 259.65Z" fill="#F5F5F5"/>
<path d="M516.521 311.213L507.663 321.604C507.318 322.009 507.372 322.617 507.784 322.954L522.998 335.46C523.582 335.939 524.463 335.58 524.547 334.83L526.352 318.521C526.387 318.198 526.256 317.88 526.004 317.677L517.84 311.09C517.439 310.767 516.854 310.821 516.521 311.213Z" fill="#EBEBEB"/>
<path d="M516.497 355.478L443.358 293.14L441.434 295.397L514.573 357.735L516.497 355.478Z" fill="#F5F5F5"/>
<path d="M466.789 314.593C463.384 318.588 457.385 319.065 453.389 315.661C449.394 312.256 448.916 306.257 452.321 302.262C455.726 298.267 461.725 297.788 465.72 301.193C469.717 304.598 470.194 310.598 466.789 314.593Z" fill="#EBEBEB"/>
<path d="M463.813 312.057C461.809 314.409 458.277 314.69 455.926 312.686C453.574 310.681 453.294 307.149 455.298 304.799C457.302 302.447 460.834 302.166 463.184 304.17C465.537 306.174 465.817 309.705 463.813 312.057Z" fill="#FAFAFA"/>
<path d="M492.287 333.134C492.104 332.978 498.617 325.038 506.831 315.401C515.048 305.761 521.856 298.074 522.038 298.23C522.221 298.385 515.709 306.324 507.493 315.964C499.278 325.601 492.469 333.289 492.287 333.134Z" fill="#EBEBEB"/>
<path d="M506.208 348.192C502.802 352.187 496.803 352.666 492.808 349.261C488.813 345.855 488.335 339.856 491.741 335.861C495.146 331.866 501.145 331.389 505.14 334.792C509.135 338.198 509.613 344.197 506.208 348.192Z" fill="#EBEBEB"/>
<path d="M503.232 345.655C501.228 348.007 497.696 348.287 495.345 346.283C492.993 344.279 492.712 340.747 494.716 338.397C496.72 336.045 500.251 335.764 502.603 337.768C504.955 339.772 505.236 343.304 503.232 345.655Z" fill="#FAFAFA"/>
<path d="M510.37 328.695C510.214 328.877 509.053 328.142 507.776 327.053C506.497 325.964 505.588 324.934 505.743 324.751C505.898 324.569 507.06 325.304 508.338 326.393C509.615 327.481 510.525 328.512 510.37 328.695Z" fill="#EBEBEB"/>
<path d="M68.4691 250.851C60.1281 239.816 43.5768 238.648 33.7739 249.428C27.6078 256.207 26.3166 266.403 30.5019 274.557C33.118 279.653 37.2477 283.185 41.9428 285.128L41.9324 285.136L42.0347 285.164C43.5975 285.804 45.0841 285.981 46.8734 286.54L67.698 292.459C70.2894 293.195 72.8653 291.248 72.864 288.554L72.8498 267.263C72.8498 267.263 73.0387 263.542 72.8459 261.847V261.769L72.8382 261.774C72.3905 257.936 70.9687 254.159 68.4691 250.851ZM56.4447 272.201C52.0886 275.494 45.8888 274.632 42.5962 270.276C39.3035 265.92 40.1652 259.72 44.5213 256.427C48.8774 253.134 55.0772 253.996 58.3699 258.352C61.6625 262.708 60.8009 268.908 56.4447 272.201Z" fill="#F5F5F5"/>
<path d="M149.081 60.5362C143.643 42.5321 123.083 33.2428 105.5 42.3703C94.441 48.1121 87.9889 60.5091 89.4845 72.8802C90.4199 80.6131 94.0218 87.0638 99.0947 91.755L99.0791 91.7602L99.1956 91.8456C100.888 93.3968 102.7 94.3232 104.72 95.8809L128.492 113.243C131.449 115.404 135.653 114.135 136.921 110.697L146.936 83.5344C146.936 83.5344 148.93 78.8768 149.483 76.6243L149.52 76.526L149.508 76.5299C150.746 71.4195 150.711 65.9326 149.081 60.5362ZM123.684 82.1009C116.576 84.2473 109.075 80.2262 106.928 73.1182C104.782 66.0102 108.803 58.5089 115.911 56.3625C123.019 54.2162 130.52 58.2372 132.667 65.3452C134.813 72.4519 130.792 79.9532 123.684 82.1009Z" fill="#EBEBEB"/>
<path d="M293.607 18.859C294.21 14.4796 288.03 10.8777 283.386 10.5038C281.171 10.3253 278.871 10.6642 276.774 9.93327C272.229 8.34839 270.412 2.47594 265.977 0.606435C262.661 -0.792137 258.843 0.452475 255.63 2.07099C252.416 3.6895 249.239 5.72461 245.647 5.9549C242.523 6.15414 239.13 4.99622 236.398 6.52287C234.361 7.6601 233.294 10.007 231.417 11.3913C229.581 12.7459 227.185 13.0331 224.906 13.1561C222.628 13.2803 220.268 13.3035 218.194 14.2532C216.12 15.2028 214.404 17.3971 214.833 19.6379L293.607 18.859Z" fill="#EBEBEB"/>
<path d="M111.428 135.394C111.003 132.559 106.498 131.446 103.541 132.06C102.131 132.354 100.76 132.984 99.3205 132.913C96.2025 132.756 93.9992 129.434 90.898 129.08C88.5782 128.814 86.4306 130.287 84.7254 131.881C83.0202 133.475 81.4146 135.322 79.2217 136.122C77.3133 136.816 74.991 136.715 73.5692 138.164C72.5096 139.245 72.2741 140.9 71.3581 142.104C70.4628 143.283 69.0241 143.898 67.6281 144.391C66.2322 144.884 64.7689 145.329 63.6511 146.3C62.5333 147.27 61.8657 148.949 62.5423 150.265L111.428 135.394Z" fill="#F5F5F5"/>
<path d="M478.565 182.306C479.636 178.658 474.839 174.807 470.937 173.897C469.076 173.464 467.076 173.459 465.385 172.569C461.721 170.642 460.924 165.415 457.391 163.26C454.749 161.648 451.344 162.221 448.403 163.187C445.462 164.154 442.501 165.481 439.418 165.219C436.736 164.991 433.997 163.573 431.478 164.523C429.6 165.23 428.395 167.091 426.621 168.029C424.886 168.947 422.812 168.885 420.858 168.7C418.905 168.515 416.896 168.235 415.009 168.778C413.123 169.321 411.384 170.97 411.464 172.93L478.565 182.306Z" fill="#F5F5F5"/>
<path d="M425.151 471.001C424.932 467.979 427.463 465.301 430.258 464.007C433.052 462.669 436.195 462.28 439.075 461.114C440.211 460.638 441.476 459.819 441.519 458.609C441.519 456.795 438.988 456.062 438.332 454.377C437.635 452.477 439.599 450.707 440.428 448.85C442.218 444.618 437.764 440.345 433.444 438.617C429.166 436.889 423.972 435.638 421.964 431.493C421.048 429.593 420.96 427.391 420.568 425.318C419.564 420.094 415.679 415.041 410.355 414.178C404.986 413.314 399.049 418.021 399.922 423.289C400.446 426.182 402.629 428.427 403.808 431.104C405.03 433.782 404.681 437.752 401.888 438.617C397.304 439.998 392.896 431.709 389.056 434.558C390.625 439.869 392.153 445.18 393.726 450.534C387.703 453.556 380.5 448.072 377.924 441.855C375.35 435.681 375.262 428.599 372.207 422.641C369.151 416.641 360.902 412.193 355.664 416.423C355.402 424.108 365.661 427.217 370.199 433.435C373.472 437.926 372.992 445.224 368.146 448.072C363.346 450.922 355.708 445.958 357.541 440.732C358.196 438.918 359.723 437.407 359.898 435.464C360.073 433.046 358.021 431.102 356.145 429.549C353.22 427.086 350.296 424.668 347.372 422.252C345.493 420.697 343.487 419.056 341.129 418.365C335.106 416.639 329.082 421.474 325.896 426.785C322.71 432.14 320.919 438.401 316.511 442.847C310.182 449.324 298.179 449.712 292.243 442.934C286.263 436.155 289.318 423.461 298.092 421.001C301.409 420.095 305.6 420.18 307.346 417.286C310.401 412.147 301.671 405.585 304.682 400.404C306.996 396.433 313.106 398.246 317.558 396.907C321.967 395.569 324.454 391.165 327.072 387.365C329.648 383.608 333.708 379.808 338.247 380.802C337.898 378.168 337.549 375.317 338.728 372.943C339.905 370.525 343.224 368.97 345.405 370.525C343.179 374.152 345.841 379.203 349.726 381.016C353.612 382.83 358.15 382.398 362.429 381.923C366.707 381.405 372.075 379.851 372.424 375.619C372.555 374.236 372.032 372.769 372.555 371.474C374.431 366.421 383.86 373.373 387.483 369.314C389.577 367.198 387.264 363.442 384.34 362.751C381.459 362.016 378.447 363.096 375.479 363.183C372.511 363.312 368.887 361.757 368.755 358.822C368.626 355.929 371.899 353.856 372.249 351.007C372.815 346.17 364.522 344.918 361.598 348.847C358.717 352.776 359.721 358.174 360.594 362.966C361.51 367.759 361.946 373.414 358.368 376.783C356.841 379.072 352.869 377.862 351.558 375.444C350.205 373.026 350.512 370.091 350.293 367.371C350.076 364.606 348.853 361.499 346.147 360.764C344.269 360.246 342.261 361.153 340.341 361.412C332.747 362.319 327.465 352.604 329.864 345.436C332.222 338.225 339.119 333.603 345.797 329.936C350.685 327.259 356.753 324.754 361.598 327.474C363.867 328.725 365.438 330.884 367.665 332.18C371.505 334.425 376.263 333.603 380.672 333.691C387.611 333.865 394.464 336.498 399.658 340.988C401.624 342.758 403.457 345.694 401.93 347.81C400.27 350.055 395.515 350.53 396.343 353.164C401.493 354.849 407.649 350.919 408.214 345.608C410.746 346.731 412.579 349.279 412.798 351.998C418.342 346.429 428.992 347.249 433.531 353.682C434.753 355.365 435.625 357.395 437.371 358.562C439.119 359.685 442.173 359.123 442.391 357.092C442.477 356.445 442.26 355.797 442.041 355.193C440.995 352.257 439.904 349.366 438.856 346.471C442.916 344.312 447.717 347.68 450.466 351.307C460.681 364.822 467.971 356.704 482.373 358.907C492.108 360.376 496.386 366.549 501.885 374.02C518.734 396.989 540.994 415.816 556.315 439.821C557.931 442.326 559.414 444.872 560.811 447.463C560.55 446.817 560.331 446.168 560.07 445.521C554.046 429.849 546.583 414.865 537.809 400.747C535.932 397.724 534.012 394.745 532.048 391.809C530.825 389.995 529.56 388.139 528.295 386.369C526.68 384.037 524.976 381.793 523.275 379.547C521.921 377.733 520.568 375.963 519.171 374.236C518.212 373.027 517.208 371.818 516.203 370.609C515.156 369.228 514.02 367.889 512.799 366.549L509.131 362.361C508.782 361.929 508.39 361.497 507.953 361.066C506.687 359.598 505.334 358.174 503.982 356.749C503.894 356.576 503.763 356.446 503.589 356.317C503.241 355.928 502.847 355.539 502.453 355.151C501.362 353.943 500.184 352.776 499.049 351.612C497.173 349.711 495.252 347.812 493.288 345.998C491.673 344.401 490.014 342.889 488.313 341.378C486.829 340.04 485.345 338.701 483.817 337.406C482.333 336.111 480.849 334.858 479.321 333.605C477.488 332.051 475.612 330.54 473.691 329.029H473.647C468.366 324.841 462.91 320.869 457.323 317.156C455.927 316.206 454.573 315.299 453.175 314.392C451.781 313.443 450.34 312.578 448.942 311.715C447.502 310.852 446.106 309.946 444.665 309.125C443.224 308.218 441.785 307.397 440.344 306.577C439.165 305.887 438.032 305.239 436.852 304.635C436.241 304.246 435.673 303.944 435.063 303.641C432.576 302.26 430.044 300.921 427.512 299.67C426.246 299.022 424.98 298.375 423.67 297.77C422.055 296.951 420.396 296.173 418.738 295.44C418.519 295.31 418.256 295.181 417.995 295.093C416.511 294.402 415.027 293.711 413.498 293.063C411.359 292.157 409.221 291.25 407.082 290.386C404.638 289.393 402.193 288.399 399.705 287.493C396.954 286.457 394.205 285.463 391.413 284.558C388.619 283.608 385.781 282.7 382.944 281.837C380.107 280.973 377.27 280.196 374.388 279.42C368.715 277.909 362.954 276.57 357.148 275.404C357.061 275.362 356.929 275.362 356.842 275.318C354.616 274.885 352.39 274.453 350.164 274.109C349.99 274.065 349.858 274.023 349.728 274.023C348.768 273.85 347.764 273.677 346.76 273.548C342.613 272.856 338.423 272.295 334.188 271.821C333.71 271.734 333.184 271.691 332.66 271.647C331.438 271.475 330.216 271.388 328.951 271.259C326.158 271 323.363 270.783 320.526 270.612C317.602 270.396 314.634 270.267 311.665 270.18C308.566 270.049 305.466 270.007 302.368 270.007C294.161 270.007 286.043 270.352 278.011 271.087C276.091 271.216 274.215 271.39 272.337 271.606C270.374 271.822 268.409 272.037 266.445 272.295C264.481 272.554 262.516 272.814 260.594 273.117C258.63 273.418 256.711 273.721 254.745 274.067C253.087 274.325 251.385 274.628 249.725 274.973C245.623 275.751 241.563 276.614 237.548 277.564C235.67 277.996 233.794 278.471 231.917 278.989C230.041 279.464 228.162 279.982 226.329 280.5C223.23 281.363 220.218 282.313 217.206 283.263H217.162C214.718 284.083 212.23 284.903 209.831 285.725C209.787 285.725 209.7 285.769 209.655 285.81C207.167 286.674 204.767 287.581 202.323 288.532C202.191 288.575 202.06 288.618 201.929 288.66C199.704 289.525 197.478 290.431 195.295 291.338C192.544 292.461 189.839 293.671 187.175 294.879C184.906 295.916 182.679 296.952 180.497 298.031C178.14 299.197 175.784 300.363 173.47 301.572C173.382 301.615 173.296 301.659 173.208 301.702C170.982 302.867 168.756 304.076 166.574 305.328C164.305 306.579 162.079 307.875 159.852 309.257H159.808C157.713 310.51 155.661 311.761 153.611 313.057C152.824 313.532 152.083 314.051 151.298 314.568C149.115 315.951 147.019 317.374 144.88 318.843C142.262 320.614 139.73 322.469 137.199 324.327C134.973 325.969 132.79 327.651 130.652 329.335C118.299 339.093 106.775 349.844 96.3432 361.502C92.6326 365.561 89.1407 369.706 85.7368 373.938C82.8556 377.565 80.0623 381.235 77.3984 385.035C78.0971 384.948 78.797 384.862 79.4943 384.819C83.4222 384.517 87.5688 384.647 91.1047 382.962C94.3792 381.364 96.6925 378.472 99.6604 376.399C107.255 371.045 119.696 370.052 121.746 361.07C122.444 358.048 121.614 354.767 122.75 351.874C124.889 346.478 132.178 345.699 138.027 345.787C140.517 345.787 143.44 346.131 144.575 348.29C145.404 349.802 144.923 351.702 144.314 353.3C140.734 363.403 133.489 372.126 124.278 377.651C116.684 382.229 106.774 385.77 104.68 394.318C105.728 397.211 111.052 396.996 111.489 400.017C111.796 402.436 108.653 403.687 107.519 405.847C105.86 408.997 109.657 412.841 113.28 412.667C116.903 412.495 119.914 409.905 122.578 407.486C130.522 400.189 138.858 392.331 141.74 381.969C142.962 377.694 143.398 372.686 146.89 369.836C151.038 366.468 158.457 368.798 159.855 373.938C163.303 372.039 168.672 370.613 170.462 374.154C171.072 375.407 170.9 376.874 171.204 378.213C172.338 383.74 179.978 386.243 180.763 391.814C181.679 398.248 173.344 401.572 166.84 402.566C160.947 403.471 155.053 404.378 149.16 405.328C146.586 405.716 143.923 406.148 141.828 407.659C139.734 409.214 138.425 412.15 139.646 414.439C140.346 415.691 141.698 416.512 142.703 417.547C147.592 422.384 143.575 432.357 136.679 432.573C134.322 432.66 132.009 431.797 129.651 431.71C122.668 431.408 117.124 437.495 113.807 443.583C110.489 449.671 108.001 456.622 102.415 460.767C93.4231 467.46 77.9276 465.906 73.5637 476.181C71.8171 480.327 72.7344 484.988 73.433 489.436C73.5443 490.139 73.6374 490.855 73.7189 491.577H265.599C269.599 489.994 273.929 488.818 277.351 486.282C285.211 480.46 286.256 469.352 291.21 460.967C296.164 452.582 311.677 449.037 313.968 458.48C330.372 423.749 366.623 475.347 388.18 471.468C394.438 470.341 400.556 467.368 406.857 468.239C417.707 469.741 423.433 481.302 427.222 491.579H436.231C435.196 487.991 435.248 484.033 433.135 480.975C430.694 477.392 425.498 475.32 425.151 471.001ZM278.822 316.849C277.131 320.76 277.893 325.625 275.287 329.009C273.219 331.69 269.635 332.638 266.318 333.418C259.368 335.052 252.418 336.688 245.468 338.322C242.378 339.049 239.232 339.797 236.506 341.408C231.039 344.638 228.134 350.74 223.918 355.459C219.705 360.179 212.141 363.543 207.164 359.615C204.769 357.726 203.693 354.604 203.423 351.586C203.032 347.249 204.089 342.796 206.392 339.085C208.768 335.256 212.394 332.242 214.404 328.212C216.416 324.183 216.004 318.285 211.882 316.395C209.653 315.372 206.848 315.774 204.87 314.331C201.315 311.74 203.861 305.617 207.991 304.069C212.121 302.523 216.704 303.721 221.112 303.999C237.101 305.008 248.857 294.652 260.876 286.052C270.224 279.361 290.135 271.461 300.954 278.296C305.27 281.022 306.957 288.033 302.891 291.112C301.071 292.49 298.56 292.798 296.867 294.324C294.834 296.155 294.547 299.163 293.383 301.627C290.36 308.027 281.631 310.352 278.822 316.849Z" fill="#455A64"/>
<g opacity="0.3">
<path d="M275.287 329.009C277.894 325.625 277.132 320.762 278.822 316.849C281.631 310.352 290.359 308.027 293.385 301.627C294.55 299.163 294.837 296.155 296.869 294.325C298.563 292.798 301.073 292.491 302.893 291.112C306.959 288.033 305.272 281.022 300.956 278.296C290.138 271.461 270.227 279.362 260.879 286.052C248.86 294.652 237.103 305.01 221.115 303.999C216.707 303.721 212.123 302.522 207.993 304.069C203.862 305.615 201.318 311.74 204.873 314.332C206.851 315.774 209.656 315.373 211.885 316.395C216.007 318.285 216.418 324.184 214.407 328.212C212.395 332.241 208.771 335.254 206.394 339.085C204.091 342.796 203.034 347.249 203.425 351.586C203.697 354.604 204.772 357.727 207.167 359.615C212.144 363.542 219.707 360.179 223.921 355.459C228.136 350.74 231.042 344.638 236.508 341.408C239.234 339.797 242.381 339.049 245.47 338.322C252.42 336.688 259.369 335.053 266.321 333.419C269.635 332.638 273.219 331.69 275.287 329.009Z" fill="black"/>
<path d="M406.86 468.239C400.559 467.368 394.442 470.341 388.183 471.468C366.626 475.348 330.374 423.749 313.971 458.48C311.678 449.037 296.167 452.582 291.213 460.967C286.259 469.352 285.213 480.459 277.354 486.282C273.932 488.818 269.601 489.994 265.602 491.577H427.228C423.436 481.304 417.708 469.741 406.86 468.239Z" fill="black"/>
<path d="M180.761 391.814C179.975 386.245 172.337 383.74 171.201 378.213C170.897 376.874 171.07 375.407 170.46 374.154C168.669 370.613 163.301 372.039 159.852 373.938C158.455 368.799 151.035 366.469 146.887 369.836C143.395 372.686 142.959 377.694 141.738 381.969C138.855 392.331 130.52 400.189 122.576 407.486C119.913 409.905 116.9 412.495 113.277 412.667C109.655 412.841 105.858 408.997 107.516 405.847C108.651 403.687 111.794 402.435 111.487 400.017C111.051 396.995 105.727 397.211 104.678 394.318C106.772 385.77 116.681 382.229 124.276 377.651C133.485 372.126 140.731 363.403 144.311 353.3C144.921 351.702 145.402 349.802 144.573 348.291C143.437 346.131 140.514 345.787 138.025 345.787C132.176 345.7 124.887 346.478 122.748 351.874C121.612 354.767 122.443 358.049 121.744 361.07C119.693 370.052 107.252 371.044 99.6579 376.399C96.69 378.472 94.3767 381.365 91.1022 382.962C87.5663 384.647 83.421 384.518 79.4918 384.819C78.7945 384.863 78.0946 384.948 77.3959 385.035C74.996 388.338 72.6827 391.706 70.4509 395.128C68.2192 398.55 66.0702 402.025 63.9963 405.545C54.2179 422.082 46.1875 439.742 40.0757 458.308C37.9371 464.763 36.0507 471.327 34.4128 477.986C33.3105 482.473 32.3311 487.008 31.4565 491.58H32.7633C33.6404 488.588 34.2757 485.581 34.8268 482.962C34.9653 482.302 35.0998 481.666 35.2305 481.062C36.6718 474.542 38.8091 467.722 43.9169 463.36C49.0674 459 57.9725 458.481 61.9444 463.922C64.7816 467.808 64.127 473.119 63.3843 477.869C62.6663 482.44 61.9327 487.01 61.1991 491.58H73.71C73.6285 490.858 73.5353 490.141 73.424 489.439C72.7254 484.991 71.8094 480.328 73.5547 476.184C77.9199 465.908 93.4155 467.463 102.406 460.77C107.994 456.625 110.482 449.673 113.798 443.586C117.115 437.498 122.66 431.41 129.642 431.713C132 431.8 134.313 432.663 136.67 432.576C143.566 432.36 147.583 422.386 142.694 417.55C141.69 416.515 140.337 415.694 139.637 414.441C138.416 412.153 139.725 409.217 141.819 407.662C143.915 406.151 146.578 405.719 149.151 405.331C155.044 404.381 160.936 403.474 166.831 402.568C173.34 401.572 181.677 398.248 180.761 391.814Z" fill="black"/>
<path d="M567.794 468.54C566.769 464.977 565.677 461.448 564.514 457.946C563.352 454.443 562.119 450.968 560.809 447.513C560.809 447.513 560.809 447.513 560.809 447.469V447.467C559.411 444.877 557.929 442.331 556.313 439.825C540.992 415.819 518.731 396.993 501.882 374.024C496.384 366.553 492.105 360.379 482.371 358.911C467.967 356.709 460.677 364.827 450.464 351.311C447.716 347.685 442.913 344.317 438.853 346.475C439.901 349.368 440.993 352.26 442.039 355.197C442.257 355.801 442.476 356.449 442.388 357.096C442.169 359.127 439.116 359.689 437.368 358.566C435.623 357.399 434.749 355.37 433.528 353.685C428.988 347.253 418.338 346.431 412.795 352.002C412.577 349.283 410.743 346.734 408.212 345.612C407.646 350.923 401.49 354.852 396.34 353.168C395.512 350.535 400.268 350.059 401.928 347.814C403.454 345.698 401.621 342.762 399.656 340.992C394.463 336.502 387.609 333.867 380.67 333.695C376.26 333.609 371.502 334.429 367.662 332.184C365.435 330.888 363.865 328.729 361.596 327.478C356.75 324.757 350.683 327.261 345.795 329.94C339.116 333.609 332.219 338.23 329.862 345.44C327.462 352.607 332.744 362.321 340.339 361.416C342.259 361.156 344.267 360.25 346.144 360.768C348.851 361.502 350.073 364.61 350.291 367.375C350.509 370.094 350.203 373.03 351.556 375.448C352.865 377.866 356.837 379.076 358.365 376.787C361.945 373.419 361.508 367.763 360.592 362.97C359.718 358.177 358.714 352.779 361.596 348.851C364.519 344.921 372.814 346.174 372.246 351.011C371.897 353.86 368.623 355.933 368.753 358.826C368.885 361.761 372.507 363.316 375.476 363.187C378.444 363.1 381.456 362.02 384.338 362.755C387.263 363.446 389.576 367.203 387.48 369.318C383.858 373.377 374.429 366.425 372.553 371.478C372.029 372.773 372.553 374.24 372.422 375.623C372.073 379.855 366.705 381.407 362.426 381.927C358.149 382.402 353.609 382.834 349.724 381.02C345.839 379.206 343.176 374.156 345.403 370.529C343.22 368.974 339.903 370.529 338.725 372.947C337.547 375.321 337.895 378.171 338.244 380.806C333.706 379.813 329.646 383.612 327.07 387.369C324.451 391.169 321.963 395.573 317.555 396.911C313.104 398.25 306.993 396.436 304.68 400.408C301.668 405.589 310.397 412.152 307.344 417.29C305.597 420.183 301.407 420.098 298.089 421.005C289.316 423.465 286.26 436.16 292.24 442.938C298.177 449.716 310.18 449.329 316.509 442.851C320.918 438.405 322.707 432.144 325.894 426.789C329.079 421.478 335.103 416.643 341.127 418.369C343.484 419.061 345.491 420.7 347.369 422.256C350.293 424.672 353.217 427.092 356.142 429.553C358.018 431.106 360.07 433.05 359.896 435.468C359.721 437.411 358.193 438.922 357.538 440.736C355.705 445.96 363.343 450.924 368.143 448.075C372.99 445.227 373.468 437.93 370.197 433.439C365.657 427.221 355.398 424.112 355.661 416.427C360.899 412.196 369.149 416.643 372.204 422.645C375.259 428.603 375.347 435.685 377.922 441.859C380.498 448.075 387.7 453.56 393.724 450.538C392.152 445.184 390.624 439.873 389.053 434.562C392.893 431.713 397.301 440.002 401.885 438.621C404.678 437.756 405.028 433.786 403.805 431.108C402.626 428.431 400.444 426.186 399.92 423.293C399.046 418.025 404.984 413.318 410.353 414.182C415.677 415.047 419.562 420.099 420.566 425.322C420.958 427.394 421.046 429.596 421.962 431.497C423.97 435.642 429.164 436.893 433.441 438.621C437.763 440.348 442.216 444.622 440.425 448.854C439.596 450.711 437.632 452.481 438.329 454.381C438.985 456.066 441.516 456.798 441.516 458.613C441.473 459.822 440.208 460.642 439.072 461.118C436.192 462.284 433.048 462.672 430.255 464.011C427.462 465.305 424.93 467.983 425.148 471.005C425.496 475.322 430.691 477.395 433.135 480.979C435.248 484.037 435.196 487.995 436.231 491.583H468.185C467.038 489.285 465.901 486.996 464.737 484.693C467.312 482.534 471.415 483.44 474.078 485.556C476.127 487.212 477.563 489.448 479.116 491.584H573.261C571.775 483.785 569.958 476.095 567.794 468.54Z" fill="black"/>
</g>
<path d="M293.385 301.627C294.55 299.163 294.837 296.155 296.869 294.325C298.563 292.798 301.073 292.491 302.893 291.112C306.959 288.033 305.272 281.022 300.956 278.296C290.138 271.461 270.227 279.362 260.879 286.052C248.86 294.652 237.103 305.01 221.115 303.999C216.707 303.721 212.123 302.522 207.993 304.069C203.862 305.615 201.318 311.74 204.873 314.332C206.851 315.774 209.656 315.373 211.885 316.395C216.007 318.285 216.418 324.184 214.407 328.212C212.395 332.241 208.771 335.255 206.394 339.085C204.091 342.796 203.034 347.249 203.425 351.586C203.697 354.604 204.772 357.727 207.167 359.615C212.144 363.542 219.707 360.179 223.921 355.459C228.136 350.74 231.042 344.638 236.508 341.408C239.234 339.797 242.381 339.049 245.47 338.322C252.42 336.688 259.369 335.053 266.321 333.419C269.638 332.638 273.222 331.69 275.289 329.009C277.896 325.625 277.134 320.762 278.825 316.849C281.631 310.352 290.36 308.027 293.385 301.627Z" fill="#263238"/>
<path d="M406.86 468.239C400.559 467.368 394.442 470.341 388.183 471.468C366.626 475.348 330.374 423.749 313.971 458.48C311.678 449.037 296.167 452.582 291.213 460.967C286.259 469.352 285.213 480.459 277.354 486.282C273.932 488.818 269.601 489.994 265.602 491.577H427.228C423.436 481.303 417.708 469.741 406.86 468.239Z" fill="#263238"/>
<path d="M564.516 457.946C563.354 454.443 562.121 450.968 560.81 447.513C560.81 447.513 560.81 447.513 560.81 447.469V447.467C559.413 444.877 557.93 442.331 556.314 439.825C540.993 415.819 518.733 396.993 501.884 374.024C496.385 366.553 492.107 360.38 482.372 358.911C467.969 356.709 460.678 364.828 450.465 351.311C447.717 347.685 442.915 344.317 438.855 346.475C439.903 349.368 440.995 352.26 442.04 355.197C442.259 355.801 442.478 356.449 442.39 357.096C442.171 359.127 439.118 359.689 437.37 358.566C435.624 357.399 434.751 355.37 433.53 353.686C428.99 347.253 418.34 346.431 412.797 352.002C412.578 349.283 410.745 346.734 408.213 345.612C407.648 350.923 401.492 354.853 396.342 353.168C395.513 350.535 400.269 350.059 401.929 347.814C403.456 345.698 401.623 342.762 399.657 340.992C394.464 336.502 387.611 333.868 380.671 333.695C376.262 333.609 371.504 334.429 367.664 332.184C365.437 330.888 363.866 328.729 361.597 327.478C356.752 324.757 350.684 327.261 345.796 329.94C339.118 333.609 332.221 338.23 329.863 345.44C327.464 352.607 332.746 362.322 340.34 361.416C342.26 361.156 344.268 360.25 346.146 360.768C348.852 361.503 350.075 364.61 350.292 367.375C350.511 370.095 350.204 373.03 351.557 375.448C352.867 377.866 356.839 379.076 358.367 376.787C361.947 373.419 361.509 367.763 360.593 362.97C359.72 358.178 358.716 352.779 361.597 348.851C364.521 344.922 372.816 346.174 372.248 351.011C371.898 353.86 368.625 355.933 368.754 358.826C368.886 361.761 372.509 363.316 375.478 363.187C378.446 363.1 381.458 362.02 384.339 362.755C387.264 363.446 389.578 367.203 387.482 369.318C383.859 373.377 374.43 366.425 372.554 371.478C372.03 372.773 372.554 374.24 372.423 375.623C372.074 379.855 366.706 381.407 362.428 381.927C358.151 382.402 353.611 382.834 349.725 381.02C345.84 379.207 343.178 374.156 345.404 370.529C343.222 368.974 339.904 370.529 338.727 372.947C337.548 375.321 337.897 378.172 338.246 380.806C333.707 379.813 329.647 383.612 327.071 387.369C324.453 391.169 321.965 395.573 317.557 396.911C313.105 398.25 306.995 396.436 304.681 400.408C301.669 405.589 310.399 412.153 307.345 417.29C305.599 420.183 301.408 420.098 298.091 421.005C289.318 423.465 286.262 436.16 292.242 442.938C298.179 449.716 310.181 449.329 316.51 442.851C320.92 438.405 322.709 432.144 325.895 426.789C329.081 421.478 335.105 416.643 341.128 418.369C343.486 419.061 345.492 420.701 347.371 422.256C350.295 424.672 353.219 427.092 356.144 429.553C358.02 431.106 360.072 433.05 359.897 435.468C359.722 437.411 358.195 438.922 357.54 440.736C355.707 445.96 363.345 450.924 368.145 448.076C372.991 445.227 373.47 437.93 370.198 433.439C365.658 427.221 355.4 424.112 355.663 416.427C360.901 412.197 369.15 416.643 372.206 422.645C375.261 428.603 375.349 435.685 377.923 441.859C380.499 448.076 387.702 453.56 393.725 450.538C392.154 445.184 390.626 439.873 389.055 434.562C392.895 431.713 397.303 440.002 401.887 438.621C404.68 437.756 405.029 433.786 403.807 431.108C402.628 428.431 400.445 426.186 399.921 423.293C399.048 418.025 404.985 413.318 410.354 414.183C415.678 415.047 419.563 420.099 420.567 425.322C420.959 427.395 421.047 429.597 421.963 431.497C423.971 435.642 429.166 436.893 433.443 438.621C437.764 440.348 442.218 444.622 440.427 448.854C439.598 450.711 437.634 452.481 438.331 454.381C438.987 456.066 441.518 456.798 441.518 458.613C441.475 459.822 440.21 460.642 439.074 461.118C436.194 462.284 433.05 462.672 430.257 464.011C427.463 465.305 424.931 467.983 425.15 471.005C425.498 475.322 430.693 477.395 433.136 480.979C435.249 484.037 435.197 487.995 436.232 491.583H468.186C467.04 489.285 465.903 486.996 464.738 484.693C467.314 482.534 471.417 483.44 474.079 485.556C476.129 487.212 477.565 489.448 479.117 491.584H573.263C571.774 483.79 569.957 476.1 567.793 468.546C566.769 464.977 565.677 461.449 564.516 457.946Z" fill="#263238"/>
<path d="M474.08 485.552C471.416 483.437 467.314 482.531 464.739 484.689C465.904 486.993 467.041 489.281 468.187 491.579H479.118C477.566 489.443 476.13 487.208 474.08 485.552Z" fill="#455A64"/>
<path d="M73.5586 476.183C77.9238 465.906 93.4193 467.462 102.41 460.769C107.998 456.624 110.486 449.672 113.801 443.585C117.119 437.496 122.664 431.409 129.646 431.712C132.004 431.799 134.317 432.662 136.674 432.575C143.57 432.359 147.587 422.385 142.698 417.549C141.694 416.514 140.341 415.692 139.641 414.44C138.419 412.151 139.729 409.216 141.823 407.661C143.919 406.149 146.582 405.717 149.155 405.329C155.048 404.38 160.94 403.473 166.835 402.567C173.338 401.573 181.676 398.25 180.758 391.816C179.973 386.246 172.334 383.741 171.199 378.214C170.894 376.875 171.068 375.408 170.457 374.156C168.667 370.615 163.299 372.04 159.85 373.94C158.452 368.801 151.032 366.471 146.885 369.837C143.393 372.687 142.957 377.695 141.735 381.97C138.853 392.332 130.517 400.19 122.573 407.487C119.911 409.907 116.897 412.497 113.275 412.669C109.652 412.842 105.855 408.998 107.514 405.848C108.648 403.689 111.791 402.436 111.484 400.018C111.048 396.996 105.724 397.212 104.675 394.319C106.77 385.771 116.679 382.23 124.273 377.653C133.482 372.127 140.729 363.404 144.309 353.301C144.918 351.704 145.399 349.803 144.57 348.292C143.434 346.133 140.511 345.788 138.022 345.788C132.173 345.702 124.884 346.479 122.745 351.876C121.609 354.769 122.44 358.051 121.741 361.072C119.691 370.053 107.25 371.045 99.6553 376.4C96.6874 378.473 94.3741 381.366 91.0996 382.964C87.5637 384.648 83.4184 384.519 79.4892 384.82C78.7919 384.864 78.092 384.95 77.3933 385.036C74.9934 388.339 72.6801 391.707 70.4483 395.129C68.2166 398.551 66.0676 402.026 63.9937 405.547C54.2153 422.084 46.1849 439.744 40.0731 458.309C37.9345 464.764 36.0481 471.329 34.4102 477.988C33.3079 482.474 32.3285 487.009 31.4539 491.581H32.7607C33.6378 488.589 34.2731 485.582 34.8242 482.964C34.9627 482.304 35.0972 481.667 35.2279 481.063C36.6692 474.544 38.8065 467.723 43.9143 463.362C49.0648 459.002 57.9699 458.483 61.9418 463.923C64.779 467.81 64.1244 473.12 63.3817 477.87C62.6637 482.441 61.9301 487.012 61.1966 491.581H73.7074C73.6259 490.859 73.5327 490.143 73.4214 489.44C72.7293 484.99 71.812 480.328 73.5586 476.183Z" fill="#263238"/>
<path d="M61.9483 463.92C57.9764 458.48 49.0713 458.999 43.9208 463.359C38.8143 467.72 36.6757 474.542 35.2344 481.06C35.1037 481.664 34.9692 482.301 34.8308 482.961C34.2796 485.579 33.6444 488.585 32.7672 491.579H61.2031C61.9366 487.008 62.6702 482.437 63.3883 477.867C64.1309 473.117 64.7855 467.807 61.9483 463.92Z" fill="#455A64"/>
<path d="M238.188 444.057C238.787 439.708 232.646 436.129 228.034 435.756C225.833 435.579 223.549 435.915 221.464 435.188C216.949 433.614 215.144 427.78 210.739 425.922C207.445 424.533 203.653 425.77 200.459 427.377C197.266 428.983 194.109 431.007 190.542 431.235C187.438 431.434 184.068 430.282 181.353 431.799C179.33 432.928 178.27 435.26 176.406 436.635C174.582 437.98 172.201 438.265 169.938 438.389C167.674 438.512 165.331 438.535 163.27 439.479C161.209 440.422 159.504 442.602 159.931 444.828L238.188 444.057Z" fill="#FAFAFA"/>
<path d="M258.308 413.028C258.719 410.049 254.514 407.598 251.354 407.344C249.848 407.222 248.283 407.452 246.856 406.955C243.764 405.878 242.528 401.883 239.511 400.61C237.255 399.659 234.658 400.505 232.472 401.606C230.285 402.707 228.123 404.091 225.681 404.248C223.555 404.383 221.248 403.596 219.388 404.633C218.002 405.407 217.276 407.003 215.999 407.945C214.75 408.866 213.121 409.062 211.569 409.146C210.02 409.23 208.414 409.245 207.002 409.892C205.591 410.539 204.423 412.031 204.716 413.556L258.308 413.028Z" fill="#FAFAFA"/>
<path d="M154.413 273.135C154.418 273.145 154.306 273.223 154.079 273.366C153.819 273.526 153.486 273.731 153.066 273.987C152.13 274.544 150.814 275.325 149.14 276.319C148.281 276.823 147.331 277.381 146.295 277.989C145.273 278.633 144.164 279.332 142.975 280.081C140.606 281.603 137.854 283.251 134.957 285.294C133.493 286.293 131.96 287.338 130.363 288.427C128.769 289.522 127.175 290.751 125.488 291.972C122.091 294.385 118.633 297.189 114.954 300.087C107.714 306.027 100.007 312.869 92.3794 320.53C84.7991 328.242 78.0378 336.024 72.1745 343.329C69.3152 347.038 66.5491 350.527 64.1725 353.951C62.9692 355.651 61.757 357.259 60.6793 358.863C59.608 360.471 58.5782 362.016 57.5949 363.491C55.5831 366.41 53.9659 369.178 52.4703 371.564C51.7341 372.761 51.0471 373.876 50.4145 374.906C49.8167 375.949 49.2695 376.905 48.7752 377.768C47.7997 379.452 47.0325 380.776 46.4865 381.719C46.2343 382.141 46.0324 382.477 45.8759 382.738C45.7349 382.966 45.6572 383.08 45.6482 383.075C45.6378 383.07 45.6948 382.944 45.8151 382.706C45.9561 382.437 46.1385 382.089 46.3675 381.654C46.8876 380.695 47.6173 379.351 48.5475 377.64C49.0275 376.766 49.558 375.8 50.1376 374.744C50.7366 373.696 51.4275 372.581 52.1481 371.37C53.6153 368.964 55.2079 366.173 57.1964 363.232C58.1693 361.747 59.1888 360.192 60.2497 358.572C61.3184 356.956 62.5216 355.337 63.7171 353.627C66.0782 350.183 68.8339 346.673 71.6867 342.944C77.5359 335.601 84.2997 327.788 91.8994 320.056C99.5456 312.378 107.285 305.531 114.562 299.604C118.26 296.713 121.739 293.919 125.157 291.521C126.855 290.306 128.46 289.086 130.064 288C131.673 286.921 133.216 285.886 134.691 284.897C137.61 282.876 140.384 281.253 142.774 279.76C143.978 279.025 145.085 278.323 146.127 277.712C147.176 277.121 148.136 276.58 149.004 276.091C150.707 275.143 152.043 274.399 152.997 273.868C153.43 273.636 153.774 273.449 154.042 273.306C154.284 273.183 154.408 273.124 154.413 273.135Z" fill="#263238"/>
<path d="M186.27 245.939C186.276 245.961 186.011 246.059 185.501 246.223C184.922 246.402 184.18 246.631 183.263 246.913C182.288 247.197 181.097 247.554 179.729 248.014C178.358 248.465 176.785 248.939 175.079 249.562C171.642 250.735 167.603 252.282 163.181 254.145C158.775 256.044 153.994 258.281 149.098 260.871C144.214 263.487 139.689 266.204 135.651 268.8C131.635 271.427 128.097 273.914 125.204 276.111C123.733 277.177 122.462 278.218 121.322 279.102C120.177 279.982 119.217 280.77 118.436 281.419C117.691 282.022 117.087 282.508 116.614 282.89C116.193 283.221 115.964 283.387 115.949 283.369C115.934 283.351 116.133 283.151 116.526 282.788C116.978 282.382 117.555 281.862 118.268 281.22C119.025 280.538 119.963 279.719 121.087 278.811C122.207 277.896 123.461 276.826 124.916 275.733C127.78 273.482 131.301 270.947 135.313 268.281C139.346 265.648 143.882 262.904 148.784 260.277C153.699 257.678 158.507 255.449 162.942 253.574C167.394 251.736 171.463 250.23 174.929 249.112C176.648 248.516 178.237 248.073 179.62 247.654C181.002 247.228 182.206 246.909 183.193 246.662C184.125 246.429 184.878 246.241 185.466 246.094C185.987 245.97 186.263 245.917 186.27 245.939Z" fill="#263238"/>
<path d="M27.1743 384.876C17.6689 380.093 5.8464 384.909 2.74264 395.681C0.790329 402.456 3.36365 409.932 9.02133 414.138C12.5585 416.767 16.6093 417.802 20.5101 417.549L20.5062 417.558L20.5864 417.544C21.8815 417.453 22.9682 417.07 24.394 416.849L40.7796 413.859C42.8186 413.486 43.9351 411.267 43.0192 409.408L35.7753 394.716C35.7753 394.716 34.6407 392.083 33.933 390.979L33.9071 390.925L33.9045 390.932C32.2886 388.432 30.0232 386.309 27.1743 384.876ZM26.1276 403.698C24.24 407.45 19.6665 408.962 15.9146 407.073C12.1626 405.185 10.6502 400.612 12.5391 396.86C14.4267 393.107 19.0002 391.596 22.7522 393.485C26.5041 395.372 28.0165 399.944 26.1276 403.698Z" fill="#FF725E"/>
<path d="M448.121 270.184C453.403 260.946 449.225 248.884 438.635 245.21C431.975 242.898 424.371 245.069 419.869 250.495C417.055 253.886 415.805 257.876 415.85 261.786L415.843 261.781L415.853 261.862C415.874 263.161 416.198 264.266 416.343 265.701L418.455 282.222C418.717 284.278 420.874 285.511 422.78 284.696L437.837 278.247C437.837 278.247 440.526 277.254 441.666 276.606L441.721 276.583L441.714 276.579C444.297 275.101 446.537 272.952 448.121 270.184ZM429.382 268.136C425.736 266.05 424.471 261.403 426.556 257.757C428.642 254.111 433.289 252.845 436.935 254.931C440.582 257.017 441.847 261.664 439.762 265.31C437.675 268.956 433.029 270.221 429.382 268.136Z" fill="#FF725E"/>
<path d="M190.427 261.713C186.78 256.391 179.092 255.486 174.289 260.297C171.268 263.321 170.446 268.045 172.218 271.935C173.327 274.366 175.174 276.103 177.319 277.11L177.314 277.114L177.361 277.13C178.075 277.461 178.765 277.576 179.586 277.876L189.161 281.088C190.353 281.487 191.596 280.636 191.653 279.38L192.109 269.458C192.109 269.458 192.277 267.728 192.225 266.934L192.226 266.897L192.222 266.9C192.1 265.1 191.52 263.308 190.427 261.713ZM184.359 271.401C182.258 272.841 179.387 272.304 177.947 270.203C176.507 268.102 177.044 265.231 179.145 263.791C181.246 262.351 184.117 262.888 185.557 264.989C186.997 267.091 186.461 269.961 184.359 271.401Z" fill="#FF725E"/>
<path d="M323.155 419.055C323.155 412.603 317.324 407.512 310.643 408.765C306.441 409.553 303.093 412.986 302.356 417.197C301.896 419.83 302.439 422.306 303.641 424.349H303.635L303.664 424.388C304.067 425.064 304.57 425.549 305.079 426.261L311.163 434.321C311.92 435.324 313.427 435.324 314.184 434.321L320.168 426.393C320.168 426.393 321.284 425.06 321.689 424.376L321.711 424.348H321.707C322.622 422.795 323.155 420.989 323.155 419.055ZM312.674 423.618C310.127 423.618 308.062 421.553 308.062 419.006C308.062 416.458 310.127 414.393 312.674 414.393C315.222 414.393 317.287 416.458 317.287 419.006C317.287 421.553 315.222 423.618 312.674 423.618Z" fill="#FF725E"/>
<path d="M561.984 385.45C566.947 381.326 567.135 373.587 561.901 369.251C558.608 366.523 553.829 366.14 550.12 368.266C547.801 369.595 546.244 371.595 545.439 373.825L545.435 373.822L545.423 373.87C545.159 374.611 545.109 375.308 544.886 376.154L542.576 385.986C542.288 387.21 543.251 388.368 544.506 388.309L554.428 387.845C554.428 387.845 556.167 387.853 556.952 387.727L556.988 387.726L556.986 387.722C558.767 387.43 560.496 386.686 561.984 385.45ZM551.776 380.305C550.148 378.346 550.416 375.438 552.376 373.81C554.335 372.182 557.243 372.45 558.871 374.41C560.498 376.369 560.231 379.277 558.272 380.905C556.312 382.533 553.405 382.265 551.776 380.305Z" fill="#FF725E"/>
<path d="M273.72 113.353L313.029 101.852L318.347 115.222L272.71 122.724L273.72 113.353Z" fill="#FFBE9D"/>
<path d="M273.72 113.353C273.72 113.353 266.126 113.858 265.367 114.339C264.609 114.82 256.748 115.234 256.738 116.343C256.728 117.452 257.109 116.876 258.363 116.956C259.617 117.036 262.595 116.576 262.634 117.108C262.674 117.641 253.439 119.109 253.141 119.505C252.844 119.901 252.041 120.293 253.192 120.615C253.192 120.615 251.765 121.31 252.068 122.157C252.371 123.003 253.03 123.675 253.874 123.594C254.718 123.513 261.556 123.267 261.556 123.267C261.556 123.267 254.007 123.64 254.044 124.394C254.081 125.149 253.816 125.058 254.743 125.599C255.67 126.141 260.641 126.143 260.641 126.143L266.414 124.982C266.414 124.982 262.364 126.959 261.869 127.753C261.373 128.547 261.093 130.009 261.887 130.505C262.681 131.001 262.998 130.294 263.581 129.677C264.164 129.062 269.158 126.624 270.052 125.966C270.946 125.309 275.38 121.046 275.38 121.046L273.72 113.353Z" fill="#FFBE9D"/>
<path d="M349.33 49.7676C349.565 49.4296 349.932 49.2064 350.308 49.0382C351.534 48.4891 352.973 48.4339 354.237 48.8874C353.573 47.8476 352.926 46.7588 352.704 45.5449C352.483 44.331 352.764 42.9542 353.704 42.1559C354.63 41.3688 355.973 41.2989 357.173 41.4895C358.841 41.7541 360.472 42.4766 361.62 43.7155C362.767 44.9543 363.371 46.7441 362.98 48.3865L359.551 51.0858C358.563 52.3609 357.226 53.3644 355.725 53.9558C355.039 54.2265 354.175 54.3826 353.629 53.8843C353.166 53.461 353.145 52.7066 353.411 52.1376C353.677 51.5686 354.167 51.141 354.642 50.7306C353.362 51.3203 351.933 51.585 350.526 51.4927C350.039 51.4608 349.49 51.347 349.234 50.9297C349.02 50.5806 349.095 50.1064 349.33 49.7676Z" fill="#263238"/>
<path d="M353.044 42.249C353.04 42.2922 353.659 42.3094 354.607 42.5741C355.548 42.8318 356.82 43.3931 357.924 44.4035C359.029 45.4148 359.699 46.6321 360.038 47.5477C360.385 48.4684 360.456 49.0831 360.499 49.0754C360.513 49.0736 360.51 48.9185 360.472 48.6426C360.435 48.3658 360.352 47.9684 360.195 47.4916C359.89 46.5433 359.224 45.2725 358.084 44.2294C356.945 43.1862 355.621 42.6336 354.649 42.4129C354.161 42.2991 353.758 42.2508 353.478 42.2387C353.199 42.224 353.045 42.2344 353.044 42.249Z" fill="#455A64"/>
<path d="M359.383 50.5133C359.492 50.2047 359.709 49.9486 359.922 49.6995C360.776 48.702 361.708 47.6536 362.977 47.3148C363.2 47.2553 363.46 47.226 363.645 47.3657C363.938 47.5872 363.833 48.0657 363.598 48.3485C363.364 48.6313 363.029 48.8382 362.871 49.1701L361.014 51.109C360.839 51.3384 360.607 51.5358 360.33 51.616C360.052 51.6961 359.726 51.6418 359.526 51.4349C359.297 51.1996 359.275 50.8219 359.383 50.5133Z" fill="#455A64"/>
<path d="M352.144 67.5231C352.712 64.5341 353.302 61.5322 354.376 58.6854C355.45 55.8387 357.041 53.1307 359.343 51.1409C359.692 50.8392 362.289 48.9563 362.67 49.2175C362.942 49.4038 360.9 51.3694 360.908 51.6987C360.987 54.8438 359.79 57.9173 358.06 60.5433C356.328 63.1702 354.398 65.329 352.144 67.5231Z" fill="#263238"/>
<path d="M344.989 80.5663L357.467 57.2044C360.921 50.4005 367.759 46.7391 374.465 50.3798L375.168 50.8169C381.15 54.531 383.276 62.2142 380.055 68.4741C377.015 74.3832 373.566 80.9026 371.652 83.9019C367.712 90.0739 360.891 87.178 360.891 87.178C360.876 87.1702 358.44 91.4455 357.386 93.3181C357.386 93.3181 356.432 93.8526 350.454 90.5644C344.474 87.2745 344.989 80.5663 344.989 80.5663Z" fill="#FFBE9D"/>
<path d="M360.892 87.1781C360.892 87.1781 356.829 84.9728 354.28 79.7543C354.28 79.7543 353.446 85.5038 359.999 88.798L360.892 87.1781Z" fill="#EB996E"/>
<path d="M375.737 72.2297C375.462 72.709 374.83 72.872 374.324 72.5944C373.818 72.3168 373.63 71.7038 373.905 71.2244C374.18 70.7451 374.812 70.5813 375.318 70.8589C375.823 71.1365 376.011 71.7503 375.737 72.2297Z" fill="#263238"/>
<path d="M377.268 69.9982C377.086 70.0456 376.722 69.13 375.765 68.5386C374.818 67.9342 373.811 67.9903 373.78 67.8092C373.761 67.7256 374.003 67.5859 374.446 67.554C374.884 67.5196 375.531 67.6221 376.125 67.9946C376.718 68.3679 377.083 68.8981 377.232 69.3007C377.385 69.7085 377.355 69.9801 377.268 69.9982Z" fill="#263238"/>
<path d="M366.71 67.2529C366.435 67.7323 365.803 67.8952 365.297 67.6167C364.792 67.34 364.604 66.727 364.879 66.2477C365.154 65.7683 365.787 65.6054 366.291 65.8821C366.797 66.1597 366.984 66.7736 366.71 67.2529Z" fill="#263238"/>
<path d="M367.565 64.7428C367.383 64.7902 367.018 63.8738 366.061 63.2832C365.114 62.6798 364.107 62.7349 364.076 62.5539C364.057 62.4703 364.298 62.3306 364.742 62.2987C365.18 62.2642 365.827 62.3668 366.421 62.7392C367.014 63.1125 367.378 63.6428 367.528 64.0454C367.681 64.4523 367.651 64.7239 367.565 64.7428Z" fill="#263238"/>
<path d="M366.334 74.383C366.363 74.3261 367.021 74.5924 368.06 75.0666C368.319 75.1934 368.58 75.2882 368.725 75.1468C368.892 75.0063 368.954 74.6795 369.011 74.3226C369.149 73.5898 369.293 72.8208 369.444 72.0156C370.086 68.7472 370.711 66.1203 370.843 66.1471C370.975 66.1746 370.562 68.8455 369.92 72.1138C369.756 72.9165 369.6 73.6812 369.45 74.4131C369.37 74.7476 369.334 75.1615 368.982 75.4494C368.803 75.5908 368.542 75.6123 368.36 75.5572C368.173 75.508 368.035 75.4253 367.91 75.3572C366.908 74.808 366.304 74.4399 366.334 74.383Z" fill="#263238"/>
<path d="M369.43 62.5865C369.153 62.7564 368.366 61.9399 367.237 61.2382C366.121 60.514 365.049 60.1493 365.084 59.826C365.106 59.6743 365.431 59.5665 365.952 59.6045C366.469 59.6407 367.177 59.8467 367.85 60.2735C368.523 60.7019 369.01 61.2537 369.263 61.7072C369.519 62.1632 369.559 62.5029 369.43 62.5865Z" fill="#263238"/>
<path d="M378.605 68.0216C378.274 68.1156 377.652 67.4121 376.74 66.8258C375.847 66.212 374.954 65.9085 374.917 65.5697C374.907 65.4111 375.166 65.2705 375.634 65.2783C376.096 65.2843 376.761 65.4688 377.381 65.8801C378.001 66.293 378.425 66.8319 378.606 67.2543C378.79 67.6802 378.756 67.9699 378.605 68.0216Z" fill="#263238"/>
<path d="M355.115 62.1244C355.038 62.0124 351.626 58.2061 349.122 62.5426C346.617 66.8791 351.488 68.4999 351.567 68.38C351.646 68.2602 355.115 62.1244 355.115 62.1244Z" fill="#FFBE9D"/>
<path d="M351.191 65.9724C351.18 65.9474 351.085 65.9819 350.924 65.9664C350.767 65.9517 350.53 65.8672 350.352 65.6517C349.991 65.2189 350.025 64.2688 350.456 63.4748C350.673 63.0739 350.973 62.7454 351.293 62.5153C351.608 62.2747 351.942 62.1713 352.196 62.2635C352.457 62.3428 352.54 62.5756 352.522 62.7282C352.51 62.8834 352.432 62.9541 352.451 62.9748C352.457 62.9929 352.587 62.9558 352.655 62.7567C352.687 62.6601 352.695 62.5282 352.641 62.3859C352.586 62.2411 352.457 62.1101 352.287 62.0342C351.939 61.8644 351.46 61.998 351.109 62.2506C350.738 62.4946 350.393 62.8575 350.149 63.3084C349.672 64.1981 349.647 65.2741 350.169 65.8181C350.428 66.0741 350.736 66.1293 350.926 66.1026C351.123 66.0724 351.201 65.9888 351.191 65.9724Z" fill="#EB996E"/>
<path d="M381.268 59.7649C382.194 59.7752 381.37 56.2922 380.081 54.5249C378.134 51.854 374.548 48.8573 371.744 48.1753C368.369 47.3546 365.134 47.4339 362.176 49.2547C359.219 51.0755 356.924 53.849 355.298 56.9181C354.803 57.8544 354.354 58.87 354.405 59.9287C354.469 61.2365 355.293 62.5047 354.49 63.8048C354.196 64.2798 354.057 64.8488 354.19 65.3911C354.507 66.6912 355.934 66.4455 356.835 65.9006C358.759 64.7359 360.019 62.7582 361.21 60.8503C362.057 59.4942 362.917 58.1062 363.28 56.5492C363.478 55.7017 363.524 54.8214 363.769 53.9869C364.014 53.1515 364.509 52.3282 365.309 51.9859C365.44 51.9307 365.633 51.8764 365.866 51.8281C367.713 51.4445 369.624 52.0989 370.862 53.5222C372.825 55.7793 376.282 59.4485 377.848 59.2347C380.101 58.9278 380.92 58.3596 380.92 58.3596L381.268 59.7649Z" fill="#263238"/>
<path d="M372.307 47.7133C375.156 48.2676 377.859 49.8522 379.442 52.2843C380.283 53.5749 380.799 55.1698 380.432 56.6656C380.065 58.1614 378.615 59.4374 377.088 59.2408L376.972 59.246C374.758 58.8192 373.691 57.8864 372.2 56.1949C370.946 54.7724 370.104 53.024 368.843 51.6075C367.502 50.1014 365.7 49.0116 363.744 48.5228C366.482 47.5693 369.459 47.1589 372.307 47.7133Z" fill="#263238"/>
<path d="M364.599 48.1665C364.599 48.1881 364.844 48.1795 365.274 48.2467C365.702 48.3131 366.318 48.4847 366.991 48.8709C367.667 49.252 368.384 49.8555 369.02 50.6641C369.665 51.4676 370.232 52.4556 370.805 53.5083C371.377 54.5609 371.935 55.5705 372.571 56.4076C373.199 57.2499 373.912 57.9017 374.588 58.3215C375.264 58.7466 375.888 58.9509 376.325 59.0293C376.543 59.0716 376.715 59.0871 376.832 59.0897C376.948 59.0931 377.009 59.0906 377.01 59.0819C377.03 59.0293 375.988 59.0543 374.68 58.181C374.031 57.7534 373.352 57.1103 372.746 56.2774C372.131 55.4498 371.586 54.4489 371.012 53.3945C370.44 52.341 369.858 51.3409 369.19 50.5271C368.53 49.708 367.778 49.0959 367.072 48.7243C366.368 48.3459 365.727 48.1941 365.286 48.1553C365.065 48.1321 364.892 48.1329 364.776 48.1415C364.659 48.1502 364.598 48.1579 364.599 48.1665Z" fill="#455A64"/>
<path d="M367.247 47.7823C367.23 47.8374 368.176 47.8021 369.394 48.5556C369.996 48.9272 370.642 49.4858 371.224 50.2204C371.809 50.9532 372.316 51.8619 372.79 52.843C373.264 53.8258 373.681 54.7845 374.131 55.6268C374.577 56.4699 375.055 57.1924 375.524 57.745C375.993 58.2976 376.442 58.6821 376.774 58.9123C376.941 59.027 377.073 59.1106 377.168 59.1589C377.261 59.2098 377.312 59.233 377.316 59.2261C377.347 59.1873 376.54 58.7597 375.653 57.6381C375.21 57.082 374.755 56.3639 374.324 55.525C373.89 54.687 373.48 53.7284 373.003 52.7386C372.524 51.7506 372.004 50.829 371.394 50.0833C370.787 49.3375 370.11 48.7754 369.48 48.4116C368.847 48.0487 368.274 47.878 367.874 47.8159C367.673 47.7866 367.517 47.7711 367.41 47.7728C367.304 47.7711 367.248 47.7736 367.247 47.7823Z" fill="#455A64"/>
<path d="M359.566 50.7636C359.55 50.7601 359.508 50.892 359.444 51.136C359.376 51.3783 359.309 51.7378 359.255 52.1852C359.144 53.0792 359.142 54.3431 359.434 55.6941C359.731 57.0441 360.259 58.1934 360.733 58.9589C360.968 59.3426 361.178 59.6417 361.341 59.834C361.501 60.0288 361.595 60.1314 361.608 60.1219C361.64 60.0969 361.307 59.6538 360.878 58.8753C360.449 58.0994 359.957 56.9657 359.666 55.6432C359.38 54.3198 359.355 53.0844 359.423 52.2007C359.487 51.3145 359.607 50.7722 359.566 50.7636Z" fill="#455A64"/>
<path d="M357.28 53.53C357.267 53.5239 357.199 53.636 357.113 53.8559C357.025 54.0748 356.936 54.4085 356.893 54.8309C356.802 55.6732 356.995 56.8767 357.611 58.0165C358.224 59.1553 359.021 60.0158 359.599 60.6132C360.185 61.2081 360.57 61.5495 360.592 61.5288C360.617 61.5046 360.272 61.1201 359.721 60.4994C359.176 59.8761 358.413 59.0105 357.818 57.9061C357.223 56.8035 357.014 55.6568 357.06 54.843C357.098 54.0222 357.323 53.5446 357.28 53.53Z" fill="#455A64"/>
<path d="M378.226 52.178C378.192 52.1875 378.29 52.6039 378.427 53.2755C378.558 53.9454 378.728 54.8851 378.644 55.9153C378.559 56.9439 378.172 57.8258 377.766 58.3612C377.364 58.9052 376.99 59.1302 377.016 59.1655C377.024 59.1776 377.123 59.1345 377.287 59.0259C377.451 58.9181 377.67 58.7328 377.897 58.4638C378.357 57.931 378.79 57.0102 378.879 55.9352C378.966 54.8618 378.763 53.904 378.589 53.2376C378.409 52.5686 378.255 52.1703 378.226 52.178Z" fill="#455A64"/>
<path d="M380.072 55.9769C380.001 55.9545 379.844 57.0589 378.953 58.0201C378.081 58.9986 376.996 59.2599 377.026 59.328C377.031 59.3538 377.307 59.3314 377.72 59.1693C378.131 59.009 378.668 58.6822 379.128 58.1788C379.585 57.6735 379.86 57.108 379.979 56.683C380.102 56.2571 380.097 55.9803 380.072 55.9769Z" fill="#455A64"/>
<path d="M349.07 66.8497C349.122 66.8765 348.959 67.1722 348.864 67.6619C348.821 67.9033 348.817 68.2007 348.958 68.4585C349.091 68.7128 349.398 68.9094 349.738 68.9335C350.076 68.9602 350.4 68.7938 350.613 68.5749C350.832 68.355 350.942 68.0834 350.99 67.8455C351.081 67.361 350.973 67.0377 351.03 67.023C351.063 67.0041 351.274 67.3058 351.243 67.88C351.223 68.1593 351.118 68.5102 350.857 68.8016C350.605 69.0887 350.188 69.3284 349.712 69.2939C349.25 69.2611 348.837 68.9844 348.662 68.6093C348.486 68.2369 348.537 67.8636 348.616 67.6024C348.793 67.0696 349.037 66.829 349.07 66.8497Z" fill="#263238"/>
<path d="M348.301 64.8358C348.316 64.8884 348.099 64.9556 347.997 65.2401C347.947 65.3755 347.932 65.56 348.001 65.716C348.068 65.8704 348.238 66.0014 348.447 66.0462C348.889 66.1531 349.233 65.8341 349.362 65.554C349.502 65.272 349.496 65.0513 349.552 65.047C349.592 65.0358 349.702 65.266 349.601 65.6453C349.547 65.829 349.433 66.048 349.218 66.2161C349.004 66.3894 348.678 66.4678 348.37 66.3988C348.063 66.3333 347.788 66.1178 347.693 65.8359C347.599 65.5565 347.667 65.2988 347.77 65.1272C347.995 64.7617 348.314 64.791 348.301 64.8358Z" fill="#263238"/>
<path d="M349.688 61.8018C349.67 61.8536 349.467 61.7967 349.19 61.8915C348.913 61.9751 348.594 62.2665 348.628 62.6976C348.645 63.1295 348.995 63.3813 349.28 63.433C349.567 63.4942 349.76 63.4149 349.785 63.464C349.813 63.4959 349.639 63.6864 349.254 63.6864C349.069 63.683 348.837 63.6252 348.633 63.4588C348.426 63.2942 348.285 63.0157 348.268 62.7183C348.251 62.4217 348.358 62.1286 348.544 61.9406C348.727 61.7518 348.951 61.6682 349.134 61.6423C349.516 61.5975 349.712 61.7665 349.688 61.8018Z" fill="#263238"/>
<path d="M363.932 74.1254C364.079 74.2055 363.488 75.1582 363.88 76.3402C364.27 77.5239 365.35 78.0498 365.274 78.1877C365.25 78.2558 364.933 78.2317 364.498 77.9765C364.07 77.7291 363.541 77.2118 363.301 76.4885C363.063 75.7651 363.194 75.0797 363.405 74.6694C363.617 74.2486 363.871 74.0797 363.932 74.1254Z" fill="#263238"/>
<path d="M313.198 237.032L307.902 251.38C307.902 251.38 323.088 258.983 322.947 261.926L292.349 258.573L299.489 234.818L313.198 237.032Z" fill="#455A64"/>
<path d="M298.586 249.018C297.976 249.116 297.494 249.737 297.566 250.35C297.638 250.963 298.265 251.459 298.876 251.373C299.488 251.287 300.089 250.559 299.95 249.957C299.81 249.355 299.041 248.814 298.469 249.044" fill="white"/>
<path d="M292.349 258.573L293.076 256.156L321.909 260.241C321.909 260.241 323.206 260.984 322.947 261.926L292.349 258.573Z" fill="white"/>
<path d="M307.923 251.566C307.901 251.715 307.147 251.7 306.359 252.1C305.56 252.48 305.11 253.085 304.979 253.011C304.845 252.967 305.165 252.098 306.128 251.631C307.086 251.155 307.971 251.432 307.923 251.566Z" fill="#263238"/>
<path d="M311.193 253.329C311.211 253.477 310.536 253.661 309.96 254.237C309.366 254.796 309.164 255.465 309.015 255.443C308.872 255.451 308.865 254.564 309.596 253.862C310.32 253.153 311.205 253.187 311.193 253.329Z" fill="#263238"/>
<path d="M312.617 257.378C312.478 257.396 312.351 256.626 312.825 255.85C313.293 255.07 314.033 254.825 314.082 254.956C314.152 255.088 313.651 255.477 313.272 256.12C312.878 256.754 312.767 257.379 312.617 257.378Z" fill="#263238"/>
<path d="M309.098 248.363C309.009 248.485 308.374 248.144 307.53 248.03C306.689 247.9 305.984 248.048 305.933 247.905C305.869 247.781 306.613 247.366 307.605 247.512C308.599 247.653 309.194 248.262 309.098 248.363Z" fill="#263238"/>
<path d="M217.024 206.912L201.243 209.913C201.243 209.913 201.649 226.892 198.984 228.146L187.597 199.548L211.928 194.716L217.024 206.912Z" fill="#455A64"/>
<path d="M198.962 200.577C198.59 200.084 197.815 199.949 197.307 200.3C196.8 200.651 196.656 201.438 197.019 201.938C197.381 202.437 198.307 202.627 198.772 202.221C199.238 201.815 199.356 200.882 198.884 200.485" fill="white"/>
<path d="M187.598 199.549L190.074 199.058L199.985 226.44C199.985 226.44 199.938 227.934 198.985 228.147L187.598 199.549Z" fill="white"/>
<path d="M201.09 210.018C200.948 210.069 200.607 209.396 199.885 208.888C199.175 208.361 198.429 208.248 198.434 208.097C198.409 207.957 199.327 207.833 200.192 208.464C201.061 209.087 201.23 209.998 201.09 210.018Z" fill="#263238"/>
<path d="M201.065 213.733C200.943 213.819 200.465 213.309 199.685 213.07C198.913 212.808 198.226 212.942 198.177 212.801C198.103 212.679 198.883 212.256 199.846 212.572C200.811 212.88 201.197 213.677 201.065 213.733Z" fill="#263238"/>
<path d="M198.157 216.889C198.077 216.775 198.697 216.302 199.604 216.357C200.512 216.404 201.076 216.943 200.984 217.048C200.9 217.173 200.321 216.912 199.575 216.879C198.831 216.828 198.226 217.022 198.157 216.889Z" fill="#263238"/>
<path d="M204.469 209.555C204.32 209.533 204.324 208.813 204.028 208.014C203.749 207.21 203.287 206.656 203.389 206.545C203.469 206.43 204.185 206.892 204.52 207.838C204.863 208.779 204.604 209.592 204.469 209.555Z" fill="#263238"/>
<path d="M285.492 112.244C285.492 112.244 275.17 117.365 270.098 125.317C265.097 133.16 250.679 172.28 250.679 172.28C250.679 172.28 244.764 176.004 243.851 178.773C242.938 181.54 203.457 194.416 203.457 194.416L207.327 210.11C207.327 210.11 255.083 199.779 258.265 196.847C261.447 193.915 289.896 160.418 289.896 160.418L310.921 196.656C310.921 196.656 303.614 212.259 301.849 217.925C300.053 223.692 293.539 242.811 293.539 242.811L310.699 243.992C310.699 243.992 326.432 210.021 330.412 203.49C334.392 196.958 333.844 192.714 332.415 188.875C330.987 185.036 311.352 137.511 311.352 137.511L318.646 130.917L294.224 106.818L285.492 112.244Z" fill="#263238"/>
<path d="M253.425 188.664C253.377 188.679 253.11 187.982 252.812 186.816C252.513 185.651 252.204 184.01 252.074 182.175C251.854 179.303 252.164 176.857 252.35 175.97L252.487 175.99C252.418 176.264 252.372 176.4 252.348 176.396C252.323 176.392 252.324 176.249 252.351 175.967L252.488 175.987C252.455 176.891 252.26 179.313 252.477 182.146C252.606 183.957 252.866 185.584 253.092 186.755C253.315 187.926 253.484 188.648 253.425 188.664Z" fill="#455A64"/>
<path d="M252.778 188.108C252.696 188.17 251.361 186.436 250.16 184.032C248.95 181.632 248.357 179.528 248.457 179.498C248.569 179.46 249.326 181.482 250.52 183.852C251.706 186.226 252.877 188.04 252.778 188.108Z" fill="#455A64"/>
<path d="M322.13 196.14C322.091 196.263 320.256 195.455 317.868 195.59C315.477 195.688 313.731 196.67 313.68 196.551C313.656 196.511 314.055 196.209 314.793 195.885C315.528 195.561 316.615 195.248 317.849 195.186C319.083 195.129 320.196 195.332 320.958 195.585C321.723 195.836 322.15 196.097 322.13 196.14Z" fill="#455A64"/>
<path d="M319.419 197.587C319.37 197.7 317.948 197.082 316.079 196.894C314.211 196.685 312.691 196.991 312.667 196.871C312.631 196.777 314.172 196.278 316.121 196.493C318.072 196.691 319.474 197.504 319.419 197.587Z" fill="#455A64"/>
<path d="M298.063 150.289C298.106 150.321 297.639 151.037 296.823 152.151C296.007 153.266 294.838 154.773 293.486 156.388C292.131 158.003 290.851 159.419 289.897 160.416C288.942 161.414 288.319 161.999 288.28 161.963C288.238 161.923 288.787 161.27 289.685 160.225C290.664 159.077 291.857 157.678 293.177 156.13C294.47 154.56 295.639 153.141 296.598 151.977C297.469 150.909 298.017 150.255 298.063 150.289Z" fill="#455A64"/>
<path d="M253.036 176.719C253.024 176.713 253.106 176.519 253.273 176.156C253.436 175.79 253.705 175.266 254.011 174.571C254.648 173.194 255.512 171.176 256.478 168.642C257.448 166.109 258.489 163.051 259.592 159.637C260.699 156.224 261.871 152.453 263.244 148.539C264.627 144.627 266.127 140.958 267.743 137.74C269.358 134.523 271.068 131.752 272.707 129.576C274.34 127.396 275.837 125.769 276.944 124.725C277.479 124.182 277.946 123.818 278.242 123.548C278.545 123.287 278.708 123.155 278.717 123.165C278.727 123.175 278.581 123.328 278.296 123.608C278.018 123.896 277.57 124.279 277.055 124.836C275.987 125.91 274.53 127.556 272.938 129.745C271.339 131.929 269.666 134.697 268.078 137.907C266.488 141.116 265.004 144.773 263.626 148.674C262.256 152.578 261.074 156.343 259.947 159.754C258.824 163.165 257.752 166.221 256.746 168.747C255.743 171.273 254.837 173.28 254.155 174.64C253.826 175.325 253.535 175.839 253.348 176.194C253.155 176.544 253.049 176.726 253.036 176.719Z" fill="#455A64"/>
<path d="M251.286 177.807C251.309 177.922 250.54 178.142 249.741 178.677C248.935 179.2 248.429 179.82 248.332 179.752C248.239 179.703 248.635 178.917 249.519 178.339C250.399 177.755 251.278 177.701 251.286 177.807Z" fill="#455A64"/>
<path d="M247.699 180.96C247.705 180.973 247.57 181.051 247.308 181.187C247.005 181.34 246.624 181.531 246.156 181.767C245.152 182.266 243.684 182.956 241.857 183.78C238.205 185.429 233.09 187.563 227.331 189.624C221.568 191.681 216.26 193.273 212.39 194.313C210.455 194.834 208.883 195.231 207.79 195.481C207.279 195.596 206.863 195.689 206.531 195.763C206.242 195.823 206.088 195.848 206.085 195.835C206.082 195.821 206.228 195.77 206.511 195.684C206.837 195.59 207.247 195.473 207.751 195.329C208.881 195.009 210.426 194.572 212.312 194.038C216.158 192.929 221.443 191.297 227.195 189.244C232.944 187.186 238.066 185.099 241.743 183.518C243.54 182.735 245.013 182.094 246.089 181.625C246.57 181.417 246.963 181.248 247.274 181.114C247.547 181.001 247.693 180.948 247.699 180.96Z" fill="#455A64"/>
<path d="M284.905 131.417C284.935 131.443 284.534 131.948 283.682 132.528C282.837 133.109 281.501 133.705 279.93 133.896C278.359 134.081 276.921 133.818 275.962 133.452C274.996 133.089 274.489 132.694 274.511 132.662C274.546 132.599 275.097 132.9 276.051 133.181C277.001 133.467 278.378 133.672 279.882 133.495C281.385 133.311 282.674 132.787 283.53 132.286C284.391 131.787 284.857 131.365 284.905 131.417Z" fill="#455A64"/>
<path d="M297.739 242.943C297.726 242.939 297.76 242.77 297.838 242.452C297.93 242.095 298.049 241.635 298.195 241.067C298.511 239.865 299.002 238.135 299.64 236.006C300.914 231.748 302.828 225.91 305.24 219.57C307.658 213.23 310.113 207.596 311.995 203.57C312.935 201.556 313.72 199.938 314.284 198.831C314.553 198.31 314.769 197.887 314.938 197.559C315.091 197.27 315.178 197.121 315.191 197.127C315.203 197.133 315.141 197.293 315.011 197.594C314.859 197.931 314.666 198.364 314.425 198.899C313.891 200.075 313.155 201.7 312.255 203.688C310.441 207.74 308.031 213.382 305.617 219.713C303.208 226.043 301.254 231.858 299.913 236.09C299.263 238.174 298.731 239.876 298.346 241.11C298.17 241.669 298.027 242.122 297.916 242.475C297.813 242.785 297.752 242.946 297.739 242.943Z" fill="#455A64"/>
<path d="M355.59 86.5757L346.317 77.6096C346.317 77.6096 337.362 77.4708 332.477 79.0028C327.591 80.5348 277.758 116.112 277.758 116.112C284.436 118.776 290.297 124.718 295.812 132.047C300.466 137.576 302.034 145.781 308.815 148.282C310.25 148.812 315.39 147.295 315.39 147.295L316.571 141.949L357.157 103.226C357.157 103.226 358.982 92.0545 355.59 86.5757Z" fill="#FF725E"/>
<g opacity="0.3">
<path d="M326.006 115.615C320.773 115.815 315.488 114.116 311.353 110.905C317.622 107.645 323.06 103.021 328.437 98.4359C332.509 94.9649 339.237 89.2223 344.618 85.5755C333.641 86.9377 317.962 92.0139 308.446 97.6513C300.233 102.516 292.705 108.922 283.523 111.532L282.159 111.444C282.305 114.137 284.45 116.418 286.957 117.412C289.464 118.406 292.266 118.325 294.939 117.961C297.611 117.597 300.258 116.966 302.954 116.908C307.05 116.818 311.043 118.049 315.08 118.753C319.116 119.456 323.523 119.568 327.037 117.461C327.389 117.25 327.765 116.958 327.785 116.547C327.824 115.79 326.765 115.586 326.006 115.615Z" fill="black"/>
</g>
<path d="M346.902 110.05C331.592 113.117 315.568 112.558 300.508 108.433L300.914 113.821C308.749 115.648 316.642 117.483 324.681 117.797C332.72 118.111 341.008 116.81 347.943 112.734C347.596 111.839 347.249 110.945 346.902 110.05Z" fill="#455A64"/>
<g opacity="0.3">
<path d="M339.885 115.683C339.732 108.373 339.654 101.376 340.484 94.1113L340.651 93.3863C339.063 95.076 338.594 97.5064 338.294 99.8057C337.37 106.895 337.375 113.851 338.379 120.929L340.088 119.771C340.119 119.481 339.915 117.127 339.885 115.683Z" fill="black"/>
</g>
<path d="M353.422 83.0671C349.321 79.5841 341.536 81.3954 336.547 83.4111L332.877 91.0314C337.781 89.4908 346.086 84.2034 350.798 86.2561C355.51 88.308 357.179 92.5979 358.289 97.631C359.472 92.3824 357.523 86.5501 353.422 83.0671Z" fill="#263238"/>
<path d="M336.682 71.0541C332.404 68.0099 326.874 68.372 321.765 68.9238C311.855 69.9937 305.238 74.769 295.06 78.2399C288.747 80.3935 283.325 84.724 280.254 90.645C276.427 98.0231 276.963 104.843 281.917 111.562L283.623 113.22C287.23 116.724 292.578 117.8 297.23 115.893C310.37 110.508 318.693 101.822 332.144 93.4478C336.071 91.0037 340.084 88.2328 341.236 83.3333C342.319 78.7279 340.537 73.7965 336.682 71.0541Z" fill="#455A64"/>
<path d="M340.267 75.6575C340.283 75.6593 340.253 75.9067 340.183 76.38C340.077 76.843 339.921 77.5387 339.527 78.3603C338.789 80.0311 337.083 82.1157 334.568 84.1495C329.522 88.1739 322.322 93.4423 313.953 98.6323C309.775 101.238 305.702 103.566 301.95 105.594C300.075 106.61 298.275 107.541 296.583 108.399C294.895 109.259 293.296 110.032 291.771 110.589C288.726 111.749 285.982 111.811 284.215 111.402C283.326 111.208 282.668 110.938 282.242 110.726C282.026 110.625 281.871 110.529 281.767 110.465C281.662 110.401 281.611 110.365 281.615 110.359C281.637 110.303 282.487 110.89 284.249 111.231C285.997 111.579 288.671 111.471 291.659 110.291C293.156 109.723 294.733 108.941 296.412 108.067C298.094 107.196 299.884 106.254 301.751 105.23C305.485 103.186 309.544 100.851 313.714 98.2504C322.064 93.0725 329.287 87.8497 334.366 83.9029C336.888 81.9148 338.594 79.9018 339.367 78.2836C340.17 76.6748 340.203 75.6403 340.267 75.6575Z" fill="#263238"/>
<path d="M312.235 99.0185C312.131 99.0849 308.946 94.263 305.121 88.2496C301.296 82.2337 298.28 77.3049 298.385 77.2386C298.49 77.1722 301.675 81.9932 305.501 88.0082C309.324 94.0224 312.341 98.9521 312.235 99.0185Z" fill="#263238"/>
<path d="M308.883 93.727C308.888 93.7856 308.456 93.8459 308.101 94.4175C307.915 94.6831 307.766 95.0702 307.449 95.4607C307.287 95.6521 307.074 95.8461 306.771 95.9392C306.442 96.028 306.107 95.9366 305.847 95.7245C305.719 95.6159 305.603 95.465 305.567 95.2702C305.533 95.0745 305.597 94.8745 305.704 94.74C305.933 94.4649 306.215 94.402 306.433 94.3313C306.817 94.2261 307.205 94.1201 307.606 94.0106C308.277 93.8408 308.702 93.7649 308.72 93.8235C308.739 93.883 308.348 94.0649 307.701 94.3132C307.31 94.4546 306.932 94.5908 306.557 94.7262C306.11 94.8529 305.813 95.1271 306.136 95.3822C306.28 95.5047 306.499 95.5598 306.651 95.5167C306.829 95.4685 306.999 95.3391 307.136 95.1891C307.416 94.8831 307.605 94.5037 307.848 94.2253C308.083 93.9459 308.35 93.7675 308.557 93.7166C308.766 93.6614 308.883 93.7011 308.883 93.727Z" fill="#263238"/>
<path d="M327.048 268.62C327.048 271.928 324.367 274.609 321.059 274.609C317.751 274.609 315.07 271.928 315.07 268.62C315.07 265.312 317.751 262.631 321.059 262.631C324.367 262.631 327.048 265.312 327.048 268.62Z" fill="#263238"/>
<path d="M326.451 268.619C326.406 268.622 326.426 268.139 326.206 267.322C325.988 266.521 325.443 265.348 324.236 264.447C323.637 264.006 322.887 263.634 322.024 263.487C321.167 263.346 320.203 263.377 319.287 263.729C318.371 264.061 317.497 264.686 316.877 265.549C316.239 266.399 315.881 267.492 315.87 268.618C315.881 269.744 316.239 270.836 316.877 271.688C317.497 272.551 318.371 273.176 319.287 273.507C320.203 273.859 321.168 273.89 322.025 273.749C322.888 273.602 323.638 273.23 324.236 272.79C325.443 271.889 325.989 270.716 326.207 269.915C326.426 269.1 326.406 268.617 326.451 268.619C326.465 268.619 326.473 268.738 326.475 268.965C326.481 269.192 326.453 269.531 326.359 269.954C326.182 270.789 325.659 272.037 324.409 273.017C323.79 273.496 323.002 273.907 322.086 274.078C321.178 274.245 320.147 274.224 319.16 273.857C318.174 273.511 317.231 272.846 316.558 271.921C315.868 271.009 315.476 269.83 315.467 268.617C315.477 267.405 315.869 266.226 316.559 265.314C317.232 264.389 318.175 263.725 319.16 263.379C320.147 263.012 321.177 262.991 322.085 263.158C323.001 263.329 323.789 263.74 324.408 264.219C325.658 265.2 326.181 266.447 326.358 267.282C326.452 267.706 326.48 268.044 326.474 268.272C326.473 268.501 326.465 268.619 326.451 268.619Z" fill="#455A64"/>
<path d="M245.415 270.696C245.415 274.003 242.734 276.686 239.426 276.686C236.118 276.686 233.437 274.004 233.437 270.696C233.437 267.388 236.118 264.707 239.426 264.707C242.734 264.707 245.415 267.389 245.415 270.696Z" fill="#263238"/>
<path d="M244.818 270.697C244.773 270.7 244.793 270.217 244.573 269.399C244.355 268.599 243.809 267.426 242.602 266.524C242.004 266.084 241.254 265.711 240.391 265.565C239.534 265.423 238.569 265.454 237.654 265.807C236.738 266.138 235.865 266.763 235.244 267.626C234.606 268.477 234.248 269.569 234.237 270.695C234.248 271.821 234.606 272.913 235.244 273.765C235.864 274.628 236.737 275.253 237.654 275.585C238.569 275.938 239.535 275.969 240.392 275.827C241.255 275.681 242.005 275.308 242.603 274.868C243.81 273.967 244.357 272.794 244.574 271.994C244.794 271.177 244.774 270.694 244.818 270.697C244.832 270.697 244.84 270.815 244.841 271.043C244.847 271.269 244.82 271.608 244.726 272.032C244.549 272.867 244.025 274.114 242.776 275.095C242.157 275.574 241.369 275.984 240.453 276.156C239.544 276.322 238.513 276.302 237.527 275.934C236.542 275.589 235.598 274.925 234.925 274C234.235 273.087 233.843 271.908 233.834 270.695C233.844 269.483 234.235 268.305 234.926 267.392C235.598 266.467 236.542 265.804 237.527 265.458C238.513 265.091 239.544 265.07 240.452 265.236C241.368 265.408 242.156 265.818 242.775 266.297C244.025 267.279 244.548 268.525 244.725 269.361C244.819 269.784 244.846 270.123 244.84 270.35C244.84 270.579 244.833 270.697 244.818 270.697Z" fill="#455A64"/>
<path d="M339.941 267.28C339.892 267.428 338.266 267.081 335.377 266.332C334.654 266.139 333.853 265.927 332.979 265.695C332.093 265.49 331.133 265.268 330.102 265.03C328.036 264.569 325.709 263.947 323.086 263.484C321.78 263.227 320.413 262.957 318.989 262.676C317.564 262.4 316.064 262.206 314.522 261.951C311.443 261.406 308.117 261.067 304.63 260.647C297.636 259.971 289.917 259.561 281.81 259.694C273.701 259.891 266.002 260.615 259.042 261.575C255.573 262.136 252.264 262.61 249.21 263.28C247.68 263.598 246.188 263.851 244.776 264.186C243.365 264.525 242.01 264.849 240.715 265.159C238.113 265.729 235.813 266.445 233.768 266.99C232.748 267.27 231.798 267.531 230.922 267.771C230.057 268.039 229.266 268.284 228.551 268.505C225.695 269.372 224.085 269.784 224.03 269.639C223.975 269.494 225.482 268.805 228.265 267.68C228.965 267.402 229.74 267.093 230.585 266.756C231.442 266.439 232.386 266.135 233.394 265.791C235.419 265.127 237.708 264.3 240.309 263.626C241.604 263.268 242.96 262.892 244.373 262.501C245.79 262.119 247.287 261.819 248.825 261.458C251.896 260.701 255.23 260.153 258.731 259.529C265.758 258.443 273.553 257.648 281.765 257.448C289.976 257.313 297.794 257.792 304.859 258.589C308.382 259.07 311.735 259.483 314.834 260.113C316.386 260.412 317.894 260.649 319.324 260.975C320.752 261.307 322.123 261.627 323.431 261.932C326.057 262.5 328.377 263.234 330.428 263.815C331.451 264.118 332.406 264.382 333.274 264.664C334.134 264.967 334.921 265.243 335.631 265.493C338.456 266.506 339.99 267.134 339.941 267.28Z" fill="#FF725E"/>
<path d="M368.414 161.955C368.569 162.395 369.511 164.342 369.511 164.342L373.011 172.335L373.35 183.495C373.35 183.495 371.602 184.2 371.174 182.351C370.746 180.503 370.641 177.061 370.641 177.061L365.355 183.848C365.355 183.848 363.641 182.579 364.709 180.964L362.51 182.148C362.51 182.148 361.541 180.874 361.871 179.467C362.2 178.061 365.988 174.036 365.988 174.036L359.371 173.771C359.371 173.771 358.227 172.876 359.322 172.19C360.419 171.506 364.39 170.454 364.39 170.454C364.39 170.454 362.236 170.054 361.149 167.946C360.061 165.838 360.36 163.415 360.36 163.415L368.414 161.955Z" fill="#FFBE9D"/>
<path d="M343.114 105.548C343.114 105.548 347.468 135.302 347.515 137.245C347.562 139.188 348.381 143.624 348.381 143.624C348.381 143.624 348.258 143.424 349.879 146.237C351.501 149.049 361.773 167.211 361.773 167.211L369.51 164.341C369.51 164.341 361.515 140.632 360.812 137.045C360.108 133.459 361.347 115.366 359.456 107.826C357.567 100.286 343.114 105.548 343.114 105.548Z" fill="#FFBE9D"/>
<path d="M346.885 86.0755C346.541 86.1591 346.209 86.2936 345.902 86.4695C344.391 87.3368 340.147 90.3948 339.849 99.66C339.475 111.31 340.087 119.772 340.087 119.772L361.648 118.041C361.548 117.909 360.326 82.7994 346.885 86.0755Z" fill="#FF725E"/>
<path d="M361.648 118.041C361.649 118.054 361.507 118.079 361.235 118.113C360.921 118.148 360.525 118.191 360.035 118.245C358.935 118.348 357.421 118.491 355.546 118.669C351.663 119.001 346.293 119.46 340.104 119.987L339.884 120.006L339.871 119.785C339.721 117.372 339.61 114.779 339.553 112.101C339.465 108.05 339.495 104.188 339.663 100.678C339.806 97.1806 340.215 93.9588 341.347 91.5043C342.447 89.0361 344.121 87.4877 345.402 86.7342C346.047 86.3488 346.596 86.1479 346.968 86.0255C347.347 85.9203 347.55 85.8798 347.552 85.8936C347.572 85.9453 346.739 86.0928 345.494 86.8825C344.267 87.6653 342.673 89.2094 341.638 91.6328C340.57 94.045 340.196 97.2073 340.077 100.698C339.932 104.196 339.915 108.05 340.002 112.093C340.059 114.765 340.165 117.353 340.303 119.76L340.07 119.557C346.263 119.092 351.637 118.688 355.523 118.397C357.403 118.273 358.921 118.173 360.023 118.099C360.514 118.074 360.912 118.054 361.228 118.038C361.504 118.028 361.647 118.029 361.648 118.041Z" fill="#263238"/>
<path d="M600 491.579C600 491.765 465.675 491.915 300.015 491.915C134.296 491.915 0 491.764 0 491.579C0 491.394 134.296 491.242 300.015 491.242C465.675 491.242 600 491.394 600 491.579Z" fill="#263238"/>
</svg>
