<svg width="500" height="500" viewBox="0 0 500 500" fill="none" xmlns="http://www.w3.org/2000/svg">
<g clip-path="url(#clip0_40_1305)">
<path d="M452.282 118.763C450.623 116.001 448.898 113.291 447.096 110.641C423.099 75.381 383.149 51.241 344.324 40.308C327.315 35.511 309.852 33.002 292.419 32.361C178.075 28.206 136.069 122.485 99.229 146.793C62.389 171.102 5.85506 212.622 12.9491 299.842C18.3321 366.158 56.0581 429.568 124.958 458.423C132.547 461.611 140.521 464.378 148.87 466.674C164.401 470.947 181.234 473.629 199.37 474.436C251.462 476.757 293.759 464.2 335.133 432.579C344.75 425.229 354.316 416.938 366.797 416.03C375.869 415.37 384.47 418.629 374.987 427.396C363.842 437.701 376.701 457.968 404.993 443.887C452.244 420.37 471.682 369.631 480.839 318.037C492.078 254.708 486.629 175.952 452.282 118.763Z" fill="#176B87"/>
<path opacity="0.7" d="M452.282 118.763C450.623 116.001 448.898 113.291 447.096 110.641C423.099 75.381 383.149 51.241 344.324 40.308C327.315 35.511 309.852 33.002 292.419 32.361C178.075 28.206 136.069 122.485 99.229 146.793C62.389 171.102 5.85506 212.622 12.9491 299.842C18.3321 366.158 56.0581 429.568 124.958 458.423C132.547 461.611 140.521 464.378 148.87 466.674C164.401 470.947 181.234 473.629 199.37 474.436C251.462 476.757 293.759 464.2 335.133 432.579C344.75 425.229 354.316 416.938 366.797 416.03C375.869 415.37 384.47 418.629 374.987 427.396C363.842 437.701 376.701 457.968 404.993 443.887C452.244 420.37 471.682 369.631 480.839 318.037C492.078 254.708 486.629 175.952 452.282 118.763Z" fill="#93E2E4"/>
<path d="M366.148 455.288C368.747 456.423 375.103 456.28 375.108 456.28C375.174 456.278 373.742 452.119 373.621 451.867C372.227 448.949 367.816 444.132 364.227 444.617C361.642 444.967 360.204 447.554 360.787 449.988C361.384 452.474 363.934 454.321 366.148 455.288Z" fill="#263238"/>
<path d="M379.751 499.094C379.311 499.281 378.949 499.545 378.624 499.841H385.559C383.536 498.884 381.382 498.401 379.751 499.094Z" fill="#263238"/>
<path d="M427.946 499.841H432.478C431.211 499.266 429.591 499.367 427.946 499.841Z" fill="#263238"/>
<path d="M411.813 485.969C413.641 487.601 418.418 489.197 419.688 489.602C419.595 490.359 419.493 491.115 419.403 491.872C419.083 494.546 418.76 497.204 418.411 499.841H419.866C420.15 497.239 420.411 494.625 420.667 492.009C420.775 490.894 420.896 489.785 421.013 488.674C421.477 488.849 426.988 490.901 429.699 490.71C432.108 490.541 435.131 489.656 436.525 487.513C437.891 485.416 437.404 482.496 435.085 481.301C431.867 479.641 426.097 482.701 423.805 484.982C423.632 485.154 421.534 487.778 421.033 488.472C421.292 486.025 421.572 483.59 421.946 481.201C422.457 477.904 423.141 474.696 424.033 471.638C424.249 471.72 429.991 473.887 432.768 473.693C435.177 473.524 438.2 472.638 439.595 470.496C440.961 468.399 440.474 465.479 438.155 464.283C434.936 462.623 429.167 465.683 426.874 467.964C426.694 468.143 424.439 470.968 424.066 471.509C424.12 471.328 424.155 471.133 424.211 470.953C425.205 467.7 426.576 464.674 428 461.903C428.823 460.291 429.701 458.797 430.587 457.363C431.615 457.876 436.34 460.17 438.858 460.271C441.271 460.367 444.373 459.819 445.994 457.843C447.582 455.908 447.419 452.953 445.245 451.51C442.228 449.507 436.157 451.914 433.628 453.93C433.491 454.039 432.217 455.309 431.301 456.246C431.71 455.604 432.121 454.935 432.526 454.329C434.041 452.047 435.569 450.052 436.936 448.295C437.721 447.303 438.451 446.421 439.143 445.603C440.414 445.581 445.539 445.425 447.779 444.373C449.964 443.346 452.465 441.431 452.994 438.93C453.511 436.481 452.004 433.933 449.411 433.654C445.811 433.266 441.532 438.2 440.216 441.154C440.103 441.41 438.783 445.607 438.849 445.606C438.849 445.606 438.911 445.606 438.926 445.605C438.244 446.379 437.523 447.216 436.753 448.147C435.344 449.877 433.769 451.845 432.199 454.102C430.624 456.354 428.976 458.845 427.477 461.625C425.971 464.41 424.529 467.416 423.443 470.706C423.431 470.743 423.423 470.783 423.41 470.821C423.429 469.76 423.382 466.792 423.353 466.565C422.937 463.358 420.249 457.406 416.688 456.747C414.123 456.274 411.95 458.283 411.746 460.778C411.538 463.326 413.385 465.876 415.186 467.485C417.217 469.3 422.856 471.057 423.305 471.196C422.3 474.338 421.524 477.645 420.923 481.033C420.577 482.971 420.289 484.933 420.026 486.904C420.013 485.986 419.994 485.165 419.979 485.051C419.563 481.844 416.876 475.892 413.314 475.234C410.748 474.759 408.576 476.77 408.372 479.264C408.164 481.81 410.012 484.36 411.813 485.969Z" fill="#263238"/>
<path d="M368.342 473.7C371.038 474.093 376.71 472.448 377.161 472.315C378.057 475.491 379.233 478.677 380.602 481.835C381.382 483.642 382.224 485.437 383.091 487.226C382.574 486.468 382.105 485.794 382.03 485.707C379.914 483.261 374.388 479.78 371.056 481.196C368.654 482.215 367.951 485.09 369.157 487.284C370.387 489.524 373.337 490.632 375.726 490.98C378.151 491.334 383.016 490.028 384.299 489.665C384.639 490.348 384.97 491.034 385.313 491.715C386.678 494.434 388.034 497.14 389.334 499.84H390.984C389.519 496.932 387.98 494.032 386.443 491.132C385.918 490.143 385.407 489.151 384.892 488.161C385.375 488.05 391.104 486.721 393.26 485.067C395.176 483.597 397.209 481.191 397.19 478.635C397.172 476.132 395.155 473.965 392.562 474.248C388.962 474.639 385.837 480.374 385.184 483.541C385.135 483.78 384.833 487.126 384.798 487.98C383.664 485.798 382.554 483.612 381.548 481.412C380.155 478.379 378.956 475.327 378.014 472.284C378.239 472.233 384.224 470.872 386.433 469.178C388.349 467.708 390.382 465.302 390.363 462.746C390.345 460.243 388.329 458.077 385.734 458.359C382.134 458.75 379.01 464.485 378.356 467.652C378.305 467.901 377.982 471.501 377.97 472.157C377.914 471.976 377.836 471.795 377.783 471.614C376.818 468.352 376.292 465.071 375.951 461.975C375.749 460.177 375.657 458.447 375.605 456.761C376.746 456.622 381.952 455.928 384.108 454.623C386.175 453.372 388.459 451.204 388.721 448.662C388.978 446.172 387.211 443.797 384.603 443.792C380.982 443.785 377.246 449.143 376.249 452.219C376.195 452.387 375.831 454.148 375.586 455.435C375.574 454.674 375.547 453.889 375.551 453.159C375.556 450.421 375.729 447.913 375.9 445.694C376.008 444.432 376.13 443.294 376.256 442.231C377.304 441.51 381.492 438.554 382.78 436.441C384.037 434.379 385.066 431.402 384.127 429.025C383.208 426.696 380.545 425.403 378.228 426.601C375.011 428.264 374.165 434.74 374.696 437.93C374.743 438.205 375.958 442.434 376.013 442.397C376.013 442.397 376.064 442.362 376.076 442.353C375.934 443.374 375.795 444.471 375.666 445.672C375.445 447.892 375.217 450.402 375.153 453.151C375.081 455.898 375.081 458.885 375.364 462.031C375.644 465.184 376.099 468.487 377.009 471.83C377.019 471.868 377.035 471.906 377.045 471.944C376.475 471.049 374.798 468.6 374.648 468.426C372.532 465.98 367.007 462.499 363.674 463.914C361.273 464.934 360.569 467.809 361.775 470.003C363.005 472.244 365.952 473.351 368.342 473.7Z" fill="#263238"/>
<path d="M403.649 499.841C404.676 498.57 405.436 497.065 405.425 495.502C405.407 492.999 403.391 490.832 400.797 491.114C397.402 491.483 394.431 496.603 393.556 499.841H403.649Z" fill="#263238"/>
<path d="M415.715 499.841C414.511 497.481 412.75 495.338 410.696 494.958C408.13 494.484 405.957 496.493 405.752 498.989C405.729 499.274 405.74 499.558 405.765 499.841H415.715Z" fill="#263238"/>
<path d="M430.441 456.686C430.497 456.721 431.597 452.461 431.636 452.185C432.082 448.982 431.061 442.531 427.8 440.956C425.451 439.821 422.825 441.186 421.969 443.539C421.094 445.941 422.203 448.888 423.515 450.916C425.056 453.297 430.437 456.683 430.441 456.686Z" fill="#263238"/>
<path d="M25.174 475.176C27.104 476.019 31.825 475.913 31.829 475.913C31.878 475.912 30.814 472.822 30.725 472.635C29.689 470.468 26.413 466.89 23.748 467.25C21.828 467.51 20.76 469.431 21.193 471.239C21.636 473.085 23.53 474.457 25.174 475.176Z" fill="#263238"/>
<path d="M59.0911 497.963C59.8601 498.65 61.3311 499.327 62.6341 499.841H76.8031C77.0441 499.621 77.2681 499.384 77.4461 499.11C78.4611 497.553 78.0991 495.384 76.3761 494.496C73.9861 493.263 69.7001 495.536 67.9981 497.23C67.8701 497.358 66.3121 499.307 65.9391 499.822C66.1311 498.005 66.3391 496.196 66.6171 494.421C66.9961 491.972 67.5051 489.589 68.1671 487.318C68.3271 487.379 72.5931 488.988 74.6551 488.844C76.4451 488.718 78.6901 488.061 79.7261 486.47C80.7411 484.912 80.3791 482.744 78.6571 481.856C76.2661 480.623 71.9811 482.896 70.2781 484.59C70.1451 484.723 68.4691 486.821 68.1921 487.223C68.2321 487.088 68.2581 486.944 68.3001 486.81C69.0381 484.394 70.0571 482.146 71.1141 480.089C71.7261 478.892 72.3781 477.782 73.0361 476.717C73.8001 477.098 77.3091 478.802 79.1791 478.877C80.9711 478.949 83.2751 478.541 84.4791 477.074C85.6591 475.637 85.5371 473.442 83.9231 472.37C81.6821 470.882 77.1731 472.67 75.2951 474.167C75.1931 474.248 74.2471 475.191 73.5671 475.887C73.8711 475.41 74.1761 474.913 74.4771 474.463C75.6021 472.768 76.7371 471.286 77.7531 469.981C78.3361 469.244 78.8791 468.589 79.3931 467.981C80.3371 467.964 84.1431 467.849 85.8071 467.068C87.4301 466.305 89.2881 464.883 89.6801 463.025C90.0641 461.206 88.9451 459.314 87.0191 459.106C84.3451 458.818 81.1671 462.482 80.1901 464.677C80.1061 464.867 79.1261 467.984 79.1751 467.983C79.1751 467.983 79.2211 467.983 79.2321 467.983C78.7251 468.558 78.1901 469.18 77.6181 469.871C76.5721 471.156 75.4021 472.617 74.2361 474.294C73.0661 475.967 71.8421 477.817 70.7291 479.881C69.6101 481.949 68.5391 484.182 67.7331 486.626C67.7241 486.654 67.7181 486.683 67.7091 486.711C67.7231 485.923 67.6881 483.719 67.6661 483.55C67.3571 481.168 65.3611 476.747 62.7161 476.258C60.8111 475.906 59.1971 477.399 59.0451 479.252C58.8901 481.145 60.2621 483.038 61.6001 484.234C63.1091 485.582 67.2971 486.887 67.6311 486.99C66.8841 489.324 66.3081 491.78 65.8621 494.296C65.6051 495.735 65.3911 497.192 65.1951 498.656C65.1851 497.974 65.1711 497.365 65.1601 497.28C64.8511 494.898 62.8551 490.478 60.2101 489.988C58.3041 489.636 56.6911 491.129 56.5391 492.981C56.3811 494.874 57.7531 496.768 59.0911 497.963Z" fill="#263238"/>
<path d="M26.803 488.85C28.805 489.142 33.018 487.92 33.354 487.821C34.019 490.18 34.893 492.546 35.909 494.892C36.488 496.234 37.114 497.567 37.758 498.896C37.374 498.333 37.026 497.833 36.97 497.767C35.398 495.95 31.294 493.365 28.819 494.416C27.035 495.173 26.513 497.309 27.408 498.938C27.593 499.275 27.841 499.569 28.117 499.839H39.225C39.182 499.756 39.138 499.673 39.095 499.59C39.454 499.508 43.709 498.52 45.311 497.292C46.734 496.2 48.244 494.413 48.23 492.515C48.217 490.656 46.719 489.047 44.792 489.256C42.118 489.546 39.797 493.806 39.312 496.158C39.276 496.335 39.051 498.82 39.025 499.455C38.183 497.834 37.359 496.21 36.611 494.577C35.577 492.325 34.686 490.058 33.986 487.797C34.153 487.759 38.599 486.748 40.239 485.49C41.662 484.398 43.172 482.612 43.158 480.713C43.145 478.854 41.647 477.245 39.72 477.454C37.046 477.744 34.726 482.004 34.24 484.356C34.202 484.541 33.962 487.215 33.953 487.702C33.911 487.568 33.854 487.433 33.814 487.299C33.097 484.876 32.707 482.439 32.453 480.14C32.303 478.805 32.235 477.519 32.196 476.268C33.043 476.164 36.91 475.65 38.511 474.68C40.046 473.751 41.743 472.141 41.937 470.252C42.128 468.402 40.816 466.639 38.878 466.635C36.188 466.63 33.414 470.609 32.673 472.894C32.632 473.018 32.363 474.327 32.18 475.282C32.171 474.717 32.151 474.133 32.154 473.592C32.158 471.558 32.286 469.695 32.414 468.047C32.494 467.11 32.585 466.264 32.679 465.475C33.457 464.94 36.568 462.744 37.525 461.174C38.459 459.642 39.223 457.432 38.525 455.666C37.842 453.936 35.865 452.976 34.144 453.865C31.754 455.1 31.126 459.91 31.521 462.279C31.556 462.483 32.458 465.624 32.499 465.597C32.499 465.597 32.537 465.571 32.546 465.565C32.441 466.323 32.337 467.138 32.242 468.03C32.078 469.679 31.909 471.543 31.861 473.585C31.808 475.625 31.807 477.844 32.018 480.18C32.226 482.522 32.564 484.976 33.24 487.458C33.248 487.486 33.259 487.514 33.267 487.542C32.844 486.877 31.598 485.058 31.487 484.929C29.916 483.112 25.812 480.527 23.336 481.578C21.552 482.336 21.03 484.471 21.926 486.1C22.839 487.769 25.028 488.592 26.803 488.85Z" fill="#263238"/>
<path d="M72.926 476.214C72.968 476.24 73.785 473.076 73.814 472.871C74.145 470.492 73.387 465.701 70.965 464.531C69.22 463.688 67.27 464.702 66.634 466.45C65.984 468.234 66.808 470.423 67.783 471.929C68.927 473.696 72.924 476.212 72.926 476.214Z" fill="#263238"/>
<path d="M433.903 166.533C433.397 165.91 432.943 165.25 432.505 164.577C431.012 162.286 421.961 150.753 407.207 149.699C384.192 148.055 377.947 166.527 373.891 169.772C369.835 173.017 360.1 167.338 353.61 169.772C347.12 172.206 347.12 179.507 342.253 181.129C337.386 182.751 334.227 178.401 326.029 179.507C320.442 180.26 318.728 183.563 317.106 185.997C315.484 188.431 310.616 187.619 305.749 187.619C300.882 187.619 296.826 193.297 296.826 193.297H472.05C472.05 193.297 467.183 176.261 459.882 171.394C452.581 166.527 446.903 174.639 442.035 173.016C438.619 171.878 435.475 168.467 433.903 166.533Z" stroke="#263238" stroke-miterlimit="10" stroke-linecap="round" stroke-linejoin="round"/>
<path d="M184.44 45.365C183.934 44.742 183.48 44.081 183.042 43.409C181.549 41.118 172.498 29.584 157.744 28.531C134.729 26.887 128.484 45.359 124.428 48.604C120.372 51.849 110.637 46.17 104.147 48.604C97.657 51.038 97.657 58.339 92.79 59.961C87.923 61.584 84.764 57.233 76.566 58.339C70.979 59.092 69.265 62.395 67.643 64.829C66.021 67.263 61.153 66.451 56.286 66.451C51.419 66.451 47.363 72.13 47.363 72.13H222.586C222.586 72.13 217.719 55.094 210.418 50.227C203.117 45.36 197.439 53.472 192.571 51.849C189.156 50.71 186.012 47.299 184.44 45.365Z" stroke="#263238" stroke-miterlimit="10" stroke-linecap="round" stroke-linejoin="round"/>
<path d="M456.035 193.257C456.035 193.257 447.956 179.908 438.12 177.801C428.284 175.693 425.123 182.719 421.961 184.124C418.8 185.529 409.666 179.557 404.046 180.611C398.426 181.665 397.021 185.88 392.103 187.285C387.185 188.69 385.429 186.231 380.511 186.934C375.593 187.637 358.381 193.297 358.381 193.297L456.035 193.257Z" stroke="#263238" stroke-miterlimit="10" stroke-linecap="round" stroke-linejoin="round"/>
<path d="M163.208 158.588H297.464V96.45H163.208L136.447 127.292L163.208 158.588Z" fill="#176B87" stroke="#263238" stroke-miterlimit="10" stroke-linecap="round" stroke-linejoin="round"/>
<path d="M310.232 499.956H300.811L305.274 7.42099L310.232 12.475V499.956Z" fill="#263238" stroke="#263238" stroke-miterlimit="10" stroke-linecap="round" stroke-linejoin="round"/>
<path d="M305.274 7.42099H295.853V499.956H305.274V7.42099Z" fill="white" stroke="#263238" stroke-miterlimit="10" stroke-linecap="round" stroke-linejoin="round"/>
<path d="M442.151 91.46H307.896V29.322H442.151L468.912 60.164L442.151 91.46Z" fill="#176B87" stroke="#263238" stroke-miterlimit="10" stroke-linecap="round" stroke-linejoin="round"/>
<path d="M143.259 308.131C143.259 308.131 123.59 311.225 122.706 312.33C121.822 313.435 117.181 316.971 117.181 316.971C117.181 316.971 87.347 327.8 86.905 329.347C86.463 330.894 96.629 419.513 96.629 419.513L91.546 499.955H237.845L235.193 464.596L255.525 329.568L207.348 309.015L143.259 308.131Z" fill="#176B87" stroke="#263238" stroke-miterlimit="10" stroke-linecap="round" stroke-linejoin="round"/>
<path d="M145.15 288.902C145.15 288.902 147.88 303.793 147.88 310.494C147.88 317.195 164.509 331.838 166.742 331.59C168.975 331.342 197.766 303.545 197.766 303.545C197.766 303.545 194.043 288.405 194.043 275.748C194.043 263.09 194.043 250.929 194.043 250.929C194.043 250.929 186.597 254.652 185.853 258.375C185.108 262.098 185.108 264.828 183.123 267.558C181.137 270.287 145.15 288.902 145.15 288.902Z" fill="white" stroke="#263238" stroke-miterlimit="10" stroke-linecap="round" stroke-linejoin="round"/>
<path d="M184.93 270.759L155.577 297.924L148.856 283.775L184.93 270.759Z" fill="#263238" stroke="#263238" stroke-miterlimit="10" stroke-linecap="round" stroke-linejoin="round"/>
<path d="M114.884 230.259C114.884 230.259 111.085 231.779 111.655 233.108C112.225 234.438 121.723 240.136 121.723 240.136L115.265 234.057L114.884 230.259Z" fill="#263238" stroke="#263238" stroke-miterlimit="10" stroke-linecap="round" stroke-linejoin="round"/>
<path d="M120.669 214.423C120.669 214.423 117.456 216.993 114.457 207.783C111.458 198.572 111.672 193.431 112.958 195.145C114.243 196.859 114.886 198.572 114.886 198.572C114.886 198.572 113.815 197.715 117.885 189.147C121.955 180.579 127.31 175.866 126.453 179.079C125.596 182.292 124.739 184.862 124.739 184.862C124.739 184.862 126.024 178.222 133.093 175.223C140.162 172.224 144.232 171.796 143.375 173.295C142.518 174.795 140.162 176.508 140.162 176.508C140.162 176.508 158.369 173.509 166.723 175.223C175.077 176.937 166.937 179.721 166.937 179.721C166.937 179.721 178.504 181.435 187.501 187.004C196.497 192.573 190.5 193.002 190.5 193.002L191.357 197.714C191.357 197.714 195.641 206.282 197.141 215.064C198.64 223.846 196.498 230.058 196.498 230.701C196.498 231.344 191.357 235.414 187.073 235.628C182.789 235.842 183.003 231.987 182.361 230.273C181.718 228.559 180.219 216.992 178.077 214.636C175.935 212.28 169.08 209.495 169.08 207.782C169.08 206.068 169.508 202.427 167.581 201.57C165.653 200.713 142.305 194.287 136.093 199.642C129.881 204.997 127.953 208.424 127.953 208.424L120.669 214.423Z" fill="#263238" stroke="#263238" stroke-miterlimit="10" stroke-linecap="round" stroke-linejoin="round"/>
<path d="M124.953 201.143C124.953 201.143 119.384 209.711 119.812 216.566C120.24 223.42 121.954 251.053 125.167 262.62C128.38 274.187 139.519 290.252 146.159 290.466C152.799 290.68 181.717 274.615 184.93 270.759C188.143 266.903 188.143 260.691 188.143 260.691L188.571 257.692C188.571 257.692 194.14 255.122 197.567 251.908C200.994 248.695 203.565 240.341 202.494 234.986C201.423 229.631 198.21 228.346 198.21 228.346C198.21 228.346 196.925 227.275 194.354 228.132C191.784 228.989 189.213 230.917 189.213 230.917C189.213 230.917 189.856 231.56 188.785 232.416C187.714 233.273 185.786 233.487 185.572 232.844C185.358 232.201 185.358 228.132 184.501 226.204C183.644 224.276 182.359 222.991 182.787 222.134C183.215 221.277 184.501 219.135 183.858 216.993C183.215 214.851 173.362 209.282 174.219 206.497C175.076 203.712 181.288 203.07 178.075 199.857C174.862 196.644 142.732 191.932 137.376 192.788C132.02 193.644 126.024 198.787 124.953 201.143Z" fill="white" stroke="#263238" stroke-miterlimit="10" stroke-linecap="round" stroke-linejoin="round"/>
<path d="M137.377 225.562C137.377 225.562 132.45 243.555 133.736 244.626C135.021 245.697 139.948 248.053 139.948 248.053" stroke="#263238" stroke-miterlimit="10" stroke-linecap="round" stroke-linejoin="round"/>
<path d="M160.376 221.432C160.376 223.007 159.391 224.284 158.176 224.284C156.961 224.284 155.976 223.007 155.976 221.432C155.976 219.857 156.961 218.58 158.176 218.58C159.391 218.58 160.376 219.857 160.376 221.432Z" fill="#263238"/>
<path d="M125.66 232.108C125.66 232.108 128.431 228.033 132.342 228.359" stroke="#263238" stroke-miterlimit="10" stroke-linecap="round" stroke-linejoin="round"/>
<path d="M134.95 220.699C134.95 220.699 130.712 219.395 127.29 220.862C123.867 222.329 122.074 224.122 122.889 225.1C123.704 226.078 128.105 222.818 130.06 222.818C132.016 222.818 137.232 222.818 136.58 221.84C135.928 220.861 134.95 220.699 134.95 220.699Z" fill="#263238" stroke="#263238" stroke-miterlimit="10" stroke-linecap="round" stroke-linejoin="round"/>
<path d="M147.174 214.668C147.174 214.668 153.368 209.289 157.279 208.311C161.19 207.333 166.732 210.756 166.569 211.897C166.406 213.038 159.398 210.919 158.094 211.571C156.79 212.223 150.759 216.461 147.989 216.624C145.218 216.787 146.685 215.32 147.174 214.668Z" fill="#263238" stroke="#263238" stroke-miterlimit="10" stroke-linecap="round" stroke-linejoin="round"/>
<path d="M136.091 262.913C136.091 262.913 142.447 258.675 145.218 258.186C147.989 257.697 154.019 258.023 154.019 258.023" stroke="#263238" stroke-miterlimit="10" stroke-linecap="round" stroke-linejoin="round"/>
<path d="M143.099 244.332C143.099 244.332 147.5 245.962 148.478 245.636C149.456 245.31 149.456 243.354 148.315 242.213" stroke="#263238" stroke-miterlimit="10" stroke-linecap="round" stroke-linejoin="round"/>
<path d="M135.399 231.019C134.259 238.427 130.449 243.366 125.047 243.366C119.644 243.366 115.264 238.391 115.264 232.254C115.264 226.117 119.644 221.142 125.047 221.142C128.424 221.142 133.452 221.225 135.209 224.181C136.264 225.954 135.749 228.744 135.399 231.019Z" stroke="#263238" stroke-miterlimit="10" stroke-linecap="round" stroke-linejoin="round"/>
<path d="M147.746 231.589C153.112 236.822 158.714 235.72 163.03 232.47C167.346 229.22 169.483 220.536 165.791 215.633C162.1 210.73 153.978 211.466 149.662 214.715C146.964 216.746 142.998 219.837 143.371 223.256C143.596 225.307 146.098 229.982 147.746 231.589Z" stroke="#263238" stroke-miterlimit="10" stroke-linecap="round" stroke-linejoin="round"/>
<path d="M143.377 221.141C135.969 219.241 135.209 224.18 135.209 224.18" stroke="#263238" stroke-miterlimit="10" stroke-linecap="round" stroke-linejoin="round"/>
<path d="M165.032 214.113C165.032 214.113 169.401 213.163 170.161 213.543C170.921 213.923 194.355 228.132 194.355 228.132L191.625 228.739L170.54 215.822L166.931 216.962L165.032 214.113Z" fill="#263238" stroke="#263238" stroke-miterlimit="10" stroke-linecap="round" stroke-linejoin="round"/>
<path d="M134.671 310.836L144.431 334.866L152.606 314.088L143.409 300.804L134.671 310.836Z" fill="#176B87" stroke="#263238" stroke-miterlimit="10" stroke-linecap="round" stroke-linejoin="round"/>
<path d="M232.154 467.623C230.387 467.034 229.808 463.576 229.808 463.576L112.271 480.072L127 433.234C127 433.234 144.732 433.614 161.256 435.92C177.78 438.226 231.002 431.501 235.421 430.732C239.84 429.964 250.024 431.116 251.368 431.693C252.713 432.27 255.211 433.23 256.748 437.265C257.232 438.535 261.167 448.985 262.32 451.099C263.473 453.212 263.665 457.44 262.512 459.169C261.359 460.898 258.669 463.396 258.669 463.396C258.669 463.396 251.56 472.619 250.215 473.771C248.87 474.924 236.765 476.653 236.765 476.653C236.765 476.653 230.425 473.195 229.656 472.618C228.887 472.042 231.193 468.391 231.193 468.391L232.154 467.623Z" fill="white" stroke="#263238" stroke-miterlimit="10" stroke-linecap="round" stroke-linejoin="round"/>
<path d="M129.774 450.699L124.601 478.287L116.324 479.322L129.774 450.699Z" fill="#263238" stroke="#263238" stroke-miterlimit="10" stroke-linecap="round" stroke-linejoin="round"/>
<path d="M246.949 459.553C246.949 459.553 251.368 469.928 251.368 471.466" stroke="#263238" stroke-miterlimit="10" stroke-linecap="round" stroke-linejoin="round"/>
<path d="M249.638 446.488C249.638 446.488 259.437 462.435 258.669 463.396" stroke="#263238" stroke-miterlimit="10" stroke-linecap="round" stroke-linejoin="round"/>
<path d="M253.289 437.073L260.59 447.833" stroke="#263238" stroke-miterlimit="10" stroke-linecap="round" stroke-linejoin="round"/>
<path d="M245.678 334.595C245.678 334.595 237.069 339.545 232.335 349.23C227.6 358.915 207.8 401.958 207.8 401.958C207.8 401.958 191.444 455.332 195.102 461.788C198.761 468.245 217.915 480.727 222.004 480.727C226.093 480.727 231.473 472.549 235.778 466.092C240.082 459.635 259.021 409.921 265.908 388.829C272.795 367.738 271.073 346.216 267.415 339.329C263.756 332.442 258.161 328.353 252.78 330.075" fill="#176B87"/>
<path d="M245.678 334.595C245.678 334.595 237.069 339.545 232.335 349.23C227.6 358.915 207.8 401.958 207.8 401.958C207.8 401.958 191.444 455.332 195.102 461.788C198.761 468.245 217.915 480.727 222.004 480.727C226.093 480.727 231.473 472.549 235.778 466.092C240.082 459.635 259.021 409.921 265.908 388.829C272.795 367.738 271.073 346.216 267.415 339.329C263.756 332.442 258.161 328.353 252.78 330.075" stroke="#263238" stroke-miterlimit="10" stroke-linecap="round" stroke-linejoin="round"/>
<path d="M177.885 446.722C177.885 446.722 171.429 457.268 173.796 461.787C176.163 466.307 186.709 477.283 192.304 481.587C197.9 485.891 209.091 484.17 215.763 480.296C222.435 476.422 226.954 466.092 231.259 455.546C235.563 445 240.728 428.859 237.5 422.188C234.272 415.516 223.081 406.692 220.068 406.477C217.055 406.262 177.885 446.722 177.885 446.722Z" fill="#176B87" stroke="#263238" stroke-miterlimit="10" stroke-linecap="round" stroke-linejoin="round"/>
<path d="M175.907 323.311C175.907 323.311 173.828 290.392 173.481 288.313C173.134 286.234 160.66 282.769 157.888 282.595C155.116 282.422 135.537 293.337 133.978 294.03C132.419 294.723 131.033 295.763 131.552 298.535C132.072 301.307 134.324 309.277 134.671 310.836C135.017 312.395 142.121 315.341 142.121 315.341C142.121 315.341 145.933 327.469 148.185 330.588C150.437 333.707 156.848 338.385 156.848 338.385C156.848 338.385 165.178 393.876 166.978 413.876C168.778 433.876 171.378 440.076 174.778 446.676C178.178 453.276 189.978 469.476 194.178 470.676C198.378 471.876 204.578 461.876 214.578 446.476C224.578 431.076 227.178 417.276 223.578 411.476C219.978 405.676 204.578 385.876 204.178 385.276C203.778 384.676 181.178 336.876 178.978 332.477C176.779 328.077 175.907 323.311 175.907 323.311Z" fill="white" stroke="#263238" stroke-miterlimit="10" stroke-linecap="round" stroke-linejoin="round"/>
<path d="M142.121 315.341L138.979 302.077" stroke="#263238" stroke-miterlimit="10" stroke-linecap="round" stroke-linejoin="round"/>
<path d="M140.01 306.621C140.01 306.621 138.779 308.277 136.579 308.477L140.01 306.621Z" fill="white"/>
<path d="M140.01 306.621C140.01 306.621 138.779 308.277 136.579 308.477" stroke="#263238" stroke-miterlimit="10" stroke-linecap="round" stroke-linejoin="round"/>
<path d="M139.313 303.72C139.313 303.72 137.573 304.068 135.832 301.864L139.313 303.72Z" fill="white"/>
<path d="M139.313 303.72C139.313 303.72 137.573 304.068 135.832 301.864" stroke="#263238" stroke-miterlimit="10" stroke-linecap="round" stroke-linejoin="round"/>
<path d="M177.292 316.75L183.922 333.104L210.663 309.015L202.265 293.767L177.292 316.75Z" fill="#176B87" stroke="#263238" stroke-miterlimit="10" stroke-linecap="round" stroke-linejoin="round"/>
<path d="M86.905 329.347C86.905 329.347 80.503 335.424 78.956 342.23C77.409 349.036 61.941 433.182 61.632 450.197C61.323 467.212 71.841 472.162 76.481 475.255C81.121 478.349 92.258 477.42 92.258 477.42L108.035 428.541C108.035 428.541 109.891 406.267 108.035 388.015C106.179 369.763 96.898 342.848 96.898 342.848" fill="#176B87"/>
<path d="M86.905 329.347C86.905 329.347 80.503 335.424 78.956 342.23C77.409 349.036 61.941 433.182 61.632 450.197C61.323 467.212 71.841 472.162 76.481 475.255C81.121 478.349 92.258 477.42 92.258 477.42L108.035 428.541C108.035 428.541 109.891 406.267 108.035 388.015C106.179 369.763 96.898 342.848 96.898 342.848" stroke="#263238" stroke-miterlimit="10" stroke-linecap="round" stroke-linejoin="round"/>
<path d="M104.324 426.066C104.324 426.066 87.928 446.793 86.381 460.096C84.834 473.398 87.618 479.276 90.403 480.514C93.187 481.751 111.749 485.773 113.914 484.845C116.08 483.917 134.332 442.463 135.569 438.441C136.806 434.419 137.116 430.707 134.022 429.779C130.929 428.85 105.562 422.354 104.324 426.066Z" fill="#176B87" stroke="#263238" stroke-miterlimit="10" stroke-linecap="round" stroke-linejoin="round"/>
<path d="M81.0851 427.315C81.0851 427.315 85.2391 421.84 94.6791 421.84C104.12 421.84 107.329 423.917 107.329 423.917" stroke="#263238" stroke-miterlimit="10" stroke-linecap="round" stroke-linejoin="round"/>
<path d="M83.917 417.309C83.917 417.309 95.812 415.232 103.742 420.896" stroke="#263238" stroke-miterlimit="10" stroke-linecap="round" stroke-linejoin="round"/>
<path d="M426.86 497.179C431.974 490.846 435.025 472.679 435.025 472.679C441.754 477.48 446.282 484.179 446.282 484.179C446.282 484.179 453.282 483.346 462.996 480.008C472.277 476.819 478.782 472.179 478.782 472.179C467.91 456.153 449.509 428.916 438.186 420.353C433.803 417.039 420.235 413.814 420.235 413.814C417.157 411.033 410.461 413.814 410.461 413.814C374.216 423.032 341.059 411.089 341.059 411.089C341.059 411.089 336.362 408.922 332.512 411.089C332.512 411.089 326.43 410.363 321.231 411.089C312.935 412.233 303.867 421.71 300.127 426.017C299.011 427.309 268.273 462.907 268.273 462.907C268.273 462.907 267.207 477.426 269.449 479.346C287.464 494.777 313.995 459.714 313.995 459.714C314.163 459.785 314.576 490.249 328.782 506.179C328.782 506.179 338.856 510.777 378.014 507.179C416.869 503.61 426.86 497.179 426.86 497.179Z" fill="#176B87"/>
<path opacity="0.2" d="M291.032 452.009C285.002 452.539 281.882 451.099 280.682 448.539C280.682 448.539 280.682 448.539 280.682 448.528C289.362 438.488 299.492 426.749 300.122 426.018C300.422 425.668 300.762 425.289 301.122 424.878C305.622 434.959 309.362 450.409 291.032 452.009Z" fill="black"/>
<path opacity="0.2" d="M317.702 483.779C314.292 471.239 314.092 459.759 313.992 459.719C313.992 459.719 318.352 454.009 319.562 448.009C319.562 448.009 325.222 470.579 317.702 483.779Z" fill="black"/>
<path opacity="0.2" d="M442.972 480.009C441.022 477.779 438.272 474.999 435.022 472.679C435.022 472.679 435.452 458.349 439.452 454.009C442.672 450.519 446.102 468.639 442.972 480.009Z" fill="black"/>
<path d="M426.86 497.179C431.974 490.846 435.025 472.679 435.025 472.679C441.754 477.48 446.282 484.179 446.282 484.179" stroke="#263238" stroke-miterlimit="10" stroke-linecap="round" stroke-linejoin="round"/>
<path d="M478.782 472.179C467.91 456.153 449.509 428.916 438.186 420.353C433.803 417.039 420.235 413.814 420.235 413.814C417.157 411.033 410.461 413.814 410.461 413.814C374.216 423.032 341.059 411.089 341.059 411.089C341.059 411.089 336.362 408.922 332.512 411.089C332.512 411.089 326.43 410.363 321.231 411.089C312.935 412.233 303.867 421.71 300.127 426.017C299.011 427.309 268.273 462.907 268.273 462.907C268.273 462.907 267.207 477.426 269.449 479.346C287.464 494.777 313.995 459.714 313.995 459.714C314.163 459.785 314.576 490.249 328.782 506.179" stroke="#263238" stroke-miterlimit="10" stroke-linecap="round" stroke-linejoin="round"/>
<path d="M411.8 405.014C411.501 405.139 411.322 405.205 411.322 405.205C411.491 405.165 411.648 405.096 411.8 405.014Z" fill="#263238"/>
<path d="M422.568 378.026C426.375 378.587 427.304 375.799 427.304 375.799C427.304 375.799 422.568 378.026 418.386 369.449C416.004 364.562 417.177 355.581 418.627 348.757C421.557 343.925 425.808 337.252 426.37 329.326C427.337 315.726 420.98 308.834 413.608 310.855C413.608 310.855 413.068 299.366 402.699 295.245C392.331 291.125 390.675 294.512 380.732 292.01C370.79 289.508 360.948 291.689 357.366 298.161C353.784 304.633 352.572 316.381 346.458 320.925C340.344 325.469 329.656 336.425 333.037 348.677C336.418 360.929 334.504 365.118 330.022 370.907C325.54 376.696 328.268 388.095 336.821 391.635C336.821 391.635 333.209 389.709 335.763 386.478C335.763 386.478 337.745 394.158 344.434 392.756C351.122 391.355 359.574 390.891 363.889 395.622C368.205 400.352 384.003 401.642 387.561 398.018C391.12 394.394 393.88 397.759 400.332 400.99C406.784 404.22 413.942 401.386 413.942 401.386C413.942 401.386 413.338 404.18 411.799 405.015C413.111 404.461 416.739 402.729 417.756 400.134C418.753 397.584 419.415 395.017 418.144 388.948C422.617 387.195 420.548 384.242 420.548 384.242C424.734 386.66 426.733 379.677 426.733 379.677C422.851 379.623 422.568 378.026 422.568 378.026Z" fill="#263238"/>
<path d="M414.089 415.058C414.089 415.058 385.86 427.623 376.796 428.129C367.731 428.648 336.869 412.231 336.869 412.231L360.392 405.812C363.595 399.705 363.673 392.534 362.908 384.118C362.661 381.513 362.35 379.048 362.013 376.844C361.209 371.514 360.327 367.793 360.327 367.793L393.563 369.167C392.863 371.28 392.305 373.446 391.851 375.612C390.877 380.28 390.424 384.974 390.282 389.319C389.906 400.82 391.683 407.356 391.683 407.356L414.089 415.058Z" fill="white" stroke="#263238" stroke-miterlimit="10" stroke-linecap="round" stroke-linejoin="round"/>
<path d="M345.372 416.547C345.372 416.547 363.173 419.669 367.592 419.155C372.012 418.643 375.482 423.003 375.482 423.003" fill="white"/>
<path d="M345.372 416.547C345.372 416.547 363.173 419.669 367.592 419.155C372.012 418.643 375.482 423.003 375.482 423.003" stroke="#263238" stroke-miterlimit="10" stroke-linecap="round" stroke-linejoin="round"/>
<path d="M407.922 417.708C407.922 417.708 389.8 419.625 385.396 419.774C380.99 419.925 379.707 423.002 379.707 423.002" fill="white"/>
<path d="M407.922 417.708C407.922 417.708 389.8 419.625 385.396 419.774C380.99 419.925 379.707 423.002 379.707 423.002" stroke="#263238" stroke-miterlimit="10" stroke-linecap="round" stroke-linejoin="round"/>
<path d="M391.85 375.612C390.876 380.28 390.423 384.974 390.281 389.319C387.753 391.484 384.576 393.61 380.971 394.816C375.381 396.671 367.951 389.85 362.907 384.118C362.66 381.513 362.349 379.048 362.012 376.844L391.85 375.612Z" fill="#263238"/>
<path d="M352.606 339.806C352.606 339.806 349.866 335.6 347.418 336.448C344.97 337.298 344.979 348.708 345.175 351.675C345.371 354.643 351.335 361.274 353.834 359.457" fill="white"/>
<path d="M352.606 339.806C352.606 339.806 349.866 335.6 347.418 336.448C344.97 337.298 344.979 348.708 345.175 351.675C345.371 354.643 351.335 361.274 353.834 359.457" stroke="#263238" stroke-miterlimit="10" stroke-linecap="round" stroke-linejoin="round"/>
<path d="M412.779 348.669C412.779 348.669 416.616 345.433 418.714 346.951C420.813 348.471 417.514 359.392 416.471 362.176C415.427 364.96 407.804 369.591 405.936 367.131" fill="white"/>
<path d="M412.779 348.669C412.779 348.669 416.616 345.433 418.714 346.951C420.813 348.471 417.514 359.392 416.471 362.176C415.427 364.96 407.804 369.591 405.936 367.131" stroke="#263238" stroke-miterlimit="10" stroke-linecap="round" stroke-linejoin="round"/>
<path d="M375.607 392.346C365.528 390.862 355.528 373.777 354.324 368.97C352.985 363.619 350.029 337.226 355.784 322.765C362.25 306.516 375.784 299.661 388.972 301.604C402.161 303.547 413.143 314.013 414.65 331.436C415.991 346.942 405.55 371.362 402.724 376.1C400.186 380.356 386.228 393.911 375.607 392.346Z" fill="white" stroke="#263238" stroke-miterlimit="10" stroke-linecap="round" stroke-linejoin="round"/>
<path d="M398.435 350.009C398.161 351.875 397.104 353.265 396.077 353.113C395.049 352.962 394.438 351.326 394.714 349.461C394.989 347.595 396.045 346.204 397.072 346.357C398.099 346.508 398.71 348.143 398.435 350.009Z" fill="#263238"/>
<path d="M365.554 345.165C365.279 347.031 365.889 348.667 366.917 348.817C367.945 348.968 369 347.579 369.275 345.713C369.549 343.848 368.939 342.212 367.912 342.061C366.884 341.909 365.828 343.299 365.554 345.165Z" fill="#263238"/>
<path d="M388.073 370.417C388.073 370.417 382.856 380.656 376.188 378.982C369.64 377.336 369.584 368.017 369.584 367.71C369.584 367.71 369.919 367.851 370.523 368.073C371.974 368.622 374.959 369.627 378.662 370.166C381.759 370.621 385.033 370.575 386.781 370.491C387.591 370.454 388.073 370.417 388.073 370.417Z" fill="#B9D7EA"/>
<path d="M379.382 349.109C379.646 355.543 374.127 356.631 375.181 358.861C376.236 361.09 378.724 361.801 378.724 361.801" fill="white"/>
<path d="M379.382 349.109C379.646 355.543 374.127 356.631 375.181 358.861C376.236 361.09 378.724 361.801 378.724 361.801" stroke="#263238" stroke-miterlimit="10" stroke-linecap="round" stroke-linejoin="round"/>
<path d="M369.584 367.697C369.584 367.697 369.523 377.314 376.192 378.987C382.858 380.661 388.071 370.422 388.071 370.422" stroke="#263238" stroke-miterlimit="10" stroke-linecap="round" stroke-linejoin="round"/>
<path d="M359.607 336.689C359.607 336.689 365.616 329.105 374.915 331.512" stroke="#263238" stroke-miterlimit="10" stroke-linecap="round" stroke-linejoin="round"/>
<path d="M405.692 343.478C405.692 343.478 402.124 334.483 392.527 334.107" stroke="#263238" stroke-miterlimit="10" stroke-linecap="round" stroke-linejoin="round"/>
<path d="M433.822 337.425L431.959 339.484L430.517 341.08L413.848 350.762L414.536 346.092L428.183 338.154L431.136 337.777L433.822 337.425Z" fill="#176B87" stroke="#263238" stroke-miterlimit="10" stroke-linecap="round" stroke-linejoin="round"/>
<path d="M429.823 341.488C427.356 341.023 428.183 338.149 428.183 338.149L433.822 337.425L429.823 341.488Z" fill="white" stroke="#263238" stroke-miterlimit="10" stroke-linecap="round" stroke-linejoin="round"/>
<path d="M433.822 337.425L431.959 339.484C430.712 339.143 431.087 337.927 431.137 337.777L433.822 337.425Z" fill="#263238"/>
<path d="M398.85 315.506C398.85 315.506 392.525 323.812 378.781 326.204C361.574 329.201 352.075 344.089 352.307 350.295C352.307 350.295 347.013 338.637 349.365 322.908C352.778 300.071 374.087 293.537 389.581 295.128C405.075 296.72 412.553 312.253 412.553 312.253C412.553 312.253 424.186 321.313 422.5 332.732C420.887 343.66 418.228 343.964 416.826 346.435C414.883 349.863 417.433 351.29 410.632 356.915C410.632 356.915 413.32 341.663 409.984 330.282C406.647 318.903 398.85 315.506 398.85 315.506Z" fill="#263238"/>
<path d="M403.11 311.64C403.11 311.64 397.045 334.815 362.546 338.44C362.546 338.44 385.784 334.237 396.529 313.004L403.11 311.64Z" fill="#263238"/>
<path d="M376.932 373.953C376.932 373.953 381.675 372.262 383.5 373.956C383.5 373.956 380.383 378.929 376.375 377.734C372.367 376.54 371.511 371.736 371.511 371.736C371.511 371.736 373.683 370.724 376.932 373.953Z" fill="#D6E6F2"/>
<path d="M387.446 370.497L386.092 372.026C377.721 373.309 370.523 369.542 370.523 369.542L370.053 367.876C371.504 368.424 374.959 369.627 378.661 370.166C381.759 370.621 385.697 370.58 387.446 370.497Z" fill="white"/>
<path d="M368.093 367.077C368.093 367.077 378.93 372.131 389.409 370.217" stroke="#263238" stroke-miterlimit="10" stroke-linecap="round" stroke-linejoin="round"/>
<path d="M402.194 305.916C402.194 305.916 394.84 315.547 376.93 317.019C359.022 318.491 353.834 325.909 353.834 325.909" stroke="#B9D7EA" stroke-miterlimit="10" stroke-linecap="round" stroke-linejoin="round"/>
<path d="M361.865 306.691C360.198 307.006 357.916 307.604 357.121 309.293" stroke="#B9D7EA" stroke-miterlimit="10" stroke-linecap="round" stroke-linejoin="round"/>
<path d="M404.401 298.438C393.598 306.513 379.647 307.443 365.48 306.295" stroke="#B9D7EA" stroke-miterlimit="10" stroke-linecap="round" stroke-linejoin="round"/>
<path d="M335.979 372.257C333.953 374.63 332.717 377.119 332.838 380.305" stroke="#B9D7EA" stroke-miterlimit="10" stroke-linecap="round" stroke-linejoin="round"/>
<path d="M348.893 327.25C343.869 330.099 339.846 335.336 339.577 341.232C339.122 351.204 346.27 360.204 338.856 368.937" stroke="#B9D7EA" stroke-miterlimit="10" stroke-linecap="round" stroke-linejoin="round"/>
<path d="M346.819 359.767C346.819 359.767 352.362 365.628 348.763 371.586C345.163 377.545 343.301 383.592 350.682 387.985" stroke="#B9D7EA" stroke-miterlimit="10" stroke-linecap="round" stroke-linejoin="round"/>
<path d="M387.227 329.024C386.047 329.766 384.825 330.439 383.567 331.041" stroke="#B9D7EA" stroke-miterlimit="10" stroke-linecap="round" stroke-linejoin="round"/>
<path d="M400.17 314.26C398.201 319.184 394.472 323.546 390.359 326.807" stroke="#B9D7EA" stroke-miterlimit="10" stroke-linecap="round" stroke-linejoin="round"/>
<path d="M404.401 315.084C404.401 315.084 411.889 319.16 414.768 325.908C417.647 332.656 413.59 342.157 415.475 345.438" stroke="#B9D7EA" stroke-miterlimit="10" stroke-linecap="round" stroke-linejoin="round"/>
<path d="M416.052 380.928C417.081 381.577 418.215 382.049 419.4 382.328" stroke="#B9D7EA" stroke-miterlimit="10" stroke-linecap="round" stroke-linejoin="round"/>
<path d="M410.12 371.586C410.585 373.997 411.642 376.357 413.159 378.287" stroke="#B9D7EA" stroke-miterlimit="10" stroke-linecap="round" stroke-linejoin="round"/>
<path d="M407.161 376.957C407.161 376.957 406.467 384.576 411.321 389.615C416.175 394.654 414.759 397.797 414.759 397.797" stroke="#B9D7EA" stroke-miterlimit="10" stroke-linecap="round" stroke-linejoin="round"/>
<path d="M399.11 385.649C399.11 385.649 402.009 393.367 397.41 395.942" stroke="#B9D7EA" stroke-miterlimit="10" stroke-linecap="round" stroke-linejoin="round"/>
<path d="M410.12 312.972C410.12 312.972 421.063 315.179 422.667 319.963C424.27 324.746 422.667 330.262 422.667 330.262" stroke="#B9D7EA" stroke-miterlimit="10" stroke-linecap="round" stroke-linejoin="round"/>
<path d="M269.449 479.346C260.176 474.199 261.972 455.679 268.115 432.553C271.133 421.193 281.534 392.58 281.321 391.511C280.902 389.428 279.024 385.968 279.024 385.968C279.024 385.968 282 382.907 283.284 382.359C288.697 380.053 299.374 377.142 304.276 379.17C305.801 379.802 308.024 383.373 307.717 384.834C307.4 386.294 303.02 391.094 303.439 395.688C303.857 400.273 299.868 415.471 299.979 421.516C299.998 422.762 300.054 424.325 300.128 426.018C300.174 427.097 300.117 446.013 292.841 455.68" fill="#176B87"/>
<path d="M269.449 479.346C260.176 474.199 261.972 455.679 268.115 432.553C271.133 421.193 281.534 392.58 281.321 391.511C280.902 389.428 279.024 385.968 279.024 385.968C279.024 385.968 282 382.907 283.284 382.359C288.697 380.053 299.374 377.142 304.276 379.17C305.801 379.802 308.024 383.373 307.717 384.834C307.4 386.294 303.02 391.094 303.439 395.688C303.857 400.273 299.868 415.471 299.979 421.516C299.998 422.762 300.054 424.325 300.128 426.018C300.174 427.097 300.117 446.013 292.841 455.68" stroke="#263238" stroke-miterlimit="10" stroke-linecap="round" stroke-linejoin="round"/>
<path d="M299.625 335.712C299.819 337.552 303.797 350.671 305.02 364.082C305.02 364.082 309.587 362.453 312.076 360.278C314.566 358.101 319.777 359.841 319.559 361.292C319.341 362.742 314.57 362.487 310.509 367.931C306.448 373.375 305.635 379.396 300.258 382.304C294.881 385.212 286.511 386.229 283.281 382.357C280.052 378.485 276.406 357.961 277.669 355.817C278.932 353.673 281.655 351.784 281.655 351.784C281.655 351.784 283.023 347.776 285.102 347.474C287.181 347.172 292.142 347.057 292.142 347.057C292.142 347.057 293.872 345.669 296.116 345.962C296.116 345.962 294.498 330.557 293.074 325.388C291.65 320.22 297.992 320.252 299.625 335.712Z" fill="white" stroke="#263238" stroke-miterlimit="10" stroke-linecap="round" stroke-linejoin="round"/>
<path d="M296.115 345.962C300.364 347.878 302.244 355.966 302.244 356.538C302.244 357.111 299.989 363.214 299.179 364.978C298.125 367.279 295.832 364.978 295.832 364.978C295.832 364.978 295.137 368 293.523 366.669C291.471 364.978 291.471 359.505 291.471 359.505C291.471 359.505 291.226 364.056 290.029 366.274C288.832 368.493 286.446 367.019 286.788 360.447C286.788 360.447 281.896 359.25 281.725 358.052" stroke="#263238" stroke-miterlimit="10" stroke-linecap="round" stroke-linejoin="round"/>
<path d="M291.472 359.506C290.275 356.428 285.658 353.597 285.658 353.597" stroke="#263238" stroke-miterlimit="10" stroke-linecap="round" stroke-linejoin="round"/>
<path d="M295.832 364.979C295.832 364.979 298.243 358.018 297.593 356.539C296.944 355.06 292.84 351.128 292.84 351.128" stroke="#263238" stroke-miterlimit="10" stroke-linecap="round" stroke-linejoin="round"/>
<path d="M305.019 364.082C305.019 364.082 300.503 365.064 298.488 370.835" stroke="#263238" stroke-miterlimit="10" stroke-linecap="round" stroke-linejoin="round"/>
<path d="M281.321 391.511C281.321 391.511 288.624 397.525 296.473 392.471" stroke="#263238" stroke-miterlimit="10" stroke-linecap="round" stroke-linejoin="round"/>
<path d="M287.464 409.32C286.054 410.13 284.555 410.79 282.983 411.212" stroke="#263238" stroke-miterlimit="10" stroke-linecap="round" stroke-linejoin="round"/>
<path d="M305.019 389.615C301.449 396.024 296.776 402.271 291.029 406.87" stroke="#263238" stroke-miterlimit="10" stroke-linecap="round" stroke-linejoin="round"/>
<path d="M332.511 411.089C332.511 411.089 346.757 424.466 355.097 428.141" stroke="#263238" stroke-miterlimit="10" stroke-linecap="round" stroke-linejoin="round"/>
<path d="M318.305 425.565C318.899 427.35 319.41 429.198 319.564 431.08" stroke="#263238" stroke-miterlimit="10" stroke-linecap="round" stroke-linejoin="round"/>
<path d="M313.354 414.228C314.633 416.644 315.795 419.128 316.839 421.656" stroke="#263238" stroke-miterlimit="10" stroke-linecap="round" stroke-linejoin="round"/>
<path d="M371.512 432.552C371.512 432.552 394.836 432.869 409.799 422.654" stroke="#263238" stroke-miterlimit="10" stroke-linecap="round" stroke-linejoin="round"/>
<path d="M420.235 413.814C420.235 413.814 416.795 416.117 414.768 418.57" stroke="#263238" stroke-miterlimit="10" stroke-linecap="round" stroke-linejoin="round"/>
<path d="M431.938 430.904C429.528 433.358 426.83 435.552 423.835 437.255" stroke="#263238" stroke-miterlimit="10" stroke-linecap="round" stroke-linejoin="round"/>
<path d="M437.025 424.702C436.27 425.849 435.434 426.941 434.558 427.999" stroke="#263238" stroke-miterlimit="10" stroke-linecap="round" stroke-linejoin="round"/>
<path d="M313.995 459.714C313.995 459.714 319.68 452.345 319.564 443.512" stroke="#263238" stroke-miterlimit="10" stroke-linecap="round" stroke-linejoin="round"/>
<path d="M435.025 472.679C435.025 472.679 433.797 457.845 444.207 447.012" stroke="#263238" stroke-miterlimit="10" stroke-linecap="round" stroke-linejoin="round"/>
<path d="M446.282 455.179C446.782 455.679 437.402 463.857 435.176 467.518" stroke="#263238" stroke-miterlimit="10" stroke-linecap="round" stroke-linejoin="round"/>
<path d="M343.804 491.845C343.804 491.845 377.934 505.413 395.608 505.129" stroke="#263238" stroke-miterlimit="10" stroke-linecap="round" stroke-linejoin="round"/>
<path d="M382.042 466.467C382.042 467.124 381.509 467.658 380.851 467.658H376.806C376.148 467.658 375.614 467.124 375.614 466.467V460.286C375.614 459.628 376.148 459.095 376.806 459.095H380.851C381.509 459.095 382.042 459.628 382.042 460.286V466.467Z" fill="#D6E6F2"/>
<path d="M380.85 468.294H376.805C375.797 468.294 374.978 467.475 374.978 466.467V460.286C374.978 459.279 375.797 458.46 376.805 458.46H380.85C381.858 458.46 382.676 459.279 382.676 460.286V466.467C382.677 467.475 381.858 468.294 380.85 468.294ZM376.805 459.73C376.498 459.73 376.248 459.98 376.248 460.287V466.468C376.248 466.776 376.498 467.025 376.805 467.025H380.85C381.157 467.025 381.407 466.776 381.407 466.468V460.287C381.407 459.98 381.157 459.73 380.85 459.73H376.805Z" fill="#263238"/>
<path d="M391.682 407.356C391.682 407.356 409.798 411.089 378.828 458.153C378.828 458.153 342.75 412.445 360.39 405.812" stroke="#263238" stroke-miterlimit="10" stroke-linecap="round" stroke-linejoin="round"/>
<path d="M379.47 457.679C379.47 458.369 379.162 458.929 378.782 458.929C378.402 458.929 378.094 458.369 378.094 457.679C378.094 456.989 378.402 456.429 378.782 456.429C379.162 456.429 379.47 456.989 379.47 457.679Z" fill="#263238"/>
<path d="M349.996 235.153C355.879 234.258 355.753 221.709 345.376 218.058C334.999 214.407 340.323 206.273 345.494 208.07C350.666 209.866 350.727 221.868 358.476 222.94C366.226 224.013 367.859 208.506 363.6 203.515C359.34 198.524 368.032 200.585 369.068 199.087C370.744 196.661 365.17 185.036 371.25 186.064C374.264 186.574 371.105 194.053 373.357 205.172C375.61 216.292 378.313 221.83 383.4 215.912C388.486 209.994 382.916 205.36 386.655 202.564C390.393 199.769 393.407 202.314 393.052 205.846C392.697 209.377 392.542 212.851 395.017 211.587C397.493 210.323 401.573 204.409 403.595 199.757C405.617 195.106 407.927 195.408 408.109 198.872C408.292 202.336 399.096 209.842 398.849 215.022C398.603 220.202 402.204 229.528 410.363 223.312C418.523 217.096 420.4 214.835 423.245 218.157C426.09 221.481 423.969 226.92 428.589 226.855C433.209 226.791 438.97 214.485 441.876 215.416C444.783 216.347 450.274 219.035 440.283 224.561C430.293 230.087 426.904 229.843 427.346 235.87C427.789 241.897 451.193 242.611 448.833 246.604C446.472 250.597 420.285 250.119 417.552 259.96C414.819 269.8 428.985 268.294 426.503 273.804C424.02 279.314 418.29 271.444 413.08 266.797C407.87 262.152 407.764 265.608 403.206 267.089C398.649 268.571 397.637 265.951 394.703 265.212C391.768 264.471 393.56 270.49 389.146 269.848C384.732 269.205 387.776 268.305 384.788 267.157C381.8 266.008 379.215 277.406 372.788 275.631C366.362 273.857 362.454 268.661 358.434 272.326C354.415 275.991 357.349 283.777 351.614 283.236C345.88 282.695 347.914 277.349 350.337 276.727C352.76 276.106 359.32 267.311 358.187 263.952C357.053 260.592 346.115 269.557 343.8 264.925C341.485 260.293 339.449 256.325 333.855 257.72C328.26 259.114 327.407 251.314 331.785 251.441C336.162 251.567 346.323 252.322 347.119 248.656C347.915 244.989 345.314 240.898 338.407 237.427C331.499 233.957 338.276 226.969 343.135 230.836C347.992 234.703 345.344 235.86 349.996 235.153Z" fill="#176B87"/>
<path d="M376.071 239.532C376.071 239.532 372.741 240.304 375.432 243.934C375.432 243.934 372.386 244.436 374.513 248.15C374.513 248.15 372.673 249.711 374.963 252.485C374.963 252.485 373.892 255.162 379.24 258.858C379.24 258.858 379.202 261.152 382.916 262.03C386.165 262.798 387.038 261.439 387.038 261.439C387.038 261.439 391.298 260.924 393.643 257.401C393.643 257.401 397.397 256.249 396.313 253.951C396.313 253.951 399.357 251.577 397.737 250.039C397.737 250.039 401.232 246.513 399.47 245.342C396.369 243.281 376.071 239.532 376.071 239.532Z" fill="#263238" stroke="#263238" stroke-miterlimit="10" stroke-linecap="round" stroke-linejoin="round"/>
<path d="M401.391 198.08C420.428 205.992 420.673 224.409 414.139 233.6C408.189 241.969 400.172 241.338 399.47 245.342C398.77 249.348 376.37 243.511 375.329 240.647C374.287 237.784 378.935 238.168 370.332 226.686C361.729 215.204 378.013 188.363 401.391 198.08Z" fill="white"/>
<mask id="mask0_40_1305" style="mask-type:luminance" maskUnits="userSpaceOnUse" x="368" y="196" width="50" height="51">
<path d="M401.391 198.08C420.428 205.992 420.673 224.409 414.139 233.6C408.189 241.969 400.172 241.338 399.47 245.342C398.77 249.348 376.37 243.511 375.329 240.647C374.287 237.784 378.935 238.168 370.332 226.686C361.729 215.204 378.013 188.363 401.391 198.08Z" fill="white"/>
</mask>
<g mask="url(#mask0_40_1305)">
<path opacity="0.4" d="M399.473 245.341C398.771 249.347 376.372 243.509 375.33 240.649C374.286 237.781 378.933 238.166 370.333 226.686C361.728 215.204 378.012 188.361 401.393 198.077C403.852 199.097 405.998 200.299 407.856 201.628C398.293 199.525 385.297 199.157 378.131 212.336C370.333 226.686 382.463 239.735 388.566 240.751C388.566 240.751 383.515 237.07 381.835 230.881C381.835 230.881 390.454 243.669 403.959 241.534C401.557 242.69 399.787 243.551 399.473 245.341Z" fill="#176B87"/>
</g>
<path d="M401.391 198.08C420.428 205.992 420.673 224.409 414.139 233.6C408.189 241.969 400.172 241.338 399.47 245.342C398.77 249.348 376.37 243.511 375.329 240.647C374.287 237.784 378.935 238.168 370.332 226.686C361.729 215.204 378.013 188.363 401.391 198.08Z" stroke="#263238" stroke-miterlimit="10" stroke-linecap="round" stroke-linejoin="round"/>
<path d="M396.265 250.426C396.265 250.426 387.301 253.444 376.046 248.943" stroke="white" stroke-miterlimit="10" stroke-linecap="round" stroke-linejoin="round"/>
<path d="M391.016 247.762C391.552 247.724 392.086 247.655 392.613 247.55" stroke="white" stroke-miterlimit="10" stroke-linecap="round" stroke-linejoin="round"/>
<path d="M376.74 244.803C380.314 246.283 384.188 247.387 388.045 247.722" stroke="white" stroke-miterlimit="10" stroke-linecap="round" stroke-linejoin="round"/>
<path d="M382.871 254.55C386.604 255.139 390.563 255.254 394.212 254.129" stroke="white" stroke-miterlimit="10" stroke-linecap="round" stroke-linejoin="round"/>
<path d="M376.469 252.985C377.941 253.501 379.465 253.889 380.992 254.207" stroke="white" stroke-miterlimit="10" stroke-linecap="round" stroke-linejoin="round"/>
<path d="M388.592 257.901C385.25 257.557 381.981 256.608 378.899 255.286" stroke="white" stroke-miterlimit="10" stroke-linecap="round" stroke-linejoin="round"/>
<path d="M391.787 258.01C391.297 258.033 390.807 258.033 390.316 258.016" stroke="white" stroke-miterlimit="10" stroke-linecap="round" stroke-linejoin="round"/>
<path d="M380.056 259.429C380.056 259.429 382.76 261.493 386.22 261.467" stroke="white" stroke-miterlimit="10" stroke-linecap="round" stroke-linejoin="round"/>
<path d="M398.276 244.547C398.276 244.547 388.704 238.398 377.506 238.992" stroke="#263238" stroke-miterlimit="10" stroke-linecap="round" stroke-linejoin="round"/>
<path d="M391.573 242.808C391.573 242.808 397.061 230.844 404.726 230.032C404.726 230.032 400.083 226.303 398.275 225.74C396.466 225.176 395.321 229.125 396.585 228.702C397.848 228.279 399.648 222.811 397.496 221.379C395.346 219.949 391.186 227.064 392.408 227.647C393.629 228.23 395.161 220.745 392.162 219.899C389.162 219.052 386.939 225.503 388.346 225.634C389.752 225.765 390.239 222.96 387.033 221.888C383.565 220.73 379.214 222.432 379.214 222.432C379.214 222.432 385.935 230.466 383.716 240.712" stroke="#263238" stroke-miterlimit="10" stroke-linecap="round" stroke-linejoin="round"/>
<g filter="url(#filter0_f_40_1305)">
<path d="M84.2977 231.697C100.884 225.272 109.122 206.618 102.697 190.032C96.2724 173.446 77.6184 165.208 61.0321 171.633C44.4458 178.057 36.2082 196.711 42.6328 213.298C49.0574 229.884 67.7114 238.122 84.2977 231.697Z" fill="white"/>
<path d="M104.868 201.666C104.868 201.666 104.845 201.489 104.821 201.145C104.798 200.787 104.766 200.278 104.724 199.616C104.704 199.279 104.682 198.903 104.657 198.49C104.614 198.078 104.526 197.631 104.453 197.145C104.376 196.659 104.293 196.136 104.204 195.578C104.137 195.015 103.928 194.443 103.784 193.822C103.217 191.334 102.054 188.394 100.218 185.278C98.367 182.175 95.697 178.933 92.061 176.181C91.604 175.841 91.142 175.497 90.675 175.148C90.188 174.829 89.675 174.536 89.168 174.224C88.65 173.93 88.16 173.572 87.605 173.32C87.056 173.057 86.501 172.791 85.941 172.522C85.66 172.389 85.378 172.255 85.095 172.121C84.8 172.014 84.504 171.906 84.206 171.797C83.611 171.58 83.009 171.361 82.403 171.14C81.79 170.938 81.149 170.807 80.515 170.635C79.874 170.49 79.244 170.264 78.576 170.196C77.251 170.008 75.913 169.735 74.526 169.727C73.835 169.703 73.139 169.636 72.438 169.647C71.737 169.683 71.03 169.72 70.318 169.756C69.963 169.781 69.604 169.778 69.248 169.825L68.18 169.989C67.467 170.107 66.742 170.191 66.026 170.339C64.613 170.723 63.149 171.01 61.757 171.592C60.321 172.052 58.97 172.761 57.581 173.427C56.905 173.794 56.257 174.221 55.587 174.618C55.26 174.828 54.91 175.006 54.598 175.243L53.656 175.949C52.355 176.842 51.217 177.959 50.025 179.035C49.485 179.629 48.943 180.227 48.398 180.827L47.989 181.278L47.621 181.765L46.888 182.746L46.152 183.731L45.507 184.784L44.863 185.844L44.54 186.376L44.266 186.936C43.905 187.685 43.543 188.438 43.179 189.193C42.891 189.98 42.601 190.77 42.311 191.563C41.267 194.776 40.705 198.188 40.659 201.66C40.705 205.134 41.265 208.547 42.309 211.761C42.6 212.554 42.889 213.345 43.177 214.132C43.541 214.888 43.903 215.64 44.264 216.39L44.537 216.95L44.86 217.482L45.504 218.542L46.148 219.596L46.884 220.581L47.617 221.562L47.984 222.049L48.393 222.5C48.938 223.1 49.481 223.698 50.02 224.293C51.212 225.369 52.35 226.487 53.652 227.38L54.595 228.086C54.907 228.323 55.257 228.502 55.585 228.711C56.254 229.108 56.903 229.535 57.579 229.902C58.968 230.568 60.318 231.278 61.755 231.737C63.147 232.319 64.611 232.605 66.025 232.99C66.742 233.138 67.467 233.222 68.18 233.34L69.248 233.504C69.604 233.551 69.963 233.549 70.318 233.573C71.03 233.61 71.736 233.646 72.438 233.683C73.139 233.694 73.835 233.626 74.526 233.603C75.914 233.595 77.252 233.322 78.577 233.134C79.245 233.066 79.875 232.84 80.516 232.695C81.15 232.522 81.791 232.392 82.404 232.19C83.011 231.969 83.612 231.75 84.207 231.533C84.505 231.424 84.801 231.317 85.096 231.209C85.379 231.075 85.662 230.941 85.942 230.808C86.502 230.539 87.057 230.273 87.606 230.01C88.161 229.758 88.652 229.4 89.169 229.106C89.676 228.793 90.19 228.501 90.676 228.182C91.143 227.834 91.605 227.489 92.062 227.149C95.699 224.397 98.368 221.155 100.219 218.051C102.054 214.935 103.218 211.995 103.784 209.507C103.929 208.886 104.138 208.315 104.204 207.751C104.293 207.192 104.376 206.67 104.453 206.184C104.525 205.698 104.613 205.251 104.657 204.839C104.681 204.426 104.704 204.051 104.724 203.714C104.766 203.052 104.799 202.544 104.821 202.185C104.845 201.843 104.868 201.666 104.868 201.666C104.868 201.666 104.873 201.843 104.863 202.188C104.85 202.547 104.831 203.057 104.806 203.721C104.792 204.06 104.776 204.436 104.759 204.851C104.722 205.265 104.64 205.714 104.574 206.203C104.502 206.692 104.425 207.218 104.343 207.78C104.282 208.347 104.078 208.923 103.939 209.548C103.393 212.054 102.245 215.02 100.416 218.169C98.571 221.305 95.896 224.587 92.238 227.379C91.778 227.724 91.314 228.073 90.843 228.426C90.353 228.75 89.836 229.047 89.326 229.365C88.805 229.664 88.31 230.027 87.751 230.283C87.198 230.551 86.639 230.821 86.074 231.095C85.791 231.23 85.507 231.366 85.221 231.503C84.924 231.613 84.625 231.723 84.324 231.833C83.723 232.054 83.117 232.277 82.504 232.502C81.886 232.709 81.239 232.843 80.598 233.019C79.951 233.167 79.315 233.397 78.64 233.468C77.302 233.662 75.949 233.941 74.547 233.952C73.849 233.978 73.145 234.047 72.436 234.038C71.727 234.003 71.012 233.968 70.293 233.932C69.934 233.908 69.57 233.911 69.211 233.864L68.131 233.7C67.41 233.582 66.676 233.499 65.951 233.35C64.52 232.965 63.038 232.676 61.629 232.09C60.175 231.627 58.806 230.912 57.401 230.239C56.716 229.869 56.059 229.438 55.381 229.037C55.049 228.825 54.695 228.644 54.379 228.405L53.424 227.692C52.106 226.789 50.952 225.66 49.745 224.571C49.198 223.97 48.648 223.365 48.096 222.758L47.681 222.302L47.308 221.81L46.565 220.818L45.819 219.821L45.166 218.755L44.514 217.682L44.187 217.144L43.91 216.577C43.544 215.818 43.177 215.056 42.808 214.291C42.516 213.494 42.222 212.693 41.927 211.89C40.869 208.636 40.3 205.178 40.255 201.661C40.301 198.145 40.871 194.689 41.929 191.436C42.224 190.633 42.517 189.833 42.81 189.036C43.179 188.271 43.546 187.51 43.912 186.751L44.19 186.185L44.517 185.647L45.169 184.574L45.823 183.508L46.569 182.511L47.312 181.519L47.685 181.027L48.099 180.571C48.651 179.964 49.201 179.36 49.748 178.759C50.955 177.67 52.109 176.542 53.427 175.639L54.382 174.926C54.698 174.687 55.052 174.506 55.384 174.294C56.062 173.893 56.719 173.462 57.403 173.092C58.809 172.419 60.177 171.705 61.631 171.241C63.041 170.656 64.522 170.367 65.953 169.982C66.678 169.833 67.412 169.75 68.133 169.632L69.213 169.469C69.573 169.422 69.936 169.425 70.295 169.401C71.015 169.366 71.729 169.33 72.438 169.295C73.147 169.286 73.85 169.355 74.548 169.381C75.95 169.393 77.303 169.671 78.64 169.865C79.315 169.936 79.951 170.165 80.598 170.314C81.238 170.49 81.885 170.624 82.504 170.83C83.116 171.055 83.723 171.278 84.324 171.499C84.624 171.61 84.923 171.72 85.221 171.829C85.507 171.966 85.791 172.101 86.075 172.237C86.64 172.51 87.199 172.781 87.752 173.049C88.312 173.305 88.806 173.668 89.327 173.967C89.838 174.284 90.354 174.581 90.844 174.905C91.314 175.258 91.78 175.607 92.239 175.952C95.897 178.743 98.572 182.025 100.417 185.162C102.247 188.312 103.395 191.278 103.941 193.784C104.08 194.409 104.284 194.985 104.345 195.552C104.427 196.114 104.504 196.64 104.576 197.129C104.642 197.618 104.724 198.067 104.761 198.481C104.778 198.896 104.794 199.273 104.808 199.612C104.833 200.276 104.852 200.786 104.865 201.145C104.873 201.489 104.868 201.666 104.868 201.666Z" fill="#263238"/>
<path d="M61.204 196.146H67.323C67.323 196.146 67.323 191.008 72.662 190.916C75.435 190.868 76.872 192.685 77.457 194.076C78.135 195.692 77.93 197.533 77.021 199.032C75.983 200.743 73.709 202.298 69.585 201.572V210.551H75.635V207.287C75.635 207.287 84.12 205.093 84.12 195.742C84.12 186.795 76.096 184.716 72.662 184.716C70.036 184.716 61.088 185.351 61.204 196.146Z" fill="#176B87"/>
<path d="M75.708 212.881H69.568V218.616H75.708V212.881Z" fill="#176B87"/>
<path d="M106.328 231.8C106.328 234.515 104.127 236.717 101.411 236.717C98.695 236.717 96.494 234.516 96.494 231.8C96.494 229.085 98.695 226.883 101.411 226.883C104.127 226.883 106.328 229.085 106.328 231.8Z" fill="white"/>
<path d="M106.328 231.8C106.285 231.802 106.3 231.362 106.098 230.619C105.897 229.89 105.398 228.824 104.299 228.006C103.237 227.185 101.49 226.728 99.8 227.358C98.968 227.66 98.175 228.228 97.612 229.011C97.033 229.784 96.708 230.776 96.698 231.799C96.708 232.822 97.033 233.814 97.612 234.588C98.175 235.372 98.968 235.94 99.8 236.242C101.49 236.872 103.237 236.414 104.299 235.594C105.398 234.776 105.897 233.71 106.097 232.981C106.3 232.238 106.285 231.798 106.328 231.8C106.342 231.8 106.35 231.908 106.353 232.116C106.36 232.323 106.336 232.632 106.251 233.02C106.091 233.784 105.615 234.924 104.474 235.823C103.372 236.723 101.506 237.255 99.673 236.595C98.771 236.279 97.907 235.671 97.291 234.825C96.659 233.99 96.3 232.911 96.291 231.8C96.3 230.69 96.659 229.611 97.291 228.777C97.906 227.931 98.77 227.323 99.672 227.007C101.504 226.347 103.37 226.879 104.473 227.778C105.615 228.676 106.091 229.817 106.251 230.581C106.336 230.968 106.36 231.277 106.353 231.485C106.35 231.692 106.342 231.8 106.328 231.8Z" fill="#263238"/>
</g>
<g filter="url(#filter1_f_40_1305)">
<path d="M166.16 135L170.52 121.24H175.26L179.64 135H176.12L175.3 132.3H170.4L169.6 135H166.16ZM171.14 129.68H174.54L172.9 124.24H172.76L171.14 129.68ZM181.229 135V121.24H188.049C188.942 121.24 189.662 121.34 190.209 121.54C190.769 121.727 191.189 122.013 191.469 122.4C191.762 122.773 191.955 123.24 192.049 123.8C192.155 124.347 192.209 124.973 192.209 125.68C192.209 126.2 192.169 126.727 192.089 127.26C192.009 127.78 191.835 128.26 191.569 128.7C191.315 129.127 190.922 129.453 190.389 129.68L192.469 135H188.849L186.909 129.5L187.789 129.98C187.669 130.047 187.542 130.087 187.409 130.1C187.289 130.113 187.135 130.12 186.949 130.12H184.709V135H181.229ZM184.709 127.54H186.709C187.162 127.54 187.522 127.52 187.789 127.48C188.069 127.427 188.275 127.333 188.409 127.2C188.542 127.067 188.629 126.88 188.669 126.64C188.709 126.4 188.729 126.093 188.729 125.72C188.729 125.333 188.709 125.02 188.669 124.78C188.642 124.54 188.562 124.36 188.429 124.24C188.309 124.107 188.109 124.013 187.829 123.96C187.562 123.907 187.189 123.88 186.709 123.88H184.709V127.54ZM200.486 135.16C199.459 135.16 198.593 135.093 197.886 134.96C197.179 134.827 196.593 134.607 196.126 134.3C195.659 133.98 195.293 133.553 195.026 133.02C194.773 132.473 194.593 131.8 194.486 131C194.393 130.2 194.346 129.24 194.346 128.12C194.346 127 194.393 126.04 194.486 125.24C194.593 124.44 194.779 123.773 195.046 123.24C195.313 122.693 195.679 122.267 196.146 121.96C196.613 121.64 197.199 121.413 197.906 121.28C198.613 121.147 199.473 121.08 200.486 121.08C200.939 121.08 201.446 121.1 202.006 121.14C202.566 121.18 203.119 121.233 203.666 121.3C204.226 121.367 204.746 121.447 205.226 121.54V124.04C204.773 123.973 204.319 123.927 203.866 123.9C203.426 123.86 203.019 123.827 202.646 123.8C202.273 123.773 201.966 123.76 201.726 123.76C201.006 123.76 200.413 123.773 199.946 123.8C199.479 123.827 199.099 123.913 198.806 124.06C198.513 124.193 198.293 124.413 198.146 124.72C197.999 125.027 197.899 125.46 197.846 126.02C197.806 126.567 197.786 127.267 197.786 128.12C197.786 128.88 197.799 129.52 197.826 130.04C197.866 130.56 197.939 130.987 198.046 131.32C198.166 131.653 198.326 131.913 198.526 132.1C198.739 132.273 199.013 132.393 199.346 132.46C199.693 132.527 200.113 132.56 200.606 132.56C200.766 132.56 200.939 132.56 201.126 132.56C201.313 132.547 201.493 132.533 201.666 132.52C201.839 132.507 201.986 132.5 202.106 132.5V129.52H200.146V127.02H205.286V134.72C204.806 134.813 204.279 134.893 203.706 134.96C203.133 135.013 202.566 135.06 202.006 135.1C201.446 135.14 200.939 135.16 200.486 135.16ZM208.006 135V121.24H217.646V123.92H211.486V126.74H216.706V129.38H211.486V132.32H217.646V135H208.006ZM220.135 135V121.24H223.715L228.195 128.62H228.295V121.24H231.635V135H228.375L223.575 126.94H223.475V135H220.135ZM237.171 135V124.04H233.411V121.24H244.431V124.04H240.651V135H237.171ZM246.209 135V121.24H249.689V135H246.209ZM252.557 135V121.24H256.137L260.617 128.62H260.717V121.24H264.057V135H260.797L255.997 126.94H255.897V135H252.557ZM265.633 135L269.993 121.24H274.733L279.113 135H275.593L274.773 132.3H269.873L269.073 135H265.633ZM270.613 129.68H274.013L272.373 124.24H272.233L270.613 129.68Z" fill="#04364A"/>
</g>
<g filter="url(#filter2_f_40_1305)">
<path d="M331.42 70V56.24H336.2L338.94 64.4H339.08L341.82 56.24H346.58V70H343.24V61.06H343.1L340.12 70H337.78L334.82 61.06H334.66V70H331.42ZM355.028 70.16C353.868 70.16 352.914 70.0933 352.168 69.96C351.434 69.8133 350.861 69.5867 350.448 69.28C350.034 68.96 349.728 68.5333 349.528 68C349.341 67.4533 349.221 66.78 349.168 65.98C349.128 65.18 349.108 64.2267 349.108 63.12C349.108 62.0133 349.128 61.06 349.168 60.26C349.221 59.46 349.341 58.7933 349.528 58.26C349.728 57.7133 350.034 57.2867 350.448 56.98C350.861 56.66 351.434 56.4333 352.168 56.3C352.914 56.1533 353.868 56.08 355.028 56.08C356.174 56.08 357.114 56.1533 357.848 56.3C358.594 56.4333 359.181 56.66 359.608 56.98C360.034 57.2867 360.341 57.7133 360.528 58.26C360.714 58.7933 360.834 59.46 360.888 60.26C360.941 61.06 360.968 62.0133 360.968 63.12C360.968 64.2267 360.941 65.18 360.888 65.98C360.834 66.78 360.714 67.4533 360.528 68C360.341 68.5333 360.034 68.96 359.608 69.28C359.181 69.5867 358.594 69.8133 357.848 69.96C357.114 70.0933 356.174 70.16 355.028 70.16ZM355.028 67.48C355.508 67.48 355.894 67.4667 356.188 67.44C356.494 67.4 356.734 67.3133 356.908 67.18C357.081 67.0333 357.208 66.8067 357.288 66.5C357.368 66.1933 357.414 65.7667 357.428 65.22C357.454 64.6733 357.468 63.9733 357.468 63.12C357.468 62.2667 357.454 61.5667 357.428 61.02C357.414 60.4733 357.368 60.0467 357.288 59.74C357.208 59.4333 357.081 59.2133 356.908 59.08C356.734 58.9333 356.494 58.8467 356.188 58.82C355.894 58.78 355.508 58.76 355.028 58.76C354.561 58.76 354.174 58.78 353.868 58.82C353.561 58.8467 353.321 58.9333 353.148 59.08C352.974 59.2133 352.848 59.4333 352.768 59.74C352.688 60.0467 352.634 60.4733 352.608 61.02C352.594 61.5667 352.588 62.2667 352.588 63.12C352.588 63.9733 352.594 64.6733 352.608 65.22C352.634 65.7667 352.688 66.1933 352.768 66.5C352.848 66.8067 352.974 67.0333 353.148 67.18C353.321 67.3133 353.561 67.4 353.868 67.44C354.174 67.4667 354.561 67.48 355.028 67.48ZM363.49 70V56.24H370.31C371.204 56.24 371.924 56.34 372.47 56.54C373.03 56.7267 373.45 57.0133 373.73 57.4C374.024 57.7733 374.217 58.24 374.31 58.8C374.417 59.3467 374.47 59.9733 374.47 60.68C374.47 61.2 374.43 61.7267 374.35 62.26C374.27 62.78 374.097 63.26 373.83 63.7C373.577 64.1267 373.184 64.4533 372.65 64.68L374.73 70H371.11L369.17 64.5L370.05 64.98C369.93 65.0467 369.804 65.0867 369.67 65.1C369.55 65.1133 369.397 65.12 369.21 65.12H366.97V70H363.49ZM366.97 62.54H368.97C369.424 62.54 369.784 62.52 370.05 62.48C370.33 62.4267 370.537 62.3333 370.67 62.2C370.804 62.0667 370.89 61.88 370.93 61.64C370.97 61.4 370.99 61.0933 370.99 60.72C370.99 60.3333 370.97 60.02 370.93 59.78C370.904 59.54 370.824 59.36 370.69 59.24C370.57 59.1067 370.37 59.0133 370.09 58.96C369.824 58.9067 369.45 58.88 368.97 58.88H366.97V62.54ZM382.528 70.16C381.368 70.16 380.414 70.0933 379.668 69.96C378.934 69.8133 378.361 69.5867 377.948 69.28C377.534 68.96 377.228 68.5333 377.028 68C376.841 67.4533 376.721 66.78 376.668 65.98C376.628 65.18 376.608 64.2267 376.608 63.12C376.608 62.0133 376.628 61.06 376.668 60.26C376.721 59.46 376.841 58.7933 377.028 58.26C377.228 57.7133 377.534 57.2867 377.948 56.98C378.361 56.66 378.934 56.4333 379.668 56.3C380.414 56.1533 381.368 56.08 382.528 56.08C383.674 56.08 384.614 56.1533 385.348 56.3C386.094 56.4333 386.681 56.66 387.108 56.98C387.534 57.2867 387.841 57.7133 388.028 58.26C388.214 58.7933 388.334 59.46 388.388 60.26C388.441 61.06 388.468 62.0133 388.468 63.12C388.468 64.2267 388.441 65.18 388.388 65.98C388.334 66.78 388.214 67.4533 388.028 68C387.841 68.5333 387.534 68.96 387.108 69.28C386.681 69.5867 386.094 69.8133 385.348 69.96C384.614 70.0933 383.674 70.16 382.528 70.16ZM382.528 67.48C383.008 67.48 383.394 67.4667 383.688 67.44C383.994 67.4 384.234 67.3133 384.408 67.18C384.581 67.0333 384.708 66.8067 384.788 66.5C384.868 66.1933 384.914 65.7667 384.928 65.22C384.954 64.6733 384.968 63.9733 384.968 63.12C384.968 62.2667 384.954 61.5667 384.928 61.02C384.914 60.4733 384.868 60.0467 384.788 59.74C384.708 59.4333 384.581 59.2133 384.408 59.08C384.234 58.9333 383.994 58.8467 383.688 58.82C383.394 58.78 383.008 58.76 382.528 58.76C382.061 58.76 381.674 58.78 381.368 58.82C381.061 58.8467 380.821 58.9333 380.648 59.08C380.474 59.2133 380.348 59.4333 380.268 59.74C380.188 60.0467 380.134 60.4733 380.108 61.02C380.094 61.5667 380.088 62.2667 380.088 63.12C380.088 63.9733 380.094 64.6733 380.108 65.22C380.134 65.7667 380.188 66.1933 380.268 66.5C380.348 66.8067 380.474 67.0333 380.648 67.18C380.821 67.3133 381.061 67.4 381.368 67.44C381.674 67.4667 382.061 67.48 382.528 67.48ZM396.51 70.16C395.47 70.16 394.604 70.0933 393.91 69.96C393.217 69.8133 392.65 69.58 392.21 69.26C391.784 68.94 391.457 68.5133 391.23 67.98C391.017 67.4467 390.87 66.78 390.79 65.98C390.71 65.18 390.67 64.2267 390.67 63.12C390.67 62.0133 390.71 61.06 390.79 60.26C390.87 59.46 391.017 58.7933 391.23 58.26C391.457 57.7267 391.784 57.3 392.21 56.98C392.65 56.66 393.217 56.4333 393.91 56.3C394.604 56.1533 395.47 56.08 396.51 56.08C396.91 56.08 397.324 56.0933 397.75 56.12C398.177 56.1467 398.59 56.1867 398.99 56.24C399.39 56.2933 399.73 56.36 400.01 56.44V58.94C399.597 58.9 399.217 58.8667 398.87 58.84C398.537 58.8 398.244 58.78 397.99 58.78C397.737 58.7667 397.524 58.76 397.35 58.76C396.737 58.76 396.23 58.7867 395.83 58.84C395.444 58.88 395.137 58.98 394.91 59.14C394.684 59.3 394.517 59.54 394.41 59.86C394.304 60.1667 394.23 60.5867 394.19 61.12C394.164 61.64 394.15 62.3067 394.15 63.12C394.15 63.92 394.164 64.5867 394.19 65.12C394.23 65.6533 394.304 66.08 394.41 66.4C394.517 66.72 394.684 66.96 394.91 67.12C395.137 67.2667 395.444 67.3667 395.83 67.42C396.23 67.46 396.737 67.48 397.35 67.48C397.764 67.48 398.23 67.4667 398.75 67.44C399.27 67.4 399.717 67.3533 400.09 67.3V69.86C399.797 69.9133 399.444 69.96 399.03 70C398.617 70.0533 398.19 70.0933 397.75 70.12C397.324 70.1467 396.91 70.16 396.51 70.16ZM407.917 70.16C406.877 70.16 406.01 70.0933 405.317 69.96C404.623 69.8133 404.057 69.58 403.617 69.26C403.19 68.94 402.863 68.5133 402.637 67.98C402.423 67.4467 402.277 66.78 402.197 65.98C402.117 65.18 402.077 64.2267 402.077 63.12C402.077 62.0133 402.117 61.06 402.197 60.26C402.277 59.46 402.423 58.7933 402.637 58.26C402.863 57.7267 403.19 57.3 403.617 56.98C404.057 56.66 404.623 56.4333 405.317 56.3C406.01 56.1533 406.877 56.08 407.917 56.08C408.317 56.08 408.73 56.0933 409.157 56.12C409.583 56.1467 409.997 56.1867 410.397 56.24C410.797 56.2933 411.137 56.36 411.417 56.44V58.94C411.003 58.9 410.623 58.8667 410.277 58.84C409.943 58.8 409.65 58.78 409.397 58.78C409.143 58.7667 408.93 58.76 408.757 58.76C408.143 58.76 407.637 58.7867 407.237 58.84C406.85 58.88 406.543 58.98 406.317 59.14C406.09 59.3 405.923 59.54 405.817 59.86C405.71 60.1667 405.637 60.5867 405.597 61.12C405.57 61.64 405.557 62.3067 405.557 63.12C405.557 63.92 405.57 64.5867 405.597 65.12C405.637 65.6533 405.71 66.08 405.817 66.4C405.923 66.72 406.09 66.96 406.317 67.12C406.543 67.2667 406.85 67.3667 407.237 67.42C407.637 67.46 408.143 67.48 408.757 67.48C409.17 67.48 409.637 67.4667 410.157 67.44C410.677 67.4 411.123 67.3533 411.497 67.3V69.86C411.203 69.9133 410.85 69.96 410.437 70C410.023 70.0533 409.597 70.0933 409.157 70.12C408.73 70.1467 408.317 70.16 407.917 70.16ZM419.403 70.16C418.243 70.16 417.289 70.0933 416.543 69.96C415.809 69.8133 415.236 69.5867 414.823 69.28C414.409 68.96 414.103 68.5333 413.903 68C413.716 67.4533 413.596 66.78 413.543 65.98C413.503 65.18 413.483 64.2267 413.483 63.12C413.483 62.0133 413.503 61.06 413.543 60.26C413.596 59.46 413.716 58.7933 413.903 58.26C414.103 57.7133 414.409 57.2867 414.823 56.98C415.236 56.66 415.809 56.4333 416.543 56.3C417.289 56.1533 418.243 56.08 419.403 56.08C420.549 56.08 421.489 56.1533 422.223 56.3C422.969 56.4333 423.556 56.66 423.983 56.98C424.409 57.2867 424.716 57.7133 424.903 58.26C425.089 58.7933 425.209 59.46 425.263 60.26C425.316 61.06 425.343 62.0133 425.343 63.12C425.343 64.2267 425.316 65.18 425.263 65.98C425.209 66.78 425.089 67.4533 424.903 68C424.716 68.5333 424.409 68.96 423.983 69.28C423.556 69.5867 422.969 69.8133 422.223 69.96C421.489 70.0933 420.549 70.16 419.403 70.16ZM419.403 67.48C419.883 67.48 420.269 67.4667 420.563 67.44C420.869 67.4 421.109 67.3133 421.283 67.18C421.456 67.0333 421.583 66.8067 421.663 66.5C421.743 66.1933 421.789 65.7667 421.803 65.22C421.829 64.6733 421.843 63.9733 421.843 63.12C421.843 62.2667 421.829 61.5667 421.803 61.02C421.789 60.4733 421.743 60.0467 421.663 59.74C421.583 59.4333 421.456 59.2133 421.283 59.08C421.109 58.9333 420.869 58.8467 420.563 58.82C420.269 58.78 419.883 58.76 419.403 58.76C418.936 58.76 418.549 58.78 418.243 58.82C417.936 58.8467 417.696 58.9333 417.523 59.08C417.349 59.2133 417.223 59.4333 417.143 59.74C417.063 60.0467 417.009 60.4733 416.983 61.02C416.969 61.5667 416.963 62.2667 416.963 63.12C416.963 63.9733 416.969 64.6733 416.983 65.22C417.009 65.7667 417.063 66.1933 417.143 66.5C417.223 66.8067 417.349 67.0333 417.523 67.18C417.696 67.3133 417.936 67.4 418.243 67.44C418.549 67.4667 418.936 67.48 419.403 67.48Z" fill="#04364A"/>
</g>
</g>
<defs>
<filter id="filter0_f_40_1305" x="35.255" y="164.294" width="76.0991" height="77.5955" filterUnits="userSpaceOnUse" color-interpolation-filters="sRGB">
<feFlood flood-opacity="0" result="BackgroundImageFix"/>
<feBlend mode="normal" in="SourceGraphic" in2="BackgroundImageFix" result="shape"/>
<feGaussianBlur stdDeviation="2.5" result="effect1_foregroundBlur_40_1305"/>
</filter>
<filter id="filter1_f_40_1305" x="161.16" y="116.08" width="122.953" height="24.08" filterUnits="userSpaceOnUse" color-interpolation-filters="sRGB">
<feFlood flood-opacity="0" result="BackgroundImageFix"/>
<feBlend mode="normal" in="SourceGraphic" in2="BackgroundImageFix" result="shape"/>
<feGaussianBlur stdDeviation="2.5" result="effect1_foregroundBlur_40_1305"/>
</filter>
<filter id="filter2_f_40_1305" x="326.42" y="51.08" width="103.923" height="24.08" filterUnits="userSpaceOnUse" color-interpolation-filters="sRGB">
<feFlood flood-opacity="0" result="BackgroundImageFix"/>
<feBlend mode="normal" in="SourceGraphic" in2="BackgroundImageFix" result="shape"/>
<feGaussianBlur stdDeviation="2.5" result="effect1_foregroundBlur_40_1305"/>
</filter>
<clipPath id="clip0_40_1305">
<rect width="500" height="500" fill="white"/>
</clipPath>
</defs>
</svg>
