<svg width="550" height="550" viewBox="0 0 550 550" fill="none" xmlns="http://www.w3.org/2000/svg">
<path opacity="0.7" d="M183.905 79.1098C183.905 79.1098 100.562 121.575 58.9907 187.019C17.4195 252.462 20.7107 336.568 71.226 399.078C121.741 461.588 218.288 453.351 299.121 492.929C379.953 532.506 469.154 524.363 507.374 440.502C545.593 356.64 487.964 325.314 478.057 228.273C468.149 131.231 380.674 -10.8713 183.905 79.1098Z" fill="#176B87" fill-opacity="0.4"/>
<path d="M135.853 416.326C139.208 415.234 145.001 409.846 145.005 409.841C145.066 409.785 140.295 407.101 139.975 406.966C136.266 405.406 128.183 404.572 125.246 407.99C123.131 410.452 123.932 414.047 126.488 415.828C129.097 417.647 132.995 417.256 135.853 416.326Z" fill="#00AC7C"/>
<path d="M196.798 364.48C196.879 364.466 194.381 359.596 194.189 359.306C191.956 355.959 185.673 350.804 181.338 352.035C178.217 352.922 176.902 356.361 178.05 359.257C179.223 362.213 182.69 364.038 185.588 364.839C188.988 365.779 196.792 364.481 196.798 364.48Z" fill="#00AC7C"/>
<path d="M153.113 431.634C155.945 429.771 159.861 423.553 160.17 423.057C163.627 425.27 167.355 427.26 171.238 429.065C173.457 430.1 175.724 431.074 178.01 432.021C176.902 431.743 175.91 431.504 175.767 431.485C171.777 430.96 163.761 432.29 161.831 436.362C160.44 439.296 162.163 442.551 165.098 443.594C168.095 444.66 171.752 443.253 174.263 441.601C176.811 439.924 180.255 434.689 181.148 433.292C182.029 433.646 182.904 434.01 183.786 434.36C188.017 436.044 192.247 437.707 196.346 439.463C197.791 440.081 199.19 440.744 200.594 441.401C199.609 441.156 198.779 440.958 198.649 440.941C194.66 440.415 186.644 441.746 184.714 445.817C183.324 448.751 185.046 452.005 187.981 453.048C190.978 454.113 194.635 452.707 197.145 451.055C199.576 449.456 202.799 444.652 203.868 442.996C205.284 443.714 206.705 444.429 208.045 445.187C208.949 445.726 209.857 446.181 210.734 446.772C211.615 447.339 212.487 447.9 213.35 448.457C214.975 449.589 216.658 450.747 218.215 451.891C219.304 452.679 220.327 453.449 221.36 454.222C219.928 453.589 217.101 452.41 216.854 452.339C212.991 451.216 204.865 451.316 202.341 455.048C200.522 457.736 201.731 461.216 204.475 462.691C207.275 464.198 211.104 463.362 213.836 462.109C216.843 460.73 221.492 455.414 222.068 454.747C223.772 456.033 225.419 457.299 226.951 458.519C231.417 462.054 235.133 465.227 237.961 467.718L240.214 465.715C237.266 463.223 233.331 459.999 228.587 456.409C226.861 455.096 224.991 453.728 223.058 452.342C223.312 451.836 224.743 448.947 225.739 446.083C229.121 446.417 235.48 444.676 236.299 444.445C237.011 446.457 237.685 448.422 238.291 450.285C240.032 455.596 241.362 460.215 242.342 463.823L244.799 461.638C243.779 458.24 242.464 454.099 240.82 449.427C240.105 447.38 239.299 445.207 238.451 442.984C239.203 442.554 245.322 438.999 247.252 436.306C249.004 433.864 250.555 430.266 249.611 427.228C248.686 424.254 245.502 422.403 242.516 423.675C238.37 425.439 236.72 433.397 237.085 437.404C237.107 437.641 237.627 440.178 237.982 441.775C237.631 440.869 237.3 439.985 236.927 439.056C236.202 437.215 235.424 435.398 234.595 433.441C234.161 432.51 233.722 431.568 233.28 430.619C232.862 429.668 232.299 428.716 231.807 427.753C230.62 425.544 229.311 423.364 227.943 421.197C229.555 420.558 235.243 418.207 237.352 416.049C239.452 413.899 241.531 410.578 241.058 407.433C240.594 404.353 237.729 402.041 234.583 402.845C230.218 403.963 227.381 411.577 227.136 415.594C227.12 415.844 227.268 418.746 227.38 420.339C226.547 419.042 225.723 417.744 224.838 416.46C222.285 412.753 219.584 409.079 216.907 405.403C216.085 404.278 215.282 403.146 214.472 402.016C215.048 401.795 221.87 399.147 224.234 396.729C226.335 394.581 228.413 391.259 227.94 388.113C227.476 385.033 224.61 382.721 221.465 383.526C217.1 384.643 214.263 392.258 214.018 396.274C213.999 396.576 214.218 400.751 214.325 401.81C212.543 399.322 210.791 396.825 209.164 394.294C206.913 390.805 204.897 387.256 203.2 383.675C203.468 383.572 210.6 380.841 213.022 378.364C215.123 376.214 217.202 372.893 216.727 369.747C216.264 366.667 213.398 364.355 210.253 365.16C205.887 366.277 203.051 373.892 202.806 377.908C202.789 378.172 202.952 381.351 203.065 382.863C202.928 382.898 202.953 382.891 202.816 382.926C201.043 379.068 199.812 375.107 198.841 371.342C198.275 369.162 197.856 367.048 197.495 364.981C198.876 364.608 205.165 362.836 207.591 360.848C209.915 358.943 212.346 355.87 212.221 352.692C212.098 349.58 209.503 346.966 206.288 347.421C201.827 348.051 198.172 355.309 197.486 359.273C197.449 359.489 197.312 361.723 197.237 363.351C197.088 362.416 196.916 361.453 196.792 360.555C196.315 357.181 196.086 354.063 195.906 351.298C195.816 349.725 195.766 348.302 195.733 346.97C196.897 345.897 201.533 341.517 202.748 338.687C203.932 335.925 204.674 332.077 203.097 329.315C201.554 326.609 198.047 325.486 195.404 327.37C191.735 329.986 191.836 338.111 193.054 341.946C193.16 342.277 195.402 347.271 195.463 347.215C195.463 347.215 195.521 347.163 195.534 347.15C195.539 348.433 195.56 349.809 195.614 351.31C195.735 354.083 195.897 357.216 196.302 360.613C196.698 364.009 197.224 367.687 198.129 371.512C199.03 375.346 200.174 379.334 201.883 383.291C201.902 383.335 201.928 383.38 201.948 383.424C201.089 382.422 198.592 379.701 198.376 379.514C195.339 376.875 187.918 373.562 184.063 375.893C181.285 377.573 180.927 381.238 182.798 383.727C184.71 386.269 188.537 387.114 191.542 387.121C194.931 387.13 201.628 384.102 202.16 383.859C203.823 387.613 205.834 391.328 208.077 394.977C209.357 397.065 210.712 399.127 212.095 401.178C211.324 400.335 210.629 399.588 210.52 399.494C207.483 396.855 200.062 393.542 196.207 395.874C193.429 397.553 193.07 401.218 194.942 403.708C196.854 406.25 200.68 407.094 203.686 407.101C206.735 407.109 212.496 404.643 214.012 403.97C214.551 404.751 215.081 405.537 215.623 406.316C218.223 410.055 220.835 413.774 223.283 417.501C224.148 418.814 224.95 420.138 225.757 421.461C225.072 420.714 224.488 420.09 224.39 420.004C221.352 417.365 213.932 414.052 210.077 416.384C207.299 418.064 206.94 421.729 208.813 424.218C210.725 426.759 214.552 427.604 217.557 427.612C220.466 427.618 225.805 425.39 227.61 424.599C228.395 425.978 229.186 427.358 229.886 428.731C230.342 429.679 230.847 430.559 231.253 431.537C231.675 432.496 232.092 433.445 232.506 434.386C233.236 436.226 234.001 438.12 234.667 439.934C235.141 441.191 235.569 442.398 236.004 443.612C235.16 442.296 233.452 439.753 233.285 439.556C231.555 437.516 227.96 434.899 224.518 433.872C224.264 433.569 223.985 433.29 223.678 433.039C221.266 431.069 217.59 431.281 215.8 433.991C213.316 437.749 216.329 445.297 218.845 448.437C218.993 448.622 220.828 450.452 222.004 451.587C221.211 451.025 220.448 450.47 219.624 449.901C218.003 448.765 216.352 447.679 214.58 446.503C213.705 445.966 212.82 445.423 211.927 444.876C211.054 444.313 210.058 443.831 209.118 443.298C206.91 442.111 204.614 441.014 202.278 439.96C203.269 438.539 206.716 433.441 207.286 430.475C207.853 427.524 207.754 423.607 205.624 421.245C203.538 418.933 199.872 418.584 197.693 420.991C194.668 424.331 196.504 432.247 198.515 435.732C198.64 435.95 200.364 438.288 201.335 439.555C199.925 438.932 198.521 438.305 197.075 437.721C192.899 436.037 188.621 434.464 184.36 432.874C183.054 432.388 181.76 431.889 180.46 431.393C180.819 430.891 185.049 424.918 185.685 421.598C186.252 418.647 186.154 414.73 184.023 412.368C181.938 410.056 178.271 409.708 176.092 412.114C173.067 415.453 174.903 423.37 176.913 426.855C177.065 427.117 179.55 430.48 180.224 431.303C177.365 430.211 174.526 429.096 171.773 427.882C167.97 426.214 164.332 424.367 160.94 422.315C161.107 422.082 165.549 415.869 166.202 412.468C166.769 409.517 166.671 405.6 164.54 403.238C162.455 400.925 158.788 400.578 156.609 402.984C153.584 406.324 155.42 414.24 157.43 417.725C157.562 417.954 159.454 420.519 160.381 421.716C160.285 421.82 160.303 421.802 160.208 421.906C156.6 419.665 153.387 417.041 150.501 414.435C148.827 412.929 147.31 411.397 145.868 409.872C146.814 408.8 151.083 403.852 152.008 400.855C152.896 397.984 153.228 394.08 151.37 391.499C149.55 388.971 145.945 388.223 143.515 390.376C140.142 393.363 141.097 401.433 142.712 405.118C142.8 405.318 143.918 407.256 144.752 408.657C144.112 407.959 143.439 407.251 142.838 406.569C140.579 404.018 138.668 401.543 136.993 399.337C136.05 398.076 135.223 396.915 134.461 395.823C134.84 394.286 136.291 388.074 135.742 385.045C135.206 382.088 133.703 378.47 130.864 377.035C128.084 375.63 124.539 376.628 123.374 379.657C121.757 383.864 126.323 390.585 129.455 393.111C129.725 393.329 134.351 396.257 134.372 396.177C134.372 396.177 134.39 396.102 134.395 396.085C135.107 397.152 135.884 398.287 136.757 399.51C138.388 401.756 140.251 404.28 142.463 406.89C144.668 409.504 147.136 412.281 149.999 414.972C152.867 417.673 156.021 420.368 159.63 422.725C159.67 422.751 159.717 422.773 159.757 422.8C158.488 422.439 154.904 421.548 154.621 421.51C150.633 420.985 142.616 422.315 140.686 426.386C139.295 429.32 141.018 432.575 143.953 433.619C146.946 434.693 150.603 433.286 153.113 431.634Z" fill="#00AC7C"/>
<path d="M358.91 152.585C361.259 156.516 369.746 162.295 369.753 162.3C369.841 162.359 371.864 155.549 371.943 155.104C372.848 149.961 371.574 139.492 366.403 136.76C362.678 134.792 358.36 136.843 356.843 140.589C355.291 144.416 356.909 149.236 358.91 152.585Z" fill="#00AC7C"/>
<path d="M442.082 214.773C442.123 214.872 447.566 210.307 447.877 209.98C451.47 206.19 456.183 196.755 453.376 191.623C451.354 187.927 446.622 187.255 443.29 189.543C439.886 191.88 438.575 196.793 438.397 200.69C438.188 205.263 442.079 214.765 442.082 214.773Z" fill="#00AC7C"/>
<path d="M344.51 178.839C347.684 181.885 356.682 185.049 357.399 185.297C355.594 190.31 354.151 195.601 352.983 201.036C352.312 204.142 351.734 207.293 351.194 210.457C351.226 208.976 351.242 207.65 351.226 207.465C350.741 202.266 346.746 192.504 341.039 191.235C336.926 190.321 333.302 193.438 332.828 197.453C332.343 201.553 335.177 205.776 337.99 208.477C340.846 211.218 348.462 214.069 350.489 214.796C350.294 216.012 350.086 217.225 349.897 218.441C348.986 224.281 348.101 230.113 347.058 235.806C346.691 237.813 346.257 239.775 345.829 241.74C345.855 240.424 345.868 239.315 345.851 239.145C345.366 233.946 341.374 224.184 335.665 222.915C331.552 222.001 327.929 225.118 327.455 229.133C326.971 233.233 329.804 237.456 332.618 240.156C335.343 242.772 342.35 245.466 344.753 246.343C344.254 248.341 343.759 250.346 343.185 252.26C342.763 253.559 342.449 254.838 341.953 256.118C341.488 257.397 341.03 258.663 340.574 259.916C339.61 262.297 338.63 264.76 337.63 267.06C336.948 268.665 336.267 270.182 335.585 271.711C335.973 269.718 336.651 265.8 336.67 265.466C336.98 260.253 334.511 250 329.061 247.881C325.134 246.355 321.08 248.887 320.003 252.783C318.903 256.762 321.065 261.365 323.436 264.462C326.048 267.871 334.114 272.222 335.125 272.759C333.989 275.286 332.86 277.735 331.758 280.026C328.571 286.696 325.625 292.313 323.289 296.608L326.472 298.883C328.776 294.435 331.722 288.527 334.899 281.488C336.063 278.926 337.256 276.165 338.454 273.319C339.167 273.495 343.234 274.473 347.146 274.908C347.698 279.284 351.733 286.83 352.261 287.8C349.919 289.28 347.628 290.699 345.444 292.004C339.225 295.737 333.763 298.751 329.48 301.03L332.951 303.511C336.956 301.239 341.818 298.384 347.257 294.956C349.641 293.461 352.158 291.817 354.728 290.103C355.489 290.93 361.75 297.65 365.715 299.317C369.31 300.828 374.31 301.755 377.882 299.685C381.379 297.658 382.804 293.096 380.334 289.682C376.906 284.944 366.361 285.149 361.395 286.766C361.101 286.861 358.04 288.251 356.122 289.16C357.168 288.455 358.192 287.782 359.259 287.042C361.381 285.594 363.455 284.086 365.694 282.472C366.748 281.655 367.811 280.83 368.885 279.995C369.969 279.192 371.01 278.204 372.087 277.304C374.54 275.166 376.922 272.881 379.271 270.525C380.544 272.38 385.157 278.902 388.498 280.95C391.822 282.988 396.625 284.662 400.468 283.157C404.232 281.683 406.332 277.389 404.408 273.64C401.737 268.438 391.283 267.044 386.13 267.888C385.809 267.941 382.18 268.964 380.196 269.564C381.598 268.137 383.002 266.719 384.373 265.23C388.329 260.93 392.2 256.454 396.08 252.007C397.268 250.643 398.468 249.3 399.665 247.95C400.111 248.614 405.427 256.485 409.168 258.779C412.492 260.819 417.295 262.492 421.139 260.987C424.903 259.512 427.004 255.22 425.079 251.471C422.408 246.269 411.953 244.873 406.801 245.719C406.413 245.783 401.193 247.262 399.883 247.702C402.519 244.731 405.173 241.793 407.908 239.005C411.675 235.151 415.584 231.577 419.628 228.397C419.835 228.708 425.347 236.947 429.178 239.296C432.504 241.336 437.305 243.01 441.15 241.504C444.914 240.03 447.014 235.737 445.089 231.988C442.418 226.785 431.963 225.39 426.811 226.236C426.472 226.291 422.496 227.414 420.616 227.991C420.532 227.828 420.548 227.857 420.464 227.694C424.837 224.338 429.494 221.639 433.979 219.327C436.575 217.983 439.129 216.843 441.641 215.789C442.51 217.429 446.566 224.878 449.78 227.374C452.861 229.767 457.45 231.958 461.436 230.883C465.339 229.831 467.898 225.794 466.397 221.858C464.313 216.393 454.076 213.859 448.862 214.134C448.578 214.149 445.712 214.62 443.629 214.992C444.77 214.534 445.938 214.04 447.04 213.623C451.172 212.047 455.052 210.859 458.499 209.834C460.463 209.267 462.25 208.793 463.927 208.368C465.619 209.531 472.498 214.137 476.43 214.859C480.266 215.562 485.349 215.391 488.391 212.601C491.371 209.869 491.781 205.106 488.635 202.305C484.267 198.417 474.014 200.884 469.512 203.531C469.124 203.761 463.45 208.036 463.538 208.098C463.538 208.098 463.619 208.155 463.64 208.168C462.019 208.546 460.284 208.968 458.399 209.469C454.924 210.42 451.007 211.528 446.823 213.019C442.64 214.5 438.137 216.226 433.557 218.472C428.964 220.717 424.247 223.313 419.733 226.618C419.682 226.655 419.634 226.7 419.582 226.737C420.602 225.361 423.326 221.418 423.5 221.091C425.964 216.487 428.019 206.142 423.958 201.935C421.032 198.904 416.29 199.506 413.679 202.591C411.014 205.744 411.047 210.829 411.904 214.634C412.87 218.925 418.63 226.527 419.091 227.131C414.821 230.317 410.698 233.934 406.726 237.822C404.454 240.043 402.233 242.352 400.036 244.694C400.88 243.475 401.624 242.379 401.712 242.216C404.176 237.611 406.231 227.267 402.17 223.059C399.244 220.027 394.502 220.629 391.892 223.716C389.225 226.868 389.259 231.953 390.116 235.759C390.985 239.62 395.766 246.2 397.055 247.923C396.221 248.831 395.38 249.727 394.55 250.638C390.568 255.005 386.613 259.382 382.602 263.556C381.19 265.027 379.744 266.424 378.303 267.827C379.051 266.743 379.673 265.826 379.753 265.676C382.217 261.072 384.272 250.727 380.21 246.52C377.284 243.488 372.541 244.09 369.931 247.177C367.266 250.328 367.3 255.413 368.157 259.219C368.986 262.903 373.344 269.017 374.866 271.073C373.347 272.464 371.828 273.863 370.293 275.143C369.225 275.993 368.256 276.886 367.136 277.682C366.044 278.492 364.962 279.294 363.892 280.089C361.774 281.543 359.597 283.056 357.495 284.424C356.04 285.386 354.636 286.275 353.224 287.175C354.648 285.727 357.374 282.833 357.574 282.566C359.656 279.789 361.931 274.485 362.24 269.834C362.55 269.426 362.823 268.993 363.052 268.533C364.849 264.913 363.521 260.322 359.578 258.838C354.105 256.777 345.423 262.766 342.174 266.853C341.982 267.094 340.195 269.943 339.097 271.759C339.58 270.593 340.063 269.468 340.545 268.261C341.516 265.883 342.414 263.481 343.39 260.9C343.818 259.637 344.249 258.362 344.685 257.074C345.146 255.806 345.469 254.408 345.873 253.064C346.74 249.928 347.466 246.707 348.125 243.446C350.209 244.291 357.655 247.185 361.571 247.051C365.468 246.918 370.398 245.664 372.772 242.288C375.098 238.982 374.482 234.243 370.809 232.178C365.712 229.313 356.222 233.916 352.391 237.465C352.152 237.686 349.689 240.541 348.366 242.135C348.746 240.172 349.137 238.215 349.458 236.216C350.385 230.448 351.144 224.579 351.929 218.728C352.167 216.935 352.427 215.153 352.68 213.367C353.418 213.676 362.195 217.307 366.581 217.156C370.478 217.023 375.407 215.771 377.783 212.394C380.108 209.088 379.492 204.348 375.819 202.283C370.721 199.418 361.232 204.021 357.401 207.569C357.113 207.836 353.574 211.95 352.726 213.04C353.286 209.108 353.879 205.194 354.62 201.359C355.637 196.066 356.926 190.93 358.544 186.046C358.887 186.19 368.03 190.022 372.522 189.869C376.42 189.736 381.348 188.482 383.724 185.106C386.051 181.8 385.433 177.06 381.761 174.996C376.662 172.13 367.173 176.734 363.342 180.281C363.09 180.514 360.39 183.647 359.142 185.166C358.983 185.076 359.011 185.093 358.852 185.002C360.648 179.791 363.044 174.968 365.509 170.565C366.933 168.012 368.434 165.651 369.949 163.387C371.578 164.276 379.071 168.252 383.129 168.561C387.019 168.857 392.054 168.151 394.787 165.057C397.462 162.027 397.37 157.247 393.945 154.792C389.193 151.384 379.256 154.919 375.058 158.024C374.831 158.192 372.7 160.167 371.168 161.626C371.866 160.615 372.569 159.559 373.258 158.603C375.835 155.01 378.415 151.878 380.724 149.122C382.05 147.565 383.28 146.185 384.442 144.904C386.496 144.942 394.775 144.988 398.451 143.42C402.038 141.89 406.184 138.944 407.183 134.939C408.159 131.017 405.876 126.818 401.706 126.216C395.918 125.381 388.727 133.097 386.432 137.788C386.234 138.194 383.862 144.89 383.969 144.893C383.969 144.893 384.069 144.895 384.094 144.895C382.95 146.104 381.735 147.414 380.439 148.872C378.067 151.582 375.409 154.667 372.744 158.219C370.072 161.761 367.267 165.685 364.687 170.084C362.095 174.491 359.592 179.259 357.651 184.505C357.629 184.565 357.613 184.629 357.591 184.688C357.683 182.977 357.778 178.186 357.744 177.816C357.259 172.616 353.266 162.855 347.558 161.586C343.445 160.671 339.822 163.789 339.347 167.804C338.864 171.915 341.697 176.137 344.51 178.839Z" fill="#00AC7C"/>
<path d="M411.037 372.473V368.788C411.037 349.815 435.06 348.996 435.06 335.482C435.06 329.613 430.283 325.791 423.185 325.791C415.404 325.791 410.491 330.022 410.491 336.029V337.531C410.491 339.032 409.672 339.715 408.17 339.715L393.566 339.168C392.201 339.168 391.245 338.487 391.245 337.531V336.029C391.245 319.513 404.349 308.183 423.595 308.183C442.431 308.183 454.579 318.83 454.579 334.799C454.579 357.458 430.146 357.595 430.146 370.016V372.473C430.146 373.975 429.328 374.793 427.826 374.793H413.357C411.855 374.793 411.037 373.975 411.037 372.473ZM409.808 394.45C409.808 388.444 415.131 383.53 421.546 383.53C427.689 383.53 433.149 388.445 433.149 394.45C433.149 400.456 427.689 405.37 421.41 405.37C414.995 405.369 409.808 400.456 409.808 394.45Z" fill="#029ED2"/>
<path d="M122.611 216.157V212.956C122.611 196.476 143.477 195.765 143.477 184.028C143.477 178.93 139.328 175.611 133.164 175.611C126.405 175.611 122.138 179.286 122.138 184.503V185.806C122.138 187.111 121.427 187.704 120.122 187.704L107.437 187.23C106.251 187.23 105.421 186.637 105.421 185.808V184.504C105.421 170.159 116.802 160.318 133.519 160.318C149.879 160.318 160.432 169.566 160.432 183.437C160.432 203.117 139.209 203.236 139.209 214.025V216.159C139.209 217.463 138.499 218.174 137.194 218.174H124.627C123.323 218.173 122.611 217.461 122.611 216.157ZM121.544 235.245C121.544 230.029 126.168 225.761 131.739 225.761C137.074 225.761 141.816 230.029 141.816 235.245C141.816 240.461 137.074 244.729 131.62 244.729C126.05 244.729 121.544 240.461 121.544 235.245Z" fill="#00AC7C"/>
<path d="M388.11 89.9327V88.3157C388.11 79.9887 398.653 79.6301 398.653 73.6989C398.653 71.1227 396.556 69.4463 393.441 69.4463C390.027 69.4463 387.87 71.3031 387.87 73.9387V74.5976C387.87 75.2565 387.51 75.5557 386.851 75.5557L380.441 75.3159C379.842 75.3159 379.423 75.0167 379.423 74.5976V73.9387C379.423 66.6908 385.174 61.7177 393.621 61.7177C401.887 61.7177 407.219 66.3905 407.219 73.3986C407.219 83.3426 396.496 83.402 396.496 88.8536V89.9316C396.496 90.5905 396.137 90.9502 395.477 90.9502H389.127C388.468 90.9513 388.11 90.5916 388.11 89.9327ZM387.569 99.5775C387.569 96.9419 389.906 94.7848 392.721 94.7848C395.417 94.7848 397.813 96.9419 397.813 99.5775C397.813 102.213 395.417 104.369 392.66 104.369C389.846 104.37 387.569 102.213 387.569 99.5775Z" fill="#00AC7C"/>
<path d="M79.1801 312.403V310.365C79.1801 299.872 92.4659 299.419 92.4659 291.945C92.4659 288.699 89.8237 286.586 85.8978 286.586C81.5946 286.586 78.8776 288.926 78.8776 292.248V293.078C78.8776 293.909 78.4244 294.286 77.5939 294.286L69.5166 293.984C68.762 293.984 68.2329 293.606 68.2329 293.078V292.248C68.2329 283.114 75.4808 276.848 86.1244 276.848C96.5425 276.848 103.261 282.736 103.261 291.569C103.261 304.1 89.7478 304.176 89.7478 311.046V312.404C89.7478 313.235 89.2957 313.688 88.4652 313.688H80.4627C79.6333 313.686 79.1801 313.234 79.1801 312.403ZM78.5003 324.557C78.5003 321.235 81.4439 318.518 84.9925 318.518C88.3893 318.518 91.4099 321.236 91.4099 324.557C91.4099 327.879 88.3904 330.596 84.9177 330.596C81.3691 330.596 78.5003 327.879 78.5003 324.557Z" stroke="#263238" stroke-miterlimit="10"/>
<path d="M180.367 122.519V121.117C180.367 113.9 189.506 113.588 189.506 108.447C189.506 106.214 187.689 104.761 184.988 104.761C182.028 104.761 180.159 106.37 180.159 108.655V109.226C180.159 109.796 179.848 110.056 179.276 110.056L173.72 109.848C173.201 109.848 172.836 109.589 172.836 109.226V108.655C172.836 102.372 177.822 98.0617 185.142 98.0617C192.308 98.0617 196.929 102.112 196.929 108.187C196.929 116.807 187.635 116.858 187.635 121.584V122.519C187.635 123.09 187.323 123.401 186.753 123.401H181.248C180.679 123.402 180.367 123.09 180.367 122.519ZM179.901 130.879C179.901 128.594 181.926 126.726 184.366 126.726C186.702 126.726 188.779 128.596 188.779 130.879C188.779 133.164 186.702 135.033 184.313 135.033C181.873 135.033 179.901 133.164 179.901 130.879Z" fill="#029ED2"/>
<path d="M343.211 424.087V422.685C343.211 415.468 352.35 415.157 352.35 410.015C352.35 407.782 350.532 406.329 347.832 406.329C344.872 406.329 343.003 407.938 343.003 410.223V410.794C343.003 411.365 342.692 411.624 342.12 411.624L336.563 411.417C336.044 411.417 335.68 411.157 335.68 410.794V410.223C335.68 403.94 340.665 399.63 347.986 399.63C355.151 399.63 359.772 403.68 359.772 409.756C359.772 418.375 350.477 418.427 350.477 423.151V424.086C350.477 424.657 350.166 424.969 349.595 424.969H344.091C343.523 424.971 343.211 424.659 343.211 424.087ZM342.744 432.447C342.744 430.163 344.769 428.294 347.209 428.294C349.546 428.294 351.622 430.164 351.622 432.447C351.622 434.732 349.546 436.601 347.156 436.601C344.717 436.601 342.744 434.732 342.744 432.447Z" stroke="#263238" stroke-miterlimit="10"/>
<path d="M300.137 449.121C300.059 448.887 299.978 448.655 299.895 448.424C299.817 448.189 299.736 447.957 299.652 447.725C299.574 447.491 299.493 447.258 299.409 447.026C299.332 446.792 299.251 446.56 299.167 446.328C299.09 446.094 299.008 445.862 298.924 445.63C298.847 445.395 298.766 445.163 298.682 444.931C298.604 444.697 298.522 444.465 298.439 444.233C298.361 443.998 298.279 443.766 298.196 443.534C298.119 443.3 298.037 443.068 297.954 442.837C297.877 442.603 297.794 442.369 297.711 442.137C297.634 441.904 297.552 441.672 297.469 441.441C297.391 441.206 297.309 440.972 297.226 440.74C297.149 440.506 297.067 440.274 296.984 440.043C296.907 439.809 296.825 439.576 296.74 439.344C296.663 439.11 296.582 438.878 296.498 438.646C296.421 438.412 296.34 438.179 296.256 437.948C296.179 437.714 296.098 437.482 296.013 437.25C295.936 437.016 295.855 436.782 295.77 436.55C295.693 436.316 295.612 436.084 295.528 435.853C291.937 424.945 280.851 416.933 268.646 416.933C256.826 416.933 246.542 423.824 242.295 433.525C242.189 433.748 242.089 433.972 241.99 434.197C241.885 434.421 241.784 434.646 241.685 434.872C241.58 435.094 241.48 435.318 241.382 435.544C241.276 435.767 241.176 435.992 241.077 436.218C240.972 436.441 240.871 436.666 240.772 436.892C240.667 437.116 240.567 437.34 240.468 437.566C240.363 437.788 240.262 438.013 240.163 438.238C240.057 438.461 239.957 438.685 239.858 438.912C239.754 439.134 239.654 439.36 239.555 439.585C239.449 439.809 239.349 440.034 239.25 440.26C239.146 440.482 239.045 440.706 238.946 440.932C238.841 441.155 238.741 441.382 238.641 441.607C238.536 441.829 238.436 442.054 238.337 442.278C238.231 442.501 238.131 442.727 238.032 442.952C237.928 443.175 237.828 443.4 237.728 443.624C237.622 443.848 237.522 444.073 237.423 444.299C237.318 444.521 237.218 444.746 237.118 444.972C237.013 445.195 236.913 445.421 236.814 445.646C236.709 445.87 236.609 446.094 236.509 446.319C236.404 446.543 236.304 446.767 236.204 446.993C234.361 450.91 233.33 455.224 233.33 459.75C233.33 477.453 248.618 491.936 267.528 491.936C286.035 491.936 302.128 477.453 302.128 459.75C302.128 456.289 301.506 452.952 300.379 449.821C300.302 449.584 300.221 449.352 300.137 449.121Z" fill="#263238"/>
<path d="M273.965 205.476C217.236 205.476 178.613 238.869 178.613 287.551V291.976C178.613 293.45 179.39 294.7 180.703 295.56C180.935 295.783 181.194 295.989 181.48 296.176C181.712 296.399 181.972 296.606 182.259 296.793C182.491 297.017 182.751 297.223 183.038 297.41C183.269 297.634 183.53 297.84 183.817 298.027C184.048 298.252 184.307 298.457 184.594 298.643C184.825 298.868 185.085 299.073 185.373 299.26C185.604 299.485 185.864 299.691 186.151 299.878C186.381 300.102 186.641 300.308 186.93 300.495C187.16 300.719 187.419 300.925 187.707 301.112C187.954 301.354 188.235 301.574 188.55 301.77C188.766 301.974 189.004 302.165 189.27 302.336C189.499 302.561 189.758 302.766 190.046 302.951C190.274 303.176 190.533 303.381 190.823 303.567C191.05 303.792 191.31 303.997 191.599 304.183C191.826 304.408 192.086 304.613 192.376 304.799C192.602 305.026 192.863 305.229 193.151 305.414C193.378 305.64 193.639 305.844 193.928 306.03C194.153 306.257 194.415 306.46 194.704 306.645C194.93 306.871 195.192 307.075 195.481 307.26C195.705 307.487 195.967 307.69 196.258 307.876C197.238 308.872 198.869 309.487 200.877 309.487L236.25 310.809C239.887 310.809 241.87 309.156 241.87 305.519V301.883C241.87 287.336 253.772 277.088 272.616 277.088C289.807 277.088 301.379 286.344 301.379 300.56C301.379 302.252 301.215 303.858 300.92 305.396C283.163 328.671 236.953 338.93 236.953 384.11V394.974C236.953 399.399 239.367 401.812 243.793 401.812H286.44C290.865 401.812 293.28 399.399 293.28 394.974V387.732C293.28 351.12 365.297 350.717 365.297 283.931C365.295 236.857 329.487 205.476 273.965 205.476Z" fill="#263238"/>
<path d="M236.951 394.974V384.11C236.951 328.186 307.761 325.773 307.761 285.942C307.761 268.642 293.68 257.377 272.758 257.377C249.825 257.377 235.342 269.849 235.342 287.551V291.976C235.342 296.402 232.928 298.413 228.502 298.413L185.452 296.804C181.429 296.804 178.613 294.793 178.613 291.976V287.551C178.613 238.869 217.237 205.476 273.965 205.476C329.487 205.476 365.294 236.858 365.294 283.93C365.294 350.716 293.277 351.119 293.277 387.731V394.973C293.277 399.398 290.862 401.811 286.437 401.811H243.79C239.364 401.812 236.951 399.399 236.951 394.974ZM233.33 459.748C233.33 442.046 249.02 427.561 267.93 427.561C286.035 427.561 302.128 442.046 302.128 459.748C302.128 477.451 286.035 491.934 267.528 491.934C248.619 491.934 233.33 477.452 233.33 459.748Z" fill="#176B87" stroke="#04364A" stroke-miterlimit="10"/>
<path d="M265.775 528C298.954 528 325.851 521.985 325.851 514.565C325.851 507.144 298.954 501.129 265.775 501.129C232.597 501.129 205.7 507.144 205.7 514.565C205.7 521.985 232.597 528 265.775 528Z" fill="#0057FF" fill-opacity="0.25"/>
<path d="M219.856 209.931L217.559 214.955C217.559 214.955 204.208 216.391 204.208 217.396C204.208 218.402 204.352 225.292 205.07 225.579C205.788 225.866 206.218 225.722 206.792 225.579C207.367 225.436 226.459 220.554 226.459 220.554L228.326 211.654L219.856 209.931Z" fill="#FFE792" stroke="#263238" stroke-miterlimit="10" stroke-linecap="round" stroke-linejoin="round"/>
<path d="M216.114 218.908C216.114 218.908 211.444 222.714 208.256 224.146C205.069 225.578 204.983 227.747 205.965 227.747C206.947 227.747 215.95 223.982 215.95 223.982C215.95 223.982 224.102 221.846 225.28 221.199C226.458 220.553 226.589 216.943 226.589 216.943" fill="#FFE792"/>
<path d="M216.114 218.908C216.114 218.908 211.444 222.714 208.256 224.146C205.069 225.578 204.983 227.747 205.965 227.747C206.947 227.747 215.95 223.982 215.95 223.982C215.95 223.982 224.102 221.846 225.28 221.199C226.458 220.553 226.589 216.943 226.589 216.943" stroke="#263238" stroke-miterlimit="10" stroke-linecap="round" stroke-linejoin="round"/>
<path d="M231.608 113.556L223.405 176.453L217.686 210.511L230.366 213.495L239.812 173.221L244.287 147.863L231.608 113.556Z" fill="#AEBBFF" stroke="#263238" stroke-miterlimit="10" stroke-linecap="round" stroke-linejoin="round"/>
<path d="M297.829 68.013L292.818 67.2221L282.571 63.338L282.198 75.5194L298.093 76.9824L297.829 68.013Z" fill="#FFE792" stroke="#263238" stroke-miterlimit="10" stroke-linecap="round" stroke-linejoin="round"/>
<path d="M239.315 291.059C239.315 291.059 233.1 298.268 228.874 304.732C224.648 311.195 226.139 318.156 231.36 319.897C236.58 321.637 243.293 316.913 245.033 313.184C246.773 309.455 246.276 307.466 249.01 303.737C251.745 300.008 253.982 296.28 252.988 291.308C251.994 286.336 242.05 287.578 239.315 291.059Z" fill="#AEBBFF" stroke="#263238" stroke-miterlimit="10" stroke-linecap="round" stroke-linejoin="round"/>
<path d="M244.525 314.079C244.177 313.33 243.773 312.54 243.293 311.694C239.3 304.666 232.334 305.234 227.861 306.537C224.971 312.442 226.622 318.319 231.359 319.899C236.17 321.501 242.239 317.616 244.525 314.079Z" fill="#FFE792" stroke="#263238" stroke-miterlimit="10" stroke-linecap="round" stroke-linejoin="round"/>
<path d="M243.293 311.694C241.801 313.931 239.812 319.898 232.106 317.412C229.075 316.434 227.439 315.15 226.557 313.95C227.024 316.779 228.708 319.013 231.36 319.898C236.58 321.638 243.293 316.914 245.033 313.185C246.773 309.456 246.276 307.468 249.01 303.739C251.745 300.01 253.982 296.281 252.988 291.309C252.988 297.275 250.751 298.269 248.016 301.501C245.281 304.733 244.784 309.456 243.293 311.694Z" fill="#FFE792" stroke="#263238" stroke-miterlimit="10" stroke-linecap="round" stroke-linejoin="round"/>
<path d="M312.676 291.059C312.676 291.059 318.891 298.268 323.117 304.732C327.344 311.195 325.852 318.156 320.631 319.897C315.411 321.637 308.699 316.913 306.958 313.184C305.218 309.455 305.715 307.466 302.981 303.737C300.246 300.008 298.009 296.28 299.003 291.308C299.998 286.336 309.942 287.578 312.676 291.059Z" fill="#AEBBFF" stroke="#263238" stroke-miterlimit="10" stroke-linecap="round" stroke-linejoin="round"/>
<path d="M307.467 314.079C307.814 313.33 308.218 312.54 308.699 311.694C312.692 304.666 319.657 305.234 324.13 306.537C327.02 312.442 325.369 318.319 320.632 319.899C315.821 321.501 309.753 317.616 307.467 314.079Z" fill="#FFE792" stroke="#263238" stroke-miterlimit="10" stroke-linecap="round" stroke-linejoin="round"/>
<path d="M308.699 311.694C310.19 313.931 312.179 319.898 319.886 317.412C322.916 316.434 324.552 315.15 325.434 313.95C324.968 316.779 323.284 319.013 320.631 319.898C315.411 321.638 308.699 316.914 306.958 313.185C305.218 309.456 305.715 307.468 302.981 303.739C300.246 300.01 298.009 296.281 299.003 291.309C299.003 297.275 301.241 298.269 303.975 301.501C306.71 304.733 307.207 309.456 308.699 311.694Z" fill="#FFE792" stroke="#263238" stroke-miterlimit="10" stroke-linecap="round" stroke-linejoin="round"/>
<path d="M324.337 205.291C324.337 200.816 316.631 195.844 316.631 195.844C305.024 184.038 284.089 185.6 276.357 186.659C268.624 185.6 247.689 184.039 236.083 195.844C236.083 195.844 228.376 200.816 228.376 205.291C228.376 209.766 238.072 290.562 238.072 290.562C238.072 290.562 237.823 294.788 244.784 295.285C251.745 295.782 254.728 291.805 254.728 291.805L257.463 223.439C257.463 223.439 268.65 215.483 270.638 215.235C271.374 215.142 272.317 214.983 273.373 214.855V214.986C274.362 214.757 275.371 214.679 276.356 214.674C277.342 214.679 278.351 214.759 279.339 214.986V214.855C280.397 214.983 281.338 215.142 282.074 215.235C284.063 215.483 295.25 223.439 295.25 223.439L297.984 291.805C297.984 291.805 300.968 295.782 307.928 295.285C314.889 294.788 314.641 290.562 314.641 290.562C314.641 290.562 324.337 209.766 324.337 205.291Z" fill="#263238" stroke="#263238" stroke-miterlimit="10" stroke-linecap="round" stroke-linejoin="round"/>
<path d="M295.251 223.439C295.251 223.439 293.759 207.031 300.969 200.816" stroke="#5162FF" stroke-miterlimit="10" stroke-linecap="round" stroke-linejoin="round"/>
<path d="M257.463 223.439C257.463 223.439 258.208 209.766 256.717 204.794C255.225 199.822 252.739 197.833 252.739 197.833" stroke="#5162FF" stroke-miterlimit="10" stroke-linecap="round" stroke-linejoin="round"/>
<path d="M266.661 190.872C266.661 190.872 274.616 200.07 276.108 207.777" stroke="#5162FF" stroke-miterlimit="10" stroke-linecap="round" stroke-linejoin="round"/>
<path d="M284.064 191.369C284.064 191.369 279.589 196.341 279.092 200.07" stroke="#5162FF" stroke-miterlimit="10" stroke-linecap="round" stroke-linejoin="round"/>
<path d="M272.876 94.6627C272.876 94.6627 265.667 93.6683 263.181 96.1543C260.695 98.6403 252.242 107.839 252.242 107.839L256.717 186.894C256.717 186.894 266.91 190.872 275.611 190.872C284.312 190.872 294.256 187.64 296.493 185.9C298.73 184.16 296.742 99.3861 296.742 99.3861C296.742 99.3861 278.345 93.9169 272.876 94.6627Z" fill="#00AC7C" stroke="#263238" stroke-miterlimit="10" stroke-linecap="round" stroke-linejoin="round"/>
<path d="M286.052 96.4029C286.052 96.4029 292.515 95.4085 297.487 95.4085C302.459 95.4085 307.431 95.6571 307.431 95.6571L319.861 83.7243L294.753 78.0065L296.742 66.5709C296.742 66.5709 315.138 65.3279 324.336 67.0681C333.534 68.8083 347.953 73.2831 348.699 73.2831C349.445 73.2831 350.439 76.0177 349.693 78.0065C348.948 79.9953 325.579 105.85 318.618 112.563C311.658 119.275 305.691 126.733 305.691 126.733L302.459 182.172C302.459 182.172 310.663 186.647 312.155 188.139C313.646 189.63 315.387 195.597 315.387 195.597C315.387 195.597 300.222 189.381 296.244 188.884C292.267 188.387 289.781 188.139 289.035 186.647C288.289 185.155 282.074 118.778 282.074 118.778L282.323 97.647C282.323 97.647 282.323 96.4029 286.052 96.4029Z" fill="#AEBBFF" stroke="#263238" stroke-miterlimit="10" stroke-linecap="round" stroke-linejoin="round"/>
<path d="M300.969 130.461L287.544 132.201L288.787 137.173L295.5 138.914L301.963 135.93L300.969 130.461Z" stroke="#263238" stroke-miterlimit="10" stroke-linecap="round" stroke-linejoin="round"/>
<path d="M308.676 100.629L305.692 126.732L313.399 104.607" stroke="#263238" stroke-miterlimit="10" stroke-linecap="round" stroke-linejoin="round"/>
<path d="M319.863 83.7243C319.863 83.7243 326.078 84.9673 335.524 81.2383" stroke="#263238" stroke-miterlimit="10" stroke-linecap="round" stroke-linejoin="round"/>
<path d="M326.326 85.4645C326.326 85.4645 332.79 85.7131 338.508 84.4701" stroke="#263238" stroke-miterlimit="10" stroke-linecap="round" stroke-linejoin="round"/>
<path d="M264.424 94.4141L265.667 112.562C265.667 112.562 269.147 117.534 275.362 117.285C281.577 117.037 282.323 112.562 282.323 112.562V97.6459L264.424 94.4141Z" fill="#FFE792" stroke="#263238" stroke-miterlimit="10" stroke-linecap="round" stroke-linejoin="round"/>
<path d="M282.571 103.861L282.074 118.777L287.295 110.573C287.295 110.573 293.013 117.782 294.504 117.534C295.996 117.285 293.51 114.302 293.013 111.568C292.515 108.833 288.289 99.1375 287.792 96.4029C287.295 93.6683 282.571 93.1711 282.323 94.4141C282.074 95.6571 282.323 97.6459 282.323 97.6459L282.571 103.861Z" fill="#AEBBFF" stroke="#263238" stroke-miterlimit="10" stroke-linecap="round" stroke-linejoin="round"/>
<path d="M265.418 117.285C265.418 117.285 266.412 186.894 263.926 187.64C261.44 188.386 251.496 188.635 245.281 191.618C239.066 194.601 236.083 195.844 236.083 195.844C236.083 195.844 239.066 188.635 242.547 185.403C246.027 182.171 250.253 180.182 250.253 180.182L243.79 146.87C243.79 146.87 231.857 115.298 231.608 113.556C231.36 111.816 254.231 98.8889 258.954 96.6515C263.678 94.4141 264.921 96.4029 264.921 96.4029L265.418 117.285Z" fill="#AEBBFF" stroke="#263238" stroke-miterlimit="10" stroke-linecap="round" stroke-linejoin="round"/>
<path d="M259.203 93.1711C259.203 93.1711 253.237 112.065 252.739 114.551C252.242 117.037 252.739 117.037 254.48 115.297C256.22 113.556 260.695 109.33 260.695 109.33L265.418 117.285L265.169 102.618V94.1655C265.169 94.1655 264.921 90.6851 259.203 93.1711Z" fill="#AEBBFF" stroke="#263238" stroke-miterlimit="10" stroke-linecap="round" stroke-linejoin="round"/>
<path d="M247.519 133.941H262.186L261.938 139.908L255.474 142.145L247.27 139.908L247.519 133.941Z" stroke="#263238" stroke-miterlimit="10" stroke-linecap="round" stroke-linejoin="round"/>
<path d="M287.792 68.5586C287.792 68.5586 291.272 83.7232 292.018 86.2092C292.764 88.6952 288.04 98.3906 286.549 100.628C285.057 102.865 282.82 104.108 281.08 104.108C279.339 104.108 269.893 100.877 267.655 99.385C265.418 97.8934 263.18 96.1532 263.18 96.1532C263.18 96.1532 259.7 97.8934 256.717 95.1588C253.734 92.4242 249.756 89.1924 250.75 86.955C251.745 84.7176 253.734 83.4746 256.468 83.4746C259.203 83.4746 258.208 83.226 258.208 83.226C258.208 83.226 253.236 76.0166 253.236 70.2988C253.236 64.581 263.926 60.3548 270.141 60.3548C276.356 60.3548 282.571 63.338 282.571 63.338L287.792 68.5586Z" fill="#FFE792" stroke="#263238" stroke-miterlimit="10" stroke-linecap="round" stroke-linejoin="round"/>
<path d="M279.091 74.2764L283.566 82.7299L279.091 85.7131L277.102 83.2271" stroke="#263238" stroke-miterlimit="10" stroke-linecap="round" stroke-linejoin="round"/>
<path d="M287.295 81.9841C287.295 81.9841 287.543 83.9729 284.56 87.2047" stroke="#263238" stroke-miterlimit="10" stroke-linecap="round" stroke-linejoin="round"/>
<path d="M274.368 77.385C274.368 78.5521 273.867 79.4981 273.249 79.4981C272.631 79.4981 272.13 78.5521 272.13 77.385C272.13 76.2179 272.631 75.2719 273.249 75.2719C273.867 75.2719 274.368 76.2168 274.368 77.385Z" fill="#263238"/>
<path d="M282.198 75.5194C282.816 75.5194 283.317 74.5733 283.317 73.4063C283.317 72.2393 282.816 71.2932 282.198 71.2932C281.58 71.2932 281.08 72.2393 281.08 73.4063C281.08 74.5733 281.58 75.5194 282.198 75.5194Z" fill="#263238"/>
<path d="M260.943 55.6314C260.943 55.6314 245.281 61.3492 244.784 68.5586C244.287 75.768 258.706 85.712 259.451 86.955C260.197 88.198 262.435 85.4634 262.435 85.4634C262.435 85.4634 260.694 83.226 261.44 80.74C262.186 78.254 265.418 75.2708 265.418 74.0278C265.418 72.7848 261.689 75.0222 261.689 71.2932C261.689 67.5642 270.887 65.3268 276.356 65.5754C281.825 65.824 286.549 75.0222 290.526 70.5474C294.504 66.0726 288.786 64.8296 288.786 64.8296C288.786 64.8296 296.493 63.8352 296.493 59.8576C296.493 55.88 292.515 53.1454 290.775 53.1454C289.035 53.1454 284.311 56.1286 284.311 52.8968C284.311 49.665 289.035 48.1734 284.56 42.9528C280.085 37.7322 274.367 42.9528 274.367 44.9416C274.367 46.9304 272.876 50.6594 271.881 50.6594C270.887 50.6594 267.904 46.1846 264.423 48.6706C260.943 51.1566 260.943 55.6314 260.943 55.6314Z" fill="#263238" stroke="#263238" stroke-miterlimit="10" stroke-linecap="round" stroke-linejoin="round"/>
<path d="M267.407 74.7736L275.362 71.7904" stroke="#263238" stroke-miterlimit="10" stroke-linecap="round" stroke-linejoin="round"/>
<path d="M276.605 68.31C276.605 68.31 276.323 67.3233 276.96 66.0264" stroke="#263238" stroke-miterlimit="10" stroke-linecap="round" stroke-linejoin="round"/>
<path d="M276.96 66.0264C277.519 64.8868 278.787 63.5063 281.577 62.3447" stroke="#FFE792" stroke-miterlimit="10" stroke-linecap="round" stroke-linejoin="round"/>
</svg>
