<svg width="1440" height="150" viewBox="0 0 1440 150" fill="none" xmlns="http://www.w3.org/2000/svg">
<path d="M0 72L16 78.4C32 84.8 64 97.6 96 109.6C128 121.6 160 132.8 192 128.8C224 124.8 256 105.6 288 94.08C320 82.72 352 78.88 384 73.28C416 67.68 448 60.32 480 59.68C512 59.2 544 65.6 576 82.4C608 99.2 640 126.4 672 139.68C704 153.12 736 152.48 768 137.12C800 121.6 832 91.2 864 90.08C896 89.12 928 117.28 960 117.92C992 118.4 1024 91.2 1056 85.28C1088 79.52 1120 94.88 1152 102.72C1184 110.4 1216 110.4 1248 101.92C1280 93.28 1312 76.32 1344 81.28C1376 86.4 1408 113.6 1424 127.2L1440 140.8V0H1424C1408 0 1376 0 1344 0C1312 0 1280 0 1248 0C1216 0 1184 0 1152 0C1120 0 1088 0 1056 0C1024 0 992 0 960 0C928 0 896 0 864 0C832 0 800 0 768 0C736 0 704 0 672 0C640 0 608 0 576 0C544 0 512 0 480 0C448 0 416 0 384 0C352 0 320 0 288 0C256 0 224 0 192 0C160 0 128 0 96 0C64 0 32 0 16 0H0V72Z" fill="#6292AA"/>
<path d="M0 99.2L16 96.8C32 94.4 64 89.6 96 82.72C128 75.68 160 66.72 192 68.8C224 70.88 256 84.32 288 80.48C320 76.8 352 56 384 56C416 56 448 76.8 480 80.32C512 83.68 544 69.92 576 61.6C608 53.28 640 50.72 672 48.8C704 46.88 736 45.92 768 46.72C800 47.52 832 50.08 864 51.68C896 53.28 928 53.92 960 57.92C992 61.92 1024 69.28 1056 71.2C1088 73.12 1120 69.28 1152 71.68C1184 74.08 1216 82.72 1248 80.48C1280 78.4 1312 65.6 1344 62.72C1376 59.68 1408 66.72 1424 70.08L1440 73.6V0H1424C1408 0 1376 0 1344 0C1312 0 1280 0 1248 0C1216 0 1184 0 1152 0C1120 0 1088 0 1056 0C1024 0 992 0 960 0C928 0 896 0 864 0C832 0 800 0 768 0C736 0 704 0 672 0C640 0 608 0 576 0C544 0 512 0 480 0C448 0 416 0 384 0C352 0 320 0 288 0C256 0 224 0 192 0C160 0 128 0 96 0C64 0 32 0 16 0H0V99.2Z" fill="#8EB4CA"/>
<path d="M0 32L16 36C32 40 64 48 96 46.4C128 44.8 160 33.6 192 31.68C224 29.92 256 37.28 288 37.6C320 37.92 352 30.88 384 29.12C416 27.2 448 30.4 480 33.6C512 36.8 544 40 576 41.6C608 43.2 640 43.2 672 40.8C704 38.4 736 33.6 768 37.12C800 40.48 832 52.32 864 58.4C896 64.48 928 65.12 960 59.52C992 53.92 1024 42.08 1056 39.68C1088 37.28 1120 44.32 1152 51.2C1184 58.08 1216 65.12 1248 66.88C1280 68.8 1312 65.6 1344 64.8C1376 64 1408 65.6 1424 66.4L1440 67.2V0H1424C1408 0 1376 0 1344 0C1312 0 1280 0 1248 0C1216 0 1184 0 1152 0C1120 0 1088 0 1056 0C1024 0 992 0 960 0C928 0 896 0 864 0C832 0 800 0 768 0C736 0 704 0 672 0C640 0 608 0 576 0C544 0 512 0 480 0C448 0 416 0 384 0C352 0 320 0 288 0C256 0 224 0 192 0C160 0 128 0 96 0C64 0 32 0 16 0H0V32Z" fill="#B9D7EA"/>
</svg>
