<svg width="1440" height="144" viewBox="0 0 1440 144" fill="none" xmlns="http://www.w3.org/2000/svg">
<g style="mix-blend-mode:multiply">
<path d="M0 5.82825L34.4 13.3282C68.8 20.8282 137.6 35.8282 206.08 34.3282C274.72 32.8282 342.88 14.8282 411.52 6.32825C480 -2.17175 548.8 -1.17176 617.28 3.82824C685.92 8.82825 754.08 17.8282 822.72 20.6282C891.2 23.5282 960 20.1283 1028.48 18.0283C1097.12 15.8283 1165.28 14.8282 1233.92 19.1282C1302.4 23.5282 1371.2 33.1283 1405.6 38.0283L1440 42.8282V143.828H1405.6C1371.2 143.828 1302.4 143.828 1233.92 143.828C1165.28 143.828 1097.12 143.828 1028.48 143.828C960 143.828 891.2 143.828 822.72 143.828C754.08 143.828 685.92 143.828 617.28 143.828C548.8 143.828 480 143.828 411.52 143.828C342.88 143.828 274.72 143.828 206.08 143.828C137.6 143.828 68.8 143.828 34.4 143.828H0V5.82825Z" fill="#B9D7EA"/>
<path d="M0 60.8281L34.4 60.628C68.8 60.528 137.6 60.128 206.08 60.3281C274.72 60.5281 342.88 61.128 411.52 61.128C480 61.128 548.8 60.5281 617.28 60.0281C685.92 59.5281 754.08 59.128 822.72 54.628C891.2 50.128 960 41.5281 1028.48 37.8281C1097.12 34.1281 1165.28 35.5281 1233.92 38.3281C1302.4 41.1281 1371.2 45.528 1405.6 47.628L1440 49.8281V143.828H1405.6C1371.2 143.828 1302.4 143.828 1233.92 143.828C1165.28 143.828 1097.12 143.828 1028.48 143.828C960 143.828 891.2 143.828 822.72 143.828C754.08 143.828 685.92 143.828 617.28 143.828C548.8 143.828 480 143.828 411.52 143.828C342.88 143.828 274.72 143.828 206.08 143.828C137.6 143.828 68.8 143.828 34.4 143.828H0V60.8281Z" fill="#86A0B3"/>
<path d="M0 44.8281L34.4 52.1281C68.8 59.5281 137.6 74.1281 206.08 77.1281C274.72 80.1281 342.88 71.5281 411.52 68.1281C480 64.8281 548.8 66.8281 617.28 65.5281C685.92 64.1281 754.08 59.5281 822.72 62.1281C891.2 64.8281 960 74.8281 1028.48 78.8281C1097.12 82.8281 1165.28 80.8281 1233.92 77.5281C1302.4 74.1281 1371.2 69.5281 1405.6 67.1281L1440 64.8281V143.828H1405.6C1371.2 143.828 1302.4 143.828 1233.92 143.828C1165.28 143.828 1097.12 143.828 1028.48 143.828C960 143.828 891.2 143.828 822.72 143.828C754.08 143.828 685.92 143.828 617.28 143.828C548.8 143.828 480 143.828 411.52 143.828C342.88 143.828 274.72 143.828 206.08 143.828C137.6 143.828 68.8 143.828 34.4 143.828H0V44.8281Z" fill="#576C7E"/>
<path d="M0 71.8281L34.4 74.0281C68.8 76.1281 137.6 80.5281 206.08 84.0281C274.72 87.5281 342.88 90.1281 411.52 92.3281C480 94.5281 548.8 96.1281 617.28 95.5281C685.92 94.8281 754.08 91.8281 822.72 92.5281C891.2 93.1281 960 97.5281 1028.48 100.628C1097.12 103.828 1165.28 105.828 1233.92 100.828C1302.4 95.8281 1371.2 83.8281 1405.6 77.8281L1440 71.8281V143.828H1405.6C1371.2 143.828 1302.4 143.828 1233.92 143.828C1165.28 143.828 1097.12 143.828 1028.48 143.828C960 143.828 891.2 143.828 822.72 143.828C754.08 143.828 685.92 143.828 617.28 143.828C548.8 143.828 480 143.828 411.52 143.828C342.88 143.828 274.72 143.828 206.08 143.828C137.6 143.828 68.8 143.828 34.4 143.828H0V71.8281Z" fill="#2B3D4D"/>
<path d="M0 108.828L34.4 109.528C68.8 110.128 137.6 111.528 206.08 111.128C274.72 110.828 342.88 108.828 411.52 110.028C480 111.128 548.8 115.528 617.28 117.828C685.92 120.128 754.08 120.528 822.72 117.628C891.2 114.828 960 108.828 1028.48 108.028C1097.12 107.128 1165.28 111.528 1233.92 113.028C1302.4 114.528 1371.2 113.128 1405.6 112.528L1440 111.828V143.828H1405.6C1371.2 143.828 1302.4 143.828 1233.92 143.828C1165.28 143.828 1097.12 143.828 1028.48 143.828C960 143.828 891.2 143.828 822.72 143.828C754.08 143.828 685.92 143.828 617.28 143.828C548.8 143.828 480 143.828 411.52 143.828C342.88 143.828 274.72 143.828 206.08 143.828C137.6 143.828 68.8 143.828 34.4 143.828H0V108.828Z" fill="#001220"/>
</g>
</svg>
