<svg width="1440" height="173" viewBox="0 0 1440 173" fill="none" xmlns="http://www.w3.org/2000/svg">
<path d="M0 0L13.28 6.4C26.72 12.8 53.28 25.6 80 31.52C106.72 37.28 133.28 36.32 160 33.6C186.72 30.88 213.28 26.72 240 20.32C266.72 13.92 293.28 5.27998 320 6.07998C346.72 6.87998 373.28 17.12 400 28.48C426.72 40 453.28 52.8 480 59.52C506.72 66.08 533.28 66.72 560 66.88C586.72 67.2 613.28 67.2 640 62.72C666.72 58.08 693.28 49.12 720 50.4C746.72 51.68 773.28 63.52 800 65.92C826.72 68.32 853.28 61.28 880 58.08C906.72 54.88 933.28 55.52 960 48.32C986.72 41.12 1013.28 26.08 1040 25.28C1066.72 24.48 1093.28 37.92 1120 34.72C1146.72 31.52 1173.28 11.68 1200 9.27998C1226.72 6.87998 1253.28 21.92 1280 33.92C1306.72 45.92 1333.28 54.88 1360 57.6C1386.72 60.32 1413.28 56.48 1426.72 54.72L1440 52.8V172.8H1426.72C1413.28 172.8 1386.72 172.8 1360 172.8C1333.28 172.8 1306.72 172.8 1280 172.8C1253.28 172.8 1226.72 172.8 1200 172.8C1173.28 172.8 1146.72 172.8 1120 172.8C1093.28 172.8 1066.72 172.8 1040 172.8C1013.28 172.8 986.72 172.8 960 172.8C933.28 172.8 906.72 172.8 880 172.8C853.28 172.8 826.72 172.8 800 172.8C773.28 172.8 746.72 172.8 720 172.8C693.28 172.8 666.72 172.8 640 172.8C613.28 172.8 586.72 172.8 560 172.8C533.28 172.8 506.72 172.8 480 172.8C453.28 172.8 426.72 172.8 400 172.8C373.28 172.8 346.72 172.8 320 172.8C293.28 172.8 266.72 172.8 240 172.8C213.28 172.8 186.72 172.8 160 172.8C133.28 172.8 106.72 172.8 80 172.8C53.28 172.8 26.72 172.8 13.28 172.8H0V0Z" fill="#D6E6F2"/>
<path d="M0 90.5856H13.28C26.72 90.5856 53.28 90.5856 80 81.7856C106.72 72.9856 133.28 55.3856 160 53.7856C186.72 52.1856 213.28 66.5856 240 72.1856C266.72 77.7856 293.28 74.5855 320 72.6655C346.72 70.9055 373.28 70.2655 400 73.4655C426.72 76.6655 453.28 83.7056 480 84.9856C506.72 86.2656 533.28 82.1056 560 77.3056C586.72 72.5056 613.28 67.0656 640 69.3056C666.72 71.3856 693.28 80.9856 720 74.1056C746.72 67.0656 773.28 43.7056 800 31.7056C826.72 19.7056 853.28 19.0656 880 30.9056C906.72 42.5856 933.28 66.5856 960 76.1856C986.72 85.7856 1013.28 80.9856 1040 78.9056C1066.72 76.6656 1093.28 77.3056 1120 76.1856C1146.72 75.0656 1173.28 72.5056 1200 70.9056C1226.72 69.3056 1253.28 68.6655 1280 61.4655C1306.72 54.2655 1333.28 40.5056 1360 38.1056C1386.72 35.7056 1413.28 44.6656 1426.72 49.3056L1440 53.7856V159.386H1426.72C1413.28 159.386 1386.72 159.386 1360 159.386C1333.28 159.386 1306.72 159.386 1280 159.386C1253.28 159.386 1226.72 159.386 1200 159.386C1173.28 159.386 1146.72 159.386 1120 159.386C1093.28 159.386 1066.72 159.386 1040 159.386C1013.28 159.386 986.72 159.386 960 159.386C933.28 159.386 906.72 159.386 880 159.386C853.28 159.386 826.72 159.386 800 159.386C773.28 159.386 746.72 159.386 720 159.386C693.28 159.386 666.72 159.386 640 159.386C613.28 159.386 586.72 159.386 560 159.386C533.28 159.386 506.72 159.386 480 159.386C453.28 159.386 426.72 159.386 400 159.386C373.28 159.386 346.72 159.386 320 159.386C293.28 159.386 266.72 159.386 240 159.386C213.28 159.386 186.72 159.386 160 159.386C133.28 159.386 106.72 159.386 80 159.386C53.28 159.386 26.72 159.386 13.28 159.386H0V90.5856Z" fill="#9DBBCE"/>
<path d="M0 87.6731L13.28 80.9531C26.72 74.3931 53.28 60.9531 80 58.3931C106.72 55.6731 133.28 63.6731 160 66.5531C186.72 69.5931 213.28 67.3531 240 71.1931C266.72 74.8731 293.28 84.4731 320 80.9531C346.72 77.5931 373.28 60.9531 400 60.7931C426.72 60.4731 453.28 76.4731 480 86.0731C506.72 95.6731 533.28 98.8731 560 90.5531C586.72 82.3931 613.28 62.5531 640 61.2731C666.72 59.9931 693.28 76.9531 720 87.6731C746.72 98.3931 773.28 102.553 800 95.6731C826.72 88.7931 853.28 70.5531 880 70.3931C906.72 70.0731 933.28 87.6731 960 91.6731C986.72 95.6731 1013.28 86.0731 1040 80.4731C1066.72 74.8731 1093.28 73.2731 1120 73.7531C1146.72 74.3931 1173.28 76.9531 1200 74.5531C1226.72 72.1531 1253.28 64.7931 1280 57.7531C1306.72 50.8731 1333.28 44.4731 1360 43.3531C1386.72 42.3931 1413.28 46.5531 1426.72 48.7931L1440 50.8731V146.873H1426.72C1413.28 146.873 1386.72 146.873 1360 146.873C1333.28 146.873 1306.72 146.873 1280 146.873C1253.28 146.873 1226.72 146.873 1200 146.873C1173.28 146.873 1146.72 146.873 1120 146.873C1093.28 146.873 1066.72 146.873 1040 146.873C1013.28 146.873 986.72 146.873 960 146.873C933.28 146.873 906.72 146.873 880 146.873C853.28 146.873 826.72 146.873 800 146.873C773.28 146.873 746.72 146.873 720 146.873C693.28 146.873 666.72 146.873 640 146.873C613.28 146.873 586.72 146.873 560 146.873C533.28 146.873 506.72 146.873 480 146.873C453.28 146.873 426.72 146.873 400 146.873C373.28 146.873 346.72 146.873 320 146.873C293.28 146.873 266.72 146.873 240 146.873C213.28 146.873 186.72 146.873 160 146.873C133.28 146.873 106.72 146.873 80 146.873C53.28 146.873 26.72 146.873 13.28 146.873H0V87.6731Z" fill="#6292AA"/>
<path d="M0 92.9729L13.28 94.8929C26.72 96.6529 53.28 100.493 80 97.2929C106.72 94.0929 133.28 83.8529 160 82.0929C186.72 80.1729 213.28 86.5729 240 91.0529C266.72 95.6929 293.28 98.2529 320 97.7729C346.72 97.2929 373.28 93.4529 400 95.3729C426.72 97.2929 453.28 104.653 480 107.853C506.72 111.053 533.28 110.093 560 107.053C586.72 104.173 613.28 99.3729 640 100.973C666.72 102.573 693.28 110.573 720 115.053C746.72 119.693 773.28 120.653 800 119.373C826.72 118.093 853.28 114.253 880 113.773C906.72 113.293 933.28 115.853 960 112.173C986.72 108.493 1013.28 98.2529 1040 90.2529C1066.72 82.2529 1093.28 76.4929 1120 79.8529C1146.72 83.3729 1173.28 96.1729 1200 95.3729C1226.72 94.5729 1253.28 80.1729 1280 72.6529C1306.72 65.2929 1333.28 64.6529 1360 69.4529C1386.72 74.2529 1413.28 84.4929 1426.72 89.4529L1440 94.5729V132.973H1426.72C1413.28 132.973 1386.72 132.973 1360 132.973C1333.28 132.973 1306.72 132.973 1280 132.973C1253.28 132.973 1226.72 132.973 1200 132.973C1173.28 132.973 1146.72 132.973 1120 132.973C1093.28 132.973 1066.72 132.973 1040 132.973C1013.28 132.973 986.72 132.973 960 132.973C933.28 132.973 906.72 132.973 880 132.973C853.28 132.973 826.72 132.973 800 132.973C773.28 132.973 746.72 132.973 720 132.973C693.28 132.973 666.72 132.973 640 132.973C613.28 132.973 586.72 132.973 560 132.973C533.28 132.973 506.72 132.973 480 132.973C453.28 132.973 426.72 132.973 400 132.973C373.28 132.973 346.72 132.973 320 132.973C293.28 132.973 266.72 132.973 240 132.973C213.28 132.973 186.72 132.973 160 132.973C133.28 132.973 106.72 132.973 80 132.973C53.28 132.973 26.72 132.973 13.28 132.973H0V92.9729Z" fill="#B9D7EA"/>
</svg>
